<svg width="100" height="43" viewBox="0 0 100 43" fill="none" xmlns="http://www.w3.org/2000/svg">
<path d="M14.5414 6.93512H11.1857C10.2163 6.93512 9.396 6.11484 9.396 5.14541V1.78971C9.396 0.820283 10.2163 0 11.1857 0H14.5414C15.5108 0 16.3311 0.820283 16.3311 1.78971V5.14541C16.4057 6.11484 15.5854 6.93512 14.5414 6.93512Z" fill="white"/>
<path d="M5.81659 14.5414H2.01343C0.894863 14.5414 0 13.6465 0 12.528V8.72485C0 7.60628 0.894863 6.71143 2.01343 6.71143H5.81659C6.93516 6.71143 7.82998 7.60628 7.82998 8.72485V12.528C7.90455 13.6465 6.93516 14.5414 5.81659 14.5414Z" fill="white"/>
<path d="M5.44374 22.3713H3.13201C2.46087 22.3713 1.86429 21.8493 1.86429 21.1036V18.7919C1.86429 18.1207 2.46087 17.5242 3.13201 17.5242H5.44374C6.11488 17.5242 6.71142 18.1207 6.71142 18.7919V21.1036C6.71142 21.8493 6.18945 22.3713 5.44374 22.3713Z" fill="white"/>
<path d="M11.7077 29.7539H8.94855C8.12826 29.7539 7.45712 29.0828 7.45712 28.2625V25.5034C7.45712 24.6831 8.12826 24.012 8.94855 24.012H11.7077C12.528 24.012 13.1991 24.6831 13.1991 25.5034V28.2625C13.1991 29.0828 12.528 29.7539 11.7077 29.7539Z" fill="white"/>
<path d="M21.7748 8.35218H19.9105C19.3139 8.35218 18.8665 7.90475 18.8665 7.30818V5.4439C18.8665 4.84733 19.3139 4.3999 19.9105 4.3999H21.7748C22.3714 4.3999 22.8188 4.84733 22.8188 5.4439V7.30818C22.7442 7.90475 22.2968 8.35218 21.7748 8.35218Z" fill="white"/>
<path d="M71.2155 25.6527C71.8121 25.6527 72.3341 25.1307 72.3341 24.5341C72.3341 23.9375 71.8121 23.4155 71.2155 23.4155C70.6189 23.4155 70.0969 23.9375 70.0969 24.5341C70.0969 25.2052 70.6189 25.6527 71.2155 25.6527Z" fill="white"/>
<path d="M31.2453 37.36C31.0962 37.5837 30.7979 37.7329 30.4996 37.7329C30.3505 37.7329 30.1268 37.6583 29.9776 37.5837C29.7539 37.4346 29.6048 37.1363 29.6048 36.838C29.6048 36.6889 29.6793 36.5397 29.7539 36.3906L32.2894 32.3638L29.7539 28.3369C29.6793 28.1878 29.6048 28.0386 29.6048 27.8895C29.6048 27.5912 29.7539 27.2929 30.0522 27.1438C30.2014 27.0692 30.3505 26.9946 30.4996 26.9946C30.7979 26.9946 31.0962 27.1438 31.2453 27.3675L33.3333 30.6486L35.4213 27.3675C35.5705 27.1438 35.8687 26.9946 36.167 26.9946C36.3162 26.9946 36.4653 27.0692 36.6145 27.1438C36.9128 27.2929 37.0619 27.5912 37.0619 27.8895C37.0619 28.0386 36.9873 28.1878 36.9127 28.3369L34.3773 32.3638L36.9127 36.3906C36.9873 36.5397 37.0619 36.6889 37.0619 36.838C37.0619 37.1363 36.9127 37.5092 36.689 37.5837C36.5399 37.6583 36.3162 37.7329 36.167 37.7329C35.8687 37.7329 35.5705 37.5837 35.4213 37.36L33.3333 34.0789L31.2453 37.36Z" fill="white"/>
<path d="M43.9224 28.7099C41.909 28.7099 40.2684 30.3504 40.2684 32.3639C40.2684 34.3773 41.909 36.0179 43.9224 36.0179C46.0104 36.0179 47.5765 34.3773 47.5765 32.3639C47.5765 30.3504 46.0104 28.7099 43.9224 28.7099ZM40.2684 28.337C41.2379 27.4422 42.5056 26.9202 43.9224 26.9202C46.9799 26.9202 49.3661 29.381 49.3661 32.4384C49.3661 35.4213 46.9053 37.8821 43.9224 37.8821C42.5056 37.8821 41.2379 37.3601 40.2684 36.4653V41.1633C40.2684 41.6107 39.8211 42.0581 39.3736 42.0581C38.9262 42.0581 38.4788 41.6853 38.4788 41.1633V27.8896C38.4788 27.4422 38.9262 26.9947 39.3736 26.9947C39.8956 26.9947 40.2684 27.3676 40.2684 27.8896V28.337Z" fill="white"/>
<path d="M64.8769 31.3944V36.9127C64.8769 37.3601 64.4295 37.8076 63.9821 37.8076C63.4601 37.8076 63.0872 37.4347 63.0872 36.9127V27.8896C63.0872 27.4422 63.5347 26.9947 63.9821 26.9947C64.4295 26.9947 64.8769 27.3676 64.8769 27.815C65.6226 27.2185 66.5921 26.9202 67.6361 26.9202C68.2326 26.9202 68.6055 27.3676 68.6055 27.815C68.6055 28.337 68.1581 28.7099 67.6361 28.7099C66.2192 28.7844 64.8769 29.3064 64.8769 31.3944Z" fill="white"/>
<path d="M71.2155 26.9946C70.6935 26.9946 70.3207 27.3675 70.3207 27.8895V36.9126C70.3207 37.36 70.7681 37.8075 71.2155 37.8075C71.6629 37.8075 72.1104 37.4346 72.1104 36.9126V27.8895C72.1104 27.4421 71.6629 26.9946 71.2155 26.9946Z" fill="white"/>
<path d="M79.0455 36.0179C81.0589 36.0179 82.6995 34.3773 82.6995 32.3639C82.6995 30.3504 81.0589 28.7099 79.0455 28.7099C76.9575 28.7099 75.3915 30.3504 75.3915 32.3639C75.3915 34.4519 77.032 36.0179 79.0455 36.0179ZM82.6995 27.8896C82.6995 27.4422 83.1469 26.9947 83.5943 26.9947C84.0418 26.9947 84.4892 27.3676 84.4892 27.8896V36.9127C84.4892 37.3601 84.0418 37.8076 83.5943 37.8076C83.0723 37.8076 82.6995 37.4347 82.6995 36.9127V36.4653C81.73 37.3601 80.4623 37.8821 79.0455 37.8821C75.988 37.8821 73.6018 35.4213 73.6018 32.3639C73.6018 29.381 76.0626 26.9202 79.0455 26.9202C80.4623 26.9202 81.73 27.4422 82.6995 28.337V27.8896Z" fill="white"/>
<path d="M93.6615 31.5436C93.6615 30.0522 92.3192 28.7099 90.8278 28.7099C89.3363 28.7099 87.994 29.3064 87.994 31.3944V36.9127C87.994 37.3601 87.5466 37.8076 87.0992 37.8076C86.5772 37.8076 86.2043 37.4347 86.2043 36.9127V27.8896C86.2043 27.4422 86.6518 26.9947 87.0992 26.9947C87.5466 26.9947 87.994 27.3676 87.994 27.815C88.7397 27.2185 89.7092 26.9202 90.7532 26.9202C93.214 26.9202 95.3766 28.859 95.3766 31.2453V36.8381C95.3766 37.2856 94.9292 37.733 94.4817 37.733C93.9597 37.733 93.5869 37.3601 93.5869 36.8381V31.5436H93.6615Z" fill="white"/>
<path d="M23.6391 28.7099C25.2797 28.7099 26.6219 29.7539 27.1439 31.2453H20.2088C20.6563 29.7539 21.9985 28.7099 23.6391 28.7099ZM29.0828 32.0656C29.0082 29.3064 26.5474 26.9202 23.6391 26.9202C20.5817 26.9202 18.1954 29.381 18.1954 32.3639C18.1954 35.4213 20.6562 37.8821 23.6391 37.8821C25.1305 37.8821 26.4728 37.2856 27.4423 36.3161C27.666 36.167 27.7405 35.8687 27.7405 35.645C27.7405 35.123 27.2931 34.7501 26.8456 34.7501C26.5474 34.7501 26.3236 34.8993 26.0999 35.123C25.5034 35.7941 24.6085 36.0924 23.6391 36.0924C21.8494 36.0924 20.358 34.8247 19.9851 33.1096H28.188C28.188 33.1096 28.1879 33.1096 28.2625 33.1096H28.3371C28.7845 32.8859 29.0828 32.513 29.0828 32.0656Z" fill="white"/>
<path d="M56.1521 28.7099C57.7927 28.7099 59.1349 29.7539 59.6569 31.2453H52.7218C53.0947 29.7539 54.5116 28.7099 56.1521 28.7099ZM61.5958 32.0656C61.5213 29.3064 59.0604 26.9202 56.1521 26.9202C53.0947 26.9202 50.6339 29.381 50.6339 32.3639C50.6339 35.4213 53.0947 37.8821 56.1521 37.8821C57.6436 37.8821 58.9858 37.2856 59.9552 36.3161C60.179 36.167 60.2536 35.8687 60.2536 35.645C60.2536 35.123 59.8061 34.7501 59.3587 34.7501C59.0604 34.7501 58.8367 34.8993 58.613 35.123C58.0164 35.7941 57.1216 36.0924 56.1521 36.0924C54.3624 36.0924 52.871 34.8247 52.4981 33.1096H60.701H60.7755H60.8501C61.223 32.9604 61.5958 32.5876 61.5958 32.0656Z" fill="white"/>
<path d="M20.1342 15.138C20.5817 13.6466 21.9985 12.6026 23.6391 12.6026C25.2797 12.6026 26.6219 13.6466 27.1439 15.138H20.1342ZM23.6391 10.8875C20.5817 10.8875 18.1208 13.3483 18.1208 16.3311C18.1208 19.3886 20.5817 21.7748 23.6391 21.7748C25.1305 21.7748 26.4728 21.1783 27.4422 20.2089C27.666 20.0597 27.7405 19.7614 27.7405 19.5377C27.7405 19.0157 27.2931 18.6429 26.8456 18.6429C26.5474 18.6429 26.3236 18.792 26.0999 19.0157C25.5034 19.6869 24.6085 19.9851 23.6391 19.9851C21.8494 19.9851 20.358 18.7174 19.9851 17.0023H28.1134H28.188H28.2625C28.6354 16.9277 29.0082 16.5549 29.0082 16.0329C29.0828 13.1992 26.5474 10.8875 23.6391 10.8875Z" fill="white"/>
<path d="M41.1633 19.9851C39.0753 19.9851 37.5093 18.3446 37.5093 16.3311C37.5093 14.3177 39.1499 12.6772 41.1633 12.6772C43.1767 12.6772 44.8173 14.3177 44.8173 16.3311C44.7427 18.3446 43.1767 19.9851 41.1633 19.9851ZM45.7122 10.962C45.1902 10.962 44.8173 11.3349 44.8173 11.8569V12.3043C43.8479 11.4095 42.5801 10.8875 41.1633 10.8875C38.1059 10.8875 35.7196 13.3483 35.7196 16.3311C35.7196 19.3886 38.1804 21.7748 41.1633 21.7748C42.5801 21.7748 43.8479 21.2528 44.8173 20.358V20.8054C44.8173 21.2528 45.2647 21.7003 45.7122 21.7003C46.1596 21.7003 46.607 21.3274 46.607 20.8054V11.7823C46.607 11.3349 46.1596 10.962 45.7122 10.962Z" fill="white"/>
<path d="M61.1484 19.9851C59.0604 19.9851 57.4944 18.3446 57.4944 16.3311C57.4944 14.3177 59.1349 12.6772 61.1484 12.6772C63.1618 12.6772 64.8024 14.3177 64.8024 16.3311C64.8024 18.3446 63.1618 19.9851 61.1484 19.9851ZM65.6972 10.962C65.1752 10.962 64.8024 11.3349 64.8024 11.8569V12.3043C63.833 11.4095 62.5652 10.8875 61.1484 10.8875C58.091 10.8875 55.7047 13.3483 55.7047 16.3311C55.7047 19.3886 58.1655 21.7748 61.1484 21.7748C62.5652 21.7748 63.833 21.2528 64.8024 20.358V20.8054C64.8024 21.2528 65.2498 21.7003 65.6972 21.7003C66.1447 21.7003 66.5921 21.3274 66.5921 20.8054V11.7823C66.5921 11.3349 66.1447 10.962 65.6972 10.962Z" fill="white"/>
<path d="M35.0485 10.8875C34.0045 10.8875 33.0351 11.2603 32.2894 11.7823C32.2894 11.3349 31.8419 10.962 31.3945 10.962C30.8725 10.962 30.4996 11.3349 30.4996 11.8569V20.88C30.4996 21.3274 30.9471 21.7748 31.3945 21.7748C31.8419 21.7748 32.2894 21.402 32.2894 20.88V15.3617C32.2894 13.2737 33.6316 12.7517 35.0485 12.6772C35.5705 12.6772 36.0179 12.2297 36.0179 11.7823C36.0179 11.2603 35.645 10.8875 35.0485 10.8875Z" fill="white"/>
<path fill-rule="evenodd" clip-rule="evenodd" d="M15.4363 16.1074C14.7651 15.7346 14.094 15.4363 13.4228 15.0634C13.1245 14.9143 12.9008 14.6906 12.6771 14.5414C12.1551 14.0194 12.2297 13.2737 12.8263 12.9008C12.9754 12.8263 13.1991 12.7517 13.4228 12.6771C14.0194 12.6026 14.616 12.7517 15.138 13.05C15.4363 13.1991 15.7345 13.3483 16.0328 13.3483C16.3311 13.4228 16.6294 13.2737 16.8531 12.9754C17.0768 12.7517 17.0768 12.4534 16.8531 12.1551C16.704 11.9314 16.5548 11.7077 16.3311 11.5586C15.5854 10.962 14.6905 10.7383 13.7957 10.7383C13.1245 10.7383 12.4534 10.8874 11.8569 11.2603C10.5146 12.006 10.0671 13.4228 10.5891 14.7651C10.8874 15.4363 11.3349 15.8837 12.006 16.2566C12.528 16.5548 13.1246 16.8531 13.6466 17.0768C14.094 17.3005 14.5414 17.5988 14.9143 17.9717C15.3617 18.4191 15.4363 19.0157 15.138 19.3885C14.9143 19.6868 14.5414 19.836 14.1685 19.9105C13.4228 20.0597 12.7517 19.836 12.0806 19.4631C11.8568 19.314 11.6332 19.1648 11.4094 19.0903C10.7383 18.8665 10.0671 19.314 10.2163 19.9851C10.2909 20.2834 10.44 20.5071 10.6637 20.7308C11.8569 21.7748 14.0194 21.9985 15.4363 21.3274C17.0023 20.5817 17.5243 18.8665 16.704 17.3751C16.5548 16.8531 16.0328 16.4057 15.4363 16.1074Z" fill="white"/>
<path fill-rule="evenodd" clip-rule="evenodd" d="M53.0202 16.1074C52.349 15.7346 51.6779 15.4363 51.0067 15.0634C50.7084 14.9143 50.4847 14.6906 50.261 14.5414C49.739 14.0194 49.8136 13.2737 50.4102 12.9008C50.5593 12.8263 50.783 12.7517 51.0067 12.6771C51.6033 12.6026 52.1999 12.7517 52.7219 13.05C53.0201 13.1991 53.3184 13.3483 53.6167 13.3483C53.915 13.4228 54.2133 13.2737 54.437 12.9754C54.6607 12.7517 54.6607 12.4534 54.437 12.1551C54.2878 11.9314 54.1387 11.7077 53.915 11.5586C53.1693 10.962 52.2744 10.7383 51.3796 10.7383C50.7084 10.7383 50.0373 10.8874 49.4408 11.2603C48.0985 12.006 47.651 13.4228 48.173 14.7651C48.4713 15.4363 48.9187 15.8837 49.5899 16.2566C50.1119 16.5548 50.7084 16.8531 51.2304 17.0768C51.6779 17.3005 52.1253 17.5988 52.4982 17.9717C52.9456 18.4191 53.0201 19.0157 52.7219 19.3885C52.4981 19.6868 52.1253 19.836 51.7524 19.9105C51.0067 20.0597 50.3356 19.836 49.6645 19.4631C49.4407 19.314 49.217 19.1648 48.9933 19.0903C48.3222 18.8665 47.651 19.314 47.8002 19.9851C47.8747 20.2834 48.0239 20.5071 48.2476 20.7308C49.4407 21.7748 51.6033 21.9985 53.0202 21.3274C54.5862 20.5817 55.1082 18.8665 54.2879 17.3751C54.1387 16.8531 53.6167 16.4057 53.0202 16.1074Z" fill="white"/>
<path d="M97.39 37.733C97.3154 37.733 97.2408 37.6585 97.2408 37.5839V36.0925H96.868C96.7934 36.0925 96.7188 36.0179 96.7188 35.9433C96.7188 35.8688 96.7934 35.7942 96.868 35.7942H97.8374C97.912 35.7942 97.9866 35.8688 97.9866 35.9433C97.9866 36.0179 97.912 36.0925 97.8374 36.0925H97.4646V37.5839C97.5391 37.733 97.4646 37.733 97.39 37.733Z" fill="white"/>
<path d="M99.1051 37.733C99.0306 37.733 98.956 37.6584 98.956 37.5839L98.5086 36.3162V37.5093C98.5086 37.5839 98.434 37.6584 98.3594 37.6584C98.2848 37.6584 98.2103 37.5839 98.2103 37.5093V35.8687C98.2103 35.7196 98.2848 35.645 98.434 35.645C98.5085 35.645 98.5831 35.7196 98.6577 35.7942L99.1051 37.0619L99.5525 35.7942C99.5525 35.7196 99.7017 35.645 99.7763 35.645C99.9254 35.645 100 35.7196 100 35.8687V37.5093C100 37.5839 99.9254 37.6584 99.8508 37.6584C99.7763 37.6584 99.7017 37.5839 99.7017 37.5093V36.3907C99.6271 36.6144 99.5526 36.9127 99.478 37.1364C99.3288 37.6584 99.3288 37.6584 99.3288 37.6584C99.2543 37.733 99.1797 37.733 99.1051 37.733Z" fill="white"/>
</svg>
