<svg width="550" height="334" viewBox="0 0 550 334" fill="none" xmlns="http://www.w3.org/2000/svg">
<path d="M227.502 113.115C227.502 113.115 244.485 117.329 247.294 152.317C248.954 172.875 250.998 193.69 250.998 193.69L288.412 202.5L294.924 222.931L246.017 232.508C232.482 232.508 217.542 220.761 217.925 207.225L217.414 160.106L227.502 113.115Z" fill="#AE9BBA"/>
<path d="M137.733 113.37L130.199 165.98C129.05 173.642 129.689 181.303 131.859 188.71L141.181 220.761C141.181 220.761 128.412 236.978 139.01 243.362C141.053 244.639 197.239 247.193 197.239 247.193L224.437 245.278L228.14 167.385L227.63 113.115C227.63 113.115 208.731 106.22 201.325 105.453C196.728 104.943 176.552 104.304 160.08 105.836L137.733 113.37Z" fill="#AE9BBA"/>
<path d="M224.82 166.874C224.182 166.619 223.543 166.746 222.777 166.746C220.096 166.874 217.542 165.086 216.648 162.66C216.265 163.937 215.754 165.214 214.86 166.235C213.966 167.257 212.434 167.896 211.285 167.385C209.88 166.874 209.242 165.342 208.348 164.32C205.922 161.766 200.814 162.915 199.665 166.235C199.154 167.768 198.771 169.939 197.239 169.939C195.451 169.939 195.451 167.002 194.046 165.852C192.642 164.703 190.471 165.852 189.194 167.257C187.917 168.662 186.64 170.449 184.725 170.322C182.937 170.322 181.66 168.662 181.149 167.002C180.638 165.342 180.638 163.554 180 161.894C179.361 160.234 177.829 158.702 176.169 158.957C173.998 159.34 173.232 161.894 172.721 163.937C172.211 165.98 170.551 168.534 168.508 167.896C165.571 167.129 166.72 161.766 164.038 160.234C162.123 159.085 159.697 160.745 158.803 162.66C157.781 164.575 157.526 166.874 156.377 168.662C155.227 170.449 152.29 171.471 150.886 169.811C150.375 169.172 150.247 168.406 149.737 167.896C148.843 166.874 147.055 167.129 145.906 167.768C144.629 168.406 143.607 169.428 142.33 170.066C141.053 170.577 138.116 170.066 137.606 168.789L133.775 175.557C133.136 176.962 131.476 178.749 132.498 179.26C133.52 179.899 134.924 179.26 135.18 178.111C136.712 178.877 138.755 178.877 139.904 177.728C140.798 176.834 141.692 175.429 142.969 175.685C143.607 175.813 143.99 176.451 144.373 176.962C145.906 178.622 148.843 178.877 150.63 177.473C151.652 176.706 152.29 175.685 153.184 174.791C154.078 173.897 155.355 173.259 156.504 173.769C157.909 174.408 158.164 176.196 158.037 177.6C157.909 179.133 157.654 180.665 158.42 181.942C159.441 183.602 161.867 183.602 163.655 182.58C165.315 181.686 166.464 180.026 167.869 178.622C169.274 177.217 171.061 176.068 172.977 176.451C175.148 176.962 176.808 179.388 179.106 179.133C180.638 179.005 181.788 177.473 183.32 177.345C184.98 177.217 186.385 178.877 188.045 179.388C191.748 180.537 195.195 175.94 199.026 176.323C202.602 176.706 205.411 181.048 208.731 179.899C211.668 178.749 211.668 174.28 214.35 172.492C215.882 171.471 218.053 171.599 219.84 171.854C221.756 172.109 223.799 172.237 225.331 171.216C226.48 170.449 226.608 167.512 224.82 166.874Z" fill="white"/>
<path d="M227.757 163.809C227.374 162.915 227.63 161.894 228.396 161.255C229.162 160.617 230.311 160.617 230.95 161.255C231.844 161.894 231.971 163.043 232.099 164.192C232.099 165.214 232.099 166.363 232.61 167.257C233.12 168.151 234.397 168.789 235.291 168.151C235.93 167.64 235.93 166.619 236.057 165.852C236.185 164.959 236.568 164.065 237.462 163.937C238.356 163.937 238.867 164.831 238.994 165.725C239.122 166.491 239.25 167.512 239.888 168.023C240.782 167.768 241.037 166.491 241.293 165.597C241.548 164.703 242.442 163.554 243.208 164.065C243.591 164.32 243.847 164.831 243.974 165.214C244.23 165.597 244.613 166.108 245.124 165.852C245.89 165.597 245.507 164.065 246.273 163.809C246.784 163.682 247.167 164.192 247.55 164.575C248.061 165.469 248.571 166.235 248.571 167.257C248.571 168.279 247.933 169.3 246.911 169.3C246.273 169.3 245.762 169.045 245.251 168.917C244.102 168.662 242.825 169.428 242.187 170.449C241.548 171.471 241.293 172.748 241.037 173.897C239.633 172.492 236.824 172.62 235.547 174.28C234.525 175.685 234.142 177.983 232.482 178.366C231.333 178.622 230.183 177.6 229.8 176.579C229.417 175.429 229.545 174.28 229.673 173.131C228.907 173.769 228.14 174.408 227.374 175.046C227.247 174.025 226.991 173.003 226.863 171.982" fill="white"/>
<g opacity="0.3">
<path d="M134.796 236.978L164.804 227.656L183.831 225.868C183.831 225.868 189.322 235.445 194.174 234.935C199.026 234.424 202.346 232.381 202.346 232.381C202.346 232.381 204.134 242.341 208.986 241.702C213.839 240.936 211.285 211.056 211.285 211.056L160.591 200.84L130.583 208.63L134.796 236.978Z" fill="black"/>
</g>
<path d="M137.733 113.37C137.733 113.37 122.155 118.861 116.281 127.672C108.492 139.292 86.656 172.876 76.3128 199.053C73.1204 207.225 75.802 219.867 80.5267 227.273C86.9114 237.233 99.0422 241.83 110.279 238.51L165.06 223.059L170.168 192.285L122.41 194.328L135.818 172.365L137.733 113.37Z" fill="#AE9BBA"/>
<path d="M95.0837 162.022C96.233 160.489 98.9145 160.617 99.8084 162.277C100.702 163.554 100.702 165.852 102.235 166.108C103.384 166.363 104.278 165.214 105.044 164.32C105.81 163.426 107.087 162.66 107.981 163.426C108.747 164.192 108.364 165.725 109.258 166.363C110.024 166.874 111.045 166.108 111.684 165.214C112.322 164.32 112.961 163.426 113.855 163.554C115.898 163.682 115.387 167.895 117.43 167.895C118.452 167.895 119.09 166.746 119.984 166.363C121.261 165.852 122.538 166.746 123.559 167.64C124.198 168.151 124.836 168.789 125.219 169.555C125.602 170.322 125.602 171.343 124.964 171.982C124.07 172.875 122.538 172.492 121.389 171.854C120.239 171.215 119.09 170.449 117.813 170.705C115.642 171.215 114.876 174.791 112.705 174.536C110.662 174.28 110.152 171.088 108.236 170.832C106.193 170.577 104.661 173.897 102.745 173.131C101.851 172.748 101.468 171.599 100.702 171.088C99.9361 170.577 98.9145 170.832 98.0207 171.215C97.1268 171.599 96.4884 172.237 95.5945 172.492C94.7006 172.748 93.5514 172.62 93.0406 171.854C92.5299 171.088 93.1683 169.811 94.0622 169.939C93.296 169.811 92.6575 169.683 91.8914 169.555C91.8914 168.917 91.8914 168.406 91.8914 167.768" fill="white"/>
<path d="M227.247 143.889C227.247 143.889 227.374 144.783 227.374 146.315C227.374 147.848 227.502 150.146 227.502 153.083C227.502 158.702 227.502 166.619 226.991 175.174C226.608 183.857 225.97 191.646 225.459 197.265C225.203 200.074 224.948 202.373 224.693 203.905C225.203 225.996 224.31 206.331 224.31 206.331C224.31 206.331 224.31 205.437 224.437 203.905C224.565 202.245 224.693 199.947 224.948 197.265C225.331 191.646 225.842 183.857 226.353 175.174C226.736 166.491 226.991 158.702 226.991 153.083C226.991 150.401 227.119 148.103 227.119 146.443C227.247 144.783 227.247 143.889 227.247 143.889Z" fill="#263238"/>
<path d="M230.439 114.775C230.567 114.903 228.523 117.712 226.991 121.798C225.459 125.884 225.203 129.46 224.948 129.332C224.82 129.332 224.693 125.629 226.225 121.415C227.757 117.329 230.311 114.647 230.439 114.775Z" fill="#263238"/>
<path d="M143.607 141.974C143.48 141.974 143.352 140.569 142.841 138.398C142.33 136.227 141.309 133.163 139.521 130.226C137.733 127.289 135.563 124.863 133.903 123.33C132.243 121.798 130.966 121.032 131.093 120.904C131.093 120.904 131.476 121.032 131.987 121.415C132.498 121.798 133.264 122.309 134.158 122.947C135.946 124.352 138.244 126.778 140.032 129.843C141.82 132.907 142.841 135.972 143.224 138.271C143.48 139.42 143.48 140.314 143.607 140.952C143.607 141.718 143.607 141.974 143.607 141.974Z" fill="#263238"/>
<path d="M121.899 194.583C121.899 194.839 117.813 195.733 113.216 198.159C108.619 200.585 105.555 203.65 105.427 203.522C105.427 203.522 106.065 202.628 107.342 201.479C108.619 200.33 110.535 198.797 112.833 197.52C115.132 196.243 117.43 195.477 119.09 194.966C120.878 194.583 121.899 194.456 121.899 194.583Z" fill="#263238"/>
<path d="M144.629 154.105C144.629 154.105 144.373 154.743 143.99 155.765C143.48 156.786 142.841 158.318 141.82 160.106C140.032 163.809 137.35 168.917 134.286 174.28C131.221 179.771 128.284 184.623 125.986 188.071C124.836 189.859 123.942 191.263 123.304 192.157C122.666 193.051 122.282 193.69 122.282 193.562C122.282 193.562 122.538 192.923 123.176 192.03C123.815 190.88 124.709 189.476 125.602 187.816C127.773 184.24 130.583 179.388 133.647 173.897C136.712 168.406 139.393 163.426 141.436 159.723C142.33 157.935 143.096 156.531 143.735 155.381C144.246 154.615 144.629 154.105 144.629 154.105Z" fill="#263238"/>
<path d="M105.427 239.532C105.427 239.532 105.555 239.532 105.682 239.404C105.938 239.276 106.193 239.276 106.576 239.148C107.342 238.893 108.492 238.638 110.024 238.127C113.089 237.233 117.302 236.084 122.666 234.551C133.392 231.615 148.332 227.401 165.187 222.804L164.932 223.059C165.443 220.122 165.954 217.057 166.464 213.865C167.741 206.331 168.891 198.925 170.04 192.285L170.295 192.668C155.994 192.285 143.735 193.306 134.924 193.945C130.583 194.328 127.135 194.583 124.709 194.839C123.559 194.966 122.666 194.966 122.027 195.094C121.772 195.094 121.516 195.094 121.261 195.094C121.133 195.094 121.006 195.094 121.006 195.094C121.006 195.094 121.133 195.094 121.261 195.094C121.389 195.094 121.644 195.094 121.899 194.966C122.538 194.839 123.432 194.839 124.581 194.711C127.007 194.456 130.455 194.073 134.796 193.69C143.48 192.923 155.866 191.774 170.168 192.157H170.551V192.54C169.401 199.308 168.252 206.587 166.975 214.12C166.464 217.313 165.954 220.377 165.443 223.314V223.57H165.187C148.332 228.167 133.392 232.253 122.666 235.062C117.302 236.467 113.089 237.616 110.024 238.382C108.619 238.765 107.47 239.021 106.576 239.276C106.193 239.404 105.938 239.404 105.682 239.532C105.555 239.532 105.427 239.532 105.427 239.532Z" fill="#263238"/>
<path d="M195.196 293.929C195.196 293.929 250.87 309.38 253.041 310.146C256.361 311.295 255.85 323.554 250.615 323.426C248.188 323.298 207.837 324.958 202.729 324.575C197.622 324.32 182.298 318.191 182.298 318.191L195.196 293.929Z" fill="#A36986"/>
<path d="M218.308 315.254C218.563 315.254 218.947 312.317 220.734 309.252C222.522 306.188 224.82 304.4 224.693 304.144C224.565 303.889 221.883 305.549 219.968 308.741C218.053 312.061 218.053 315.254 218.308 315.254Z" fill="#263238"/>
<path d="M212.562 312.572C212.817 312.572 213.456 310.018 214.86 307.081C216.265 304.144 218.053 302.101 217.925 301.974C217.797 301.846 215.626 303.634 214.094 306.698C212.434 309.763 212.306 312.572 212.562 312.572Z" fill="#263238"/>
<path d="M207.071 311.168C207.326 311.168 207.199 308.358 208.348 305.294C209.497 302.229 211.54 300.314 211.413 300.058C211.285 299.803 208.859 301.591 207.454 304.911C206.177 308.231 206.816 311.168 207.071 311.168Z" fill="#263238"/>
<path d="M208.093 303.889C208.22 303.889 208.731 302.357 208.731 299.803C208.731 298.526 208.603 296.994 208.22 295.206C207.965 294.312 207.709 293.546 207.454 292.652C207.326 292.269 207.071 291.758 206.56 291.247C206.049 290.737 205.156 290.864 204.645 291.375C204.134 291.758 204.006 292.397 203.879 292.907C203.879 293.418 203.751 293.929 203.751 294.44C203.751 295.334 203.879 296.355 204.134 297.121C204.517 298.781 205.156 300.186 205.794 301.335C207.071 303.634 208.22 304.783 208.348 304.655C208.476 304.528 207.582 303.251 206.433 300.952C205.922 299.803 205.283 298.398 205.028 296.866C204.9 296.1 204.773 295.206 204.773 294.312C204.773 293.418 204.773 292.397 205.283 292.014C205.539 291.758 205.794 291.758 206.049 292.014C206.305 292.141 206.56 292.524 206.688 293.035C207.071 293.929 207.326 294.695 207.582 295.461C207.965 297.121 208.22 298.526 208.348 299.803C208.22 302.357 207.965 303.889 208.093 303.889Z" fill="#263238"/>
<path d="M207.965 303.378C207.965 303.251 206.688 302.868 204.389 302.74C203.24 302.74 201.963 302.867 200.431 303.251C199.665 303.506 198.899 303.634 198.132 304.144C197.366 304.528 196.6 305.549 196.856 306.698C197.111 307.72 198.005 308.486 198.899 308.741C199.792 308.997 200.686 308.869 201.452 308.741C202.985 308.358 204.134 307.592 205.028 306.954C206.816 305.549 207.709 304.528 207.582 304.4C207.454 304.272 206.433 305.166 204.645 306.443C203.751 307.081 202.602 307.592 201.197 307.975C200.559 308.103 199.792 308.103 199.154 307.975C198.516 307.848 198.005 307.337 197.749 306.698C197.622 306.06 198.005 305.549 198.516 305.166C199.154 304.783 199.792 304.528 200.559 304.4C201.963 304.017 203.24 303.889 204.262 303.761C206.56 303.251 207.965 303.506 207.965 303.378Z" fill="#263238"/>
<path d="M226.864 315.765C227.119 315.765 226.863 313.338 228.013 310.785C229.034 308.103 230.95 306.698 230.694 306.443C230.567 306.188 228.268 307.592 227.119 310.401C225.97 313.338 226.608 315.892 226.864 315.765Z" fill="#263238"/>
<path d="M188.045 318.318C188.045 318.318 188.811 318.702 190.215 319.34C191.62 319.851 193.791 320.617 196.345 321.255C201.708 322.66 209.242 323.298 217.542 323.298C225.842 323.171 233.376 322.788 238.867 322.66C241.421 322.532 243.591 322.405 245.251 322.277C246.784 322.149 247.55 322.149 247.55 322.022C247.55 321.894 246.656 321.894 245.124 321.894C243.464 321.894 241.293 321.894 238.611 321.894C232.993 322.022 225.587 322.149 217.286 322.277C208.986 322.405 201.452 321.766 196.217 320.489C191.237 319.595 188.172 318.191 188.045 318.318Z" fill="#263238"/>
<path d="M186.385 319.595C186.512 319.723 188.045 318.829 190.599 317.68C193.152 316.531 196.983 315.254 201.069 315.892C205.283 316.531 208.22 319.34 210.136 321.255C212.051 323.298 213.2 324.575 213.328 324.575C213.456 324.448 212.434 323.043 210.646 320.872C209.753 319.851 208.476 318.574 206.943 317.425C205.411 316.275 203.368 315.381 201.197 314.998C196.728 314.36 192.769 315.765 190.215 317.042C187.789 318.446 186.385 319.595 186.385 319.595Z" fill="#263238"/>
<g opacity="0.3">
<path d="M195.196 293.929C195.196 293.929 250.87 309.38 253.041 310.146C256.361 311.295 255.85 323.554 250.615 323.426C248.188 323.298 207.837 324.958 202.729 324.575C197.622 324.32 182.298 318.191 182.298 318.191L195.196 293.929Z" fill="black"/>
</g>
<path d="M138.883 243.49L127.646 266.603C127.646 266.603 67.3743 248.215 52.1787 249.109C36.9832 250.002 24.5969 256.004 21.5323 268.39C18.5953 280.777 18.2123 297.76 35.9617 309.635C53.7111 321.511 141.82 328.023 141.82 328.023H176.68L233.631 252.939L224.437 245.533L138.883 243.49Z" fill="#263238"/>
<path d="M157.909 294.312C157.909 294.312 157.526 294.312 156.76 294.312C155.994 294.312 154.844 294.312 153.44 294.057C150.63 293.801 146.544 293.035 141.564 291.63C136.712 290.226 130.966 287.927 124.836 285.118C118.707 282.181 112.195 278.733 105.427 275.03C98.5315 271.327 92.0191 268.135 85.7622 265.581C79.5052 263.155 73.759 261.367 68.7789 260.473C63.7989 259.579 59.7127 259.324 56.9034 259.452C55.4988 259.452 54.3495 259.579 53.5834 259.579C52.8172 259.579 52.4341 259.579 52.4341 259.579C52.4341 259.579 52.8172 259.452 53.5834 259.452C54.3495 259.452 55.3711 259.196 56.9034 259.196C59.7127 259.069 63.9266 259.196 68.9066 259.962C74.0143 260.729 79.8883 262.516 86.1452 264.942C92.4022 267.369 99.0423 270.689 105.938 274.392C112.833 278.095 119.218 281.67 125.347 284.48C131.349 287.417 136.967 289.587 141.82 291.12C146.672 292.652 150.758 293.418 153.567 293.801C154.972 294.057 156.121 294.057 156.76 294.184C157.526 294.184 157.909 294.312 157.909 294.312Z" fill="#455A64"/>
<path d="M199.154 321.766C210.391 317.425 271.939 297.76 293.775 272.604C311.907 251.662 283.049 232.891 283.049 232.891C283.049 232.891 262.745 232.253 255.978 232.891C249.21 233.53 152.546 298.909 152.546 298.909C152.546 298.909 169.401 331.726 169.018 333.003L199.154 321.766Z" fill="#263238"/>
<path d="M229.417 248.725C229.417 248.725 229.29 248.853 229.162 248.981C228.907 249.108 228.651 249.364 228.396 249.492C227.63 250.002 226.608 250.641 225.203 251.535C222.394 253.322 218.436 255.876 213.456 258.941C203.496 265.198 189.832 273.753 174.765 283.33C167.358 287.927 160.207 292.397 153.695 296.483L153.823 296.1C158.292 306.826 162.123 316.02 164.804 322.66C166.081 325.852 167.103 328.406 167.869 330.322C168.252 331.215 168.508 331.854 168.635 332.365C168.763 332.875 168.891 333.131 168.891 333.131C168.891 333.131 168.763 332.875 168.508 332.492C168.252 331.982 167.997 331.343 167.614 330.449C166.848 328.662 165.698 326.108 164.294 322.915C161.484 316.403 157.526 307.209 153.057 296.483L152.929 296.227L153.184 296.1C159.697 292.014 166.72 287.544 174.254 282.947C189.449 273.498 203.113 264.942 213.073 258.813C218.053 255.749 222.011 253.322 224.948 251.535C226.353 250.768 227.374 250.13 228.14 249.619C228.524 249.364 228.779 249.236 229.034 249.108C229.29 248.725 229.417 248.725 229.417 248.725Z" fill="#455A64"/>
<path d="M144.373 277.84C144.373 277.967 143.224 277.584 141.564 276.818C139.904 276.052 137.606 274.775 135.18 272.987C132.881 271.327 130.966 269.539 129.689 268.135C128.412 266.73 127.773 265.836 127.773 265.709C127.901 265.581 131.093 269.029 135.69 272.349C140.16 275.669 144.373 277.584 144.373 277.84Z" fill="#455A64"/>
<path d="M177.829 250.513C177.957 250.513 177.957 252.045 177.957 254.344C177.957 256.77 178.085 259.962 178.468 263.666C178.851 267.241 179.234 270.561 179.745 272.859C180.128 275.158 180.383 276.69 180.255 276.69C180.128 276.69 179.745 275.286 179.234 272.987C178.723 270.689 178.085 267.369 177.829 263.793C177.446 260.218 177.446 256.898 177.574 254.472C177.574 251.918 177.829 250.513 177.829 250.513Z" fill="#455A64"/>
<path d="M185.108 249.747C185.108 249.747 185.363 249.619 185.874 249.875C186.385 250.002 187.023 250.513 187.534 251.279C188.045 252.045 188.428 253.195 188.045 254.344C187.662 255.621 186.385 256.515 184.98 256.515C183.575 256.642 182.171 255.876 181.66 254.599C181.149 253.322 181.532 252.173 182.043 251.535C182.554 250.768 183.192 250.385 183.703 250.258C184.214 250.13 184.469 250.258 184.469 250.258C184.469 250.385 183.32 250.385 182.426 251.79C182.043 252.429 181.788 253.45 182.171 254.344C182.554 255.238 183.575 255.876 184.852 255.749C186.002 255.749 187.023 254.982 187.406 254.089C187.789 253.195 187.534 252.173 187.151 251.535C186.257 250.002 184.98 249.875 185.108 249.747Z" fill="#455A64"/>
<path d="M155.227 247.193C155.227 247.193 155.483 247.576 155.738 248.342C155.994 249.109 156.249 250.258 156.249 251.79C156.249 253.195 155.994 254.982 155.1 256.77C154.334 258.558 152.929 260.346 151.141 261.622C149.226 262.899 147.055 263.41 145.14 263.538C143.224 263.666 141.437 263.282 140.032 262.644C138.627 262.133 137.733 261.367 137.095 260.856C136.456 260.346 136.201 259.962 136.201 259.962C136.329 259.835 137.478 261.239 140.16 262.133C141.437 262.644 143.097 262.899 145.012 262.772C146.8 262.644 148.843 262.133 150.63 260.984C152.418 259.835 153.695 258.175 154.461 256.515C155.227 254.855 155.611 253.195 155.738 251.79C155.994 248.981 155.1 247.321 155.227 247.193Z" fill="#455A64"/>
<path d="M212.817 258.686C212.817 258.813 211.923 258.813 210.519 258.302C209.114 257.792 207.326 256.77 206.177 254.855C204.9 252.939 204.645 250.896 204.772 249.492C204.9 248.087 205.283 247.193 205.411 247.321C205.539 247.321 205.283 248.215 205.283 249.619C205.283 251.024 205.666 252.812 206.816 254.599C207.965 256.259 209.497 257.409 210.774 257.919C211.923 258.43 212.817 258.558 212.817 258.686Z" fill="#455A64"/>
<path d="M288.795 204.033C288.795 204.033 302.075 194.2 304.373 193.69C306.672 193.306 324.294 195.477 325.443 196.499C326.464 197.52 342.937 209.907 339.745 210.928C336.552 211.95 325.187 203.267 325.187 203.267H323.017C323.017 203.267 332.977 210.545 334.509 213.099C336.041 215.397 333.871 217.568 332.083 216.419C330.168 215.142 321.74 208.502 320.974 208.63C320.207 208.757 329.912 216.419 330.678 217.696C331.828 219.484 330.423 222.293 328.635 221.144C327.486 220.505 318.675 212.588 318.675 212.588C318.675 212.588 325.187 219.867 325.571 221.016C326.209 222.804 324.294 224.081 322.761 222.804C321.74 221.91 317.398 216.291 315.994 215.014C315.994 215.014 314.334 214.631 311.397 216.93C308.332 219.356 294.541 221.91 294.541 221.91L288.795 204.033Z" fill="#FFBE9D"/>
<path d="M292.753 206.331C293.264 207.864 295.307 208.63 296.967 208.502C298.627 208.374 300.287 207.736 301.947 207.48C306.927 206.842 311.907 210.162 316.887 209.14C317.526 209.013 318.42 208.63 318.42 207.991C318.42 207.353 317.781 206.97 317.143 206.587C312.163 204.16 307.183 201.734 302.203 199.308" fill="#FFBE9D"/>
<path d="M302.075 199.436C302.075 199.436 302.713 199.563 303.735 200.074C304.757 200.585 306.289 201.223 308.204 202.117C310.12 203.011 312.418 204.033 314.844 205.182C315.483 205.437 316.121 205.82 316.76 206.076C317.398 206.459 318.292 206.587 318.675 207.608C318.931 208.119 318.547 208.757 318.164 209.14C317.781 209.524 317.398 209.651 316.887 209.651C316.121 209.779 315.227 209.907 314.461 209.779C311.141 209.651 308.332 208.502 305.65 207.991C304.373 207.736 303.097 207.608 301.947 207.864C300.798 207.991 299.649 208.374 298.627 208.502C296.584 209.013 294.669 208.63 293.647 207.864C292.626 207.097 292.626 206.331 292.626 206.331C292.753 206.331 292.881 206.97 293.775 207.608C294.669 208.247 296.329 208.502 298.372 207.991C299.393 207.736 300.415 207.353 301.692 207.225C302.969 207.097 304.373 207.097 305.65 207.353C308.46 207.736 311.269 208.885 314.334 209.013C315.1 209.013 315.866 209.013 316.504 208.885C317.143 208.757 317.654 208.374 317.526 207.991C317.398 207.608 316.76 207.225 316.121 206.97C315.483 206.714 314.844 206.331 314.206 206.076C311.78 204.927 309.609 203.777 307.694 202.756C305.906 201.862 304.373 200.968 303.352 200.457C302.586 199.819 302.075 199.436 302.075 199.436Z" fill="#EB996E"/>
<path d="M339.617 211.184C339.617 211.311 338.085 211.184 335.914 210.417C334.765 210.034 333.488 209.396 332.083 208.63C330.806 207.736 329.401 206.842 327.869 205.693C326.848 204.927 325.698 204.16 324.804 203.522L325.06 203.65C319.824 202.883 315.994 202.245 315.994 202.117C315.994 201.862 319.824 202.245 325.06 202.756H325.188L325.315 202.883C326.337 203.522 327.358 204.288 328.38 205.054C329.784 206.076 331.189 207.097 332.466 207.991C333.743 208.757 335.02 209.396 336.041 209.907C338.212 210.673 339.617 211.056 339.617 211.184Z" fill="#EB996E"/>
<path d="M155.994 303.251C155.994 303.251 100.319 318.702 98.1484 319.468C94.8284 320.617 95.3391 332.875 100.575 332.748C103.001 332.62 143.352 334.28 148.46 333.897C153.567 333.642 167.231 328.151 167.231 328.151L155.994 303.251Z" fill="#A36986"/>
<path d="M132.753 324.448C132.498 324.448 132.115 321.511 130.327 318.446C128.539 315.381 126.241 313.594 126.369 313.338C126.496 313.083 129.178 314.743 131.093 317.935C133.009 321.255 133.009 324.448 132.753 324.448Z" fill="#263238"/>
<path d="M138.5 321.894C138.244 321.894 137.606 319.34 136.201 316.403C134.796 313.466 133.009 311.423 133.136 311.295C133.264 311.168 135.435 312.955 136.967 316.02C138.627 318.957 138.755 321.766 138.5 321.894Z" fill="#263238"/>
<path d="M143.99 320.362C143.735 320.362 143.863 317.552 142.713 314.488C141.564 311.423 139.521 309.508 139.649 309.252C139.776 308.997 142.203 310.785 143.607 314.105C144.884 317.552 144.246 320.489 143.99 320.362Z" fill="#263238"/>
<path d="M142.969 313.211C142.841 313.211 142.33 311.678 142.33 309.125C142.33 307.848 142.458 306.315 142.841 304.528C143.097 303.634 143.352 302.868 143.607 301.974C143.735 301.591 143.99 301.08 144.501 300.569C145.012 300.058 145.906 300.186 146.417 300.697C146.927 301.08 147.055 301.718 147.183 302.229C147.183 302.74 147.31 303.251 147.31 303.761C147.31 304.783 147.183 305.677 146.927 306.443C146.544 308.103 145.906 309.508 145.267 310.657C143.99 312.955 142.841 314.105 142.713 313.977C142.586 313.849 143.48 312.572 144.629 310.274C145.14 309.125 145.778 307.72 146.033 306.188C146.161 305.421 146.289 304.528 146.289 303.634C146.289 302.74 146.289 301.718 145.778 301.335C145.523 301.08 145.267 301.08 145.012 301.335C144.757 301.463 144.501 301.846 144.373 302.357C143.99 303.251 143.735 304.017 143.48 304.783C143.097 306.443 142.841 307.848 142.713 309.125C142.969 311.551 143.224 313.211 142.969 313.211Z" fill="#263238"/>
<path d="M143.097 312.572C143.097 312.445 144.373 312.061 146.672 311.934C147.821 311.934 149.098 312.061 150.63 312.445C151.397 312.7 152.163 312.828 152.929 313.338C153.695 313.721 154.461 314.743 154.206 315.892C153.95 316.914 153.057 317.68 152.163 317.935C151.269 318.191 150.375 318.063 149.609 317.935C148.077 317.552 146.927 316.786 146.033 316.148C144.246 314.743 143.352 313.721 143.48 313.594C143.607 313.466 144.629 314.36 146.417 315.637C147.31 316.275 148.46 316.786 149.864 317.169C150.503 317.297 151.269 317.297 151.907 317.169C152.546 317.042 153.057 316.531 153.312 315.892C153.44 315.254 153.057 314.743 152.546 314.36C151.907 313.977 151.269 313.721 150.503 313.594C149.098 313.211 147.821 313.083 146.8 312.955C144.501 312.572 143.097 312.828 143.097 312.572Z" fill="#263238"/>
<path d="M124.198 325.086C123.942 325.086 124.198 322.66 123.049 320.106C122.027 317.425 120.112 316.02 120.367 315.765C120.495 315.509 122.793 316.914 123.942 319.723C125.219 322.532 124.453 325.214 124.198 325.086Z" fill="#263238"/>
<path d="M163.017 327.64C163.017 327.64 162.251 328.023 160.846 328.662C159.441 329.172 157.271 329.939 154.717 330.577C149.354 331.982 141.82 332.62 133.52 332.62C125.219 332.492 117.686 332.109 112.195 331.982C109.641 331.854 107.47 331.726 105.81 331.599C104.278 331.471 103.512 331.471 103.512 331.343C103.512 331.216 104.405 331.216 105.938 331.216C107.598 331.216 109.769 331.216 112.45 331.216C118.069 331.343 125.475 331.471 133.775 331.599C142.075 331.726 149.609 331.088 154.844 329.811C159.824 328.789 163.017 327.512 163.017 327.64Z" fill="#263238"/>
<path d="M164.677 328.917C164.549 329.045 163.017 328.151 160.463 327.002C157.909 325.852 154.078 324.575 149.992 325.214C145.778 325.852 142.841 328.662 140.926 330.577C139.01 332.62 137.861 333.897 137.733 333.897C137.606 333.769 138.627 332.365 140.415 330.194C141.309 329.172 142.586 327.895 144.118 326.746C145.65 325.597 147.693 324.703 149.864 324.32C154.334 323.682 158.292 325.086 160.846 326.363C163.4 327.768 164.677 328.789 164.677 328.917Z" fill="#263238"/>
<path d="M108.875 331.343C108.747 331.215 109.258 330.577 109.641 329.3C110.024 328.023 110.407 326.108 110.024 324.065C109.641 322.022 108.619 320.362 107.725 319.34C106.832 318.318 106.193 317.808 106.193 317.68C106.193 317.552 107.087 317.935 108.108 318.957C109.13 319.978 110.279 321.766 110.662 323.937C111.045 326.108 110.662 328.151 110.024 329.555C109.513 330.705 108.875 331.343 108.875 331.343Z" fill="#263238"/>
<path d="M213.583 207.991C208.859 206.587 211.029 201.351 202.474 198.542C196.089 196.371 189.194 192.413 170.295 194.583L165.954 220.633L184.086 215.781L189.322 227.528C190.343 229.954 193.28 230.976 195.579 229.827L204.772 225.358C204.772 225.358 207.326 237.999 208.093 238.51C210.263 239.915 212.562 237.744 212.179 235.956C211.796 234.296 210.902 212.333 210.902 212.333C210.902 212.333 217.925 214.376 217.414 211.567C217.542 211.567 218.18 209.396 213.583 207.991Z" fill="#FFBE9D"/>
<path d="M193.919 230.848C193.791 230.848 194.174 230.338 194.557 229.444C194.94 228.55 195.195 227.273 195.068 225.868C194.94 224.464 194.429 223.187 193.919 222.421C193.408 221.654 193.025 221.144 193.025 221.144C193.025 221.144 193.535 221.399 194.174 222.293C194.812 223.059 195.323 224.336 195.579 225.868C195.706 227.401 195.451 228.805 194.94 229.699C194.429 230.465 193.919 230.976 193.919 230.848Z" fill="#EB996E"/>
<path d="M199.665 227.784C199.537 227.784 200.303 225.741 199.792 223.442C199.409 221.016 198.005 219.484 198.132 219.356C198.132 219.356 198.643 219.611 199.026 220.377C199.537 221.016 200.048 222.165 200.303 223.442C200.559 224.719 200.431 225.868 200.176 226.634C200.048 227.273 199.792 227.784 199.665 227.784Z" fill="#EB996E"/>
<path d="M203.751 217.696C203.751 217.696 204.134 217.951 204.389 218.59C204.645 219.228 205.028 220.122 205.028 221.271C205.028 222.293 204.772 223.314 204.517 223.953C204.262 224.591 204.006 224.974 203.879 224.847C203.751 224.847 204.517 223.314 204.389 221.271C204.517 219.228 203.623 217.824 203.751 217.696Z" fill="#EB996E"/>
<path d="M263.895 245.533L170.168 243.235C169.146 243.235 168.38 242.468 168.38 241.447C168.38 240.425 169.146 239.659 170.168 239.659L221.883 239.021L242.314 175.812C242.953 173.642 244.996 172.237 247.294 172.365L325.698 174.536C329.146 174.663 331.445 178.111 330.295 181.303L305.65 246.682L263.895 245.533Z" fill="#455A64"/>
<path d="M284.326 207.608C283.432 205.948 279.473 205.31 277.686 206.714C276.536 207.48 275.642 208.502 275.259 209.779C274.749 211.822 275.898 214.376 277.941 215.014C279.984 215.653 282.155 214.504 283.432 212.971C284.709 211.567 285.347 209.268 284.326 207.608Z" fill="white"/>
<path d="M208.603 16.1955C209.625 14.7909 211.796 16.0678 212.562 17.6002C213.328 19.1325 213.583 21.0479 215.116 21.8141C217.159 22.8356 220.223 21.0479 221.373 22.8356C222.267 24.2402 220.862 26.1556 221.373 27.8157C222.139 30.7526 227.119 29.9864 228.651 32.668C229.545 34.2003 228.651 36.1157 227.885 37.9034C227.247 39.5635 226.991 41.8619 228.524 42.8835C230.056 43.7773 232.354 42.7558 233.631 44.0327C235.291 45.6927 232.737 48.502 233.376 50.8005C233.759 52.4605 235.674 53.3544 237.334 53.7374C238.994 54.1205 240.91 54.3759 242.059 55.6528C244.485 58.5898 240.91 63.0591 241.931 66.7622C242.57 69.0607 244.868 70.8484 244.358 73.1469C243.719 76.0838 238.994 76.4669 238.356 79.2761C237.845 81.7023 240.527 84.5116 238.994 86.5547C237.462 88.4701 234.142 86.6824 231.971 87.8316C229.545 89.2362 229.928 93.8332 227.247 94.4717C225.97 94.7271 224.693 94.0886 223.543 94.2163C220.479 94.5994 219.713 99.8348 216.648 99.7071C214.86 99.5794 213.456 97.4086 211.668 97.9194C210.008 98.3025 209.753 100.729 208.22 101.75C205.922 103.283 203.24 100.218 200.559 100.09C198.899 99.9625 197.239 101.112 195.579 100.856C193.919 100.601 192.897 99.0686 192.514 97.4086C192.131 95.8763 192.386 94.2163 192.642 92.5563C193.663 83.6177 192.131 74.5515 188.172 66.5068" fill="#263238"/>
<path d="M199.92 111.71L199.665 97.664C199.665 97.664 213.583 95.6209 216.776 77.6161C218.308 68.6776 218.18 53.8651 217.67 41.8619C217.031 28.5818 202.602 14.5355 191.748 15.5571L159.697 27.0495V32.9234L160.718 112.476C160.846 123.203 169.657 131.886 180.383 131.886C191.237 131.758 200.048 122.692 199.92 111.71Z" fill="#FFBE9D"/>
<path d="M212.051 54.3759C212.051 55.6528 211.03 56.6744 209.753 56.6744C208.476 56.6744 207.454 55.7805 207.454 54.5036C207.454 53.2267 208.476 52.2051 209.753 52.2051C210.902 52.2051 211.923 53.2267 212.051 54.3759Z" fill="#263238"/>
<path d="M214.222 49.5235C213.966 49.7789 212.179 48.502 209.753 48.502C207.199 48.3743 205.411 49.6512 205.156 49.3958C205.028 49.2682 205.283 48.7574 206.177 48.1189C206.943 47.6081 208.348 46.9697 209.88 47.0974C211.413 47.0974 212.69 47.7358 213.456 48.3743C214.094 48.7574 214.35 49.3958 214.222 49.5235Z" fill="#263238"/>
<path d="M189.066 53.7374C189.066 55.0144 188.045 56.0359 186.768 56.0359C185.491 56.0359 184.469 55.1421 184.469 53.8651C184.469 52.5882 185.491 51.5667 186.768 51.5667C188.045 51.5667 189.066 52.5882 189.066 53.7374Z" fill="#263238"/>
<path d="M189.705 49.5235C189.449 49.7789 187.662 48.502 185.235 48.502C182.682 48.3743 180.894 49.6512 180.638 49.3958C180.511 49.2682 180.766 48.7574 181.66 48.1189C182.426 47.6081 183.831 46.9697 185.363 47.0974C186.895 47.0974 188.172 47.7358 188.939 48.3743C189.577 48.8851 189.832 49.3958 189.705 49.5235Z" fill="#263238"/>
<path d="M198.388 68.1668C198.388 68.0391 199.92 67.7837 202.474 67.5283C203.112 67.5283 203.751 67.4006 203.879 66.8899C204.006 66.3791 203.751 65.7406 203.496 64.9745C202.985 63.4421 202.346 61.7821 201.708 60.1221C199.154 53.2267 197.366 47.4804 197.749 47.3528C198.005 47.2251 200.303 52.8436 202.729 59.739C203.368 61.399 203.879 63.0591 204.389 64.5914C204.645 65.3575 205.028 66.1237 204.645 67.1453C204.517 67.656 204.006 67.9114 203.623 68.0391C203.24 68.1668 202.857 68.1668 202.602 68.1668C200.048 68.2945 198.388 68.2945 198.388 68.1668Z" fill="#263238"/>
<path d="M199.665 97.7917C199.665 97.7917 187.534 98.3025 175.531 90.8962C175.531 90.8962 181.532 103.538 199.665 102.133V97.7917Z" fill="#EB996E"/>
<path d="M197.239 74.1684C196.345 73.0192 194.812 72.253 193.28 72.3807C192.259 72.5084 191.109 73.0192 190.471 73.913C189.832 74.8069 189.577 76.0838 190.215 76.85C190.854 77.8715 192.259 77.9992 193.408 77.7438C194.557 77.4884 195.706 76.7223 196.6 75.9561C196.856 75.7007 197.111 75.573 197.366 75.1899C197.494 74.9346 197.622 74.5515 197.239 74.1684Z" fill="#A36986"/>
<path d="M191.109 69.8268C191.492 69.8268 191.492 72.5084 193.791 74.4238C196.089 76.3392 198.899 76.0838 199.026 76.4669C199.026 76.5946 198.388 76.9777 197.111 76.9777C195.962 76.9777 194.174 76.5946 192.769 75.4453C191.365 74.2961 190.854 72.6361 190.726 71.4868C190.599 70.4653 190.854 69.6991 191.109 69.8268Z" fill="#263238"/>
<path d="M190.599 39.8188C190.343 40.4573 187.917 40.0742 184.98 40.4573C182.043 40.7127 179.617 41.4788 179.234 40.8404C179.106 40.585 179.489 39.9465 180.511 39.3081C181.405 38.6696 182.937 38.0311 184.725 37.9034C186.512 37.7757 188.045 38.0311 189.194 38.5419C190.088 38.925 190.599 39.4357 190.599 39.8188Z" fill="#263238"/>
<path d="M213.456 42.245C212.945 42.7558 211.285 42.245 209.242 42.1173C207.199 41.9896 205.411 42.3727 205.028 41.8619C204.9 41.6065 205.156 40.9681 205.922 40.4573C206.688 39.9465 207.965 39.5634 209.369 39.5634C210.774 39.6911 212.051 40.2019 212.69 40.7127C213.456 41.3512 213.711 41.9896 213.456 42.245Z" fill="#263238"/>
<path d="M207.709 19.0048C207.709 19.2602 207.071 19.3879 206.305 19.3879C205.539 19.3879 204.9 19.2602 204.9 19.0048C204.9 18.7494 205.539 18.6217 206.305 18.6217C207.071 18.6217 207.709 18.7494 207.709 19.0048Z" fill="#263238"/>
<path d="M206.56 22.4525C211.157 13.2586 200.686 5.46928 195.579 2.9154C190.471 0.361534 184.214 0.233841 179.362 3.0431C177.191 4.32003 175.148 6.23544 172.721 6.8739C166.975 8.27853 160.718 2.40463 155.355 4.9585C150.886 7.12929 150.247 13.6417 145.778 15.8125C143.607 16.834 141.181 16.4509 138.755 16.7063C136.457 16.9617 133.775 18.2386 133.52 20.5371C133.136 23.091 135.946 25.9002 134.541 28.071C132.881 30.7526 127.773 28.1987 125.603 30.6249C123.559 33.0511 125.986 37.5204 123.432 39.3081C121.644 40.585 118.579 39.0527 117.175 40.8404C115.77 42.7558 118.452 45.0543 118.707 47.3528C118.962 49.7789 116.664 51.5666 114.749 53.099C112.833 54.5036 110.79 56.9298 111.684 59.1006C112.706 61.6544 117.047 61.9098 117.686 64.5914C118.452 67.4006 114.749 70.4653 116.409 72.7638C117.558 74.2961 120.112 73.913 121.516 75.1899C123.943 77.3607 121.006 81.4469 122.155 84.3839C123.815 88.4701 130.838 86.6824 133.52 90.1301C135.052 92.0455 134.796 95.2378 136.967 96.5148C139.138 97.7917 141.82 95.7486 144.374 96.1317C148.46 96.6425 151.014 102.772 154.844 101.623C156.887 100.984 158.292 98.4302 160.335 98.9409C162.123 99.324 162.761 101.878 164.549 102.133C166.975 102.516 167.614 98.9409 169.146 97.0255C171.061 94.344 175.275 94.2163 177.063 91.5347C178.723 89.1085 177.446 85.7885 176.041 83.2346C174.637 80.6808 172.977 77.8715 173.615 74.9346C174.381 71.7422 178.212 68.8053 176.808 65.7406C175.403 62.4206 169.018 62.676 168.635 59.1006C168.252 55.6528 173.998 53.7374 173.36 50.2897C172.977 47.9912 169.785 47.0974 169.146 44.7989C168.508 42.245 171.572 39.9465 171.572 37.265C171.572 35.4773 170.168 34.2003 169.274 32.668C168.38 31.2634 167.869 29.0926 169.146 27.9433C171.189 26.1556 174.381 29.4757 177.063 28.5818C178.851 28.071 179.617 25.9002 180.255 23.9848C180.255 23.9848 185.108 16.5786 193.791 17.6002C202.857 19.0048 206.56 22.4525 206.56 22.4525Z" fill="#263238"/>
<path d="M206.688 19.1325C208.476 20.9202 207.582 24.3679 205.283 25.2618C203.113 26.0279 200.814 24.6233 198.899 23.3464C196.983 22.0694 194.557 20.7925 192.514 21.6864C188.555 23.3464 189.705 30.3695 185.746 31.9018C184.086 32.5403 182.298 31.9018 180.638 31.5188C178.978 31.1357 176.808 31.2634 175.914 32.668C174.637 34.5834 176.297 37.7758 174.637 39.3081C173.871 39.9465 172.849 40.0742 172.211 40.8404C171.189 41.9896 171.955 43.905 173.105 44.9266C174.254 45.9481 175.786 46.842 176.297 48.2466C177.191 50.5451 175.275 52.9713 173.232 54.5036C171.189 56.0359 168.891 57.5683 168.38 59.9944C167.741 63.9529 172.594 67.7837 170.934 71.3591C170.04 73.4022 167.231 74.1684 165.06 73.2746C162.889 72.5084 161.357 70.593 160.335 68.5499C155.866 60.3775 157.143 50.4174 158.547 41.3512C159.569 35.3496 160.718 29.0926 164.166 24.1125C167.741 19.0048 173.615 15.6848 179.617 13.6417C184.214 12.1094 189.066 10.9601 193.791 11.5986C198.516 12.237 203.24 14.5355 205.922 18.6217" fill="#263238"/>
<path d="M154.717 101.112C154.717 101.112 154.589 101.239 154.334 101.239C154.078 101.367 153.695 101.367 153.312 101.112C152.929 100.856 152.418 100.473 152.163 99.7071C152.035 99.324 152.035 98.9409 152.035 98.5579C152.163 98.1748 152.29 97.7917 152.546 97.4086C153.057 96.6425 153.95 96.004 154.844 95.4932C155.738 94.9824 156.76 94.344 157.526 93.4501C157.909 92.9393 158.164 92.4286 158.164 91.7901C158.164 91.1516 157.909 90.5132 157.526 90.0024C157.143 89.4916 156.504 88.9808 155.994 88.4701C155.483 87.9593 154.844 87.4485 154.461 86.5547C154.078 85.7885 154.206 84.767 154.717 84.0008C155.227 83.2346 155.994 82.7239 156.76 82.3408C157.526 81.9577 158.292 81.5746 159.058 81.0638C159.824 80.5531 160.463 79.9146 160.591 79.1484C160.718 78.2546 160.335 77.4884 159.697 76.85C159.058 76.2115 158.292 75.573 157.526 74.9345C156.76 74.2961 155.994 73.5299 155.483 72.5084C154.972 71.4868 155.1 70.2099 155.738 69.1883C156.249 68.1668 157.015 67.4006 157.909 66.6345C158.803 65.8683 159.697 65.3575 160.463 64.5914C161.229 63.8252 161.995 63.059 162.378 62.0375C162.761 61.0159 162.506 59.9944 161.995 59.1005C161.484 58.2067 160.591 57.3128 159.824 56.419C159.058 55.5251 158.164 54.6313 157.909 53.3543C157.781 52.7159 157.781 52.0774 158.037 51.4389C158.292 50.8005 158.675 50.2897 159.186 49.9066C160.08 49.0128 161.229 48.502 162.251 47.8635C163.272 47.2251 164.294 46.5866 164.677 45.565C165.188 44.5435 164.932 43.3942 164.421 42.5004C163.911 41.4788 163.017 40.7127 162.251 39.6911C161.484 38.7973 160.846 37.7757 160.591 36.4988C160.463 35.8603 160.463 35.2219 160.718 34.5834C160.974 33.9449 161.357 33.5618 161.867 33.1788C162.889 32.5403 164.166 32.4126 165.188 32.4126C166.337 32.2849 167.358 32.2849 168.38 32.0295C169.401 31.7741 170.168 31.1357 170.423 30.1141C170.678 29.2203 170.678 28.071 170.934 27.0495C171.189 26.0279 171.955 25.0064 172.849 24.4956C174.765 23.4741 176.935 23.7294 178.723 23.8571C179.617 23.8571 180.511 23.8571 181.405 23.6017C182.298 23.3464 182.937 22.9633 183.703 22.4525C184.98 21.431 186.002 20.0263 187.151 18.8771C188.172 17.7278 189.449 16.7063 190.854 16.0678C192.259 15.5571 193.663 15.3017 194.94 15.4294C197.494 15.6847 199.537 17.0894 200.559 18.6217C201.708 20.0263 202.091 21.431 202.219 22.4525C202.346 23.3464 202.219 23.8571 202.219 23.8571C202.219 23.8571 202.219 23.3464 202.091 22.4525C201.963 21.5586 201.452 20.154 200.431 18.7494C199.409 17.3448 197.494 16.0678 194.94 15.8124C193.663 15.6847 192.386 15.9401 191.109 16.4509C189.832 16.9617 188.683 17.9832 187.662 19.1325C186.64 20.2817 185.618 21.6863 184.214 22.7079C183.575 23.2187 182.682 23.7294 181.788 23.9848C180.894 24.2402 179.872 24.2402 178.978 24.2402C177.063 24.2402 175.148 23.9848 173.488 24.8787C172.594 25.2618 172.083 26.0279 171.828 27.0495C171.572 27.9433 171.572 29.0926 171.317 30.1141C171.061 31.2634 170.04 32.1572 168.891 32.4126C167.741 32.7957 166.72 32.7957 165.571 32.7957C164.549 32.9234 163.4 32.9234 162.506 33.5618C162.123 33.8172 161.74 34.2003 161.612 34.7111C161.484 35.2219 161.357 35.7326 161.484 36.2434C161.74 37.265 162.251 38.2865 163.017 39.1804C163.783 40.0742 164.549 40.9681 165.188 41.9896C165.443 42.5004 165.698 43.1389 165.826 43.7773C165.954 44.4158 165.826 45.0543 165.571 45.6927C164.932 46.9697 163.911 47.6081 162.761 48.2466C161.74 48.8851 160.591 49.3958 159.824 50.162C159.441 50.5451 159.058 51.0559 158.931 51.4389C158.803 51.9497 158.675 52.4605 158.803 52.9713C159.058 53.9928 159.824 54.8867 160.591 55.7805C161.357 56.6744 162.251 57.4405 162.761 58.5898C163.4 59.6113 163.655 61.016 163.144 62.1652C162.761 63.3144 161.867 64.2083 161.101 64.9744C160.207 65.7406 159.314 66.2514 158.547 67.0175C157.781 67.656 157.015 68.4222 156.504 69.316C155.994 70.2099 155.994 71.2314 156.377 71.9976C156.76 72.8914 157.526 73.5299 158.292 74.1684C159.058 74.8069 159.824 75.4453 160.591 76.0838C161.229 76.8499 161.74 77.8715 161.612 78.893C161.357 79.9146 160.591 80.6808 159.824 81.1915C159.058 81.7023 158.292 82.0854 157.526 82.4685C156.76 82.8515 156.121 83.3623 155.611 84.0008C155.227 84.6393 155.1 85.4054 155.355 86.0439C155.994 87.4485 157.398 88.2147 158.292 89.3639C158.803 90.0024 159.058 90.6409 159.058 91.407C159.058 92.1732 158.675 92.8116 158.292 93.3224C157.398 94.344 156.377 94.9824 155.483 95.4932C154.589 96.004 153.695 96.5148 153.184 97.2809C152.674 97.9194 152.546 98.8132 152.801 99.4517C153.057 100.09 153.44 100.473 153.823 100.729C154.206 100.984 154.589 100.984 154.844 100.856C154.589 101.112 154.717 101.112 154.717 101.112Z" fill="#455A64"/>
<path d="M124.198 85.2777C124.198 85.2777 124.326 85.2777 124.581 85.1501C124.836 85.0224 125.092 84.767 125.219 84.2562C125.347 83.7454 125.347 83.107 125.092 82.3408C124.836 81.7023 124.07 81.0639 123.559 80.17C123.304 79.7869 122.921 79.2762 122.921 78.6377C122.793 77.9992 123.049 77.3607 123.432 76.85C124.198 75.8284 125.603 75.3176 126.369 74.1684C126.752 73.6576 126.879 72.8915 126.752 72.253C126.624 71.6145 126.113 70.8484 125.603 70.3376C125.092 69.6991 124.581 69.0607 124.07 68.2945C123.559 67.5283 123.176 66.6345 123.176 65.7406C123.176 64.7191 123.943 63.8252 124.709 63.3145C125.603 62.8037 126.496 62.4206 127.518 62.2929C128.539 62.1652 129.561 62.0375 130.455 61.7821C131.476 61.5267 132.37 61.1437 133.009 60.5052C133.647 59.739 133.903 58.7175 133.775 57.6959C133.647 56.6744 133.264 55.5252 133.009 54.5036C132.626 53.2267 132.243 52.0774 132.37 50.8005C132.37 50.162 132.626 49.5236 133.009 49.0128C133.392 48.502 133.903 47.9912 134.413 47.7358C136.712 46.5866 139.393 47.0974 141.437 45.6927C141.947 45.4374 142.33 44.9266 142.586 44.4158C142.841 43.905 142.841 43.2666 142.713 42.7558C142.458 41.6066 141.692 40.4573 141.181 39.3081C140.926 38.6696 140.67 38.0311 140.67 37.265C140.67 36.4988 140.926 35.7327 141.437 35.2219C142.586 34.0726 143.99 34.0726 145.267 33.6896C146.544 33.4342 147.949 33.0511 148.204 31.7742C148.46 30.6249 147.694 29.2203 147.821 27.8157C147.949 24.8787 149.992 22.1971 152.674 21.3033C155.483 20.4094 158.164 21.6864 160.591 21.0479C161.74 20.7925 162.889 20.154 163.272 19.0048C163.655 17.8556 163.4 16.5786 163.528 15.3017C163.528 14.6632 163.783 14.0247 164.166 13.3863C164.549 12.7478 165.188 12.3647 165.698 12.1093C166.975 11.5986 168.252 11.7263 169.529 12.1093C170.678 12.3647 171.828 12.8755 172.977 13.1309C174.126 13.3863 175.148 13.2586 176.169 12.7478C178.212 11.854 179.617 10.0662 181.277 8.66162C184.725 5.85236 189.194 5.34159 192.769 6.10775C196.472 6.74622 199.282 8.91701 201.069 11.2155C202.857 13.514 203.751 15.9402 204.134 17.9832C204.517 20.0263 204.389 21.5587 204.262 22.7079C204.134 23.7295 204.006 24.3679 204.006 24.3679C204.006 24.3679 204.134 23.8572 204.134 22.7079C204.262 21.6864 204.262 20.0263 203.879 18.1109C203.496 16.1955 202.602 13.7694 200.814 11.4709C199.026 9.30009 196.345 7.25699 192.769 6.61852C189.322 5.98006 185.108 6.49083 181.788 9.17239C180.128 10.4493 178.723 12.237 176.552 13.2586C175.531 13.7694 174.126 13.8971 172.977 13.6417C171.828 13.3863 170.678 13.0032 169.529 12.6201C168.38 12.3647 167.231 12.237 166.081 12.6201C165.571 12.8755 165.06 13.1309 164.804 13.6417C164.549 14.1524 164.421 14.6632 164.294 15.3017C164.166 16.4509 164.421 17.8556 164.038 19.1325C163.528 20.5371 162.123 21.3033 160.846 21.5587C158.164 22.1971 155.483 20.9202 152.929 21.8141C150.503 22.5802 148.587 25.1341 148.587 27.688C148.587 28.3264 148.715 28.9649 148.843 29.6034C148.97 30.2418 149.226 31.008 148.97 31.7742C148.715 32.5403 148.204 33.1788 147.566 33.4342C146.927 33.8172 146.161 33.9449 145.523 34.0726C144.246 34.328 142.841 34.5834 141.947 35.3496C141.564 35.7327 141.309 36.3711 141.309 36.8819C141.309 37.5204 141.564 38.0311 141.82 38.6696C142.33 39.8188 143.097 40.9681 143.352 42.245C143.48 42.8835 143.48 43.6497 143.224 44.2881C142.969 44.9266 142.458 45.4374 141.947 45.8204C140.798 46.5866 139.521 46.842 138.244 46.9697C137.095 47.0974 135.818 47.3528 134.796 47.8635C133.775 48.3743 133.136 49.3959 133.009 50.4174C132.881 51.5667 133.264 52.5882 133.52 53.7374C133.903 54.759 134.158 55.9082 134.286 57.0575C134.413 58.2067 134.158 59.4837 133.392 60.2498C132.626 61.1437 131.476 61.5267 130.455 61.7821C129.433 62.0375 128.412 62.0375 127.39 62.2929C126.496 62.4206 125.475 62.8037 124.709 63.3145C123.943 63.8252 123.432 64.5914 123.304 65.3576C123.304 66.2514 123.559 67.0176 124.07 67.656C124.581 68.2945 125.092 68.933 125.603 69.5714C126.113 70.2099 126.624 70.8484 126.752 71.7422C127.007 72.5084 126.752 73.4023 126.369 74.0407C125.475 75.3176 124.07 75.8284 123.432 76.7223C123.049 77.2331 122.921 77.7438 122.921 78.2546C122.921 78.7654 123.176 79.2762 123.432 79.6592C123.943 80.5531 124.709 81.0639 124.964 81.83C125.219 82.5962 125.219 83.3624 125.092 83.8731C124.964 84.3839 124.581 84.767 124.326 84.767C124.326 85.2777 124.198 85.2777 124.198 85.2777Z" fill="#455A64"/>
<path d="M230.439 86.1716C230.439 86.1716 230.694 86.427 231.205 86.427C231.716 86.427 232.61 86.0439 233.12 85.1501C233.631 84.2562 233.376 82.8516 233.248 81.3192C233.12 80.5531 233.248 79.6592 233.631 78.7654C233.887 77.8715 234.27 77.1054 234.397 76.2115C234.653 75.3177 234.397 74.2961 233.631 73.6576C232.865 73.0192 231.844 72.6361 230.822 72.3807C229.8 71.9976 228.524 71.8699 227.502 70.8484C227.119 70.3376 226.864 69.5714 226.991 68.933C227.119 68.1668 227.502 67.656 228.013 67.1453C228.907 66.1237 230.056 65.3576 230.439 64.2083C230.95 63.0591 230.056 61.9098 228.907 61.2714C227.757 60.6329 226.353 60.5052 224.948 59.8667C224.31 59.6113 223.543 59.1006 223.16 58.4621C222.65 57.8236 222.522 56.9298 222.522 56.1636C222.522 54.6313 223.16 53.099 223.799 51.822C224.437 50.5451 225.076 49.2682 225.203 47.9912C225.459 46.7143 224.82 45.4374 223.927 44.5435C223.033 43.6497 221.883 42.8835 220.99 41.9896C219.968 41.0958 219.33 39.9465 218.947 38.6696C218.691 37.3927 218.563 36.2434 218.563 35.0942C218.563 32.7957 218.819 30.7526 218.18 28.9649C217.542 27.1772 216.52 25.7726 215.371 24.751C214.222 23.7295 213.073 23.091 212.051 22.7079C210.008 21.9417 208.731 22.0694 208.859 22.0694C208.859 22.0694 209.114 22.0694 209.753 22.0694C210.263 22.0694 211.157 22.1971 212.179 22.5802C213.2 22.9633 214.477 23.4741 215.626 24.4956C216.776 25.5172 217.925 26.9218 218.563 28.8372C219.33 30.7526 219.074 32.9234 219.074 35.2219C219.074 36.3711 219.074 37.5204 219.457 38.6696C219.713 39.8188 220.351 40.8404 221.373 41.6066C222.267 42.5004 223.416 43.1389 224.31 44.1604C225.331 45.182 225.97 46.7143 225.714 48.1189C225.331 51.0559 223.033 53.3544 223.033 56.1636C223.033 56.8021 223.16 57.5682 223.543 58.079C223.927 58.5898 224.437 58.9729 225.076 59.356C226.353 59.9944 227.757 59.9944 229.034 60.7606C229.673 61.1437 230.311 61.5267 230.694 62.2929C231.077 62.9314 231.205 63.8252 230.95 64.4637C230.439 65.8683 229.162 66.6345 228.396 67.5283C228.013 68.0391 227.63 68.4222 227.502 69.0607C227.374 69.5714 227.502 70.0822 227.885 70.593C228.651 71.3591 229.8 71.7422 230.822 71.9976C231.844 72.3807 232.993 72.6361 233.887 73.4022C234.27 73.7853 234.653 74.2961 234.781 74.8069C234.908 75.3176 234.908 75.8284 234.781 76.3392C234.525 77.3607 234.142 78.1269 233.887 79.0208C233.631 79.7869 233.504 80.5531 233.504 81.3192C233.631 82.8516 233.887 84.2562 233.248 85.2777C232.61 86.2993 231.716 86.5547 231.077 86.5547C230.567 86.5547 230.439 86.1716 230.439 86.1716Z" fill="#455A64"/>
<g opacity="0.3">
<path d="M142.075 159.085V193.179L133.264 193.817L130.072 181.559L142.075 159.085Z" fill="black"/>
</g>
<path d="M550 333.5C550 333.667 426.886 334 275 334C123.114 333.833 0 333.667 0 333.5C0 333.333 123.114 333 275 333C426.886 333 550 333.167 550 333.5Z" fill="#263238"/>
<g clip-path="url(#clip0_260_14)">
<path d="M507.032 253.049H411.96V266.185H507.032V253.049Z" fill="#263238"/>
<path d="M507.162 266.315H411.699V252.919H507.162V266.315ZM412.09 266.055H506.902V253.309H412.09V266.055Z" fill="#263238"/>
<path d="M420.673 261.763L434.46 329.393H485.052L498.318 266.185L420.673 261.763Z" fill="#263238"/>
<path d="M420.673 323.02L428.087 333.035H489.604L498.318 323.02H420.673Z" fill="#455A64"/>
<path d="M455.919 263.844C455.789 263.844 455.529 232.5 455.399 194.003C455.269 155.376 455.399 124.162 455.529 124.162C455.659 124.162 455.919 155.506 456.049 194.003C456.179 232.5 456.049 263.844 455.919 263.844Z" fill="#263238"/>
<path d="M477.119 185.419C477.119 185.419 476.988 185.679 476.858 186.199C476.598 186.72 476.338 187.37 475.948 188.28C475.818 188.671 475.558 189.191 475.298 189.711C475.038 190.231 474.908 190.881 474.647 191.532C474.387 192.182 474.127 192.832 473.867 193.613C473.607 194.393 473.477 195.173 473.217 195.954C472.176 199.205 471.396 203.237 470.616 207.659C469.965 212.081 469.445 217.023 469.185 222.225C468.665 232.63 469.315 241.994 469.965 248.887C470.225 252.269 470.616 255 470.746 256.951C470.876 257.861 470.876 258.512 471.006 259.162C471.006 259.682 471.006 259.942 471.006 259.942C471.006 259.942 470.876 259.682 470.876 259.162C470.746 258.642 470.616 257.861 470.486 256.951C470.225 255.13 469.835 252.269 469.445 248.887C468.665 242.124 468.014 232.63 468.535 222.225C468.795 217.023 469.315 212.081 470.095 207.529C470.876 203.107 471.786 199.075 472.957 195.824C473.217 195.043 473.477 194.263 473.737 193.483C473.997 192.702 474.257 192.052 474.517 191.402C474.777 190.751 475.038 190.231 475.168 189.581C475.428 189.061 475.688 188.54 475.818 188.15C476.208 187.37 476.468 186.72 476.728 186.199C476.988 185.679 477.119 185.419 477.119 185.419Z" fill="#263238"/>
<path d="M474.647 160.188C474.647 160.188 474.517 160.578 474.387 161.228C474.127 162.009 473.867 162.919 473.347 164.09C473.087 164.74 472.827 165.39 472.566 166.171C472.306 166.951 472.046 167.731 471.786 168.642C471.266 170.462 470.616 172.543 469.965 174.884C469.705 176.055 469.315 177.225 469.055 178.526C468.795 179.827 468.535 181.127 468.145 182.428C467.494 185.159 466.974 188.15 466.324 191.142C465.283 197.384 464.373 204.277 463.723 211.431C463.072 218.714 462.812 225.607 462.812 231.98C462.812 238.223 462.812 243.945 463.072 248.757C463.202 251.098 463.332 253.309 463.462 255.13C463.592 257.081 463.723 258.642 463.853 259.942C463.983 261.243 463.983 262.283 464.113 263.064C464.113 263.714 464.113 264.104 464.113 264.104C464.113 264.104 463.983 263.714 463.983 263.064C463.853 262.283 463.723 261.243 463.592 260.072C463.462 258.772 463.332 257.081 463.072 255.26C462.942 253.309 462.682 251.228 462.552 248.887C462.292 244.075 462.162 238.483 462.032 232.11C462.032 225.737 462.292 218.844 462.942 211.561C463.592 204.277 464.503 197.384 465.673 191.142C466.324 188.02 466.844 185.029 467.494 182.298C467.754 180.867 468.145 179.566 468.405 178.396C468.795 177.095 469.055 175.925 469.445 174.754C470.095 172.413 470.746 170.332 471.266 168.642C471.526 167.731 471.786 166.951 472.046 166.171C472.306 165.39 472.566 164.74 472.827 164.09C473.347 162.919 473.607 161.879 473.997 161.228C474.517 160.448 474.647 160.188 474.647 160.188Z" fill="#263238"/>
<path d="M449.936 269.306C449.936 269.306 449.936 269.176 449.936 268.916C449.936 268.656 449.936 268.266 449.806 267.876C449.676 266.835 449.676 265.535 449.546 263.714C449.286 260.072 449.026 254.87 448.636 248.497C447.855 235.621 446.555 217.803 444.474 198.295C443.303 188.54 442.133 179.176 440.702 170.853C440.052 166.691 439.402 162.659 438.621 158.887C437.971 155.116 437.191 151.734 436.54 148.613C435.89 145.491 435.24 142.63 434.72 140.159C434.199 137.688 433.679 135.477 433.159 133.786C432.769 132.095 432.379 130.665 432.119 129.754C431.988 129.364 431.988 128.974 431.858 128.714C431.858 128.454 431.728 128.324 431.858 128.324C431.858 128.324 431.858 128.454 431.988 128.714C432.119 128.974 432.119 129.364 432.249 129.754C432.509 130.665 432.899 132.095 433.419 133.786C433.939 135.477 434.46 137.688 435.11 140.159C435.76 142.63 436.41 145.491 437.061 148.613C437.711 151.734 438.491 155.246 439.142 158.887C439.922 162.659 440.572 166.561 441.353 170.853C442.783 179.306 444.084 188.54 445.124 198.295C447.335 217.803 448.376 235.621 449.156 248.497C449.546 255 449.806 260.202 449.936 263.714C450.066 265.535 450.066 266.835 450.066 267.876C450.066 268.266 450.066 268.656 450.066 268.916C449.936 269.176 449.936 269.306 449.936 269.306Z" fill="#263238"/>
<path d="M455.139 138.988C454.749 134.566 450.197 131.185 445.775 131.185C441.353 131.185 437.191 133.786 434.46 137.298C431.728 140.809 430.298 145.101 428.997 149.393C426.006 159.798 424.315 170.853 425.616 181.647C426.916 192.442 431.338 203.107 439.012 210.65C440.312 211.951 441.873 213.121 443.694 212.731C444.604 212.471 445.384 211.821 446.165 211.17C461.382 197.384 470.095 176.835 469.575 156.416C469.445 152.254 468.925 148.092 466.584 144.581C464.243 141.329 459.04 137.688 455.139 138.988Z" fill="#EA8D8F"/>
<path d="M421.844 103.483C419.763 107.254 417.682 111.026 415.601 114.798C415.471 115.058 415.211 115.318 414.951 115.448C414.561 115.448 414.431 115.188 414.171 114.928C408.708 106.474 403.116 98.0202 397.653 89.4364L401.425 87.2254L421.844 103.483Z" fill="#EA8D8F"/>
<g opacity="0.2">
<path d="M421.844 103.483C419.763 107.254 417.682 111.026 415.601 114.798C415.471 115.058 415.211 115.318 414.951 115.448C414.561 115.448 414.431 115.188 414.171 114.928C408.708 106.474 403.116 98.0202 397.653 89.4364L401.425 87.2254L421.844 103.483Z" fill="black"/>
</g>
<path d="M455.529 124.032C436.671 112.847 417.812 101.792 398.954 90.6069C398.434 90.2168 397.783 89.8266 397.523 89.1763C397.263 88.3959 397.913 87.4855 398.564 86.9653C406.367 78.9017 417.682 74.3497 428.737 75.13C439.922 75.9104 450.587 82.4133 456.049 92.1676C461.642 101.792 461.772 114.798 455.529 124.032Z" fill="#EA8D8F"/>
<path d="M407.147 79.9422C407.147 79.9422 407.408 79.9422 407.928 79.8121C408.448 79.8121 409.098 79.6821 410.009 79.6821C411.829 79.6821 414.561 79.8121 417.812 80.3324C421.064 80.8526 424.965 81.8931 428.997 83.7139C433.029 85.5347 437.191 88.1358 440.962 91.5173C444.734 94.8988 447.725 98.8006 449.936 102.702C452.147 106.474 453.578 110.246 454.488 113.497C455.399 116.749 455.789 119.35 455.919 121.301C456.049 122.211 455.919 122.471 456.049 122.991C456.049 123.512 455.659 124.162 455.659 124.162C455.659 124.162 455.919 123.121 455.789 121.301C455.529 119.48 455.139 116.879 454.228 113.627C452.408 107.384 448.246 98.8006 440.832 92.0376C433.029 85.2746 424.185 82.0231 417.682 80.8526C414.431 80.2023 411.829 80.0722 409.879 80.0722C408.188 79.9422 407.147 80.0722 407.147 79.9422Z" fill="#263238"/>
<path d="M447.856 101.012C447.856 101.142 446.815 101.662 444.994 102.312C443.173 102.962 440.702 103.873 437.841 104.783C434.98 105.694 432.379 106.344 430.558 106.864C428.737 107.384 427.436 107.514 427.436 107.514C427.436 107.384 428.607 106.994 430.428 106.474C432.509 105.824 434.98 105.043 437.581 104.263C440.312 103.353 442.653 102.572 444.734 101.922C446.685 101.272 447.856 100.881 447.856 101.012Z" fill="#263238"/>
<path d="M438.882 77.0809C439.012 77.0809 439.402 79.9422 439.532 83.4537C439.662 86.9653 439.402 89.8266 439.142 89.8266C439.012 89.8266 438.882 86.9653 438.751 83.4537C438.882 79.9422 438.751 77.0809 438.882 77.0809Z" fill="#263238"/>
<path d="M398.434 89.9566C398.434 89.8266 399.994 89.3063 402.595 88.526C405.197 87.7457 408.708 86.7052 412.74 85.7948C416.772 84.8844 420.413 84.104 423.014 83.5838C425.616 83.0636 427.306 82.9335 427.306 83.0636C427.306 83.1936 425.746 83.5838 423.145 84.104C420.543 84.6243 416.902 85.5347 412.87 86.4451C408.838 87.3555 405.327 88.3959 402.725 89.0462C400.124 89.6965 398.434 90.0867 398.434 89.9566Z" fill="#263238"/>
<path d="M431.598 129.364C426.786 125.723 421.584 124.942 415.471 125.202C409.358 125.462 403.376 127.283 397.783 129.754C388.289 133.916 379.315 140.029 373.592 148.743C368 157.587 366.049 169.032 370.341 178.526C370.731 179.436 371.382 180.477 372.292 180.867C373.332 181.257 374.503 180.997 375.543 180.607C386.338 177.095 397.263 173.454 407.277 167.991C417.292 162.399 426.266 154.725 431.728 144.711C433.029 142.24 434.069 139.639 434.329 136.908C434.329 134.306 433.549 131.315 431.598 129.364Z" fill="#EA8D8F"/>
<path d="M431.728 128.324C431.728 128.324 431.468 128.454 430.948 128.584C430.298 128.844 429.647 129.104 428.737 129.364C428.217 129.494 427.697 129.754 427.046 129.884C426.396 130.145 425.876 130.405 425.095 130.665C423.665 131.185 422.104 131.835 420.413 132.616C419.503 133.006 418.723 133.396 417.812 133.786C416.902 134.176 415.991 134.697 414.951 135.217C413 136.127 411.049 137.428 408.838 138.728C404.676 141.33 400.254 144.581 395.962 148.223C391.671 151.994 388.029 155.896 384.908 159.798C383.347 161.749 381.916 163.569 380.746 165.39C380.095 166.301 379.445 167.081 378.925 167.991C378.405 168.902 377.884 169.682 377.364 170.462C376.324 172.023 375.543 173.584 374.893 174.884C374.503 175.535 374.243 176.185 373.853 176.705C373.723 177.225 373.462 177.746 373.202 178.136C372.812 179.046 372.422 179.827 372.162 180.347C371.902 180.867 371.772 181.127 371.772 181.127C371.772 181.127 371.902 180.867 372.032 180.347C372.292 179.827 372.552 179.046 372.942 178.136C373.202 177.616 373.462 177.095 373.723 176.445C373.983 175.925 374.373 175.275 374.633 174.624C375.283 173.324 376.064 171.763 377.104 170.202C377.624 169.422 378.145 168.512 378.665 167.731C379.185 166.821 379.835 166.04 380.486 165.13C381.656 163.309 383.087 161.488 384.647 159.408C387.769 155.506 391.54 151.604 395.832 147.702C400.124 143.931 404.546 140.809 408.838 138.208C410.919 136.908 413 135.737 414.951 134.827C415.991 134.306 416.902 133.786 417.812 133.396C418.723 133.006 419.633 132.616 420.543 132.225C422.234 131.445 423.795 130.925 425.225 130.405C425.876 130.145 426.526 129.884 427.176 129.754C427.827 129.624 428.347 129.364 428.867 129.234C429.777 128.974 430.558 128.714 431.208 128.584C431.468 128.324 431.728 128.194 431.728 128.324Z" fill="#263238"/>
<path d="M395.182 148.873C395.182 149.003 389.59 150.824 382.697 152.645C375.673 154.595 369.951 156.026 369.951 155.766C369.951 155.636 375.543 153.815 382.436 151.994C389.46 150.043 395.182 148.613 395.182 148.873Z" fill="#263238"/>
<path d="M393.231 174.234C393.101 174.234 392.971 172.934 392.971 170.723C392.971 168.512 392.841 165.52 392.971 162.139C393.101 158.757 393.231 155.766 393.491 153.555C393.621 151.344 393.882 150.043 394.012 150.043C394.142 150.043 394.142 151.474 394.012 153.685C393.882 156.156 393.882 159.017 393.751 162.269C393.621 165.52 393.621 168.512 393.491 170.853C393.361 172.803 393.361 174.234 393.231 174.234Z" fill="#263238"/>
<path d="M415.861 162.399C415.601 162.399 414.951 156.416 414.431 149.003C413.78 141.59 413.52 135.477 413.65 135.477C413.91 135.477 414.561 141.46 415.081 148.873C415.731 156.286 416.121 162.399 415.861 162.399Z" fill="#263238"/>
<path d="M388.939 134.566C388.939 134.566 390.37 134.436 392.711 134.436C395.052 134.436 398.173 134.436 401.685 134.566C405.197 134.697 408.318 134.697 410.659 134.827C413 134.957 414.301 134.957 414.301 135.087C414.301 135.087 412.87 135.217 410.529 135.217C408.188 135.217 405.066 135.217 401.555 135.087C398.043 134.957 394.922 134.957 392.581 134.827C390.37 134.827 388.939 134.697 388.939 134.566Z" fill="#263238"/>
<path d="M441.483 212.211C441.483 212.211 441.483 211.951 441.353 211.431C441.353 210.91 441.353 210.13 441.223 209.22C441.092 207.269 441.092 204.538 441.223 201.156C441.223 197.775 441.483 193.743 441.873 189.321C442.263 184.899 442.913 179.957 443.824 174.884C444.734 169.812 445.905 165 447.075 160.708C448.246 156.416 449.416 152.514 450.587 149.393C451.757 146.142 452.668 143.671 453.448 141.85C453.838 141.069 454.098 140.419 454.358 139.899C454.619 139.379 454.618 139.249 454.749 139.249C454.749 139.249 454.749 139.509 454.488 140.029C454.358 140.549 454.098 141.199 453.708 142.11C453.058 143.931 452.147 146.402 451.107 149.653C450.066 152.905 448.896 156.676 447.725 160.968C446.555 165.26 445.514 170.072 444.604 175.144C443.694 180.217 443.043 185.029 442.523 189.451C442.133 193.873 441.743 197.905 441.743 201.286C441.613 204.668 441.613 207.399 441.613 209.22C441.613 210.13 441.613 210.78 441.613 211.431C441.483 211.951 441.483 212.211 441.483 212.211Z" fill="#263238"/>
<path d="M444.474 175.145C444.474 175.275 443.694 176.185 442.263 177.616C440.832 179.046 438.751 180.997 436.41 183.078C434.069 185.159 431.858 186.98 430.168 188.28C428.477 189.581 427.436 190.231 427.436 190.231C427.436 190.101 428.347 189.321 429.908 187.89C431.598 186.33 433.679 184.639 436.02 182.558C438.231 180.607 440.312 178.786 442.003 177.225C443.434 175.925 444.344 175.145 444.474 175.145Z" fill="#263238"/>
<path d="M462.292 189.581C462.162 189.581 461.251 188.41 459.951 186.199C458.39 183.988 456.439 181.127 454.358 178.006C452.147 174.884 450.197 172.153 448.636 169.942C447.205 167.861 446.295 166.561 446.295 166.561C446.425 166.561 447.335 167.731 449.026 169.682C450.587 171.633 452.668 174.494 454.879 177.616C457.09 180.737 459.04 183.728 460.341 185.939C461.642 188.15 462.422 189.581 462.292 189.581Z" fill="#263238"/>
<path d="M452.928 144.191C453.058 144.321 447.075 148.353 439.662 153.165C432.249 157.977 426.136 161.749 426.006 161.488C425.876 161.358 431.858 157.327 439.272 152.514C446.815 147.832 452.928 144.061 452.928 144.191Z" fill="#263238"/>
<path d="M469.705 162.399C469.575 162.529 465.543 158.757 460.731 154.075C455.919 149.393 452.017 145.361 452.147 145.231C452.277 145.101 456.309 148.873 461.121 153.555C466.064 158.237 469.835 162.269 469.705 162.399Z" fill="#263238"/>
<path d="M473.997 162.009L479.069 161.618C482.711 161.358 486.223 160.188 489.344 158.497C490.905 157.587 492.465 156.806 494.156 156.026C500.529 153.555 507.552 153.945 514.315 153.555C525.37 153.035 536.425 150.173 546.309 145.361C546.829 145.101 547.35 144.711 547.74 144.061C548.78 142.11 546.829 140.419 545.139 139.379C536.555 134.046 527.841 128.714 518.087 126.113C508.332 123.512 497.277 123.902 488.954 129.624C479.199 136.387 475.558 150.173 473.997 162.009Z" fill="#EA8D8F"/>
<path d="M547.87 143.41C547.87 143.41 547.61 143.28 546.96 143.02C546.309 142.76 545.529 142.24 544.488 141.72C542.408 140.679 539.416 138.988 535.514 137.168C531.743 135.347 527.061 133.266 521.728 131.835C516.396 130.405 510.153 129.624 503.78 130.405C497.408 131.185 491.555 133.656 487.393 137.428C483.231 141.069 480.63 145.621 478.939 149.393C477.119 153.165 476.078 156.416 475.298 158.757C474.908 159.798 474.647 160.708 474.387 161.358C474.127 162.009 473.997 162.269 473.997 162.269C473.997 162.269 473.997 161.879 474.257 161.358C474.517 160.708 474.777 159.798 475.038 158.757C475.818 156.546 476.858 153.165 478.549 149.393C480.37 145.491 482.841 140.939 487.133 137.168C491.295 133.396 497.277 130.795 503.78 129.884C510.283 129.104 516.526 129.884 521.988 131.445C527.451 133.006 532.003 135.087 535.905 136.907C539.676 138.858 542.668 140.549 544.749 141.72C545.789 142.24 546.569 142.76 547.09 143.15C547.61 143.28 547.87 143.41 547.87 143.41Z" fill="#263238"/>
<path d="M535.645 150.043C535.514 150.173 528.882 145.881 520.688 140.419C512.494 134.957 505.991 130.405 506.121 130.275C506.251 130.144 512.884 134.436 521.078 139.899C529.272 145.361 535.775 149.913 535.645 150.043Z" fill="#263238"/>
<path d="M528.491 129.884C528.491 130.014 526.41 130.535 523.679 130.795C520.948 131.055 518.737 130.925 518.737 130.795C518.737 130.665 520.948 130.535 523.679 130.275C526.28 129.884 528.491 129.754 528.491 129.884Z" fill="#263238"/>
<path d="M499.228 125.983C499.358 126.113 498.448 127.543 497.017 129.364C495.587 131.185 494.416 132.616 494.286 132.486C494.156 132.355 495.066 130.925 496.497 129.104C497.928 127.413 499.098 125.983 499.228 125.983Z" fill="#263238"/>
<path d="M505.211 153.945C505.211 154.075 503.91 153.425 501.96 152.254C500.009 151.084 497.408 149.393 494.676 147.312C491.945 145.231 489.474 143.41 487.653 141.98C485.832 140.549 484.792 139.639 484.922 139.639C484.922 139.509 486.092 140.289 488.043 141.59C489.994 143.02 492.465 144.841 495.197 146.792C497.928 148.743 500.529 150.564 502.35 151.864C504.171 153.165 505.341 153.945 505.211 153.945Z" fill="#263238"/>
<path d="M481.54 183.728C476.728 182.428 470.876 187.24 469.835 192.052C468.795 196.994 470.746 202.066 472.827 206.619C477.639 216.633 484.272 225.997 492.986 233.02C501.699 239.913 512.624 244.465 523.809 244.335C521.728 234.711 524.329 224.827 523.159 215.072C522.119 206.619 518.217 198.555 512.104 192.442C505.991 186.46 497.928 182.558 489.474 181.647C486.353 181.257 482.711 180.737 481.54 183.728Z" fill="#EA8D8F"/>
<path d="M523.679 244.205C523.679 244.205 523.419 244.075 523.029 243.945C522.639 243.685 521.988 243.295 521.208 242.775C519.647 241.604 517.957 239.393 516.396 236.402C515.616 234.841 514.705 233.28 513.925 231.46C513.145 229.639 512.234 227.688 511.324 225.607C510.413 223.526 509.373 221.445 508.072 219.364C506.772 217.283 505.341 215.332 503.65 213.382C500.269 209.48 496.757 206.098 493.636 202.847C490.514 199.595 487.913 196.474 485.962 193.743C484.012 190.882 482.841 188.41 482.191 186.59C481.931 185.679 481.671 185.029 481.54 184.509C481.41 183.988 481.41 183.728 481.41 183.728C481.41 183.728 481.801 184.769 482.451 186.46C483.231 188.15 484.402 190.621 486.353 193.353C488.303 196.084 490.905 199.205 494.026 202.327C497.147 205.578 500.789 208.96 504.171 212.861C505.861 214.812 507.422 216.893 508.592 218.974C509.893 221.055 510.934 223.266 511.844 225.217C512.754 227.298 513.665 229.249 514.445 231.069C515.225 232.89 516.136 234.581 516.916 236.012C518.347 239.003 520.038 241.214 521.468 242.514C522.769 243.685 523.809 244.205 523.679 244.205Z" fill="#263238"/>
<path d="M498.578 236.272C498.448 236.272 498.578 234.971 498.968 233.02C499.358 231.069 500.009 228.208 500.789 225.217C501.699 222.225 502.48 219.494 503.26 217.673C504.04 215.723 504.561 214.552 504.561 214.682C504.691 214.682 504.301 215.983 503.65 217.804C503 219.754 502.22 222.486 501.439 225.477C500.659 228.468 499.879 231.199 499.358 233.15C498.968 235.101 498.708 236.272 498.578 236.272Z" fill="#263238"/>
<path d="M522.769 212.861C522.769 212.991 521.468 212.601 519.387 212.081C517.306 211.561 514.445 210.78 511.194 210C507.942 209.22 505.081 208.699 502.87 208.309C500.789 207.919 499.358 207.659 499.488 207.529C499.488 207.399 500.789 207.529 503 207.789C505.211 208.049 508.072 208.569 511.324 209.35C514.575 210.13 517.436 210.91 519.517 211.561C521.598 212.211 522.899 212.731 522.769 212.861Z" fill="#263238"/>
<path d="M480.5 219.624C480.37 219.624 480.63 218.194 481.02 215.853C481.41 213.512 482.191 210.39 483.101 206.879C484.012 203.367 484.922 200.246 485.702 198.035C486.483 195.824 487.003 194.393 487.133 194.523C487.263 194.523 486.873 195.954 486.223 198.295C485.572 200.506 484.662 203.757 483.751 207.139C482.841 210.65 482.061 213.772 481.54 216.113C480.89 218.324 480.63 219.624 480.5 219.624Z" fill="#263238"/>
<path d="M511.584 192.442C511.584 192.572 505.471 192.182 498.058 191.402C490.514 190.621 484.532 189.841 484.532 189.581C484.532 189.451 490.645 189.841 498.058 190.621C505.601 191.402 511.714 192.182 511.584 192.442Z" fill="#263238"/>
<path d="M507.162 266.055C507.162 266.185 485.832 266.445 459.431 266.445C433.029 266.445 411.699 266.315 411.699 266.055C411.699 265.925 433.029 265.665 459.431 265.665C485.832 265.795 507.162 265.925 507.162 266.055Z" fill="#455A64"/>
<path d="M492.335 293.627C492.335 293.757 477.899 294.017 460.211 294.017C442.393 294.017 428.087 293.887 428.087 293.627C428.087 293.497 442.523 293.237 460.211 293.237C477.899 293.237 492.335 293.367 492.335 293.627Z" fill="#455A64"/>
<path d="M491.815 297.529C491.815 297.659 477.639 297.919 460.211 297.919C442.783 297.919 428.607 297.789 428.607 297.529C428.607 297.399 442.783 297.139 460.211 297.139C477.639 297.139 491.815 297.399 491.815 297.529Z" fill="#455A64"/>
<path d="M492.855 290.376C492.855 290.506 478.029 290.766 459.561 290.766C441.223 290.766 426.266 290.636 426.266 290.376C426.266 290.246 441.092 289.986 459.561 289.986C478.029 289.986 492.855 290.116 492.855 290.376Z" fill="#455A64"/>
</g>
<defs>
<clipPath id="clip0_260_14">
<rect width="180" height="258.035" fill="white" transform="translate(368 75)"/>
</clipPath>
</defs>
</svg>
