<?xml version="1.0" encoding="utf-8"?>
<!-- Generator: Adobe Illustrator 25.0.1, SVG Export Plug-In . SVG Version: 6.00 Build 0)  -->
<svg version="1.1" id="Camada_1" xmlns="http://www.w3.org/2000/svg" xmlns:xlink="http://www.w3.org/1999/xlink" x="0px" y="0px"
	 viewBox="0 0 339.2 308.7" style="enable-background:new 0 0 339.2 308.7;" xml:space="preserve">
<style type="text/css">
	.st0{fill:#455A64;}
	.st1{fill:#263238;}
	.st2{fill:#AE7461;}
	.st3{fill:#6F4439;}
	.st4{fill:#E0E0E0;}
	.st5{fill:#E8E3E3;}
	.st6{opacity:0.3;}
	.st7{fill:#C9BED1;}
	.st8{fill:#AE9BBA;}
</style>
<path class="st0" d="M133.1,172.7c-3.9-6.7-8.1-13.4-14.3-19c-15.6-14.1-42.4-18.3-65.2-13.2c-17.6,3.9-34.2,13.8-38.8,27.8
	c-2.1,6.3-1.6,13-1,19.5c4.3,42.5,25.6,119.7,26.4,121.5l143.5-0.6C175.3,261.8,158.2,215.8,133.1,172.7z"/>
<path class="st1" d="M183.7,308.7c0,0-0.1-0.4-0.2-1.1c-0.1-0.7-0.4-1.8-0.6-3.2c-0.3-1.4-0.6-3.2-1-5.2c-0.5-2.1-1-4.4-1.6-7.1
	c-2.4-10.7-6.4-26-12.8-44.5c-6.5-18.4-15.5-40-27.9-62.7c-0.8-1.4-1.6-2.8-2.3-4.3c-0.8-1.4-1.6-2.9-2.4-4.3
	c-1.6-2.9-3.3-5.8-5.1-8.6c-3.6-5.7-7.8-11.3-13.3-15.6c-0.7-0.6-1.4-1.1-2.1-1.6c-0.7-0.5-1.4-1-2.2-1.5c-1.5-0.9-3-1.9-4.6-2.6
	l-2.4-1.2l-2.5-1l-1.2-0.5l-1.3-0.4l-2.6-0.9c-6.9-2.1-14.2-3.3-21.7-3.6c-7.4-0.2-14.8,0.4-21.9,1.9c-7.1,1.6-13.9,4-20,7.4
	c-3.1,1.7-6,3.6-8.6,5.9c-2.6,2.2-5,4.7-6.9,7.5c-0.4,0.7-0.9,1.4-1.3,2.1c-0.4,0.7-0.8,1.5-1.1,2.2c-0.3,0.8-0.6,1.5-0.9,2.3
	c-0.3,0.8-0.5,1.6-0.7,2.4c-0.8,3.2-1,6.5-0.9,9.7c0.1,3.2,0.4,6.4,0.8,9.5c0.4,3.1,0.7,6.2,1.2,9.2c0.9,6.1,1.9,11.9,2.9,17.6
	c2.1,11.3,4.3,21.8,6.4,31.3c4.3,19.1,8.2,34.4,11,45c1.4,5.3,2.5,9.4,3.3,12.2c0.4,1.4,0.7,2.4,0.9,3.2c0.2,0.7,0.3,1.1,0.3,1.1
	s-0.1-0.4-0.4-1.1c-0.2-0.7-0.5-1.8-0.9-3.1c-0.8-2.8-1.9-6.9-3.4-12.1c-2.8-10.6-6.8-25.9-11.1-45c-2.1-9.5-4.4-20-6.5-31.3
	c-1.2-5.7-2.3-11.6-3.1-17.7c-0.5-3-0.8-6.1-1.2-9.3c-0.4-3.1-0.7-6.3-0.8-9.6c-0.1-3.2,0.1-6.6,0.9-9.8c0.2-0.8,0.4-1.6,0.7-2.4
	c0.3-0.8,0.6-1.6,0.9-2.4c0.4-0.8,0.8-1.5,1.2-2.3c0.4-0.7,0.9-1.4,1.4-2.2c1.9-2.8,4.3-5.3,6.9-7.6c2.6-2.3,5.6-4.2,8.7-5.9
	c6.2-3.4,13-5.9,20.1-7.5c7.1-1.5,14.6-2.2,22-2c7.5,0.3,14.8,1.5,21.8,3.6l2.6,0.9l1.3,0.4l1.3,0.5l2.5,1l2.4,1.2
	c1.6,0.7,3.1,1.7,4.7,2.6c0.8,0.5,1.5,1,2.2,1.5c0.7,0.5,1.5,1,2.1,1.6c5.6,4.3,9.9,10,13.4,15.7c1.8,2.9,3.5,5.8,5.1,8.7
	c0.8,1.4,1.6,2.9,2.4,4.3c0.8,1.4,1.6,2.9,2.3,4.3c12.3,22.8,21.3,44.3,27.8,62.8c6.4,18.5,10.3,33.9,12.7,44.6
	c0.6,2.7,1.1,5.1,1.5,7.1c0.4,2.1,0.7,3.8,1,5.2c0.3,1.4,0.5,2.5,0.6,3.2C183.7,308.3,183.7,308.7,183.7,308.7z"/>
<path class="st1" d="M20.6,158.3c0,0,0,0.1,0,0.4s-0.1,0.7-0.2,1.2c-0.1,1-0.3,2.6-0.4,4.5c-0.2,3.9,0,9.7,1.2,16.6
	c2.4,13.9,5.4,33.2,9.7,54.3c2.2,10.5,4.6,20.5,7.1,29.5c2.5,9,5.2,17,7.6,23.6c2.5,6.6,4.7,11.9,6.3,15.5c0.8,1.8,1.4,3.2,1.9,4.1
	c0.2,0.5,0.4,0.8,0.5,1.1c0.1,0.2,0.2,0.4,0.1,0.4c0,0-4.1-7.7-9.1-20.9c-2.5-6.6-5.2-14.6-7.7-23.6s-4.9-19-7.1-29.5
	c-4.3-21.1-7.2-40.4-9.6-54.3c-1.1-7-1.3-12.7-1-16.7C20,160.4,20.6,158.3,20.6,158.3z"/>
<path class="st1" d="M39.1,192.3c0,0.1-1,0.3-2.6,0.9c-1.6,0.6-3.6,1.5-5.7,3c-4.2,2.9-6.2,6.7-6.3,6.6c0,0,0.4-1,1.4-2.4
	c1-1.4,2.6-3.1,4.7-4.6s4.3-2.4,5.9-2.9C38.1,192.3,39.1,192.2,39.1,192.3z"/>
<path class="st1" d="M33.5,201.8c0,0.2-1.9,0.1-4.1,0.6s-3.9,1.4-4,1.2c-0.1-0.1,1.5-1.2,3.9-1.8C31.6,201.4,33.5,201.7,33.5,201.8z
	"/>
<path class="st1" d="M29.4,250.3c-0.1,0,0-0.3,0.2-0.6c0.2-0.3,0.6-0.7,1.2-0.9c0.6-0.2,1.2-0.2,1.5-0.1c0.4,0.1,0.6,0.3,0.5,0.4
	c-0.1,0.1-0.9-0.2-1.9,0.2C30,249.5,29.5,250.3,29.4,250.3z"/>
<path class="st1" d="M31.3,254.4c-0.1,0-0.1-1,0.9-1.8c0.9-0.7,1.9-0.6,1.9-0.5c0,0.1-0.8,0.2-1.6,0.9
	C31.8,253.6,31.5,254.4,31.3,254.4z"/>
<path class="st1" d="M66.9,26c-4,0.4-7.5,3.5-8.4,7.4c-0.2,0.9-0.4,2-0.9,2.7c-0.8,1-2.1,1.3-3.2,1.8c-3.1,1.4-5.1,4.9-4.7,8.3
	c-2.4,0.7-4.9,1.4-6.6,3.3c-1.7,1.9-1.9,5.2,0.1,6.6c-3.7,2.7-3.9,9-0.4,11.9c-4.4,2.2-7.1,7.4-6.5,12.4c-2.3,0.7-4.8,1.5-6.1,3.5
	c-1.4,2-0.7,5.4,1.6,5.9c-1.5,2.5-0.8,6,1.6,7.7c-2.7,1.4-3.3,5.7-1,7.7c2.3,2,6.5,0.9,7.6-2c0.6,2.8,2.8,5.1,5.5,6.1
	c-1.7,3.5-1,8,1.7,10.8c-2.4,0.9-3.8,3.8-2.9,6.1c0.9,2.4,3.8,3.8,6.2,2.8c0.4,2.3,1.1,4.7,2.6,6.5c1.5,1.8,4.2,2.8,6.4,1.8
	c-1.4,3.7-1.4,8.3,1.2,11.3c0.7,0.9,1.7,1.6,2.6,2.3c1.9,1.5,3.8,3,5.7,4.5c1.8,1.4,4.6,2.7,6.1,1c2.7,4.3,9.7,5.1,13.4,1.5
	c2.1,4.7,8.5,5.1,13.6,4.8c1.6-0.1,3.3-0.2,4.7-1.2c2.1-1.4,2.7-4.3,4-6.4c0.7-1.2,1.7-2.2,2.4-3.5c1.7-3.2,0.7-7.6-2.2-9.8
	c3-4.3,2.2-10,1.4-15.1c-0.7-4.4-1.5-9-4-12.6c-0.4-0.5-0.8-1.1-0.8-1.7c0-0.9,0.8-1.5,1.4-2.1c3.2-2.9,4.5-7.8,3.1-11.9
	c-0.4-1.2-1.1-2.5-0.9-3.7c0.1-1,0.9-1.9,1.5-2.7c3.1-4.1,4.5-10.6,0.6-13.9c5.2-4.4,6.7-12.6,3.3-18.6c5.1-3.3,6.7-11.1,3.3-16.1
	c2-2.6,4.1-5.3,4.4-8.5c0.4-3.3-1.9-7-5.1-6.9c1.4-1.5,1.2-4,0-5.8c-1.2-1.7-3-2.8-4.8-3.8c-2.7-1.6-5.6-3.2-8.7-3.3
	c-3.1-0.1-6.6,1.5-7.4,4.6c-0.4-1.7-2.2-2.6-4-2.5c-1.7,0.1-3.2,1.1-4.5,2c-2.4-3.5-8.8-3-10.5,1c-3.2-3-9.5-1-10.4,3.3"/>
<path class="st1" d="M215.9,56.8c-1.2-3-4.7-4.8-8-5c1.9-2.5,0.9-6.4-1.6-8.2c-2.5-1.8-6.1-1.7-9-0.6c1.1-3.7-0.6-7.8-3.6-10.2
	c-3-2.4-7-3.2-10.8-2.7c1.2-3.1,0.6-6.9-1.7-9.5c-2.2-2.5-5.9-3.7-9.2-2.9c-0.7-2.6-3.4-4.3-6.1-4.6c-2.7-0.4-5.3,0.3-7.9,1
	c-1.4-4.3-5.3-7.7-9.8-8.4c-4.5-0.7-9.2,1.5-11.8,5.3c-6.5-3-19.4,0.4-19.4,9.6l29,129c2.9,2.3,9.1,5.9,20.6,5.9
	c3.7,0,12.5-6.7,11.9-10.4c5.7-0.4,10.5-6.1,9.9-11.9c3.6,1.2,6.6-2.8,8.3-6.2c0.9-1.7-0.4,0.6,0.5-1.1c2.8-5.1,0.9-10.4-0.4-11.7
	c2.2,0.4,6.2,1,8.5-2.9c0.9-1.7,0.1-5.9,0.1-5.9c0.4-2,1.2-3,1.7-5c0.4-2-0.1-4.4-1.8-5.4c2.9-0.4,6.5-1.6,6.6-4.5
	c0.1-1.3-0.7-2.5-0.7-3.8c0-0.9,0.4-1.9,0.6-2.8c0.9-4.5-3.2-8.3-6.9-11.1c1.9-0.8,4-1.6,5.5-3.1c1.5-1.5,2.3-3.9,1.4-5.8
	C215.2,64.1,217.2,59.9,215.9,56.8z"/>
<path class="st2" d="M152.8,154.4c-0.6-7.4-1.4-16.8-1.4-16.8s17.2-3,20.6-25.4c1.7-11.2,1.1-29.5,0.1-44.4
	c-0.9-13.4-13.4-31.1-30.1-30.2l-7.4-0.4L106.9,50c-4,0.4-7.1,4-7,8l5.3,100.6l19.3,26.4l28.6-19.2L152.8,154.4z"/>
<path class="st3" d="M138.5,109c0.1-1.2,0.6-2.2,1.4-3c1.6-1.5,4-1.8,5.8-0.7c1.9,1.1,3,3.5,2.8,5.9c-0.9,1.4-2.4,2.5-4,2.7
	c-0.3,0.1-0.5,0.1-0.8,0.1c-1.3,0.1-2.6-0.3-3.6-1.2C139.1,111.9,138.3,110.4,138.5,109z"/>
<path class="st1" d="M163.2,86.1c0.1,1.5-1.2,2.8-2.7,2.9c-1.6,0.1-2.9-1.1-3-2.6c-0.1-1.5,1.2-2.8,2.7-2.9
	C161.8,83.4,163.1,84.6,163.2,86.1z"/>
<path class="st1" d="M166.8,75.5c-0.4,0.4-2.5-1.2-5.6-1.2c-3.1,0-5.3,1.6-5.7,1.2c-0.1-0.1,0.2-0.9,1.2-1.6
	c0.9-0.7,2.6-1.4,4.5-1.4c1.9,0,3.5,0.7,4.5,1.4C166.6,74.7,167,75.3,166.8,75.5z"/>
<path class="st1" d="M149.1,100.9c0-0.1,1.9-0.5,5.1-0.9c0.8-0.1,1.5-0.2,1.7-0.8c0.2-0.6-0.1-1.4-0.5-2.3c-0.7-1.9-1.5-3.9-2.4-6
	c-3.2-8.6-5.6-15.6-5.3-15.8c0.4-0.1,3.3,6.7,6.6,15.2c0.8,2.1,1.5,4.1,2.2,6.1c0.3,0.9,0.8,2,0.4,3.1c-0.2,0.6-0.8,1-1.3,1.2
	c-0.5,0.1-0.9,0.1-1.4,0.2C151,101,149.1,101.1,149.1,100.9z"/>
<path class="st3" d="M151.3,137.6c0,0-15.1,1-30.1-7.9c0,0,8.1,15.5,30.5,13.4L151.3,137.6z"/>
<path class="st1" d="M140,103.1c0.5,0,0.5,3.3,3.4,5.7c2.9,2.4,6.5,2,6.5,2.5c0.1,0.2-0.8,0.7-2.3,0.7c-1.5,0.1-3.7-0.4-5.4-1.9
	c-1.7-1.4-2.5-3.4-2.7-4.8C139.3,103.9,139.7,103.1,140,103.1z"/>
<path class="st1" d="M166.9,68.6c-0.5,0.8-2.9,0.3-5.6,0.5c-2.7,0.1-5.1,1-5.7,0.3c-0.3-0.4,0-1.1,1-1.8c0.9-0.8,2.6-1.4,4.5-1.6
	c1.9-0.1,3.6,0.4,4.6,0.9C166.6,67.6,167.1,68.2,166.9,68.6z"/>
<path class="st1" d="M129.1,86.6c0,1.5,1.3,2.7,2.9,2.8c1.6,0,2.9-1.2,2.9-2.7c0-1.5-1.3-2.7-2.9-2.8
	C130.4,83.8,129.1,85.1,129.1,86.6z"/>
<path class="st1" d="M125.6,76.8c0.4,0.4,2.5-1.4,5.6-1.4c3.1-0.1,5.4,1.3,5.8,0.9c0.1-0.1-0.2-0.9-1.2-1.5c-1-0.7-2.7-1.3-4.6-1.2
	c-1.9,0.1-3.5,0.9-4.4,1.7C125.8,76,125.4,76.6,125.6,76.8z"/>
<path class="st1" d="M126.9,66.8c0.6,0.7,3-0.1,5.8-0.3c2.9-0.2,5.3,0.2,5.8-0.5c0.2-0.4-0.2-1.1-1.3-1.7c-1.1-0.7-2.8-1.1-4.8-0.9
	c-1.9,0.1-3.7,0.9-4.6,1.6C126.9,65.7,126.6,66.4,126.9,66.8z"/>
<path class="st2" d="M106,95.5c0-1.7-1.9-5.6-3.6-5.9C98,89,90,89.3,90,100.5c0,15.3,15.3,12.2,15.4,11.8
	C105.4,112,106,101.3,106,95.5z"/>
<path class="st3" d="M101.2,106.7c-0.1-0.1-0.3,0.2-0.7,0.4c-0.4,0.2-1.2,0.4-2,0.1c-1.6-0.6-3-3.2-3-5.9c0-1.4,0.3-2.7,0.7-3.8
	c0.5-1.1,1.2-1.9,2-2c0.8-0.2,1.4,0.3,1.6,0.7c0.2,0.4,0.1,0.7,0.2,0.8c0.1,0.1,0.4-0.3,0.2-0.9c-0.1-0.3-0.2-0.7-0.6-0.9
	c-0.4-0.3-0.9-0.4-1.4-0.4c-1.2,0.1-2.2,1.2-2.8,2.4c-0.6,1.2-0.9,2.7-0.9,4.3c0.1,3.1,1.7,6,3.9,6.6c1.1,0.3,1.9-0.1,2.5-0.4
	C101.2,107,101.2,106.7,101.2,106.7z"/>
<path class="st4" d="M92.8,106.1c0,0-0.8,0.3-2,1.2c-1.2,0.9-2.7,2.8-3.2,5.6c-0.3,1.4-0.3,3,0.1,4.6c0.4,1.6,1.3,3.2,2.6,4.5
	c1.2,1.4,2.9,2.5,4.8,3.1c1.9,0.7,4.1,0.7,6.1,0.1c2-0.6,3.9-1.7,5.2-3.3c1.4-1.5,2.2-3.4,2.5-5.2c0.5-3.7-0.9-7.1-2.8-9
	c-1-1-2.2-1.6-3.2-2c-1-0.4-1.9-0.6-2.7-0.6c-0.8-0.1-1.4,0-1.8,0.1c-0.4,0.1-0.6,0.2-0.6,0.2c0,0.1,0.8-0.3,2.3-0.1
	c0.7,0.1,1.7,0.3,2.7,0.7c0.9,0.4,2.1,1,3,2c1.9,1.9,3.2,5.1,2.6,8.7c-0.3,1.7-1.1,3.5-2.3,4.9c-1.3,1.4-3,2.5-5,3.1
	c-1.9,0.6-4,0.6-5.8,0c-1.8-0.6-3.4-1.7-4.6-2.9c-1.2-1.3-2.1-2.8-2.5-4.3c-0.4-1.5-0.5-3-0.2-4.3c0.4-2.7,1.9-4.5,3-5.5
	C92.1,106.5,92.8,106.2,92.8,106.1z"/>
<path class="st1" d="M129.7,42.4c-10.4,0-20.7,2-30.3,5.9c-2.9,1.2-5.8,2.7-7.4,5.3c-1.4,2.3-1.5,5.2-1.4,7.9
	c0.2,8.5,3.8,18.9,7.1,26.7l10.7,6.2c8.2-2.1,4.2-16.1,3.7-23.2c5.7-2.6,9.5-8.7,9.5-14.9C126.2,53.2,129.3,47.9,129.7,42.4z"/>
<path class="st1" d="M126.7,38.3c-3.4-0.3-6.9,1.4-8.7,4.3c-1.8,2.9-1.9,6.8-0.1,9.8c-3.7,0.4-6.8,3.8-6.9,7.6
	c-0.1,3.8,2.7,7.3,6.4,8c-2.2,0.9-3.6,3.3-3.8,5.6c-0.1,2.4,1.2,4.7,3,6.2c1.3,1.1,3,1.8,4.6,1.7c1.7-0.1,3.3-1.3,3.8-2.9
	c0.4-1.6-0.6-3.6-2.2-3.9c2.3-0.6,3.6-3.2,3.5-5.6c-0.1-2.4-1.3-4.5-2.5-6.5c2.5-1.4,2.8-5.5,0.6-7.2c3.5-0.4,6.7-3.2,7.7-6.7
	c0.2-0.9-0.4-2.2-1.1-1.7c2.5-0.8,4-3.9,3-6.4"/>
<path class="st1" d="M179.9,72.9c1.2-6.4-2-11.3-6.7-15.8c3.7-6.3,1.8-15.2-4.1-19.4c0.6-2.7-0.4-5.7-2.6-7.4s-5.3-2-7.9-0.7
	c-2-2.6-4.3-5.3-7.4-6.5c-3.1-1.2-7.3,0-8.2,3.2c-3-4.8-10.8-5.6-14.7-1.6c-4.1-2-9.7,2-9.2,6.5l5.3,7.2c-2.6,1.7-3.9,5.1-3.2,8.1
	c0.7,3,3.5,5.3,6.6,5.6c-1.2,3.5-0.3,7.6,2.3,10.2c1.2,1.2,3.8,1.7,4.2,0c1.2,1.6,4,0.2,4.4-1.7c0.4-2-0.7-3.8-1.8-5.5
	c1.9,0.7,4.3-0.4,5-2.2c0.8-1.9-0.1-4.3-1.9-5.1c1.6,0.1,3.2,0.2,4.8,0.4c-0.4,2.5,0.1,5.1,1.8,6.9c1.7,1.8,4.7,2.4,6.6,0.9
	c-1.2,4.7,3.2,10,8,9.5c0,0,2.5,0.9,3.7-2c1.2-2.9,0-6.5,0-6.5s1,8.5,4.6,9.3c1.3,0.4,2.2,2,2.7,4C173.3,73.4,177.2,74.9,179.9,72.9
	z"/>
<path class="st1" d="M111.4,90.1c2.9-1.4,3.5-6,1.2-8.2c2.2-2.5,1.2-7-1.9-8.3c1.9-2.7,2.2-6.5,0.6-9.5c-1.6-2.9-5.2-4.6-8.4-3.8
	c-3.2,0.8-5.6,4.2-5.1,7.4l1.4,15c-0.9,0.9-1,2.5-0.2,3.4c0.8,0.9,2.3,1.2,3.4,0.5c-1.5,1.8-2,4.5-1.2,6.7c0.3,0.8,0.7,1.5,1.4,1.9
	c0.4,0.2,0.9,0.2,1.4,0.1c-1.2,1.4-1,3.9,0.6,5.1c1.8,1.3,4.8,0.4,5.4-1.8c0.9,0.8,2.5,0.5,3.2-0.4c0.8-0.9,1.1-2.2,1.2-3.3
	C114.3,93,113.4,90.6,111.4,90.1z"/>
<path class="st0" d="M174.6,79.9c0,0,0.4,0.1,1.2,0.1c0.8,0,1.9-0.2,3.2-1c0.6-0.4,1.2-0.9,1.7-1.7c0.5-0.7,0.9-1.7,0.9-2.7
	c0.1-1-0.1-2.2-0.7-3.3c-0.6-1-1.4-2-2.7-2.6l-0.2-0.1l0.1-0.1c1.9-1.4,2.8-4.6,1.8-7.2c-0.4-1.4-1.4-2.6-2.7-3.3
	c-0.6-0.4-1.4-0.5-2.2-0.4c-0.4,0.1-0.7,0.1-1.1,0.4c-0.3,0.2-0.6,0.5-0.8,0.9c-0.4,0.7-0.4,1.6,0.1,2.1c0.6,0.5,1.4,0.6,2.2,0.4
	s1.4-0.9,1.7-1.7c0.3-0.8,0.3-1.7,0.2-2.5c-0.2-1.7-0.9-3.5-2.1-4.9c-0.6-0.7-1.3-1.3-2.2-1.7c-0.9-0.4-1.8-0.4-2.7,0l-0.5,0.2
	l0.2-0.5c1.3-2.5,1.7-5.6,0.5-8.3c-0.4-0.9-1.1-1.9-1.9-2.5c-0.8-0.7-1.8-1.1-2.8-1.4c-2-0.5-4.3,0-5.6,1.4l-0.3-0.2
	c0.7-1.1,0.6-2.6,0-3.8c-0.7-1.2-1.7-2.1-2.9-2.5c-1.2-0.4-2.5-0.4-3.8-0.1c-1.2,0.3-2.4,0.7-3.5,1.3l-0.3,0.1V34
	c0.1-1.7-0.4-3.4-1.5-4.7c-1-1.3-2.5-2.1-4-2.2c-1.5-0.1-3,0.3-4.2,1.1s-2.1,1.9-2.5,3.1l-0.1,0.2l-0.1-0.1c-1.9-2-4.3-3-6.5-3.2
	c-2.2-0.2-4,0.2-5.4,0.7c-1.4,0.6-2.4,1.3-3,1.8c-0.3,0.3-0.5,0.5-0.7,0.7c-0.1,0.1-0.2,0.2-0.2,0.2s0.3-0.4,0.8-0.9
	c0.6-0.5,1.5-1.3,3-1.9s3.3-1,5.5-0.8c1.1,0.1,2.2,0.4,3.4,0.9c1.2,0.5,2.3,1.2,3.2,2.3l-0.2,0.1c0.4-1.3,1.4-2.5,2.6-3.3
	c1.2-0.8,2.8-1.3,4.4-1.2c3.2,0.3,6.1,3.5,5.8,7.3l-0.2-0.1c1.1-0.6,2.3-1,3.5-1.3c1.3-0.3,2.7-0.3,4,0.1c1.3,0.4,2.5,1.4,3.1,2.6
	c0.4,0.7,0.6,1.3,0.6,2c0,0.7-0.1,1.4-0.6,2.1l-0.3-0.2c1.4-1.6,3.9-2.1,6-1.6c1.1,0.2,2.1,0.7,3,1.4c0.9,0.7,1.5,1.7,1.9,2.7
	c1.2,2.9,0.8,6.1-0.5,8.7l-0.2-0.3c0.9-0.4,2-0.4,3,0c0.9,0.4,1.7,1,2.3,1.7c1.2,1.4,1.9,3.3,2.2,5.1c0.1,0.9,0.1,1.9-0.2,2.7
	c-0.1,0.4-0.4,0.9-0.7,1.2c-0.3,0.4-0.7,0.6-1.2,0.7c-0.9,0.3-1.9,0.2-2.6-0.4c-0.4-0.4-0.5-0.8-0.6-1.2c0-0.4,0.1-0.9,0.3-1.3
	c0.2-0.4,0.5-0.7,0.9-0.9c0.4-0.2,0.8-0.4,1.2-0.4c0.9-0.1,1.7,0.1,2.4,0.5c1.4,0.7,2.5,2,2.9,3.5c1,2.8,0.1,6-1.9,7.5v-0.2
	c1.2,0.6,2.2,1.6,2.7,2.7c0.6,1.1,0.8,2.2,0.7,3.3c-0.1,1.1-0.5,2-1,2.8c-0.5,0.7-1.2,1.3-1.8,1.7c-1.3,0.8-2.5,0.9-3.2,0.9
	C174.9,80,174.6,79.9,174.6,79.9z"/>
<path class="st0" d="M79.1,109.9c0,0-0.4,0-1.2-0.2c-0.7-0.2-1.9-0.8-2.9-2c-0.5-0.6-1-1.3-1.3-2.2c-0.3-0.9-0.4-2-0.2-3
	s0.7-2.2,1.5-3.2c0.8-0.9,1.9-1.8,3.3-2.1l0.1,0.2c-0.6,0.4-1.5,0.4-2.2,0.1c-0.7-0.3-1.4-0.7-1.9-1.4c-1-1.4-1.1-3.2-0.8-4.9
	c0.1-0.9,0.4-1.7,0.6-2.6c0.3-0.9,0.6-1.7,1.2-2.5s1.4-1.4,2.3-1.8s2.1-0.4,3,0.2l0.1,0.1l-0.1,0.1c-1.4,1.3-3.5,1.5-5.2,0.8
	c-0.9-0.4-1.7-0.9-2.2-1.7c-0.6-0.8-0.9-1.7-1-2.7c-0.2-2,0.5-4,2.1-5.4c1.5-1.4,3.6-2.1,5.7-2.1h0.3l-0.1,0.2
	c-0.1,0.4-0.4,0.7-0.9,0.9c-0.4,0.1-0.8,0.1-1.2,0.1c-0.8-0.1-1.4-0.6-1.9-1.2c-0.4-0.7-0.4-1.5-0.3-2.3c0.1-0.8,0.5-1.4,0.9-2.1
	c0.4-0.7,0.8-1.3,1.2-2c0.4-0.7,0.9-1.2,1.4-1.8c1-1.2,2.5-2.1,4.2-2.1c0.6,0,1.3,0.1,1.8,0.5l0.5,0.3l-0.6,0.1
	c-2.1,0.1-4.1-1-5.3-2.7c-0.6-0.9-0.9-1.8-1-2.8c-0.1-1,0.2-2,0.6-3c0.9-1.8,2.6-3.2,4.5-3.4c1-0.1,1.9,0.1,2.8,0.7
	c0.4,0.3,0.8,0.6,1,1c0.3,0.4,0.4,0.9,0.4,1.4v0.1l-0.1,0.1c-0.6,0.2-1.3,0.1-1.9-0.2c-0.6-0.3-1-0.8-1.4-1.3
	c-0.6-1-0.9-2.4-0.4-3.5c0.4-1.2,1.2-2.1,2.1-2.8c0.9-0.7,1.9-1.3,2.8-1.8l-0.1,0.1c-0.4-2.1,0.1-4.2,1.2-5.9c1-1.7,2.5-3,4.3-3.5
	c1.7-0.6,3.5-0.6,5.1-0.1c1.6,0.4,3,1.4,4,2.5l-0.2,0.1c0-1.5,0.5-3,1.2-4.1c0.7-1.2,1.7-2.1,2.7-2.7c1-0.7,2.1-1,3.1-1.1
	c1-0.1,1.9-0.1,2.7,0.1c1.7,0.4,2.7,1,3.4,1.5c0.7,0.5,0.9,0.9,0.9,0.9s-0.1-0.1-0.2-0.2c-0.1-0.1-0.4-0.4-0.7-0.7
	c-0.6-0.5-1.8-1.2-3.4-1.4c-0.8-0.1-1.7-0.2-2.7-0.1c-1,0.1-2,0.5-3,1.2c-1,0.7-1.9,1.5-2.6,2.7s-1.2,2.5-1.2,4v0.3l-0.2-0.2
	c-1-1.1-2.3-2-3.9-2.4c-1.6-0.4-3.3-0.4-5,0.1c-1.7,0.6-3.2,1.8-4.1,3.5c-0.9,1.6-1.4,3.7-1.1,5.6v0.1l-0.1,0.1
	c-0.9,0.5-1.9,1.1-2.7,1.8s-1.6,1.6-1.9,2.7c-0.4,1-0.2,2.2,0.4,3.2c0.3,0.5,0.7,0.9,1.2,1.2c0.5,0.3,1.1,0.4,1.6,0.1l-0.1,0.1
	c0.1-0.9-0.4-1.7-1.2-2.1c-0.7-0.5-1.7-0.7-2.5-0.7c-1.8,0.2-3.5,1.5-4.3,3.2c-0.4,0.9-0.6,1.8-0.6,2.7c0.1,0.9,0.4,1.9,0.9,2.7
	c1.1,1.6,3,2.7,5,2.5l-0.1,0.4c-0.5-0.3-1.1-0.4-1.7-0.4c-0.7,0-1.5,0.2-2.2,0.6c-0.6,0.4-1.2,0.9-1.7,1.4c-1,1.1-1.8,2.5-2.6,3.7
	c-0.4,0.7-0.6,1.3-0.8,2c-0.1,0.7-0.1,1.4,0.2,2c0.4,0.6,1,0.9,1.7,1.1c0.6,0.1,1.4-0.1,1.6-0.7l0.1,0.2c-2-0.1-4,0.7-5.5,2
	c-1.4,1.3-2.2,3.3-1.9,5.1c0.1,0.9,0.4,1.8,0.9,2.6c0.5,0.7,1.3,1.3,2.1,1.7c1.7,0.7,3.6,0.4,4.8-0.7v0.3c-0.8-0.5-1.8-0.5-2.7-0.2
	c-0.9,0.3-1.7,0.9-2.2,1.7c-0.5,0.7-0.9,1.6-1.2,2.5c-0.3,0.9-0.5,1.7-0.6,2.5c-0.3,1.7-0.2,3.5,0.7,4.7c0.9,1.2,2.6,1.9,3.8,1.3
	l0.1,0.2c-1.3,0.4-2.5,1.1-3.2,2c-0.8,0.9-1.3,2-1.5,3.1c-0.2,1.1-0.1,2.1,0.2,3c0.3,0.9,0.7,1.6,1.2,2.2c1,1.2,2.1,1.7,2.8,2
	C78.6,109.9,79.1,109.9,79.1,109.9z"/>
<path class="st0" d="M53.9,102.3c0,0-0.1,0.1-0.4,0.1c-0.1,0.1-0.3,0.1-0.4,0.1c-0.1,0-0.4,0.1-0.6,0c-0.9,0-2.4-0.4-3.6-1.7
	c-0.6-0.7-1.2-1.5-1.4-2.5c-0.3-1.1-0.4-2.2-0.1-3.5c0.2-1.2,0.7-2.5,1.4-3.8c0.4-0.7,0.7-1.2,1.2-1.9c0.4-0.6,1.1-1.2,2-1.3v0.3
	c-0.8,0.1-1.7-0.1-2.3-0.7c-0.6-0.5-1.2-1.2-1.5-2c-0.6-1.7-0.3-3.5,0.4-5.2c0.7-1.7,1.7-3.3,3.1-4.7c0.7-0.7,1.5-1.2,2.5-1.6
	c0.9-0.4,2.1-0.3,3,0.1l-0.1,0.3c-1.1-0.6-1.7-1.8-2-3c-0.3-1.2-0.2-2.5,0.1-3.7c0.3-1.2,0.6-2.5,1.3-3.6s1.5-2.2,2.7-2.7
	c1.2-0.5,2.7-0.6,4,0.1c0.6,0.4,1.1,0.9,1.3,1.6c0.1,0.4,0.1,0.7,0,1.1s-0.4,0.7-0.7,0.9c-0.6,0.4-1.5,0.3-2.1-0.1
	c-0.6-0.4-0.9-1.1-1.2-1.8c-0.4-1.4-0.4-2.8-0.1-4.2c0.9-4,4.3-7.3,8.3-7.7v0.4c-0.9-0.2-1.6-0.8-2-1.5c-0.4-0.7-0.6-1.6-0.6-2.5
	C66.1,45.8,66.7,44,68,43c1.2-1.1,2.7-1.7,4.3-2c1.5-0.4,3-0.4,4.5-0.6l-0.1,0.3c-1.1-1.9-0.9-4.2-0.1-6c0.8-1.8,2.2-3.3,4-4
	c1.7-0.7,3.6-0.9,5.3-0.7c1.7,0.2,3.2,0.9,4.6,1.7h-0.1c2.3-2.2,5.1-3.4,7.6-3.8c2.5-0.5,4.7-0.3,6.4,0.1c1.7,0.4,3,1,3.8,1.4
	c0.4,0.2,0.7,0.4,0.9,0.6c0.2,0.1,0.3,0.2,0.3,0.2s-0.1-0.1-0.3-0.1c-0.2-0.1-0.5-0.3-0.9-0.5c-0.8-0.4-2-1-3.8-1.4
	c-1.7-0.4-3.9-0.5-6.4-0.1c-2.5,0.5-5.1,1.6-7.4,3.8L90.3,32l-0.1-0.1c-1.3-0.8-2.9-1.4-4.5-1.6c-1.7-0.2-3.5-0.1-5.1,0.7
	c-1.7,0.7-3,2.1-3.8,3.9c-0.8,1.7-0.9,3.9,0.1,5.7l0.1,0.2h-0.3c-1.4,0.1-3,0.2-4.4,0.6c-1.4,0.4-3,0.9-4.1,2
	c-1.2,1-1.8,2.6-1.7,4.1c0,0.8,0.2,1.6,0.6,2.2c0.4,0.7,1.1,1.2,1.8,1.4l1,0.2l-1.1,0.1c-3.8,0.4-7.1,3.6-7.9,7.4
	c-0.3,1.3-0.3,2.7,0.1,4c0.2,0.7,0.5,1.2,1,1.6c0.5,0.4,1.2,0.4,1.7,0.1c0.6-0.3,0.7-0.9,0.5-1.5c-0.1-0.6-0.6-1.1-1.2-1.4
	c-1.1-0.7-2.5-0.6-3.6-0.1c-1.2,0.5-2,1.5-2.6,2.6c-0.6,1.1-1,2.3-1.2,3.5c-0.2,1.2-0.3,2.4-0.1,3.5c0.2,1.2,0.9,2.2,1.8,2.7
	l-0.1,0.3c-0.9-0.4-1.9-0.4-2.8-0.1c-0.9,0.3-1.7,0.9-2.4,1.5c-1.4,1.3-2.4,3-3,4.6c-0.6,1.6-1,3.4-0.4,5c0.6,1.5,2,2.7,3.5,2.5v0.3
	c-0.7,0.1-1.4,0.6-1.8,1.2c-0.4,0.6-0.9,1.2-1.2,1.8c-0.7,1.2-1.2,2.5-1.4,3.8c-0.2,1.2-0.2,2.4,0.1,3.5c0.3,1,0.8,1.9,1.4,2.5
	c1.2,1.3,2.6,1.7,3.5,1.8C53.5,102.4,53.9,102.2,53.9,102.3z"/>
<path class="st0" d="M106.1,90.4c0,0-0.3,0.2-0.9,0.4c-0.6,0.1-1.7,0.2-2.8-0.3c-0.6-0.3-1.2-0.7-1.7-1.2c-0.5-0.6-0.9-1.4-1.1-2.2
	c-0.4-1.7,0.1-3.8,1.4-5.6l0.1,0.2c-1.4-0.4-2.7-1.3-3.5-2.5c-0.9-1.2-1.5-2.9-1.4-4.6c0.1-3.5,3.6-6.6,7.5-6.4v0.4
	c-0.4,0.1-0.7,0-1-0.1c-0.6-0.3-1.2-0.9-1.4-1.5c-0.2-0.7-0.3-1.4-0.2-2c0.1-1.3,0.3-2.6,0.8-3.8c0.2-0.6,0.6-1.2,1-1.6
	c0.4-0.4,1-0.8,1.6-1c0.6-0.2,1.2-0.2,1.8-0.1c0.6,0.1,1.2,0.5,1.5,1l0.4,0.5l-0.5-0.2c-1.4-0.6-2.5-1.6-3.2-2.8
	c-0.4-0.6-0.6-1.2-0.9-1.8c-0.2-0.7-0.3-1.3-0.3-1.9c0-1.2,0.3-2.4,0.9-3.3c0.5-0.9,1.2-1.7,1.9-2.2c1.4-1.1,2.9-1.4,3.8-1.4
	c0.9-0.1,1.4,0.1,1.4,0.1c0,0.1-0.5-0.1-1.4,0c-0.9,0.1-2.3,0.4-3.7,1.5c-0.7,0.5-1.4,1.2-1.9,2.2c-0.5,0.9-0.8,2-0.8,3.2
	c0,0.6,0.1,1.2,0.3,1.8c0.2,0.6,0.4,1.2,0.8,1.7c0.7,1.2,1.8,2.1,3.1,2.7l-0.2,0.3c-0.6-0.9-1.9-1.1-2.9-0.7
	c-1.1,0.3-1.9,1.3-2.4,2.4c-0.4,1.1-0.6,2.4-0.8,3.6c-0.1,0.7,0,1.3,0.2,1.9c0.2,0.6,0.7,1.1,1.2,1.3c0.3,0.1,0.6,0.1,0.9,0.1v0.4
	c-3.6-0.3-6.9,2.8-7.1,6c-0.1,1.6,0.4,3.2,1.3,4.4c0.9,1.2,2.1,2.1,3.4,2.5l0.2,0.1l-0.1,0.1c-1.2,1.7-1.7,3.7-1.4,5.3
	c0.3,1.7,1.4,2.8,2.5,3.3c1.1,0.5,2.1,0.5,2.7,0.4C105.8,90.6,106.1,90.4,106.1,90.4z"/>
<path class="st0" d="M141.9,46.6c-0.1,0-0.1-0.7-0.7-1.4c-0.6-0.8-2-1.6-3.9-1.8c-0.9-0.1-1.9-0.1-3,0c-1.1,0.1-2.2,0.5-3.2,1.2
	c-0.9,0.7-1.7,2-1.7,3.2c0,0.7,0.3,1.3,0.7,1.7s1.2,0.7,1.8,0.5c0.6-0.1,1.2-0.6,1.6-1.1c0.4-0.6,0.6-1.2,0.7-1.8
	c0.2-1.3,0-2.6-0.5-3.7c-0.5-1.1-1.3-2-2.2-2.6c-0.9-0.6-1.9-0.9-2.8-0.9c-1.9-0.1-3.3,0.5-4.2,1.1c-0.9,0.6-1.2,1.1-1.2,1
	c0,0,0.3-0.5,1.2-1.2c0.9-0.6,2.3-1.3,4.3-1.2c0.9,0.1,2,0.4,3,0.9c0.9,0.6,1.8,1.6,2.4,2.7c0.6,1.2,0.8,2.5,0.6,3.9
	c-0.1,0.7-0.4,1.4-0.8,2c-0.4,0.6-1.1,1.1-1.8,1.2c-0.7,0.2-1.6,0-2.2-0.6c-0.5-0.6-0.8-1.3-0.8-2c0-1.4,0.8-2.7,1.8-3.5
	c1-0.8,2.2-1.2,3.3-1.3c1.2-0.1,2.2-0.1,3.1,0.1c1.9,0.3,3.3,1.1,4,2c0.4,0.4,0.5,0.8,0.6,1.1C141.9,46.4,142,46.6,141.9,46.6z"/>
<path class="st0" d="M187.7,46.6c0,0,0-0.4,0-1.2c-0.1-0.7-0.2-1.8-0.9-3.1c-0.7-1.2-1.8-2.6-3.6-3.4c-1.8-0.8-4.3-0.9-6.4,0.2
	l-0.2,0.1v-0.2c0.1-2.2,0.4-4.8-0.2-7.4c-0.3-1.3-0.9-2.5-1.7-3.6c-0.9-1.1-2.1-2-3.5-2.2c-0.7-0.1-1.4-0.1-2.1,0.2
	c-0.6,0.3-1.2,0.9-1.3,1.6c-0.1,0.4-0.1,0.7,0.1,1.1c0.1,0.3,0.4,0.6,0.7,0.8c0.7,0.4,1.5,0.3,2.1-0.1c0.6-0.4,1-1.2,1-1.9
	c0-0.8-0.3-1.6-0.7-2.2c-1-1.3-2.7-1.8-4.3-2c-3.2-0.4-6.4,0.4-9.1,1.9l-0.4,0.2l0.1-0.4c0.1-0.5,0.2-1.1,0.2-1.7s-0.1-1.1-0.3-1.6
	c-0.4-1-0.9-2-1.7-2.7c-1.4-1.6-3.6-2.3-5.6-2.4c-2-0.1-4,0.2-5.7,0.9c-0.9,0.4-1.6,0.9-2.1,1.5c-0.3,0.4-0.4,0.7-0.5,1.1
	c-0.1,0.4,0,0.8,0.2,1.2l0.6,0.9l-0.8-0.8c-1.9-2-4.3-2.8-6.4-3c-2.2-0.2-4,0.1-5.4,0.7c-1.4,0.5-2.4,1.2-3,1.7
	c-0.3,0.3-0.5,0.5-0.7,0.7c-0.1,0.1-0.2,0.2-0.2,0.2s0.1-0.1,0.2-0.2c0.1-0.1,0.4-0.4,0.7-0.7c0.6-0.5,1.6-1.2,3-1.8s3.3-1,5.5-0.8
	c2.2,0.2,4.7,1.1,6.6,3l-0.2,0.1c-0.2-0.4-0.4-0.9-0.2-1.3c0.1-0.4,0.3-0.9,0.6-1.2c0.6-0.7,1.4-1.3,2.2-1.7
	c1.8-0.7,3.8-1.1,5.8-0.9c2,0.1,4.3,0.9,5.8,2.5c0.8,0.8,1.4,1.8,1.7,2.9c0.1,0.6,0.3,1.2,0.3,1.7s-0.1,1.2-0.2,1.7l-0.3-0.2
	c2.7-1.6,6-2.3,9.3-1.9c0.9,0.1,1.7,0.3,2.5,0.6c0.8,0.4,1.5,0.8,2.1,1.5c0.5,0.7,0.9,1.5,0.8,2.5c0,0.9-0.4,1.8-1.2,2.2
	c-0.7,0.4-1.7,0.5-2.5,0.1c-0.4-0.2-0.7-0.6-0.9-0.9c-0.1-0.4-0.2-0.9-0.1-1.2c0.1-0.8,0.7-1.5,1.5-1.9c0.7-0.4,1.6-0.4,2.3-0.2
	c1.5,0.3,2.8,1.2,3.7,2.4c0.9,1.2,1.5,2.5,1.8,3.8c0.6,2.7,0.4,5.2,0.1,7.4l-0.2-0.1c2.3-1.2,4.8-1,6.6-0.2c1.9,0.8,3,2.3,3.7,3.5
	c0.6,1.3,0.8,2.4,0.8,3.1C187.8,46.2,187.7,46.6,187.7,46.6z"/>
<path class="st0" d="M195.3,89.1c0,0,0.3,0.1,0.7,0.7c0.4,0.5,0.9,1.3,1.2,2.5c0.2,1.2,0.1,2.8-0.9,4.2c-1,1.4-3,2.5-5.2,2.2
	l-0.4-0.1l0.3-0.2c0.6-0.4,1.4-0.4,2.1-0.2c0.7,0.2,1.4,0.7,1.8,1.3c0.4,0.7,0.6,1.4,0.6,2.2c0,0.8-0.2,1.7-0.5,2.4
	c-1.3,3.1-4.8,5.5-8.7,5.3V109c0.6,0,1.4,0.2,1.9,0.7c0.5,0.4,0.9,1,1.2,1.6c0.6,1.3,0.4,2.7-0.1,4c-0.5,1.3-1.2,2.5-1.9,3.7
	c-0.8,1.2-1.7,2.3-2.7,3.3c-0.8,0.7-1.7,1.4-2.8,1.8c-1,0.4-2.2,0.5-3.2,0.2l0.2-0.3c1.3,1.9,2.2,4,2.2,6.2c0,1.1-0.1,2.2-0.6,3.2
	c-0.4,1-1.2,1.8-2.1,2.3c-0.9,0.6-1.9,0.9-2.9,0.9c-1,0.1-2-0.2-2.7-0.9c-0.7-0.6-1.4-1.5-1.2-2.5c0.1-0.5,0.4-0.9,0.9-1.1
	c0.4-0.2,1-0.2,1.4,0.1l0.1,0.1v0.1c0,1.5-0.4,2.9-1.2,4c-0.7,1.2-1.7,2-2.7,2.6c-1.1,0.6-2.2,0.8-3.2,0.8c-1,0-1.9-0.2-2.7-0.5
	c-1.6-0.6-2.5-1.6-3.1-2.3c-0.5-0.7-0.7-1.2-0.7-1.2s0.2,0.4,0.8,1.1c0.6,0.7,1.5,1.6,3.1,2.2c0.8,0.3,1.7,0.5,2.7,0.5
	c1,0,2.1-0.2,3.1-0.8s1.9-1.4,2.7-2.5c0.6-1.1,1.2-2.5,1.1-3.9l0.1,0.1c-0.6-0.5-1.6,0.1-1.7,0.9c-0.1,0.8,0.4,1.7,1.1,2.2
	c0.7,0.6,1.7,0.8,2.5,0.7c0.9,0,1.9-0.4,2.7-0.9c0.8-0.5,1.5-1.3,1.9-2.2c0.4-0.9,0.6-2,0.6-3c-0.1-2.1-0.9-4.2-2.2-6.1l-0.3-0.4
	l0.5,0.1c1,0.2,2,0.1,3-0.2c1-0.4,1.9-1,2.7-1.7c1-0.9,1.9-2.1,2.7-3.3c0.7-1.2,1.4-2.4,1.9-3.6c0.4-1.2,0.6-2.6,0.1-3.8
	c-0.5-1.2-1.5-2.1-2.7-2V109c3.7,0.1,7.1-2.2,8.3-5.1c0.7-1.4,0.7-3.2-0.1-4.3c-0.8-1.2-2.5-1.7-3.5-1l-0.1-0.2c2.1,0.3,4-0.8,5-2.1
	c1-1.4,1.2-2.9,0.9-4c-0.2-1.2-0.7-2-1.1-2.5C195.6,89.3,195.3,89.1,195.3,89.1z"/>
<path class="st0" d="M193.6,72.7c0,0,0.1-0.1,0.3-0.3c0.2-0.2,0.5-0.4,0.8-0.8c0.6-0.7,1.7-1.7,2.5-3.2c0.4-0.7,0.6-1.7,0.6-2.7
	c0-1-0.4-2-1.1-2.9c-0.7-0.9-1.6-1.6-2.7-2.2c-1.1-0.6-2.3-0.9-3.5-0.7c-0.2,0-0.4,0.1-0.6,0.1l-0.1-0.4c1.2-0.2,2.1-1.2,2.6-2.2
	c0.5-1.1,0.5-2.2,0.4-3.3c-0.2-2.2-0.8-4.1-1.8-5.4c-1-1.3-2.3-1.8-3.2-1.9c-0.9-0.1-1.4,0.2-1.4,0.1c0,0,0.1-0.1,0.4-0.1
	c0.2-0.1,0.6-0.1,1.1-0.1c0.9,0,2.4,0.5,3.4,1.8c1.1,1.4,1.7,3.3,1.9,5.5c0.1,1.1,0.1,2.3-0.4,3.5c-0.5,1.1-1.5,2.2-2.8,2.5
	l-0.1-0.4c0.2-0.1,0.4-0.1,0.6-0.1c1.4-0.2,2.7,0.1,3.8,0.7c1.1,0.6,2.1,1.4,2.8,2.3c0.7,0.9,1.2,2,1.1,3.1c0,1-0.3,2-0.7,2.7
	c-0.8,1.6-1.9,2.5-2.6,3.2c-0.4,0.3-0.6,0.6-0.9,0.7C193.8,72.6,193.6,72.7,193.6,72.7z"/>
<path class="st1" d="M23.8,138.1c4.3-3.3,8.8-6.6,11.8-11.2c1.2-1.9,2.2-4,3.8-5.5c1.5-1.4,3.5-2.2,5.2-3.5c2.1-1.7,3.5-4.1,4.8-6.5
	c1.4-2.5,2.8-5.1,4.3-7.6c2.5,1.8,5.1,3.6,7.7,5.5c-3.6,1.7-7.3,3.3-10.1,6.1c-3.1,3-5.1,7.2-8.8,9.7c-0.6,0.4-1.3,0.8-1.9,1.2
	c-0.7,0.6-1.3,1.4-1.9,2.1c-3.2,3.8-7.1,7.1-11.6,9.4"/>
<path class="st0" d="M67.3,107.8c0,0,0,0.1-0.1,0.4c-0.1,0.3-0.3,0.7-0.5,1.3c-0.2,0.6-0.6,1.2-1,1.9c-0.5,0.7-1.2,1.4-2.1,2
	c-1,0.5-2.2,0.7-3.4,0.8c-0.6,0.1-1.2,0.3-1.8,0.6c-0.6,0.3-1,0.8-1.4,1.4c-0.4,0.6-0.6,1.2-1.1,1.9c-0.2,0.3-0.4,0.6-0.7,0.9
	c-0.3,0.3-0.5,0.6-0.9,0.8c-1.2,1-2.7,1.6-4.3,2.1c-1.5,0.5-3.1,0.9-4.5,1.4c-1.4,0.5-2.7,1.2-3.8,2.2c-1.1,0.9-1.9,1.9-2.7,2.8
	c-0.8,0.9-1.5,1.9-2.2,2.7s-1.4,1.4-2,2c-0.4,0.3-0.6,0.5-0.9,0.7c-0.3,0.2-0.6,0.4-0.9,0.5c-0.3,0.1-0.5,0.2-0.7,0.4
	c-0.2,0.1-0.4,0.1-0.6,0.2c-0.3,0.1-0.4,0.1-0.4,0.1s0.1-0.1,0.4-0.2c0.1-0.1,0.3-0.1,0.5-0.2c0.2-0.1,0.4-0.2,0.7-0.4
	c0.3-0.1,0.5-0.4,0.8-0.5c0.3-0.2,0.6-0.4,0.9-0.7c0.6-0.6,1.3-1.2,1.9-2c0.6-0.8,1.4-1.7,2.2-2.7c0.8-0.9,1.7-2,2.7-2.9
	c1.1-0.9,2.4-1.7,3.8-2.2c1.4-0.6,3-0.9,4.5-1.4c1.5-0.5,3-1.1,4.2-2c0.3-0.2,0.6-0.5,0.8-0.7c0.2-0.3,0.4-0.6,0.6-0.9
	c0.4-0.6,0.7-1.2,1.1-1.9c0.4-0.6,0.9-1.2,1.5-1.4c0.6-0.3,1.3-0.4,1.9-0.6c1.2-0.2,2.4-0.3,3.3-0.8c0.9-0.4,1.6-1.2,2.1-1.8
	c0.5-0.7,0.8-1.3,1.1-1.9c0.3-0.5,0.4-0.9,0.6-1.2C67.2,108,67.3,107.8,67.3,107.8z"/>
<path class="st0" d="M35.8,127c0,0-0.1-0.1-0.1-0.4c-0.1-0.2-0.2-0.7-0.1-1.2c0-1,0.6-2.5,2-3.7c1.4-1.3,3.5-1.9,5.6-2.8
	c1.1-0.5,2.1-1.1,3-2c0.9-0.9,1.4-2.1,2.5-3.1c0.9-1,2.2-1.6,3.2-2.3c1-0.7,1.9-1.5,2.7-2.4c1.5-1.8,2.5-3.7,2.9-5.4
	c0.5-1.7,0.6-3.1,0.6-4.1c0-1-0.1-1.5-0.1-1.5s0.1,0.1,0.1,0.4c0.1,0.3,0.1,0.7,0.1,1.2c0.1,1,0,2.5-0.5,4.2
	c-0.5,1.7-1.4,3.7-2.9,5.6c-0.8,0.9-1.7,1.7-2.7,2.5c-1.1,0.7-2.3,1.3-3.2,2.2c-0.9,0.9-1.5,2.2-2.5,3.1c-0.9,1-2,1.6-3.1,2.1
	c-2.2,0.9-4.3,1.5-5.6,2.7c-1.4,1.2-2,2.5-2,3.5C35.5,126.5,35.9,127,35.8,127z"/>
<path class="st1" d="M33.4,115.8c0-0.1,0.6-0.1,1.4-0.3c0.9-0.1,2.2-0.7,3.5-1.5c0.6-0.4,1.3-1,1.7-1.7c0.4-0.7,0.5-1.7,0.2-2.5
	c-0.1-0.4-0.4-0.7-0.7-1s-0.8-0.4-1.2-0.5c-0.4,0-0.8,0.1-1.1,0.4c-0.3,0.2-0.5,0.6-0.6,1.1c-0.1,0.4,0.1,0.7,0.3,1
	c0.3,0.3,0.7,0.4,1.2,0.5c0.9,0.1,1.8-0.4,2.5-1.1c1.5-1.4,2.2-3.3,2.4-4.9c0.2-1.6,0-3-0.3-3.8c-0.2-0.9-0.5-1.4-0.4-1.4
	c0.1-0.1,0.5,0.3,1,1.2c0.5,0.9,1,2.4,0.9,4.3c-0.1,1.9-0.7,4.2-2.5,6c-0.4,0.4-1,0.9-1.7,1.2c-0.6,0.4-1.4,0.6-2.2,0.5
	c-0.8-0.1-1.7-0.4-2.3-1c-0.4-0.3-0.6-0.7-0.7-1.2c-0.1-0.4-0.1-0.9-0.1-1.4c0.1-0.9,0.6-1.7,1.2-2.3c0.7-0.6,1.7-0.8,2.5-0.7
	c1.7,0.1,3,1.4,3.4,2.7c0.4,1.4,0.1,2.7-0.5,3.8s-1.6,1.7-2.4,2.1c-1.7,0.9-3.1,1.2-4.2,1.1C33.9,116.2,33.4,115.9,33.4,115.8z"/>
<path class="st1" d="M68.4,159.4c0.1-0.1,0.1-0.1,0.1-0.1c0-0.1,0-0.1,0-0.2c0.1-0.3,0.2-0.7,0.4-1.2c0.4-0.9,1.2-2.2,1.9-3.6
	c1.7-2.7,3.2-4.8,3.7-4.6c0.4,0.2-0.4,2.8-2,5.6c-0.9,1.4-1.7,2.6-2.5,3.3c-0.4,0.4-0.6,0.6-1,0.9c-0.1,0.1-0.4,0.2-0.6,0.1
	C68.3,159.6,68.3,159.5,68.4,159.4z"/>
<path class="st1" d="M217.1,109.9c0.1,0.1-0.6,0.6-2,0.9c-1.4,0.2-3.5,0.2-5.8-1.2c-0.6-0.4-1.1-0.8-1.6-1.3
	c-0.5-0.5-0.9-1.2-1.3-1.8c-0.7-1.4-1-3.1-0.8-4.8c0.2-1.7,0.9-3.5,2.2-5c0.6-0.7,1.4-1.3,2.4-1.7c0.9-0.4,2-0.7,3.2-0.4
	c1.2,0.2,2.2,0.8,2.9,1.7c0.4,0.4,0.6,1,0.7,1.6c0.1,0.6,0.1,1.2-0.1,1.7c-0.3,1.1-0.9,2-1.7,2.6c-0.8,0.6-1.7,0.9-2.6,1.1
	c-1.8,0.3-3.5,0-4.8-0.6c-1.4-0.7-2.5-1.6-3.3-2.6c-0.8-1-1.2-2.2-1.5-3.1c-0.2-1-0.3-1.9-0.2-2.5c0.1-1.4,0.6-2.1,0.6-2
	c0.1,0.1,0,0.8,0.1,2c0.1,1.2,0.5,3.2,1.9,4.8c0.7,0.8,1.7,1.5,2.9,2c1.2,0.4,2.6,0.7,4,0.4c0.6-0.1,1.3-0.4,1.8-0.8
	c0.5-0.4,0.9-1,1-1.6c0.1-0.7,0-1.2-0.4-1.7c-0.4-0.5-1-0.9-1.7-1c-1.4-0.2-2.9,0.6-3.9,1.7c-1.1,1.1-1.7,2.5-1.9,3.9
	c-0.2,1.4,0,2.8,0.5,4c0.3,0.6,0.6,1.1,0.9,1.5c0.4,0.4,0.8,0.9,1.2,1.2c1.8,1.3,3.8,1.5,5,1.5C216.3,109.9,217,109.7,217.1,109.9z"
	/>
<path class="st1" d="M220,77.3c0.1,0.1-0.2,0.7-1.2,1.4c-0.9,0.7-2.7,1.4-4.9,0.9c-1.1-0.2-2.2-0.8-3.2-1.7c-0.9-0.9-1.7-2.2-2-3.6
	c-0.4-1.4-0.2-3.2,0.6-4.6c0.4-0.7,1.1-1.4,1.9-1.8c0.9-0.4,1.9-0.5,2.9-0.2c0.5,0.1,0.9,0.4,1.4,0.8c0.4,0.4,0.6,0.8,0.9,1.3
	c0.4,0.9,0.3,1.9,0,2.7c-0.1,0.4-0.4,0.9-0.6,1.2c-0.2,0.4-0.5,0.7-0.9,0.9c-0.7,0.5-1.3,0.9-2,1.2c-2.7,1-5.3,0.8-7.4,0.1
	c-2-0.6-3.4-1.6-4.3-2.4c-0.9-0.8-1.2-1.4-1.1-1.4c0.1-0.1,0.6,0.3,1.5,0.9c0.9,0.6,2.3,1.3,4.1,1.7c1.8,0.4,4.2,0.4,6.4-0.5
	c1.1-0.4,2-1.2,2.3-2.2c0.1-0.5,0.1-1.1,0-1.5c-0.1-0.4-0.5-0.8-1-0.9c-0.5-0.1-1.1-0.1-1.5,0.1c-0.4,0.2-0.9,0.6-1.2,1.1
	c-0.6,1-0.7,2.2-0.5,3.3c0.2,1.1,0.7,2.1,1.4,2.9c0.7,0.7,1.5,1.2,2.4,1.5c1.7,0.5,3.2,0.1,4.3-0.3C219.4,77.6,219.8,77.3,220,77.3z
	"/>
<path class="st0" d="M77.5,111c0.1,0.1-0.9,0.4-1.9,1.9c-0.4,0.7-0.8,1.7-0.8,2.9c-0.1,1.2,0.3,2.5,1.3,3.6l0.4,0.4l-0.5-0.1
	c-1.4-0.4-3-0.4-4.5,0.1c-1.5,0.5-3,1.6-4,3c-1.3,2-1.6,4.4-1,6.4l0.1,0.5l-0.4-0.3c-1.5-1.1-3.2-1.6-4.8-1.6
	c-1.6,0-2.9,0.4-3.9,0.9c-2.1,1-2.7,2.2-2.8,2.2c0,0,0.1-0.1,0.1-0.2c0.1-0.1,0.2-0.4,0.4-0.6c0.4-0.4,1.2-1.1,2.2-1.6
	c1-0.5,2.4-0.9,4-1c1.6-0.1,3.4,0.4,5,1.6l-0.3,0.2c-0.6-2.1-0.3-4.6,1-6.6c1-1.6,2.5-2.7,4.2-3.2c1.6-0.5,3.2-0.5,4.7-0.1l-0.1,0.3
	c-1-1.2-1.4-2.6-1.3-3.8c0-1.2,0.4-2.2,0.9-3c0.5-0.7,1-1.2,1.4-1.4C77.2,111.2,77.3,111.1,77.5,111L77.5,111z"/>
<path class="st0" d="M83.4,145.6c0,0-0.1,0.1-0.4,0.1c-0.1,0-0.3,0.1-0.5,0.1c-0.2,0-0.4,0.1-0.7,0c-1.1,0-2.7-0.4-4.2-1.7
	c-0.7-0.7-1.4-1.5-1.8-2.7c-0.2-0.6-0.3-1.2-0.4-1.7c0-0.6,0.1-1.3,0.3-1.9c0.2-0.7,0.5-1.2,0.9-1.8s0.9-1.1,1.4-1.5
	c0.6-0.4,1.2-0.8,1.9-1.1c0.6-0.3,1.4-0.4,2.2-0.4c0.8,0,1.5,0.1,2.2,0.4c0.4,0.2,0.6,0.4,0.8,0.9c0.1,0.4,0.2,0.8,0.1,1.2
	c-0.1,0.4-0.5,0.7-0.9,0.8c-0.4,0.1-0.8,0-1.1-0.1c-0.6-0.2-1.2-0.6-1.7-1.1c-1.9-1.8-2.6-4.4-2-6.3c0.5-2,1.7-3.2,2.6-3.8
	c0.9-0.7,1.5-0.7,1.5-0.7c0,0.1-0.6,0.2-1.4,0.9c-0.9,0.7-1.9,1.9-2.4,3.7c-0.4,1.8,0.1,4.3,2,6c0.4,0.4,1,0.8,1.6,1
	c0.3,0.1,0.6,0.1,0.9,0.1c0.3-0.1,0.5-0.3,0.6-0.5c0.1-0.3,0.1-0.6-0.1-0.9s-0.4-0.5-0.6-0.7c-0.6-0.4-1.3-0.4-2-0.4
	s-1.4,0.1-2.1,0.4c-0.6,0.3-1.2,0.6-1.8,1c-0.5,0.4-1,0.9-1.4,1.4c-0.4,0.5-0.6,1.1-0.9,1.7c-0.2,0.6-0.2,1.2-0.3,1.8
	c0.1,0.6,0.1,1.2,0.4,1.7c0.4,1,1,1.9,1.7,2.5c1.4,1.3,3,1.7,4,1.8C82.7,145.8,83.3,145.6,83.4,145.6z"/>
<path class="st0" d="M46.7,69.5c0,0-0.4,0.1-1.1,0.4c-0.6,0.3-1.7,0.7-2.5,1.7c-0.9,0.9-1.8,2.2-2,3.9c-0.3,1.7,0.1,3.6,1.2,5.2
	c0.1,0.2,0.4,0.4,0.5,0.7l0.2,0.3h-0.4c-1.9,0.2-3.5,1.2-4.5,2.3c-1.1,1.2-1.5,2.7-1.7,3.8c-0.1,1.2,0.1,2.2,0.3,2.8
	c0.2,0.7,0.4,1,0.4,1S37,91.5,37,91.4c-0.1-0.1-0.2-0.4-0.4-0.7c-0.2-0.7-0.5-1.7-0.4-2.9c0.1-1.2,0.5-2.7,1.7-4
	c1.1-1.3,2.7-2.3,4.8-2.5l-0.1,0.3c-0.1-0.2-0.4-0.4-0.5-0.7c-1.2-1.7-1.5-3.8-1.2-5.5c0.3-1.7,1.2-3.2,2.2-4c1-0.9,1.9-1.4,2.7-1.6
	c0.4-0.1,0.6-0.1,0.8-0.2C46.6,69.5,46.7,69.5,46.7,69.5z"/>
<path class="st0" d="M60.3,47.6c0,0.1-0.4-0.2-1.2-0.4c-0.8-0.2-2-0.4-3.4,0.1c-1.4,0.4-3,1.4-3.8,3.1c-0.8,1.7-0.9,4,0.3,5.9
	c0.1,0.2,0.3,0.4,0.4,0.7l0.1,0.2l-0.3,0.1c-2.1,0.4-3.8,1.6-4.9,3c-1.2,1.4-1.6,3.1-1.7,4.4c-0.1,1.4,0.1,2.5,0.4,3.2
	c0.2,0.7,0.4,1.1,0.4,1.2c0,0-0.1-0.1-0.1-0.3c-0.1-0.1-0.2-0.4-0.4-0.8c-0.3-0.7-0.6-1.9-0.5-3.3c0.1-1.4,0.5-3.1,1.7-4.6
	c1.2-1.5,3-2.7,5.1-3.2l-0.1,0.3c-0.1-0.2-0.4-0.4-0.4-0.7c-1.2-2-1.2-4.5-0.3-6.2c0.4-0.9,1.1-1.7,1.8-2.2c0.7-0.5,1.5-0.9,2.2-1.1
	c1.4-0.4,2.7-0.2,3.5,0.1c0.4,0.1,0.7,0.3,0.9,0.4C60.2,47.6,60.3,47.6,60.3,47.6z"/>
<path class="st0" d="M176,107c0,0,0.1,0,0.4,0c0.1,0,0.3,0,0.4,0c0.2,0,0.4-0.1,0.6-0.1c0.9-0.1,2.3-0.4,3.8-1.4
	c1.4-0.9,2.9-2.4,3.8-4.5c0.4-1,0.6-2.2,0.6-3.4c-0.1-0.6-0.2-1.2-0.5-1.7c-0.3-0.5-0.7-1-1.3-1.2c-0.4-0.2-0.9-0.3-1.4-0.2
	l-0.4,0.1l0.2-0.4c1.2-2.1,2.1-4.3,2.2-6.3c0.1-1,0-2-0.3-2.9c-0.3-0.9-0.7-1.6-1.2-2.2c-0.9-1.2-2.2-1.8-3-2
	c-0.9-0.1-1.3-0.1-1.3-0.1c0,0,0.5-0.1,1.4,0c0.9,0.1,2.1,0.7,3.1,2c0.5,0.6,1,1.4,1.3,2.2c0.3,0.9,0.4,2,0.3,3
	c-0.1,2.2-1.1,4.3-2.2,6.4l-0.2-0.3c0.5-0.1,1.2,0,1.7,0.3c0.6,0.3,1.2,0.8,1.4,1.4c0.3,0.6,0.5,1.2,0.5,1.9
	c0.1,1.3-0.1,2.5-0.6,3.5c-0.9,2.2-2.5,3.7-4,4.6c-1.5,0.9-2.9,1.2-3.8,1.3c-0.2,0-0.4,0-0.6,0c-0.1,0-0.4,0-0.5,0
	C176.2,107,176,107,176,107z"/>
<path class="st1" d="M49.2,143.8c-0.1,0.1-0.5-0.3-1.1-1c-0.6-0.7-1.4-1.9-1.9-3.5c-0.3-0.9-0.4-1.9-0.4-3c0.1-1.1,0.5-2.3,1.4-3.3
	c0.9-0.9,2.2-1.7,3.5-1.8c1.4-0.1,3,0.4,4.1,1.6c0.3,0.3,0.5,0.7,0.6,1.1c0.1,0.4,0.3,0.9,0.3,1.2c0,0.9-0.3,1.6-0.8,2.2
	c-0.5,0.6-1.3,1.2-2.1,1.2c-0.8,0.1-1.6-0.2-2.2-0.7c-1.1-0.9-1.6-2-1.8-3.1c-0.2-1.1-0.1-2.1,0-3c0.4-1.8,1.2-3,1.9-3.7
	c0.7-0.7,1.2-0.9,1.3-0.8c0.1,0.1-0.3,0.5-0.7,1.2c-0.4,0.7-1,1.9-1.2,3.4c-0.1,0.7-0.1,1.6,0.2,2.4c0.2,0.8,0.6,1.6,1.3,2.1
	c0.3,0.2,0.6,0.3,0.9,0.3c0.3-0.1,0.6-0.2,0.8-0.5c0.2-0.3,0.4-0.7,0.4-1.1c0-0.4-0.1-0.7-0.4-1.1c-0.6-0.7-1.6-1-2.5-0.9
	c-0.9,0.1-1.9,0.5-2.5,1.2c-0.6,0.7-1,1.4-1.2,2.2c-0.1,0.9-0.1,1.7,0.1,2.4c0.3,1.5,0.9,2.7,1.3,3.5
	C49.1,143.2,49.3,143.8,49.2,143.8z"/>
<path class="st1" d="M186.1,144.9c0-0.1,0.4-0.2,0.9-0.5c0.6-0.3,1.4-0.8,2.3-1.7c0.8-0.9,1.5-2.2,1.6-3.8c0.1-1.6-0.6-3.4-1.9-4.6
	l-2.7-2.4l3.5,0.9c2.1,0.5,4.6,0.2,6.9-1c1.2-0.6,2.3-1.6,3.2-2.6c0.8-1,1.4-2.2,1.7-3.4c0.6-2.4,0.1-4.7-0.6-6.5
	c-0.8-1.7-1.8-3-2.6-3.8c-0.2-0.2-0.4-0.4-0.5-0.5c-0.1-0.1-0.3-0.2-0.4-0.4c-0.2-0.2-0.3-0.4-0.3-0.4c0-0.1,0.2,0,0.5,0.1
	c0.1,0.1,0.4,0.1,0.5,0.2c0.2,0.1,0.4,0.2,0.6,0.4c1,0.6,2.3,1.9,3.3,3.8c1,1.9,1.7,4.6,1.1,7.4c-0.3,1.4-0.9,2.9-1.9,4.1
	c-0.9,1.2-2.2,2.3-3.8,3.1c-2.6,1.4-5.6,1.8-8.2,1.1l0.8-1.5c1.8,1.7,2.5,4,2.3,6c-0.1,2-1.2,3.5-2.3,4.5c-1.1,0.9-2.2,1.3-2.9,1.4
	C186.5,145.1,186.1,145.1,186.1,144.9z"/>
<path class="st1" d="M84,18.2c-0.1-0.1,0.1-0.5,0.9-1.2c0.6-0.7,1.8-1.5,3.4-2.2c1.6-0.7,3.8-1.1,6.2-0.7c1.2,0.2,2.5,0.6,3.7,1.6
	c0.6,0.5,1,1.2,1.3,2c0.2,0.8,0.3,1.7-0.1,2.6l-1.7-0.7c0.6-1.6,1.5-3.2,2.8-4.4c2.5-2.5,6.1-3.5,9.1-3.1c1.5,0.1,2.9,0.7,4,1.4
	c1.2,0.7,2.1,1.5,2.8,2.4c1.4,1.7,2,3.5,2.2,4.7c0.2,1.2,0.1,1.9-0.1,1.9c-0.1,0-0.3-0.7-0.6-1.7c-0.4-1.1-1.2-2.6-2.5-4
	c-1.4-1.4-3.5-2.7-6.1-3c-2.5-0.2-5.5,0.7-7.6,2.7c-1.1,1-1.9,2.3-2.4,3.6l-1.7-0.7c0.4-0.7,0-1.9-0.6-2.5c-0.7-0.7-1.7-1.1-2.7-1.3
	c-2-0.4-4-0.2-5.5,0.2c-1.5,0.4-2.7,1.1-3.4,1.6C84.5,18,84,18.4,84,18.2z"/>
<path class="st1" d="M156.4,16.5c-0.1-0.1,0.1-1.1,0.1-2.9c-0.1-0.9-0.2-2-0.6-3.3c-0.4-1.2-1-2.5-2-3.8c-0.5-0.6-1.1-1.2-1.7-1.7
	c-0.6-0.5-1.4-1-2.3-1.4c-0.9-0.4-1.7-0.6-2.7-0.7c-0.9-0.1-2-0.1-3,0.1c-2,0.4-4.1,1.2-5.8,2.7c-0.8,0.7-1.5,1.7-2,2.6
	c-0.5,1-0.7,2.1-0.5,3c0.2,1,0.9,1.8,1.7,2c0.8,0.1,1.8-0.3,2.4-1c0.3-0.4,0.5-0.8,0.6-1.2c0.1-0.4,0.1-0.9-0.1-1.4
	c-0.2-0.9-0.9-1.7-1.6-2.2c-1.5-1.1-3.6-1.2-5.4-0.9c-1.8,0.4-3.4,1.2-4.7,2.2c-2.6,2-3.8,4.4-4.5,6.1c-0.6,1.7-0.7,2.7-0.9,2.7
	c-0.1,0-0.3-1.1,0.1-3c0.4-1.9,1.7-4.6,4.3-6.9c1.4-1.1,3.1-2.1,5.1-2.6c1-0.2,2.2-0.4,3.3-0.2c1.2,0.1,2.4,0.4,3.5,1.2
	c1,0.7,1.9,1.8,2.3,3.2c0.2,0.7,0.3,1.4,0.1,2.2c-0.1,0.8-0.4,1.4-0.9,2c-0.4,0.6-1.1,1.1-1.8,1.4c-0.7,0.3-1.5,0.4-2.4,0.3
	c-0.9-0.1-1.6-0.7-2.1-1.2c-0.5-0.6-0.9-1.3-1.1-2.1c-0.4-1.6,0-3.1,0.6-4.3c0.7-1.2,1.5-2.2,2.5-3.2c1.9-1.7,4.4-2.7,6.7-3
	c1.2-0.1,2.4-0.1,3.5,0c1.1,0.1,2.2,0.4,3.2,0.9c0.9,0.4,1.8,1,2.6,1.7c0.7,0.7,1.4,1.4,1.9,2.1c1,1.4,1.7,3,1.9,4.3
	c0.4,1.4,0.4,2.6,0.3,3.5C157,15.6,156.5,16.5,156.4,16.5z"/>
<path class="st5" d="M46.5,220.2c0,0,4-25.6,9.5-41.3c5.5-15.8,22.8-19.5,22.8-19.5l7.4,64.5L46.5,220.2z"/>
<path class="st5" d="M76.4,215.4c0,0-19.4-41.8-10.7-49.8c8.7-8,39.2-14.1,39.2-14.1c16.5,19.2,40.6,10.3,47.9-2.8l32.1,7.1l6.4,2.3
	l-5.6,116l17.4,34.8H78.4l18.7-34.8L76.4,215.4z"/>
<g class="st6">
	<path d="M80.9,306.1c3,2,7.1,1.2,10.3-0.4c3.2-1.6,6-4,9.2-5.5c8.5-4,18.5-2,27.9-0.6c19.6,2.8,39.9,1.7,59.1-3.4
		c3.2-1.2,5.2-1.7,7.9-2.9c0,0-4.2-8.2-5.9-12.1h-63.5l-26.1,5.3l-19,15V306.1z"/>
</g>
<path class="st2" d="M65.3,288.8c0,0-5.2-0.7-5.1-2.7c0.1-2,3.2-9.7,6.6-12.4c3.3-2.7,29.9-5.9,29.9-5.9l12.1,2.3l-4.1,21.2
	c0,0-19,14.6-24,14.2c-5-0.4-9.2,1.3-9.3-5.4c0,0-4.5-2.8-3.7-7.2C67.8,292.9,63.8,295.2,65.3,288.8z"/>
<path class="st2" d="M178.8,258.4l-80.1,9.8l1.4,23.3c0,0,38,5.6,66.1,3c14.2-1.3,23.3-3.3,28.9-5c4.5-1.4,8-5,9.2-9.5
	c2.6-9.8,7-28.1,7.2-38.4c0.3-14.5,4.1-75.9-17.5-77.5c0,0-8.2-0.4-9.1,22.5C183.8,209.4,178.8,258.4,178.8,258.4z"/>
<path class="st5" d="M178.8,233.7l39.6-7.2c0,0-4.7-29.6-6.8-38.3c-6.9-29.1-26-32.2-26-32.2s-0.3,8.2-3.6,24.8
	c-2.9,14.5-1.3,32.3-1.3,32.3L178.8,233.7z"/>
<path class="st5" d="M176,248c14.5-25.1,7.9-52.3,8.9-65.4L176,248z"/>
<path class="st1" d="M184.8,182.6c0,0,0,0.1,0,0.1c0,0.1,0,0.3,0,0.5c0,0.5,0,1.2,0,2c0,0.9,0.1,1.9,0.1,3.1
	c0.1,1.2,0.1,2.6,0.2,4.1c0.4,6.1,1,14.5,0.3,23.7c-0.3,4.6-1.1,9-1.9,12.9c-0.3,0.9-0.5,2-0.7,2.8c-0.3,0.9-0.4,1.8-0.8,2.7
	c-0.3,0.9-0.6,1.7-0.9,2.5c-0.3,0.8-0.5,1.5-0.9,2.2c-0.6,1.4-1.2,2.7-1.7,3.8c-0.5,1.1-1.1,2-1.4,2.7c-0.4,0.7-0.7,1.3-0.9,1.7
	c-0.1,0.1-0.2,0.3-0.2,0.4c-0.1,0.1-0.1,0.1-0.1,0.1s0-0.1,0.1-0.1c0.1-0.1,0.1-0.3,0.2-0.4c0.2-0.4,0.5-1,0.9-1.7
	c0.4-0.8,0.9-1.7,1.4-2.7c0.4-1.1,1-2.4,1.6-3.8c0.3-0.7,0.5-1.4,0.8-2.2c0.3-0.8,0.5-1.6,0.8-2.5c0.3-0.9,0.5-1.7,0.7-2.7
	c0.2-0.9,0.5-1.9,0.7-2.8c0.8-3.9,1.6-8.2,1.9-12.9c0.6-9.2,0.1-17.6-0.2-23.6c-0.1-1.5-0.1-2.9-0.1-4.1c0-1.2,0-2.2,0-3.1
	c0.1-0.8,0.1-1.4,0.1-2c0-0.2,0-0.4,0-0.5C184.8,182.6,184.8,182.6,184.8,182.6z"/>
<path class="st1" d="M68.2,189.4c0,0,0,0.1,0.1,0.2c0.1,0.1,0.1,0.4,0.1,0.6c0.1,0.5,0.4,1.3,0.6,2.3c0.3,1,0.6,2.2,1.1,3.7
	c0.4,1.4,0.9,3,1.6,4.8c2.4,7.2,5.8,16.9,9.7,27.7c3.9,10.8,7.4,20.5,10,27.6c1.3,3.5,2.3,6.4,3,8.4c0.3,1,0.6,1.7,0.7,2.3
	c0.1,0.2,0.1,0.4,0.2,0.6c0.1,0.1,0.1,0.2,0.1,0.2s0-0.1-0.1-0.2c-0.1-0.1-0.1-0.4-0.2-0.6c-0.2-0.6-0.5-1.3-0.8-2.2
	c-0.7-2-1.8-4.8-3-8.4c-2.6-7.1-6.2-16.8-10.1-27.6c-3.9-10.8-7.3-20.6-9.6-27.7c-0.6-1.8-1.1-3.4-1.5-4.8c-0.4-1.4-0.8-2.7-1-3.7
	c-0.3-1-0.4-1.8-0.6-2.4c-0.1-0.3-0.1-0.4-0.1-0.7C68.2,189.5,68.2,189.4,68.2,189.4z"/>
<path class="st3" d="M191.3,275c-0.1,0-0.4-1.2-1.2-2.9c-0.7-1.8-1.9-4.2-3.7-6.5c-1.7-2.4-3.7-4.2-5.2-5.3
	c-1.5-1.2-2.5-1.8-2.5-1.9c0,0,0.3,0.1,0.7,0.4c0.5,0.3,1.2,0.7,1.9,1.2c1.6,1.2,3.6,3,5.3,5.3c1.7,2.4,2.9,4.8,3.6,6.6
	c0.4,0.9,0.6,1.7,0.7,2.2C191.3,274.7,191.3,275,191.3,275z"/>
<path class="st1" d="M140.4,208.4c0,0,0.1,0.2,0.1,0.6c0.1,0.4,0.1,1,0.2,1.7c0.1,1.5,0.2,3.8-0.1,6.6c-0.3,2.7-1,6-2.3,9.4
	c-1.3,3.4-3.3,6.9-6.1,10.2c-2.7,3.2-6,5.8-9.1,7.6c-3.2,1.9-6.3,3-9,3.8c-2.7,0.7-4.9,1-6.4,1.1c-0.8,0.1-1.4,0.1-1.8,0.1
	c-0.4,0-0.7,0-0.7,0s0.2,0,0.7-0.1c0.4-0.1,1-0.1,1.7-0.1c1.5-0.1,3.8-0.5,6.4-1.2c2.7-0.7,5.7-2,8.8-3.8c3.1-1.8,6.3-4.3,9-7.5
	c2.7-3.2,4.7-6.7,6.1-10.1c1.4-3.4,2-6.6,2.4-9.3c0.3-2.7,0.3-5,0.2-6.5c0-0.8-0.1-1.4-0.1-1.7C140.4,208.6,140.4,208.4,140.4,208.4
	z"/>
<g class="st6">
	<path d="M107.9,249c8.5,3.5,19.1,1.8,26-4.4c6.9-6.1,8.9-16.4,6.3-25.3c-1.1,4.6-3,11.5-9.1,18.4
		C126.1,243.3,115.4,248.2,107.9,249z"/>
</g>
<path class="st1" d="M157.7,151.1c0,0,0,0.1-0.1,0.1c-0.1,0.1-0.1,0.2-0.3,0.4c-0.2,0.4-0.6,0.9-1.1,1.6c-0.9,1.4-2.5,3.2-4.8,5.1
	c-1.2,0.9-2.5,2-3.9,2.9c-1.5,0.9-3.1,1.8-4.9,2.6c-1.8,0.8-3.8,1.4-5.8,2c-2.1,0.5-4.3,0.9-6.5,1c-2.2,0.1-4.5,0-6.6-0.2
	c-2.1-0.3-4.1-0.8-6-1.4c-3.8-1.2-6.9-2.9-9.2-4.7c-2.4-1.7-4.1-3.5-5.1-4.8c-0.6-0.7-0.9-1.2-1.2-1.5c-0.1-0.1-0.2-0.3-0.3-0.4
	c-0.1-0.1-0.1-0.1-0.1-0.1s0.1,0.1,0.1,0.1c0.1,0.1,0.2,0.2,0.3,0.4c0.3,0.4,0.7,0.9,1.2,1.4c1.1,1.2,2.8,3,5.2,4.6
	c2.4,1.7,5.5,3.4,9.2,4.6c1.9,0.6,3.8,1,5.9,1.3c2.1,0.3,4.3,0.4,6.5,0.2c2.2-0.1,4.4-0.5,6.4-1c2.1-0.5,4-1.2,5.8-2
	c1.8-0.7,3.4-1.7,4.9-2.5c1.4-0.9,2.7-1.9,3.9-2.8c2.2-1.9,3.8-3.7,4.8-5c0.5-0.7,0.9-1.2,1.2-1.5
	C157.5,151.3,157.5,151.2,157.7,151.1L157.7,151.1z"/>
<path class="st2" d="M51.2,180.9l18.4,36.6l8.1,2c-0.1-0.4,16.9,45.5,18.6,51.7c4.5,16.3-9.3,25.7-26.9,14.7
	c-17.5-11-37.7-96.4-37.7-96.4L51.2,180.9z"/>
<path class="st2" d="M52,182.3c0,0,1.7-3.1-4-8.4l-18.4-13.2l-0.2-7.8l4.9-1.1c0,0,4.9,1.7,6.1-1.8c-0.1-1.1-0.8-2-1.9-2.2l-3-0.7
	c0,0,0-1.5-0.8-1.8s-9.5-3-9.5-3l-5,0.9l2-2.2c0,0,6.3-3.8,4.1-9.2l-0.4-0.6l-7.5,4.4c0,0-0.2-3.5-2.3-4.3c0,0-13.2,8.7-14.9,11.4
	c-1.4,2.5-1.6,20.7-0.7,23.7c0.9,3.1,20.3,14.3,23.5,17.1c3.2,2.8,6.6,4.7,9.8,8.8"/>
<path class="st3" d="M33.9,192.5c0,0-0.1-0.1-0.3-0.3c-0.1-0.2-0.4-0.5-0.8-0.9c-0.7-0.8-1.9-2-3.5-3.3c-0.8-0.7-1.7-1.4-2.8-2.2
	c-0.5-0.4-1-0.8-1.6-1.2c-0.6-0.4-1.1-0.9-1.7-1.4c-2.5-1.7-5.3-3.6-8.6-5.6c-3.2-2.1-6.7-4.3-10.3-7.1c-0.9-0.7-1.8-1.4-2.7-2.2
	c-0.4-0.4-0.9-0.9-1.1-1.4c-0.1-0.6-0.2-1.2-0.3-1.8C0,162.5,0,160,0,157.4c0-2.5,0.1-5.2,0.3-7.9c0.1-1.4,0.2-2.7,0.4-4l0.1-1
	l0.2-1c0.2-0.7,0.7-1.3,1.2-1.8c2-2,4.3-3.6,6.7-5.3c2.4-1.7,4.8-3.4,7.3-5.1l0.1-0.1h0.1c0.4,0.1,0.8,0.4,1.1,0.7
	c0.3,0.4,0.5,0.7,0.7,1.1c0.4,0.8,0.6,1.7,0.6,2.6l-0.3-0.1c1.2-0.7,2.5-1.5,3.8-2.2c1.2-0.7,2.5-1.4,3.6-2.2l0.1-0.1l0.1,0.1
	c0.1,0.2,0.3,0.4,0.4,0.6c0.3,0.9,0.5,1.9,0.4,2.8c-0.1,0.9-0.4,1.9-0.8,2.7c-0.9,1.7-2.3,3-3.8,4h0.1c-0.6,0.7-1.4,1.5-2,2.2
	l-0.1-0.3c1.7-0.3,3.4-0.6,5-0.9h0.1h0.1c1.9,0.6,3.9,1.2,5.8,1.9c0.9,0.3,1.9,0.6,2.8,0.9l0.7,0.2c0.3,0.1,0.5,0.3,0.6,0.5
	c0.3,0.5,0.3,1,0.4,1.5l-0.1-0.1c0.6,0.1,1.2,0.3,1.7,0.4l0.9,0.2c0.3,0.1,0.6,0.1,0.9,0.2c0.6,0.2,1,0.7,1.3,1.2
	c0.1,0.3,0.2,0.6,0.3,0.9v0.1v0.1c0,0,0-0.1,0,0.1l-0.1,0.2l-0.2,0.4c-0.3,0.5-0.7,0.9-1.2,1.2c-0.5,0.3-1.1,0.4-1.6,0.5
	c-1.1,0.1-2.2-0.1-3.2-0.4h0.1c-1.7,0.4-3.3,0.7-4.9,1.1l0.1-0.1c0.1,2.7,0.1,5.3,0.2,7.8l-0.1-0.1c7.7,5.5,13.9,10,18.4,13.2
	c2.3,2.2,3.6,4.3,4,6c0.2,0.8,0.1,1.4,0.1,1.9c-0.1,0.4-0.2,0.6-0.2,0.6s0.1-0.2,0.1-0.6c0.1-0.4,0.1-1-0.1-1.8
	c-0.4-1.6-1.7-3.8-4-5.9c-4.5-3.2-10.8-7.6-18.5-13.1l-0.1-0.1v-0.1c-0.1-2.5-0.1-5.1-0.2-7.8v-0.1h0.1c1.6-0.4,3.2-0.7,4.9-1.1h0.1
	h0.1c1,0.3,2,0.4,3.1,0.4c0.5-0.1,1-0.2,1.5-0.4c0.4-0.2,0.8-0.7,1.1-1.1l0.1-0.4l0.1-0.1c0,0.1,0,0,0,0.1V150V150
	c0-0.3-0.1-0.5-0.2-0.7c-0.2-0.4-0.6-0.9-1.2-1.1c-0.2-0.1-0.5-0.1-0.8-0.2l-0.9-0.2c-0.6-0.1-1.2-0.2-1.7-0.4h-0.1v-0.1
	c0-0.4-0.1-0.9-0.3-1.3c-0.1-0.2-0.2-0.3-0.4-0.4l-0.7-0.2c-0.9-0.3-1.9-0.6-2.8-0.9c-1.9-0.6-3.8-1.2-5.8-1.8h0.1
	c-1.7,0.3-3.3,0.7-5,0.9l-0.6,0.1l0.4-0.4c0.6-0.7,1.4-1.4,2-2.2c1.4-0.9,2.8-2.2,3.7-3.8c0.4-0.8,0.7-1.7,0.8-2.5
	c0.1-0.9-0.1-1.8-0.4-2.7v0.1c-0.1-0.2-0.3-0.4-0.4-0.6l0.2,0.1c-1.2,0.7-2.5,1.4-3.6,2.2c-1.3,0.8-2.6,1.5-3.8,2.2l-0.3,0.1v-0.3
	c-0.1-0.9-0.3-1.7-0.6-2.5c-0.1-0.4-0.4-0.7-0.6-1c-0.3-0.3-0.6-0.5-0.9-0.6h0.1c-2.5,1.7-4.9,3.3-7.3,5c-2.3,1.7-4.7,3.4-6.6,5.3
	c-0.5,0.5-0.9,1-1.2,1.6l-0.2,1l-0.1,1c-0.2,1.4-0.3,2.7-0.4,4c-0.2,2.7-0.3,5.3-0.3,7.9c0,2.5,0,5.1,0.2,7.4l0.1,0.9
	c0.1,0.3,0.1,0.6,0.1,0.9c0.2,0.5,0.6,0.9,1,1.4c0.8,0.8,1.7,1.5,2.6,2.2c3.6,2.7,7.1,5,10.3,7.1c3.2,2.1,6.1,3.9,8.5,5.7
	c0.6,0.4,1.2,0.9,1.7,1.4c0.5,0.4,1.1,0.9,1.6,1.2c1,0.8,1.9,1.5,2.7,2.2c1.7,1.4,2.8,2.5,3.5,3.4C33.6,192,33.9,192.5,33.9,192.5z"
	/>
<path class="st3" d="M21.3,143.2c0,0-0.3,0.1-0.9,0.2c-0.6,0.1-1.4,0.4-2.4,0.6s-2.2,0.7-3.4,1.2c-0.6,0.3-1.3,0.7-1.7,1.2
	c-0.4,0.6-0.6,1.3-0.7,2.1c-0.3,1.5-0.4,3-0.5,4.4c-0.1,1.4-0.1,2.6-0.1,3.6c0,1,0,1.8-0.1,2.5c0,0.6,0,0.9-0.1,0.9
	c0,0-0.1-0.3-0.1-0.9s-0.1-1.4-0.1-2.5c0-1,0-2.3,0.1-3.7c0.1-1.4,0.1-2.9,0.5-4.5c0.1-0.8,0.4-1.6,0.8-2.2c0.6-0.7,1.2-0.9,1.9-1.2
	c1.3-0.6,2.5-0.9,3.5-1.2c1-0.3,1.8-0.4,2.4-0.5C21,143.2,21.3,143.2,21.3,143.2z"/>
<path class="st3" d="M35.7,147.2c0,0-0.4-0.1-1-0.2c-0.6-0.1-1.6-0.2-2.7-0.1c-1.2,0-2.5,0.1-4,0.4c-1.5,0.2-3.2,0.6-4.8,1.2
	c-0.4,0.1-0.8,0.4-1,0.6s-0.4,0.7-0.4,1.1c-0.2,0.8-0.4,1.6-0.4,2.4c-0.2,1.5-0.4,2.9-0.4,4c-0.1,2.3-0.2,3.8-0.2,3.8
	c-0.1,0-0.1-1.4-0.1-3.8c0.1-1.2,0.1-2.5,0.4-4.1c0.1-0.8,0.2-1.6,0.4-2.4c0.1-0.4,0.2-0.9,0.5-1.2c0.4-0.4,0.7-0.6,1.2-0.8
	c1.7-0.7,3.4-1,4.9-1.2c1.5-0.2,3-0.3,4.1-0.3c1.2,0,2.1,0.1,2.7,0.3c0.3,0.1,0.6,0.1,0.7,0.2C35.6,147.2,35.7,147.2,35.7,147.2z"/>
<path class="st3" d="M18.7,135.7c0,0-0.3,0.2-0.8,0.6c-0.6,0.4-1.3,0.9-2.2,1.6c-0.9,0.6-2,1.5-3.2,2.5c-1.2,0.9-2.5,2-3.8,3.3
	c-1.3,1.2-1.7,2.9-2.1,4.3c-0.4,1.4-0.6,2.8-0.7,4c-0.1,1.2-0.2,2.1-0.3,2.7c-0.1,0.6-0.1,1-0.1,1c0,0-0.1-0.4,0-1
	c0-0.7,0.1-1.6,0.2-2.7c0.1-1.2,0.3-2.5,0.6-4c0.1-0.7,0.4-1.5,0.7-2.3c0.3-0.8,0.8-1.6,1.4-2.2c1.2-1.2,2.6-2.3,3.8-3.3
	c1.2-0.9,2.3-1.7,3.3-2.4c0.9-0.7,1.7-1.2,2.2-1.5C18.4,135.9,18.7,135.7,18.7,135.7z"/>
<path class="st3" d="M87.6,264.4c0,0,0-0.1-0.1-0.2c-0.1-0.1-0.1-0.4-0.2-0.6c-0.2-0.6-0.4-1.4-0.8-2.5c-0.4-1.1-0.8-2.4-1.3-3.9
	c-0.3-0.8-0.5-1.6-0.9-2.5c-0.3-0.9-0.6-1.7-1-2.7c-1.4-3.8-3.1-8.3-5.1-13.3c-2-5-4.4-10.3-6.9-16c-5.1-11.3-10-21.3-13.6-28.6
	c-1.8-3.6-3.2-6.6-4.3-8.6c-0.5-1-0.9-1.8-1.2-2.4c-0.1-0.3-0.2-0.4-0.3-0.7c0-0.1,0-0.1,0-0.1s0.1,0.1,0.1,0.2
	c0.1,0.1,0.2,0.4,0.3,0.6c0.3,0.6,0.7,1.3,1.2,2.3c1,2,2.5,5,4.3,8.5c3.6,7.2,8.6,17.3,13.7,28.5c2.5,5.6,4.9,11.1,6.9,16
	c2,5,3.8,9.5,5.1,13.3c0.4,0.9,0.6,1.9,0.9,2.7c0.3,0.9,0.6,1.7,0.8,2.5c0.5,1.5,0.9,2.8,1.2,4c0.3,1.1,0.6,1.9,0.7,2.5
	c0.1,0.3,0.1,0.5,0.2,0.6C87.6,264.4,87.6,264.4,87.6,264.4z"/>
<path class="st3" d="M95.6,269.3c0,0,0.1,0.2,0.1,0.6c0.1,0.4,0.2,0.9,0.4,1.7c0.3,1.5,0.7,3.7,0.6,6.4c0,1.4-0.1,2.9-0.6,4.4
	c-0.4,1.5-1.3,3.1-2.6,4.4c-2.6,2.5-6.4,4.3-10.5,4.6c-2.1,0.1-4.2-0.1-6-0.8c-1.9-0.7-3.5-1.8-4.9-2.8c-2.9-2.1-5.2-4.4-7-6.5
	c-1.8-2-3-3.9-3.8-5.2c-0.4-0.6-0.6-1.2-0.9-1.5c-0.2-0.4-0.3-0.6-0.3-0.6s0.1,0.1,0.4,0.5c0.2,0.4,0.5,0.9,0.9,1.5
	c0.8,1.3,2.1,3,3.9,5.1c1.8,2,4.1,4.3,7,6.4c1.4,1,3,2.1,4.8,2.7c1.8,0.7,3.8,0.9,5.8,0.8c4.1-0.3,7.8-2,10.3-4.5
	c1.3-1.2,2.1-2.7,2.5-4.3c0.4-1.5,0.6-3,0.6-4.3c0.1-2.7-0.3-4.8-0.6-6.4c-0.1-0.7-0.2-1.3-0.4-1.7
	C95.6,269.6,95.5,269.3,95.6,269.3z"/>
<path class="st7" d="M320.8,308.9H181.4l18-97.9c0.6-3.5,3.7-6,7.2-6h125.3c4.6,0,8,4.2,7.2,8.7L320.8,308.9z"/>
<path class="st7" d="M181.4,308.9h-52.9l0.2-0.2c4.7-3.5,10.4-5.5,16.3-5.7l37.8-1.1L181.4,308.9z"/>
<path class="st8" d="M273.8,255.2c0,3.7-3,6.7-6.7,6.7c-3.7,0-6.7-3-6.7-6.7s3-6.7,6.7-6.7C270.7,248.4,273.8,251.4,273.8,255.2z"/>
<path class="st1" d="M214.9,205.6c0,0-0.4-0.1-1.1-0.1s-1.8,0.1-3.1,0.8c-1.2,0.6-2.6,1.7-3.7,3.4s-1.8,3.9-2.3,6.3
	c-0.5,2.5-0.9,5.2-1.3,8.2c-0.5,2.9-1,6.1-1.7,9.4c-1.2,6.6-2.7,13.8-4.2,21.3c-3.1,15.1-6.1,28.8-8,38.7c-1,5-1.7,9-2.2,11.8
	c-0.2,1.4-0.4,2.4-0.6,3.2c-0.1,0.3-0.1,0.6-0.2,0.8c0,0.2-0.1,0.3-0.1,0.3s0-0.1,0-0.3c0-0.2,0.1-0.5,0.1-0.8
	c0.1-0.8,0.3-1.9,0.5-3.2c0.4-2.8,1.1-6.8,2-11.8c1.8-10,4.7-23.6,7.8-38.7c1.6-7.6,3-14.8,4.3-21.3c0.6-3.3,1.2-6.4,1.7-9.3
	c0.5-2.9,0.9-5.7,1.4-8.2s1.3-4.7,2.4-6.4c1.1-1.7,2.6-2.8,3.9-3.4c1.3-0.6,2.4-0.7,3.2-0.7C214.5,205.4,214.9,205.6,214.9,205.6z"
	/>
</svg>
