<svg width="350" height="331" viewBox="0 0 350 331" fill="none" xmlns="http://www.w3.org/2000/svg">
<g clip-path="url(#clip0_57_97)">
<path d="M152.587 87.0007C149.339 86.3807 146.174 85.3854 143.156 84.0348C140.001 83.0703 136.969 81.7433 134.12 80.0802C134.238 79.7639 138.47 81.1084 143.571 83.0462C146.72 84.008 149.747 85.3352 152.587 87.0007Z" fill="#455A64"/>
<path d="M127.278 127.001C125.301 126.764 119.962 129.414 115.533 134.713L115.316 134.93C112.172 138.47 110.214 127.614 109.997 123.6C109.945 122.978 109.754 122.374 109.438 121.835C109.122 121.296 108.689 120.835 108.171 120.486C107.652 120.137 107.062 119.908 106.444 119.818C105.826 119.727 105.195 119.776 104.599 119.962L90.7576 125.281L86.803 125.143C85.8439 125.4 85.0166 126.008 84.4855 126.847C83.9543 127.686 83.7581 128.694 83.9359 129.671L88.978 151.223L88.721 156.997L115.217 162.494L116.66 148.099C117.174 146.458 117.846 144.52 118.637 142.325C119.419 140.335 120.551 138.5 121.979 136.908C123.525 135.08 125.262 133.423 127.159 131.964L127.614 131.707C127.958 131.571 128.268 131.362 128.524 131.094C128.869 130.8 129.122 130.41 129.249 129.974C129.377 129.538 129.374 129.074 129.242 128.64C129.11 128.205 128.853 127.819 128.505 127.527C128.156 127.236 127.729 127.054 127.278 127.001Z" fill="#D6A291"/>
<path d="M121.465 66.2787C121.465 66.2787 105.647 64.3014 81.9191 45.3986C58.1916 26.4957 45.2404 -0.375695 42.571 -9.64664e-06C39.9017 0.375675 27.682 -3.95459 10.1435 46.3872C-7.39507 96.729 2.23433 107.05 6.703 106.536C11.1717 106.022 40.3169 94.8703 59.1605 95.246C78.0041 95.6217 103.037 103.155 103.037 103.155L121.465 66.2787Z" fill="#E8E3E3"/>
<path d="M156.858 89.4723L152.528 100.011L150.551 104.737C149.268 107.858 146.835 110.367 143.756 111.747C140.676 113.127 137.184 113.272 134.001 112.152L99.7345 103.709L114.92 57.7368L149.76 72.2897C152.976 73.6318 155.529 76.1938 156.859 79.4144C158.19 82.6351 158.189 86.2518 156.858 89.4723Z" fill="#263238"/>
<path d="M143.353 105.053L131.865 125.419L126.547 123.719L90.7576 150.491L81.8598 131.114C81.8598 131.114 102.819 123.146 106.774 115.988C110.728 108.83 106.556 106.991 106.556 106.991L116.66 96.4324L143.353 105.053Z" fill="#263238"/>
<path d="M12.0021 47.0792C2.66933 74.3065 -9.53674e-06 98.0538 5.93186 100.11C11.8637 102.167 24.3404 81.7411 33.6139 54.5138C42.8874 27.2866 45.7347 3.5591 39.7435 1.50272C33.7523 -0.55366 21.3349 19.7729 12.0021 47.0792Z" fill="#263238"/>
<path d="M161.09 103.709L151.816 101.732L156.384 90.6191L163.542 94.1783L161.09 103.709Z" fill="#455A64"/>
<path d="M150.412 93.6445C150.412 93.9608 145.647 92.636 140.012 90.6983C136.542 89.7328 133.182 88.4074 129.987 86.7437C130.086 86.4274 134.752 87.7521 140.388 89.6899C143.859 90.6507 147.22 91.9763 150.412 93.6445Z" fill="#455A64"/>
<path d="M147.545 100.585C147.545 100.743 146.418 100.585 144.658 100.249L141.594 99.5368C140.447 99.2402 139.241 98.7656 137.955 98.3306C134.795 97.3991 131.765 96.0703 128.939 94.376C129.058 94.0597 133.25 95.4635 138.331 97.2629C139.616 97.6979 140.803 98.212 141.91 98.5481L144.876 99.4774C145.825 99.6833 146.729 100.058 147.545 100.585Z" fill="#455A64"/>
<path d="M35.5912 39.0119C35.5912 39.0119 21.3349 31.9332 15.6799 50.8757C10.0248 69.8181 24.4788 71.4197 24.4788 71.4197C29.6923 61.195 33.4335 50.2844 35.5912 39.0119Z" fill="#E8E3E3"/>
<path d="M47.7911 15.9765C47.8229 17.1597 47.7568 18.3435 47.5933 19.5158C47.3758 21.77 47.0793 25.0523 46.5849 29.1057C46.1895 31.083 45.7742 33.2976 45.3195 35.6308C45.102 36.8171 44.8647 38.0233 44.6076 39.2887C44.489 39.9215 44.3704 40.5542 44.232 41.266C44.0935 41.9779 43.8958 42.5513 43.7179 43.2433C42.9929 45.8797 42.2217 48.5886 41.4044 51.37L40.8112 53.3868C40.6135 54.0986 40.2972 54.7907 40.0599 55.5025L38.4385 59.8328C37.8849 61.2762 37.351 62.7196 36.8171 64.1433C36.5403 64.8353 36.3228 65.5669 35.9867 66.2392C35.6505 66.9115 35.3539 67.5838 35.0573 68.2165L31.4389 75.8884C31.1423 76.5013 30.8853 77.1143 30.5689 77.6877L29.6 79.3882L27.682 82.6111L24.3207 88.3651C22.0468 91.7265 20.1288 94.3958 18.804 96.2742C18.1637 97.2728 17.4358 98.2124 16.629 99.082C17.1378 98.0159 17.7399 96.9969 18.4283 96.0369L23.7275 87.9103L26.9307 82.1168C27.5041 81.0689 28.117 80.0011 28.73 78.8939L29.6593 77.2132C29.9559 76.6397 30.213 76.0268 30.5096 75.4138L34.0291 67.7815C34.3455 67.129 34.6421 66.4567 34.9585 65.8042C35.2748 65.1517 35.4923 64.4201 35.7692 63.728C36.303 62.3242 36.8369 60.8807 37.3708 59.4373C37.9046 57.9939 38.4583 56.5703 38.9724 55.1466C39.2294 54.4546 39.5458 53.7625 39.7435 53.0507C39.9412 52.3389 40.139 51.627 40.3565 50.935C41.1672 48.147 41.9581 45.4381 42.6897 42.8676C42.8874 42.2349 43.0851 41.6022 43.2433 40.8903C43.4015 40.1785 43.5004 39.6249 43.6388 38.9131C43.8958 37.6674 44.1529 36.481 44.4099 35.3144C44.9042 32.9812 45.359 30.8062 45.794 28.8289C46.3674 24.8743 46.8222 21.6315 47.1583 19.3181C47.2758 18.1886 47.4875 17.0708 47.7911 15.9765Z" fill="#263238"/>
<path d="M100.209 115.612C99.467 115.862 98.8487 116.386 98.481 117.077C98.1133 117.769 98.0241 118.575 98.2317 119.329C99.0622 122.295 100.407 126.982 101.455 129.829C101.735 130.792 102.198 131.691 102.819 132.478C103.116 132.854 103.513 133.139 103.964 133.3C104.415 133.46 104.902 133.491 105.37 133.388C105.847 133.192 106.261 132.869 106.568 132.454C106.875 132.039 107.062 131.549 107.11 131.035C107.205 129.969 107.091 128.894 106.774 127.871C106.082 125.083 104.796 120.911 103.808 117.51C103.709 117.133 103.533 116.781 103.293 116.474C103.052 116.167 102.751 115.914 102.408 115.728C102.065 115.543 101.687 115.43 101.299 115.396C100.911 115.363 100.519 115.409 100.15 115.533L100.209 115.612Z" fill="#D6A291"/>
<path d="M95.7799 120.615C95.0561 120.884 94.4605 121.416 94.1122 122.105C93.7639 122.794 93.6887 123.59 93.9015 124.332C94.7319 127.298 96.0567 131.984 97.1047 134.831C97.3965 135.765 97.8591 136.637 98.469 137.402C98.7659 137.778 99.1626 138.062 99.6137 138.223C100.065 138.384 100.552 138.415 101.02 138.311C101.498 138.132 101.919 137.825 102.236 137.425C102.553 137.024 102.754 136.544 102.819 136.038C102.894 134.997 102.781 133.952 102.483 132.953C101.791 130.165 100.506 125.993 99.4972 122.592C99.4005 122.216 99.2274 121.863 98.9885 121.557C98.7496 121.25 98.4501 120.996 98.1087 120.811C97.7673 120.625 97.3914 120.512 97.0043 120.478C96.6172 120.445 96.2273 120.491 95.859 120.615H95.7799Z" fill="#D6A291"/>
<path d="M91.6078 123.818C90.9681 124.031 90.4359 124.484 90.1226 125.081C89.8092 125.678 89.7392 126.373 89.9271 127.021C90.6785 129.611 91.9044 133.665 92.8733 136.136C93.1169 136.972 93.5347 137.747 94.0992 138.41C94.3648 138.771 94.7372 139.04 95.1638 139.177C95.5904 139.315 96.0495 139.315 96.476 139.177C96.9026 139.039 97.2749 138.771 97.5404 138.41C97.8058 138.048 97.9508 137.613 97.9549 137.165C98.0427 136.249 97.9348 135.326 97.6386 134.456C97.0256 132.043 95.8985 128.524 94.9297 125.479C94.8224 125.15 94.6511 124.846 94.4256 124.585C94.2 124.323 93.9248 124.109 93.6157 123.954C93.3067 123.8 92.9701 123.708 92.6255 123.685C92.2808 123.661 91.9349 123.707 91.6078 123.818Z" fill="#D6A291"/>
<path d="M86.3878 124.569C85.74 124.779 85.1996 125.233 84.8819 125.835C84.5643 126.437 84.4944 127.139 84.6873 127.792C85.4387 130.382 86.6646 134.456 87.6334 136.947C87.9214 137.789 88.379 138.563 88.978 139.221C89.2358 139.613 89.6142 139.909 90.056 140.067C90.4977 140.224 90.9786 140.232 91.4257 140.092C91.8729 139.951 92.2619 139.668 92.5339 139.286C92.8058 138.904 92.9458 138.444 92.9326 137.975C93.0134 137.067 92.9057 136.151 92.6162 135.286C91.9835 132.874 90.8564 129.236 89.8876 126.27C89.787 125.916 89.613 125.588 89.377 125.307C89.141 125.026 88.8483 124.797 88.5179 124.637C88.1876 124.476 87.8271 124.387 87.4601 124.376C87.093 124.364 86.7276 124.43 86.3878 124.569Z" fill="#D6A291"/>
<path d="M102.621 132.478C101.513 130.881 100.715 129.091 100.268 127.199C99.459 125.429 98.9831 123.526 98.8645 121.583C99.9786 123.179 100.783 124.97 101.237 126.863C102.03 128.637 102.499 130.539 102.621 132.478Z" fill="#B87D6A"/>
<path d="M97.8758 136.651C96.7177 134.749 95.8762 132.672 95.3845 130.501C94.5464 128.46 94.0455 126.296 93.9015 124.095C95.0676 125.966 95.9161 128.017 96.4126 130.165C97.2558 132.231 97.7502 134.423 97.8758 136.651Z" fill="#B87D6A"/>
<path d="M93.2094 136.908C91.9778 135.364 91.1003 133.568 90.6389 131.648C89.8415 129.837 89.45 127.873 89.4921 125.894C90.4735 127.586 91.2061 129.411 91.6671 131.312C92.4478 133.093 92.9673 134.978 93.2094 136.908Z" fill="#B87D6A"/>
<path d="M258.076 65.0132C250.542 52.2795 236.919 44.0144 222.663 40.0796C216.731 38.4187 212.578 38.8932 206.389 39.5853C200.22 40.103 194.431 42.7772 190.037 47.1385C184.673 52.2841 180.688 58.696 178.45 65.7844C176.283 73.0659 174.793 80.5323 174.001 88.0882C173.199 95.6898 174.506 103.365 177.778 110.273L196.345 116.482C206.805 118.459 217.423 120.437 227.981 119.586C238.54 118.736 249.415 114.742 256.276 106.596C265.827 95.2855 265.609 77.747 258.076 65.0132Z" fill="#263238"/>
<path d="M268.101 120.852C268.243 118.664 267.884 116.472 267.051 114.444C266.219 112.415 264.934 110.604 263.296 109.146C261.609 107.738 259.518 106.902 257.325 106.76C255.132 106.618 252.951 107.176 251.096 108.355L247.557 111.46C245.069 112.178 242.868 113.657 241.261 115.689C239.655 117.72 238.725 120.203 238.6 122.79C238.559 125.379 239.258 127.925 240.613 130.131C241.968 132.338 243.924 134.112 246.252 135.247C248.609 136.318 251.203 136.764 253.783 136.542C256.363 136.32 258.842 135.438 260.982 133.981C263.095 132.484 264.836 130.522 266.07 128.245C267.304 125.969 267.999 123.439 268.101 120.852Z" fill="#263238"/>
<path d="M262.367 133.131C263.26 132.111 263.819 130.841 263.968 129.493C263.875 126.196 262.846 122.993 261.002 120.259C259.251 117.429 256.976 114.959 254.299 112.982C252.322 111.44 250.78 110.768 250.839 110.61C252.226 110.956 253.53 111.574 254.675 112.429C257.563 114.315 259.995 116.821 261.793 119.764C262.802 121.376 263.6 123.11 264.166 124.925C264.702 126.412 264.892 128.001 264.72 129.572C264.574 130.644 264.113 131.649 263.395 132.459C262.802 133.012 262.386 133.17 262.367 133.131Z" fill="#455A64"/>
<path d="M252.282 137.343C253.295 133.185 253.655 128.896 253.35 124.629C252.739 120.395 251.5 116.276 249.672 112.409C250.523 113.353 251.193 114.446 251.65 115.632C254.411 121.258 255.11 127.675 253.627 133.764C253.412 135.032 252.956 136.247 252.282 137.343Z" fill="#455A64"/>
<path d="M190.018 156.206C191.164 149.582 193.774 135.286 193.774 135.326C193.774 135.365 178.431 131.233 177.185 110.728C176.552 100.486 178.648 84.015 180.823 70.609C182.8 58.5277 195.574 43.619 210.482 45.8533L217.245 46.0906L241.229 60.0107C243.001 60.3662 244.571 61.3801 245.624 62.8479C246.677 64.3156 247.135 66.1281 246.904 67.9199L233.735 154.229L196.74 226.617L188.376 175.208L190.018 156.206Z" fill="#D6A291"/>
<path d="M187.704 85.2805C187.62 85.957 187.809 86.6391 188.228 87.1768C188.647 87.7144 189.262 88.0637 189.938 88.1476C190.586 88.2693 191.255 88.1296 191.8 87.759C192.345 87.3885 192.72 86.8173 192.845 86.1703C192.924 85.4948 192.733 84.8155 192.315 84.2791C191.897 83.7427 191.285 83.3922 190.611 83.3033C189.963 83.1816 189.294 83.3213 188.749 83.6918C188.204 84.0624 187.829 84.6336 187.704 85.2805Z" fill="#263238"/>
<path d="M184.619 78.7554C184.916 79.1311 187.032 77.8656 189.82 78.1424C192.608 78.4192 194.526 80.0208 194.862 79.7045C195.198 79.3881 194.862 78.9136 193.933 78.182C192.814 77.2382 191.435 76.6587 189.978 76.521C188.52 76.3726 187.052 76.6911 185.786 77.4306C184.837 78.004 184.481 78.5972 184.619 78.7554Z" fill="#263238"/>
<path d="M198.836 102.424C197.413 101.814 195.918 101.388 194.387 101.158C193.675 101.02 193.023 100.802 192.944 100.308C192.977 99.5985 193.21 98.9129 193.616 98.3306L196.266 92.9326C199.944 85.4782 202.672 79.3091 202.376 79.0916C199.629 83.3063 197.216 87.7291 195.158 92.3196L192.608 97.599C192.086 98.4219 191.862 99.3992 191.975 100.367C192.054 100.627 192.191 100.866 192.376 101.064C192.561 101.263 192.789 101.417 193.043 101.514C193.43 101.667 193.835 101.766 194.249 101.811C195.747 102.201 197.288 102.407 198.836 102.424Z" fill="#263238"/>
<path d="M193.774 135.326C203.304 136.392 212.942 134.79 221.615 130.699C221.615 130.699 213.013 144.046 192.924 140.19L193.774 135.326Z" fill="#B87D6A"/>
<path d="M186.814 68.8887C187.249 69.5808 189.227 69.1062 191.56 69.3039C193.893 69.5017 195.791 70.1344 196.305 69.5214C196.543 69.2051 196.305 68.5526 195.495 67.8605C194.417 67.0156 193.105 66.5251 191.738 66.4566C190.356 66.3262 188.969 66.6452 187.783 67.3662C186.953 67.9396 186.636 68.5526 186.814 68.8887Z" fill="#263238"/>
<path d="M219.677 87.3369C219.588 88.0102 219.242 88.623 218.711 89.0469C218.18 89.4707 217.506 89.6728 216.83 89.6107C216.172 89.575 215.555 89.2803 215.115 88.7912C214.674 88.3022 214.444 87.6584 214.477 87.0007C214.556 86.3269 214.897 85.7112 215.426 85.286C215.954 84.8608 216.629 84.66 217.304 84.7268C217.631 84.7421 217.953 84.8217 218.249 84.9612C218.545 85.1006 218.812 85.2972 219.032 85.5397C219.252 85.7821 219.423 86.0656 219.533 86.374C219.644 86.6824 219.693 87.0096 219.677 87.3369Z" fill="#263238"/>
<path d="M221.634 81.0688C221.259 81.3654 219.499 79.6452 216.711 79.2695C213.923 78.8938 211.689 80.0209 211.451 79.6452C211.214 79.2695 211.728 78.9136 212.697 78.3797C214.013 77.7072 215.505 77.4585 216.968 77.6679C218.453 77.8287 219.843 78.4751 220.923 79.5068C221.595 80.2977 221.812 80.9502 221.634 81.0688Z" fill="#263238"/>
<path d="M221.199 71.5581C220.626 72.1117 218.807 71.2022 216.493 70.866C214.18 70.5299 212.183 70.7079 211.827 69.996C211.669 69.6401 212.064 69.0469 212.994 68.5724C214.224 67.9871 215.607 67.8005 216.948 68.0385C218.296 68.2503 219.545 68.8716 220.527 69.8181C221.278 70.5892 221.456 71.1824 221.199 71.5581Z" fill="#263238"/>
<path d="M242.515 96.2149L238.56 99.2995C225.727 82.6309 201.861 42.136 203.167 44.5483C210.381 43.0438 217.857 43.3632 224.917 45.4777C235.792 49.0961 256.118 57.9148 253.785 71.044C251.452 84.1732 242.515 96.2149 242.515 96.2149Z" fill="#263238"/>
<path d="M250.819 109.146C250.88 108.073 250.999 107.004 251.175 105.943C251.485 103.047 251.538 100.129 251.333 97.2233C250.526 87.618 247.391 78.3541 242.198 70.2333C236.926 62.1651 230.443 54.956 222.979 48.8588C220.151 46.4663 217.779 44.6274 216.137 43.3817C215.254 42.7842 214.414 42.1233 213.626 41.4044C213.888 41.5083 214.134 41.6481 214.358 41.8196C214.813 42.1162 215.505 42.5512 216.335 43.1444C218.055 44.311 220.488 46.0708 223.394 48.404C231.045 54.417 237.658 61.6444 242.969 69.7983C248.263 78.0295 251.366 87.4763 251.986 97.2431C252.135 100.191 251.976 103.147 251.511 106.062C251.393 106.847 251.234 107.626 251.037 108.395C251.004 108.655 250.93 108.909 250.819 109.146Z" fill="#455A64"/>
<path d="M222.366 41.8592C222.636 41.9632 222.895 42.0958 223.137 42.2547C223.612 42.5315 224.323 42.9467 225.114 43.5201C226.894 44.6669 229.425 46.3872 232.411 48.7006C235.925 51.3974 239.291 54.2819 242.495 57.3414C246.476 61.0625 250.001 65.2442 252.994 69.7983C254.497 72.2094 255.674 74.8091 256.494 77.5295C257.21 80.1051 257.576 82.7654 257.582 85.4387C257.567 89.8946 256.901 94.3246 255.604 98.5876C254.759 101.45 253.769 104.268 252.638 107.031C252.243 108 251.907 108.751 251.669 109.265C251.579 109.535 251.446 109.789 251.274 110.016C251.54 108.954 251.876 107.91 252.282 106.892C252.974 104.915 253.983 102.028 254.971 98.4097C256.164 94.1959 256.77 89.8377 256.771 85.4584C256.746 82.8891 256.374 80.3349 255.664 77.8656C254.861 75.2206 253.711 72.6939 252.243 70.3519C249.292 65.8647 245.836 61.7314 241.941 58.0334C238.422 54.5336 235.04 51.5875 232.055 49.2147C229.069 46.842 226.676 45.0426 224.976 43.8167C224.069 43.2145 223.198 42.5609 222.366 41.8592Z" fill="#455A64"/>
<path d="M242.732 96.6104C242.168 95.9969 241.658 95.3353 241.21 94.6331L237.275 88.978C234.052 84.193 229.642 77.5295 224.818 70.1345C219.993 62.7394 215.683 56.0364 212.598 51.1327L208.999 45.3195C208.51 44.629 208.099 43.8862 207.774 43.1049C208.338 43.7184 208.847 44.38 209.296 45.0822L213.251 50.7373C216.474 55.5223 220.883 62.1858 225.708 69.5808C230.532 76.9759 234.843 83.6987 237.927 88.5826L241.526 94.3958C242.008 95.0872 242.413 95.83 242.732 96.6104Z" fill="#455A64"/>
<path d="M238.659 101.573C238.817 100.051 240.893 96.6697 242.416 96.5906C246.37 96.3533 253.587 97.3617 252.678 107.466C251.432 121.307 237.809 117.194 237.828 116.798C237.848 116.403 238.145 106.774 238.659 101.573Z" fill="#D6A291"/>
<path d="M241.645 111.598C241.645 111.598 241.862 111.796 242.257 112.013C242.53 112.164 242.829 112.258 243.137 112.292C243.446 112.326 243.759 112.299 244.057 112.211C245.005 111.73 245.806 111.002 246.377 110.105C246.947 109.207 247.266 108.173 247.3 107.11C247.432 105.93 247.304 104.735 246.924 103.61C246.829 103.173 246.63 102.765 246.345 102.421C246.059 102.077 245.695 101.806 245.283 101.633C245.012 101.533 244.715 101.532 244.444 101.63C244.173 101.727 243.945 101.917 243.8 102.167C243.582 102.542 243.642 102.819 243.563 102.839C243.483 102.859 243.286 102.582 243.464 102.028C243.562 101.687 243.779 101.392 244.077 101.198C244.278 101.071 244.502 100.987 244.737 100.949C244.971 100.912 245.211 100.923 245.441 100.98C245.999 101.135 246.507 101.434 246.913 101.847C247.319 102.26 247.609 102.773 247.754 103.333C248.247 104.589 248.417 105.949 248.249 107.288C247.913 110.076 246.271 112.547 244.294 112.943C243.915 113.018 243.524 113.006 243.15 112.906C242.776 112.807 242.43 112.623 242.139 112.369C241.625 111.934 241.585 111.618 241.645 111.598Z" fill="#AE7461"/>
<path d="M162.355 353.262C161.367 356.169 121.346 491.673 121.346 491.673L114.465 652.505L164.273 655.392L182.069 494.817L227.546 394.39L207.615 312.708H166.903L162.355 353.262Z" fill="#263238"/>
<path d="M197.729 312.708C198.441 314.686 223.968 406.63 223.968 406.63L227.586 543.755V657.172H272.866L294.023 407.005C294.023 407.005 297.74 361.528 291.373 346.243C285.007 330.959 259.124 304.107 259.124 304.107L197.729 312.708Z" fill="#263238"/>
<path d="M201.446 322.12C201.884 323.157 202.235 324.228 202.494 325.323C203.147 327.558 203.997 330.524 205.045 334.103L213.765 363.03C217.106 374.36 219.855 384.781 221.437 392.274C222.247 396.071 222.801 399.155 223.117 401.291C223.316 402.395 223.441 403.512 223.493 404.633C223.133 403.572 222.874 402.48 222.722 401.37C222.287 399.254 221.634 396.189 220.745 392.433C218.985 384.919 216.137 374.637 212.835 363.327C209.533 352.017 206.409 341.775 204.412 334.3C203.384 330.563 202.633 327.518 202.158 325.422C201.846 324.339 201.608 323.236 201.446 322.12Z" fill="#455A64"/>
<path d="M217.106 322.12C215.981 322.47 214.993 323.161 214.279 324.098C213.927 324.594 213.707 325.172 213.637 325.777C213.568 326.382 213.653 326.994 213.883 327.558C214.155 328.246 214.613 328.844 215.208 329.284C215.802 329.725 216.508 329.99 217.245 330.049C217.983 330.06 218.71 329.864 219.342 329.483C219.975 329.102 220.488 328.551 220.824 327.894C221.118 327.358 221.272 326.756 221.272 326.144C221.272 325.532 221.118 324.93 220.824 324.394C220.197 323.383 219.281 322.584 218.194 322.1C218.194 322.1 218.57 322.002 219.222 322.219C219.804 322.433 220.335 322.764 220.782 323.193C221.229 323.622 221.583 324.138 221.82 324.71C222.058 325.282 222.175 325.897 222.163 326.517C222.152 327.136 222.012 327.746 221.753 328.309C221.344 329.149 220.705 329.855 219.911 330.345C219.116 330.835 218.198 331.089 217.265 331.077C216.336 331.006 215.448 330.671 214.705 330.11C213.962 329.549 213.395 328.787 213.073 327.914C212.813 327.205 212.74 326.442 212.861 325.697C212.983 324.953 213.294 324.252 213.765 323.663C214.354 322.873 215.2 322.313 216.157 322.081C216.731 321.982 217.106 322.061 217.106 322.12Z" fill="#455A64"/>
<path d="M255.842 150.847C255.842 150.847 282.832 155.89 288.763 160.734C294.695 165.578 348.754 236.286 349.98 250.523C351.206 264.759 344.523 269.979 340.766 273.341C337.009 276.702 272.411 320.578 272.411 320.578L252.638 287.617L308.457 254.26L281.527 208.169L255.842 150.847Z" fill="#AE9BBA"/>
<path d="M326.253 241.644C322.444 242.049 318.776 243.315 315.529 245.346C312.281 247.378 309.538 250.122 307.508 253.37C307.745 252.228 308.246 251.158 308.971 250.246C310.554 247.926 312.602 245.96 314.985 244.472C317.367 242.985 320.033 242.009 322.812 241.605C323.947 241.355 325.124 241.368 326.253 241.644Z" fill="#AE9BBA"/>
<path d="M190.433 154.229L197.571 219.163L234.091 146.003L257.641 169.928C257.641 169.928 272.115 255.446 272.312 256.059C272.51 256.672 262.426 304.977 262.426 304.977L195.514 317.928L175.089 312.728L171.826 236.642L170.423 178.391L190.433 154.229Z" fill="#E8E3E3"/>
<path d="M181.752 157.036L164.372 160.991C162.078 161.558 159.955 162.671 158.183 164.234C143.334 176.948 111.282 203.779 111.282 203.779L117.214 156.127L86.2889 153.2C86.2889 153.2 77.0154 213.27 77.9843 229.069C79.1113 247.418 95.5624 251.926 119.507 242.06C134.3 236.113 148.618 229.047 162.335 220.923L181.752 157.036Z" fill="#AE9BBA"/>
<path d="M278.679 208.347L275.496 265.293L278.679 276.366C278.679 276.366 308.655 332.956 313.539 370.406L276.445 376.338C276.445 376.338 266.321 327.993 259.203 304.008C252.085 280.024 231.106 269.999 223.987 245.184C219.7 231.109 218.169 216.339 219.479 201.684C219.479 200.201 234.091 145.865 234.091 145.865L236.721 134.495L249.831 146.992L283.563 158.223L278.679 208.347Z" fill="#AE9BBA"/>
<g opacity="0.3">
<path d="M296.356 314.231C290.222 318.981 283.803 323.352 277.137 327.32C276.656 327.562 276.161 327.774 275.654 327.953C274.318 328.445 272.85 328.439 271.518 327.938C270.186 327.437 269.078 326.474 268.397 325.225C267.626 323.781 266.815 322.239 266.282 321.112C264.897 318.166 263.434 314.626 262.109 311.562L266.282 310.553L272.312 320.578L289.752 308.714L293.074 306.44L296.356 314.231Z" fill="black"/>
</g>
<path d="M190.749 147.862L182.642 156.344L163.205 163.146C163.205 163.146 158.44 220.488 161.03 232.727C163.522 244.452 168.267 258.728 168.663 275.595C169.058 292.461 149.78 381.617 149.78 381.617L173.072 390.455C173.072 390.455 184.936 287.241 182.642 264.759C180.349 242.277 186.32 196.898 186.32 196.898L190.749 147.862Z" fill="#AE9BBA"/>
<path d="M234.843 257.265C234.53 256.983 234.245 256.672 233.992 256.336C233.237 255.379 232.575 254.353 232.015 253.271C230.093 249.213 229.068 244.789 229.01 240.3C228.938 233.683 229.394 227.071 230.374 220.527C233.375 198.736 240.409 177.695 251.116 158.48L251.452 159.053L243.207 158.776H242.613L242.95 158.322L248.367 151.045L249.85 149.068C250.004 148.844 250.183 148.638 250.384 148.455C250.384 148.455 250.265 148.712 249.969 149.167L248.644 151.144C247.359 152.983 245.619 155.474 243.464 158.598L243.207 158.183L251.472 158.302H252.085L251.788 158.855C245.203 171.006 239.99 183.852 236.247 197.155C234.096 204.889 232.458 212.756 231.343 220.705C230.314 227.18 229.785 233.724 229.761 240.28C229.75 244.686 230.646 249.047 232.391 253.093C233.138 254.524 233.956 255.916 234.843 257.265Z" fill="#263238"/>
<path d="M257.641 204.649C254.56 205.68 251.354 206.292 248.11 206.469C244.895 206.957 241.628 206.997 238.402 206.587C241.572 205.968 244.784 205.584 248.011 205.44C251.197 204.939 254.416 204.675 257.641 204.649Z" fill="#263238"/>
<path d="M281.309 191.441C281.256 192.414 281.117 193.38 280.894 194.328C280.637 196.187 280.301 198.876 279.984 202.237C279.351 208.901 278.699 218.055 278.007 228.357C277.315 238.659 276.821 247.636 276.405 254.517C276.188 257.858 275.99 260.567 275.812 262.426C275.78 263.399 275.647 264.367 275.417 265.313C275.339 264.339 275.339 263.36 275.417 262.386C275.417 260.409 275.575 257.661 275.693 254.477C275.951 247.774 276.346 238.52 276.979 228.298C277.611 218.075 278.363 208.822 279.174 202.158C279.589 198.836 280.044 196.226 280.419 194.249C280.621 193.286 280.919 192.345 281.309 191.441Z" fill="#263238"/>
<path d="M324.473 256.079C324.473 256.375 320.716 255.209 316.07 254.873C311.423 254.536 307.627 255.11 307.587 254.873C310.32 253.858 313.259 253.525 316.149 253.904C319.061 253.927 321.922 254.675 324.473 256.079Z" fill="#263238"/>
<path d="M111.381 202.613C110.822 205.173 109.938 207.652 108.751 209.988C107.837 212.456 106.608 214.796 105.093 216.948C105.63 214.391 106.508 211.917 107.703 209.593C108.626 207.119 109.862 204.773 111.381 202.613Z" fill="#263238"/>
<path d="M159.864 183.611C160.141 183.611 160.595 194.803 160.852 208.624C161.11 222.445 161.11 233.636 160.852 233.656C160.595 233.676 160.121 222.465 159.864 208.644C159.607 194.822 159.567 183.611 159.864 183.611Z" fill="#263238"/>
<path d="M182.899 230.631C182.747 229.676 182.668 228.711 182.662 227.744C182.662 225.767 182.484 223.038 182.365 219.835C182.168 213.191 181.97 204.017 181.812 193.814C181.654 183.611 181.574 174.456 181.555 167.793C181.555 164.609 181.555 161.861 181.555 159.884C181.516 158.919 181.569 157.952 181.713 156.997C181.867 157.964 181.933 158.944 181.911 159.923C181.911 161.9 182.089 164.629 182.207 167.832C182.405 174.476 182.603 183.651 182.761 193.854C182.919 204.056 183.018 213.191 183.018 219.855C183.018 223.038 183.018 225.688 183.018 227.764C183.08 228.721 183.041 229.682 182.899 230.631Z" fill="#263238"/>
<path d="M329.298 281.546C328.961 281.847 328.604 282.124 328.23 282.377L325.066 284.73L313.203 293.054L272.629 321.072L272.194 321.389L271.917 320.914C269.03 316.142 266.064 311.225 263.019 306.164C259.203 299.856 255.525 293.707 252.045 287.953L251.788 287.518L252.223 287.261L292.283 263.533L304.008 256.692L307.172 254.892C307.536 254.679 307.912 254.487 308.299 254.319C307.986 254.602 307.641 254.847 307.271 255.051L304.186 257.028L292.639 264.008L252.757 288.032L252.935 287.359L263.909 305.57L272.787 320.321L272.075 320.163L312.847 292.481L324.888 284.394L328.171 282.278C328.511 281.983 328.89 281.737 329.298 281.546Z" fill="#263238"/>
<g opacity="0.3">
<path d="M232.114 253.093C231.485 244.594 232.259 236.05 234.408 227.803C239.537 204.685 247.947 182.42 259.381 161.683C258.048 160.958 256.523 160.663 255.016 160.836C253.509 161.009 252.091 161.643 250.958 162.652C248.748 164.712 247.026 167.238 245.915 170.047C237.194 188.689 231.685 208.67 229.623 229.148C229.102 233.081 229.002 237.058 229.326 241.012C229.721 245.144 229.721 249.514 232.292 252.875" fill="black"/>
</g>
<g opacity="0.3">
<path d="M159.785 187.843C153.655 198.52 154.466 211.372 160.338 222.208C160.338 210.344 160.338 199.963 159.627 188.001" fill="black"/>
</g>
<path d="M207.615 108.553C207.566 108.199 207.438 107.86 207.239 107.562C207.041 107.264 206.777 107.015 206.469 106.833C206.061 106.668 205.621 106.6 205.183 106.635C202.61 106.679 200.053 107.045 197.571 107.723L197.432 108.118C197.557 109.224 197.782 110.316 198.105 111.381C198.443 112.443 199.073 113.389 199.924 114.109C200.76 114.726 201.772 115.059 202.811 115.059C203.85 115.059 204.861 114.726 205.697 114.109C206.507 113.457 207.115 112.589 207.455 111.607C207.794 110.624 207.85 109.566 207.615 108.553Z" fill="#B87D6A"/>
<path d="M199.983 114.683C201.053 114.804 202.136 114.744 203.186 114.505C204.274 114.166 205.215 113.469 205.856 112.528C206.231 111.972 206.487 111.343 206.606 110.683C206.725 110.022 206.705 109.344 206.548 108.692C206.496 108.384 206.382 108.089 206.212 107.827C206.042 107.566 205.82 107.341 205.559 107.169C204.99 106.969 204.369 106.969 203.799 107.169L200.22 107.841C199.134 108.147 198.005 108.267 196.879 108.197C197.879 107.68 198.952 107.32 200.062 107.13L203.661 106.18C204.448 105.905 205.306 105.905 206.093 106.18C206.483 106.419 206.819 106.735 207.081 107.109C207.343 107.484 207.525 107.908 207.615 108.356C207.805 109.151 207.819 109.978 207.659 110.78C207.499 111.582 207.167 112.34 206.686 113.002C205.867 114.027 204.711 114.728 203.424 114.979C201.15 115.533 199.904 114.683 199.983 114.683Z" fill="#263238"/>
<path d="M243.207 116.66C242.929 115.928 242.414 115.309 241.744 114.904C241.073 114.499 240.287 114.331 239.509 114.426C239.07 114.475 238.646 114.621 238.27 114.853C237.894 115.086 237.574 115.399 237.334 115.77C236.942 116.413 236.765 117.164 236.829 117.915C236.893 118.665 237.195 119.375 237.69 119.942C238.216 120.476 238.902 120.825 239.644 120.936C240.386 121.046 241.143 120.913 241.803 120.555C242.446 120.164 242.936 119.564 243.191 118.855C243.446 118.147 243.452 117.372 243.207 116.66Z" fill="#E8E3E3"/>
<path d="M253.311 289.574L230.453 269.307L211.135 270.968C211.135 270.968 211.807 274.131 214.477 274.626C217.146 275.12 226.795 275.298 226.795 275.298L231.343 279.786L219.815 278.64L205.164 287.28C205.164 287.28 204.827 289.95 208.663 289.258C212.469 288.328 216.198 287.105 219.815 285.6L228.337 286.094L219.044 287.439L207.002 295.921C207.802 296.754 208.816 297.349 209.932 297.642C211.049 297.936 212.224 297.915 213.33 297.582C217.146 296.415 221.812 294.596 221.812 294.596L232.312 293.588L221.812 296.257L213.903 305.906C214.644 306.429 215.528 306.71 216.434 306.71C217.34 306.71 218.225 306.429 218.965 305.906C220.52 304.868 222.012 303.739 223.434 302.525L235.1 302.011C235.1 302.011 247.972 311.344 252.441 312.333C256.909 313.321 266.282 310.632 266.282 310.632L253.311 289.574Z" fill="#D6A291"/>
</g>
<defs>
<clipPath id="clip0_57_97">
<rect width="350" height="331" fill="white"/>
</clipPath>
</defs>
</svg>
