<svg width="242" height="100" viewBox="0 0 242 100" fill="none" xmlns="http://www.w3.org/2000/svg">
<path d="M55.1373 18.3297C57.0847 19.6809 59.0501 21.0498 60.7295 22.721C62.4269 24.3922 63.8383 26.3834 64.4994 28.6591C64.8389 29.8147 64.9639 31.0236 65.357 32.1437C66.2861 34.846 68.6266 36.8905 71.2173 38.135C72.5037 38.7395 73.9687 39.2729 74.6477 40.5174C75.4695 42.0285 74.6834 43.9664 73.4863 45.2109C73.3077 45.4065 73.1111 45.602 73.0754 45.8509C73.0218 46.5087 73.9509 46.6687 74.5405 46.9532C75.1658 47.2732 75.5231 47.9666 75.5231 48.6599C75.541 49.3533 75.2373 50.0289 74.8263 50.58C74.7191 50.7045 74.6119 50.8645 74.6298 51.0245C74.6477 51.2912 74.9514 51.4334 75.1837 51.5578C75.9341 51.9667 76.3629 52.8912 76.2021 53.709C76.2021 53.709 74.8799 54.8646 75.2373 56.2158C75.5946 57.5492 76.6666 58.0826 76.3093 60.3938C75.9519 62.705 74.6119 63.2383 73.5399 63.9495C72.4679 64.6606 64.9461 64.1273 62.0874 66.883C59.2287 69.6386 57.9781 71.5054 57.5314 74.1011C57.0847 76.6967 55.5661 80.4302 54.7621 82.1192C53.9581 83.8081 51.0994 89.4262 50.8314 90.2262C50.5634 91.0262 48.5087 96.1465 50.1167 99.8977H6.61139C6.61139 99.8977 21.9231 81.9947 24.1922 80.5191C26.4791 79.0435 32.6431 72.9099 32.3751 69.0342C32.1071 65.1584 31.1602 61.9583 35.3231 57.5492L36.1271 56.0736C36.1271 56.0736 33.5722 53.1401 34.1082 50.8645C34.6442 48.5888 34.6442 44.4464 39.4861 46.3309C44.3279 48.1977 47.2759 44.4642 46.865 39.3795C46.4541 34.2949 50.349 32.9615 51.7069 26.419C53.0647 19.8764 55.1373 18.3297 55.1373 18.3297Z" fill="white"/>
<path d="M55.0836 18.4364C58.9428 21.1387 63.213 24.1789 64.4815 28.9791C64.7852 30.1169 64.9282 31.3081 65.357 32.4103C65.6964 33.317 66.1967 34.1526 66.822 34.8993C68.1084 36.4638 69.8058 37.5839 71.6282 38.4195C72.5394 38.8284 73.522 39.2551 74.201 40.0195C74.9514 40.8729 75.0407 41.993 74.7012 43.0241C74.5404 43.5397 74.2903 44.0019 73.9687 44.4464C73.7007 44.8375 73.1647 45.2109 73.0218 45.6731C72.7895 46.4198 73.7007 46.7043 74.2367 46.9176C75.4874 47.4332 75.7018 48.7844 75.13 49.9222C74.9692 50.26 74.5047 50.6511 74.5404 51.0423C74.594 51.4512 75.0764 51.5578 75.3444 51.7712C75.7554 52.0734 76.0412 52.5357 76.1127 53.0512C76.1306 53.2112 76.1663 53.5135 76.1127 53.6379C76.077 53.7268 75.9519 53.7979 75.8804 53.869C75.398 54.4202 75.0228 55.1135 75.0764 55.8602C75.1122 56.518 75.4874 57.087 75.7911 57.6559C76.2378 58.5092 76.3628 59.3982 76.202 60.3404C76.0591 61.2649 75.7018 62.1361 74.9871 62.7939C74.5404 63.2028 73.9687 63.5939 73.4327 63.8606C73.0754 64.0384 72.6287 64.0739 72.2356 64.1273C71.6282 64.1984 71.0028 64.2517 70.3775 64.3051C68.7874 64.4473 67.2151 64.6251 65.6607 65.0162C64.1956 65.3895 62.8378 65.9407 61.7479 67.0074C60.3186 68.3941 58.9071 69.9053 58.0852 71.7365C57.7458 72.4832 57.5314 73.2477 57.3884 74.0477C57.2098 75.0078 56.9418 75.9678 56.6559 76.8923C56.102 78.6346 55.4231 80.3591 54.637 82.0303C53.4399 84.5371 52.1178 86.9727 50.9743 89.4973C50.617 90.2795 50.349 91.0974 50.0988 91.9329C49.5986 93.6219 49.277 95.4175 49.3663 97.1776C49.4199 98.1021 49.5986 99.0266 49.9559 99.88C49.9916 99.8266 50.0452 99.7733 50.081 99.7199C48.6338 99.7199 47.1866 99.7199 45.7572 99.7199C42.2911 99.7199 38.825 99.7199 35.3588 99.7199C31.178 99.7199 26.9972 99.7199 22.8164 99.7199C19.1895 99.7199 15.5626 99.7199 11.9356 99.7199C10.7386 99.7199 9.55938 99.7199 8.36232 99.7199C7.98712 99.7199 7.61192 99.7199 7.23672 99.7199C7.07592 99.7199 6.80792 99.6666 6.64712 99.7199C6.62925 99.7199 6.59352 99.7199 6.57565 99.7199C6.61138 99.7911 6.62925 99.8622 6.66498 99.9333C8.00498 98.3688 9.34498 96.8043 10.7028 95.2575C13.3292 92.2352 15.9556 89.2306 18.6356 86.2794C19.7791 85.0171 20.9226 83.7726 22.1196 82.5459C22.7807 81.8703 23.4418 81.1236 24.21 80.5902C25.8716 79.4524 27.3188 77.9945 28.641 76.5012C30.1418 74.7766 31.6962 72.7854 32.2858 70.5276C32.5538 69.4964 32.4287 68.4652 32.3215 67.4163C32.2143 66.2607 32.125 65.1051 32.2143 63.9317C32.3394 62.5983 32.7503 61.3005 33.4292 60.1449C33.858 59.3982 34.3762 58.7048 34.9479 58.0648C35.2695 57.7092 35.466 57.4248 35.6983 57.0158C35.8591 56.7136 36.0378 56.4114 36.1986 56.1091C36.2343 56.0558 36.2164 56.0025 36.1807 55.9491C35.2516 54.8824 34.4298 53.5135 34.1796 52.1267C34.0367 51.3445 34.2511 50.5978 34.4119 49.8155C34.537 49.1577 34.662 48.4999 34.8943 47.8599C35.1087 47.2554 35.4482 46.6687 35.9842 46.2954C36.6631 45.8509 37.5207 45.8687 38.289 46.0465C39.3252 46.2776 40.2543 46.7576 41.3263 46.8643C42.1303 46.9532 42.97 46.8465 43.7204 46.5265C45.2748 45.8687 46.2396 44.3931 46.6684 42.8286C46.9364 41.8863 47.0258 40.8907 47.0079 39.9129C46.9722 38.9173 46.9007 37.975 47.1151 36.9972C47.4724 35.3438 48.4372 33.9571 49.2948 32.5348C50.3847 30.7391 51.2423 28.8724 51.7068 26.8279C52.2071 24.6589 52.6895 22.5077 53.69 20.4987C54.0652 19.7698 54.494 19.0053 55.1015 18.4364C55.1194 18.4186 55.2087 18.3475 55.1551 18.383C55.2802 18.2941 55.1551 18.063 55.03 18.1697C54.6012 18.4897 54.2975 18.9875 54.0116 19.4142C53.0826 20.9076 52.493 22.6143 52.0284 24.3033C51.6711 25.6011 51.4746 26.9523 51.0458 28.2324C50.7063 29.2813 50.2596 30.2947 49.7236 31.2725C48.9018 32.7659 47.8655 34.1526 47.2223 35.7527C46.9186 36.535 46.722 37.3705 46.6863 38.2239C46.6327 39.2906 46.7935 40.3218 46.6863 41.3885C46.4898 43.2197 45.7036 45.1576 44.042 46.0998C43.238 46.5621 42.3268 46.7043 41.4156 46.6332C40.29 46.5443 39.3074 45.9931 38.1996 45.7798C36.7882 45.5131 35.5196 45.9398 34.8764 47.2554C34.5906 47.8599 34.4298 48.4999 34.2868 49.1577C34.1618 49.7978 33.9831 50.4556 33.9116 51.1134C33.7151 52.8023 34.7692 54.5269 35.7519 55.8069C35.8412 55.9136 35.9127 56.0202 36.002 56.1269C36.002 56.0736 35.9842 56.0203 35.9842 55.9669C35.8234 56.2692 35.6447 56.5714 35.4839 56.8736C35.3946 57.0336 35.3231 57.2114 35.2159 57.3714C35.0372 57.6381 34.7871 57.8692 34.5727 58.1181C33.6436 59.2204 32.8575 60.4471 32.393 61.8161C31.6247 64.1095 32.0178 66.474 32.1964 68.8386C32.3572 71.0787 30.91 73.2121 29.6058 74.9011C28.2122 76.7145 26.5863 78.439 24.7818 79.8613C24.4066 80.1635 23.9956 80.4124 23.6204 80.7147C23.2452 81.0347 22.8879 81.3903 22.5306 81.7458C21.4228 82.8481 20.3687 83.9859 19.3146 85.1415C16.6167 88.0928 13.9725 91.0796 11.3461 94.1019C9.73805 95.9509 8.09432 97.7821 6.53992 99.6666C6.52205 99.7022 6.48632 99.72 6.46845 99.7555C6.39699 99.8444 6.45059 99.9689 6.55779 99.9689C8.00499 99.9689 9.45218 99.9689 10.8815 99.9689C14.3476 99.9689 17.8138 99.9689 21.2799 99.9689C25.4607 99.9689 29.6415 99.9689 33.8223 99.9689C37.4492 99.9689 41.0762 99.9689 44.7031 99.9689C45.9002 99.9689 47.0794 99.9689 48.2764 99.9689C48.8303 99.9689 49.4378 100.022 49.9916 99.9689C50.0095 99.9689 50.0452 99.9689 50.0631 99.9689C50.1346 99.9689 50.2239 99.88 50.1882 99.8088C48.9018 96.7509 49.813 93.213 50.9028 90.244C51.278 89.2128 51.8319 88.2172 52.3143 87.2394C52.9932 85.8704 53.69 84.5015 54.3511 83.1148C54.9943 81.7992 55.6018 80.448 56.1199 79.079C56.4772 78.1368 56.8167 77.1945 57.0847 76.2345C57.3527 75.3278 57.5135 74.4033 57.7279 73.4788C58.1746 71.6298 59.2108 70.0475 60.4794 68.643C61.1762 67.8786 61.8908 67.0252 62.7663 66.4385C63.4095 66.0118 64.1242 65.7096 64.8746 65.4607C66.4111 64.9629 68.037 64.7673 69.645 64.5895C70.8063 64.4651 72.0391 64.4651 73.1647 64.1628C73.5935 64.0562 73.9508 63.7717 74.3082 63.5406C74.8799 63.1672 75.4159 62.7228 75.7911 62.1361C76.6666 60.7138 76.7023 58.8648 75.934 57.407C75.541 56.6781 75.1122 55.9491 75.3802 55.0958C75.5052 54.7046 75.7196 54.3491 75.9876 54.0468C76.0948 53.9224 76.2556 53.8157 76.3271 53.6735C76.4879 53.3535 76.3271 52.7668 76.2199 52.4645C76.0591 52.0734 75.809 51.7356 75.4516 51.4867C75.3087 51.38 74.9335 51.2734 74.8442 51.1134C74.7727 50.9711 74.8799 50.6867 74.9514 50.58C75.005 50.4556 75.1122 50.3489 75.1836 50.2422C75.4516 49.7978 75.6482 49.2822 75.666 48.7488C75.7018 47.8777 75.2551 47.0599 74.4332 46.7043C74.0759 46.5443 73.5756 46.4554 73.3255 46.1532C72.9146 45.6554 73.79 45.0153 74.0759 44.6242C75.1658 43.1486 75.6124 41.0329 74.1831 39.6106C73.5042 38.9351 72.5751 38.5439 71.7175 38.135C70.7706 37.7083 69.8594 37.2105 69.0196 36.5883C67.2687 35.3082 65.893 33.5482 65.3034 31.4503C64.9818 30.2591 64.821 29.0502 64.41 27.8768C64.0527 26.8812 63.5524 25.9389 62.9628 25.0678C61.6586 23.1655 59.9255 21.601 58.1031 20.1965C57.1562 19.4675 56.1914 18.7919 55.2087 18.1164C55.0658 18.1341 54.9407 18.3475 55.0836 18.4364Z" fill="white"/>
<path d="M39.8077 52.2156C40.0221 51.8067 40.1829 51.38 40.3079 50.9534C40.4151 50.5089 40.4687 50.0644 40.433 49.62C40.3794 48.731 39.8434 47.8954 39.0751 47.5221C38.6821 47.3443 38.2533 47.291 37.8423 47.3976C37.4314 47.4865 37.0205 47.6999 36.6631 47.9488C36.3058 48.1977 35.9842 48.4999 35.8234 48.8733C35.6447 49.2466 35.5911 49.6911 35.609 50.1355C35.6269 51.0245 35.8055 51.9134 36.1093 52.749C36.413 53.6024 36.8418 54.3846 37.3778 55.1135C38.4677 56.5536 40.0042 57.6559 41.7551 58.2248C39.9685 57.7981 38.3069 56.7669 37.1277 55.3091C35.9485 53.8513 35.2695 52.0201 35.2159 50.1355C35.2159 49.6555 35.2695 49.1755 35.4839 48.7133C35.6983 48.251 36.0735 47.8954 36.4666 47.6288C36.8597 47.3799 37.3063 47.1487 37.7887 47.0598C38.2711 46.9532 38.8071 47.0243 39.2359 47.2554C40.1114 47.7177 40.6295 48.6777 40.6474 49.62C40.6474 50.5622 40.2901 51.4512 39.8077 52.2156Z" fill="#A36986"/>
<path d="M41.5586 51.2378C41.362 51.4334 41.3084 51.7356 41.4335 51.9667C41.505 52.0734 41.5943 52.1623 41.7015 52.2156C41.8087 52.269 41.9516 52.2512 42.0946 52.3045C42.166 52.3223 42.2554 52.3756 42.309 52.4468C42.3626 52.5179 42.3983 52.6068 42.4162 52.6779C42.4519 52.8379 42.4519 52.9623 42.4876 53.069C42.5591 53.2646 42.7914 53.389 43.0236 53.4068C43.2738 53.4424 43.5596 53.4246 43.8634 53.5135C44.1492 53.6024 44.453 53.7979 44.6138 54.1002C44.6852 54.2424 44.7388 54.4202 44.721 54.598C44.7031 54.7758 44.6316 54.9535 44.5244 55.078C44.2922 55.3447 43.9884 55.4513 43.7026 55.5224C43.4167 55.5936 43.1487 55.6291 42.8628 55.6647C42.577 55.6825 42.2554 55.6825 41.9695 55.5758C41.8266 55.5225 41.6836 55.4336 41.5586 55.3269C41.4335 55.2202 41.3442 55.0958 41.2548 54.9713C41.094 54.7224 40.969 54.4913 40.8618 54.2068C40.7546 53.9402 40.701 53.6379 40.7188 53.3357C40.7188 53.0512 40.7903 52.7668 40.8975 52.5001C41.094 51.9667 41.3978 51.5045 41.7194 51.06C41.4692 51.5578 41.2191 52.0378 41.094 52.5712C40.9511 53.0868 40.9511 53.6201 41.1655 54.1002C41.2727 54.3313 41.4156 54.5624 41.5586 54.7758C41.7015 54.9891 41.8802 55.1313 42.1124 55.2024C42.5591 55.3447 43.1308 55.238 43.6311 55.1135C43.8812 55.0602 44.1135 54.9535 44.2386 54.7935C44.2922 54.7224 44.3458 54.6335 44.3458 54.5268C44.3458 54.4202 44.3279 54.3313 44.2922 54.2246C44.2028 54.0291 44.0063 53.8868 43.774 53.7979C43.5418 53.709 43.2738 53.7268 42.9879 53.6557C42.845 53.6201 42.6842 53.5668 42.5591 53.4779C42.434 53.389 42.309 53.2468 42.2554 53.0868C42.2196 52.9268 42.2196 52.7845 42.2018 52.6601C42.1839 52.5356 42.1303 52.4645 42.0231 52.429C41.9159 52.3756 41.773 52.3756 41.63 52.2868C41.4871 52.2156 41.3799 52.0912 41.3263 51.949C41.2012 51.7178 41.3263 51.3978 41.5586 51.2378Z" fill="#A36986"/>
<path d="M46.1682 55.7891C46.4541 55.7358 46.7399 55.718 47.0437 55.8069C47.1866 55.8425 47.3295 55.9136 47.4546 56.0203C47.5797 56.1269 47.6869 56.2514 47.7583 56.3936C47.9013 56.6781 47.937 56.9981 47.9191 57.3181C47.9013 57.6203 47.8119 57.9226 47.669 58.207C47.3831 58.7582 46.8829 59.1671 46.3469 59.416C45.8109 59.6649 45.2213 59.7538 44.6495 59.7538C45.2034 59.5938 45.7394 59.416 46.2039 59.1315C46.6685 58.8471 47.0794 58.4915 47.3117 58.0292C47.4367 57.7981 47.5082 57.5492 47.5439 57.3003C47.5797 57.0514 47.5618 56.7847 47.4725 56.5536C47.3831 56.3225 47.2223 56.1269 46.9722 56.0203C46.7399 55.8603 46.4541 55.8247 46.1682 55.7891Z" fill="#A36986"/>
<path d="M64.1957 28.2324C64.2314 28.6057 64.2493 28.9791 64.2671 29.3524C64.2671 29.5302 64.3029 29.7435 64.1778 29.9391C64.1242 30.028 64.017 30.0991 63.9277 30.1347C63.8383 30.1702 63.7311 30.2058 63.6418 30.2236C62.8914 30.4014 62.1231 30.3836 61.4263 30.5614C60.7117 30.7391 60.0327 31.0236 59.4431 31.4325C58.8357 31.8414 58.3175 32.357 57.9066 32.9437L57.1026 34.1171L57.5493 32.7659C57.7815 32.0548 58.0138 31.3436 58.3354 30.668C58.6749 29.9924 59.1037 29.3346 59.6754 28.8191C59.9613 28.5702 60.2829 28.339 60.6402 28.179C60.9975 28.019 61.3549 27.9124 61.7301 27.8412C62.4805 27.7168 63.2309 27.7346 63.9813 27.7879C63.2309 27.8412 62.4805 27.859 61.7837 28.0368C61.069 28.1968 60.4079 28.5346 59.9077 29.0502C59.3895 29.548 58.9965 30.1702 58.6927 30.828C58.389 31.4858 58.1567 32.1792 57.9423 32.8904L57.585 32.7126C58.0317 32.0725 58.6034 31.5392 59.2466 31.1125C59.8898 30.6858 60.6223 30.3836 61.3727 30.2413C62.141 30.0813 62.8914 30.1525 63.6239 30.028C63.8026 29.9924 63.9813 29.9747 64.0706 29.8502C64.1599 29.7258 64.1778 29.5302 64.1778 29.3524C64.1599 28.9791 64.1778 28.6057 64.1957 28.2324Z" fill="#A36986"/>
<path d="M63.3023 32.197C63.5703 32.6059 63.8026 33.0148 64.017 33.4415C64.1242 33.6548 64.2314 33.8682 64.3207 34.0815C64.41 34.2949 64.4994 34.526 64.5887 34.7571C64.7495 35.2193 64.8746 35.6816 64.9282 36.1794C64.9818 36.6594 64.9282 37.175 64.7495 37.6195C64.7674 37.1394 64.7138 36.6772 64.6244 36.2327C64.5708 36.0016 64.5172 35.7883 64.4458 35.5571C64.3743 35.3438 64.3028 35.1127 64.2135 34.8993C64.0527 34.4549 63.874 34.0104 63.7132 33.5659C63.5524 33.1215 63.4095 32.677 63.3023 32.197Z" fill="#A36986"/>
<path d="M60.9797 38.135C61.3191 38.1528 61.6407 38.135 61.9802 38.1173C62.3018 38.0995 62.6413 38.0461 62.945 37.975C63.2666 37.9039 63.5703 37.815 63.8919 37.7083C64.1957 37.6017 64.4815 37.4594 64.6423 37.2283L64.6959 37.1572L64.8031 37.175C65.1783 37.2283 65.5714 37.2283 65.9466 37.175C66.3218 37.1394 66.697 37.0505 67.0722 36.9261L68.7159 36.3572L67.233 37.2817C67.0007 37.4239 66.7685 37.5661 66.5183 37.7083C66.2861 37.8506 66.0538 37.9928 65.8037 38.135C65.5535 38.2773 65.2677 38.3839 64.9818 38.4373C64.6959 38.4906 64.4101 38.5084 64.1242 38.5084C63.5703 38.5262 63.0165 38.5262 62.4447 38.455C61.8909 38.3839 61.337 38.2595 60.8367 38.0284V38.0106L60.9261 38.0461L60.8367 38.0106V37.9928C61.3727 38.1528 61.9087 38.2239 62.4626 38.2417C63.0165 38.2595 63.5525 38.2239 64.1063 38.1884C64.3743 38.1706 64.6423 38.135 64.8925 38.0817C65.1426 38.0284 65.3749 37.9217 65.6071 37.7972C66.0717 37.5306 66.5362 37.2105 67.0007 36.9261L67.1794 37.2817C66.7863 37.4061 66.3754 37.495 65.9645 37.5306C65.5535 37.5661 65.1426 37.5483 64.7317 37.4772L64.8925 37.4061C64.6423 37.7083 64.285 37.8506 63.9634 37.9395C63.6418 38.0461 63.3023 38.0995 62.9629 38.1528C62.3197 38.2773 61.6407 38.2773 60.9797 38.135Z" fill="#A36986"/>
<path d="M71.7711 44.6953C71.9676 44.2508 72.2356 43.8597 72.5751 43.5041C72.7359 43.3263 72.9146 43.1663 73.1111 43.0063C73.2183 42.9352 73.3612 42.8463 73.522 42.8285C73.7186 42.8108 73.8794 42.8819 74.0044 43.0597C74.058 43.1486 74.0938 43.273 74.0759 43.3797C74.058 43.4864 74.0044 43.5575 73.9508 43.6286C73.8972 43.6819 73.8436 43.7353 73.79 43.7708C73.7364 43.8064 73.6828 43.8597 73.6292 43.8775C73.4148 44.0197 73.1826 44.1264 72.9682 44.1975C72.5215 44.3753 72.0748 44.482 71.6818 44.7486C71.9676 44.3575 72.4322 44.1264 72.8431 43.913C73.0396 43.8064 73.254 43.6997 73.4148 43.5575C73.5042 43.4864 73.5935 43.4152 73.6471 43.3619C73.665 43.3263 73.6828 43.3086 73.6828 43.2908C73.6828 43.273 73.6828 43.2908 73.6828 43.273C73.665 43.2552 73.5935 43.2019 73.5578 43.2197C73.4863 43.2197 73.4148 43.2552 73.3255 43.3086C73.1468 43.4152 72.9682 43.5752 72.7895 43.7175C72.4322 44.0375 72.1106 44.3575 71.7711 44.6953Z" fill="#A36986"/>
<path d="M69.2698 42.9708C69.2877 43.3264 69.3055 43.6642 69.377 43.9842C69.4485 44.3042 69.5557 44.6064 69.7165 44.8553C69.8773 45.1042 70.1274 45.3176 70.3954 45.4598C70.6813 45.602 71.0029 45.6731 71.3423 45.602C71.0565 45.8331 70.6277 45.8687 70.2703 45.762C69.913 45.6554 69.5735 45.4242 69.3591 45.0864C69.1447 44.7664 69.0375 44.3931 69.0375 44.0197C69.0554 43.6464 69.1269 43.2908 69.2698 42.9708Z" fill="#A36986"/>
<path d="M74.6833 50.4378C74.2903 50.6867 73.9508 50.9889 73.6471 51.3267C73.3433 51.6645 73.0575 52.0023 72.7537 52.3579L72.4679 52.0734C72.6465 51.9134 72.8431 51.7712 73.0396 51.6467C73.2361 51.5223 73.4505 51.3978 73.6649 51.3089C73.7721 51.2556 73.8793 51.22 73.9865 51.1667C74.0937 51.1311 74.2009 51.0956 74.3081 51.0422C74.5047 50.9534 74.7191 50.8467 74.7727 50.6156C74.7727 50.6689 74.7727 50.74 74.7548 50.7933C74.7369 50.8467 74.7012 50.9 74.6655 50.9534C74.594 51.06 74.5047 51.1311 74.3975 51.2023C74.2009 51.3445 73.9865 51.4334 73.8079 51.5578C73.4327 51.8067 73.0575 52.0556 72.7359 52.3579L72.45 52.0734C72.7537 51.7178 73.0575 51.3623 73.4327 51.06C73.79 50.7933 74.2188 50.5444 74.6833 50.4378Z" fill="#A36986"/>
<path d="M74.9156 47.3087C74.7548 47.6288 74.594 47.9132 74.4154 48.1977L73.9151 49.0688L73.4327 49.94C73.2719 50.2422 73.1111 50.5267 72.9146 50.8289C72.9503 50.4733 73.0218 50.1355 73.129 49.8155C73.2362 49.4955 73.3791 49.1755 73.5578 48.8733C73.7364 48.571 73.933 48.2866 74.1474 48.0199C74.3975 47.7532 74.6298 47.5221 74.9156 47.3087Z" fill="#A36986"/>
<path d="M73.79 53.3357C73.9687 53.2824 74.1474 53.2823 74.3082 53.2823C74.469 53.2823 74.6476 53.3001 74.8084 53.3179C74.9692 53.3357 75.13 53.389 75.2908 53.4246C75.4516 53.4779 75.6124 53.5312 75.7732 53.6379C75.5946 53.709 75.4338 53.7268 75.2551 53.7268C75.0764 53.7268 74.9156 53.7268 74.7548 53.6913C74.594 53.6557 74.4332 53.6201 74.2724 53.5668C74.0759 53.5312 73.933 53.4601 73.79 53.3357Z" fill="#A36986"/>
<path d="M55.1194 20.9076C55.1551 20.3031 55.1551 19.7164 55.1373 19.112C55.1015 18.5253 55.0479 17.9386 54.9229 17.3697C54.7978 16.8007 54.6191 16.2496 54.3511 15.7518C54.101 15.2362 53.7615 14.7918 53.3506 14.4184C52.9397 14.0451 52.4751 13.725 51.9749 13.5117C51.4746 13.3161 50.9386 13.2095 50.4205 13.245C50.1525 13.2806 49.9202 13.3161 49.6522 13.405C49.3842 13.4939 49.0983 13.6184 48.7231 13.6895C48.6338 13.7073 48.5445 13.725 48.4373 13.725C48.3479 13.725 48.2407 13.725 48.1157 13.7073C47.9013 13.6717 47.6869 13.6006 47.5082 13.4939C47.3295 13.3873 47.1509 13.2272 47.0258 13.0139C46.9007 12.8006 46.8471 12.4983 46.9186 12.2139L47.0079 11.8405H47.401C47.4725 11.8405 47.5439 11.8227 47.6154 11.7516C47.6869 11.6983 47.7583 11.5916 47.7941 11.4849C47.8298 11.3783 47.8477 11.2538 47.8298 11.1649C47.8119 11.076 47.7762 11.0227 47.7226 10.9694C47.5797 10.8271 47.2759 10.756 46.9007 10.7027C46.7042 10.6671 46.5077 10.6494 46.2754 10.596C46.0431 10.5427 45.793 10.4538 45.5607 10.276C45.3285 10.0982 45.1498 9.84932 45.0605 9.6182C44.9533 9.38708 44.9175 9.15596 44.8639 8.96039C44.8282 8.76483 44.7746 8.58704 44.7389 8.40926C44.7031 8.23147 44.6674 8.05369 44.5959 7.8759L44.4351 7.34255L44.2386 6.82697C44.1671 6.64918 44.0957 6.48917 44.0063 6.31139C43.917 6.15138 43.8455 5.9736 43.7562 5.81359C43.0594 4.4802 42.0767 3.28903 40.9154 2.29343C40.3258 1.79563 39.7005 1.35117 39.0394 0.960042C38.3605 0.568914 37.6458 0.266678 36.9133 0C37.6815 0.142228 38.4498 0.37335 39.1823 0.675585C39.361 0.764478 39.5397 0.853371 39.7183 0.924485C39.8077 0.977821 39.897 1.01338 39.9863 1.04893L40.2365 1.19116C40.4151 1.29783 40.5938 1.38673 40.7546 1.4934L41.2549 1.83119C41.4157 1.93786 41.5765 2.08009 41.7373 2.20454L41.9695 2.38233L42.2018 2.57789C42.3447 2.72012 42.5055 2.84457 42.6485 2.9868L43.0594 3.43126C43.2023 3.57349 43.3274 3.7335 43.4525 3.8935C43.5775 4.05351 43.7205 4.19574 43.8277 4.37353C43.9527 4.53353 44.0599 4.69354 44.185 4.87133L44.5066 5.3869C44.6138 5.56469 44.7031 5.74248 44.7925 5.92026C44.8818 6.09805 44.989 6.27583 45.0605 6.4714L45.3106 7.02253L45.5071 7.59144C45.5786 7.78701 45.6322 7.98257 45.6858 8.17814C45.7394 8.3737 45.793 8.56927 45.8287 8.76483C45.8645 8.94262 45.9181 9.10262 45.9717 9.22707C46.0253 9.35152 46.0789 9.42264 46.1682 9.49375C46.329 9.6182 46.6685 9.67154 47.0615 9.72487C47.2581 9.76043 47.4725 9.77821 47.7047 9.84932C47.937 9.92044 48.205 10.0271 48.4194 10.2227C48.6517 10.436 48.8125 10.7383 48.8482 11.0405C48.8839 11.3427 48.8482 11.6094 48.741 11.8583C48.6338 12.1072 48.473 12.3383 48.2586 12.5339C48.0263 12.7117 47.7047 12.8539 47.401 12.8361L47.8834 12.4628C47.8834 12.4805 47.8655 12.4805 47.9013 12.5339C47.9191 12.5694 47.9727 12.6406 48.0442 12.6761C48.1157 12.7117 48.205 12.7472 48.2765 12.765C48.3122 12.765 48.3479 12.765 48.4015 12.765C48.4551 12.765 48.5087 12.765 48.5623 12.7472C48.7946 12.7117 49.0626 12.6228 49.3663 12.5161C49.6701 12.4094 50.0274 12.3561 50.3669 12.3383C51.0458 12.3205 51.7247 12.4628 52.3143 12.7472C52.9039 13.0317 53.4221 13.4228 53.8687 13.8851C54.3154 14.3473 54.6549 14.9162 54.8871 15.4851C55.1194 16.0718 55.2802 16.6763 55.3517 17.2808C55.4946 18.5253 55.3695 19.752 55.1194 20.9076Z" fill="white"/>
<path d="M56.102 19.5208C56.3522 19.1119 56.4772 18.6853 56.5308 18.2586C56.5844 17.8319 56.5844 17.3874 56.5666 16.943C56.5487 16.054 56.4594 15.1651 56.245 14.3651C56.1914 14.1695 56.1199 13.9562 56.0484 13.7784C55.977 13.5828 55.8876 13.405 55.7804 13.2272C55.5839 12.8717 55.3338 12.5516 55.03 12.2672C54.7263 11.9827 54.369 11.7338 53.9759 11.5738C53.5828 11.396 53.154 11.3071 52.6716 11.3071C53.1004 11.0938 53.6186 11.0227 54.101 11.0938C54.6012 11.1649 55.0836 11.3605 55.5124 11.6449C55.9412 11.9294 56.2986 12.3027 56.6023 12.7294C56.8882 13.1561 57.0847 13.6361 57.2276 14.1162C57.4956 15.0762 57.4956 16.0718 57.3706 17.0141C57.2991 17.4763 57.2098 17.9741 57.0132 18.4186C56.8167 18.8453 56.513 19.2719 56.102 19.5208Z" fill="white"/>
<path d="M45.65 8.39147C46.0431 8.01812 46.6148 7.84034 47.1866 7.85812C47.7583 7.87589 48.33 8.07146 48.7946 8.44481C49.2591 8.81816 49.5807 9.33374 49.7058 9.88487C49.8308 10.436 49.7951 11.0227 49.5092 11.4849C49.3663 10.9694 49.2055 10.5427 48.9732 10.1693C48.741 9.79598 48.473 9.47596 48.1692 9.22706C47.8476 8.97816 47.4903 8.7826 47.0615 8.64037C46.6506 8.49814 46.2039 8.40925 45.65 8.39147Z" fill="white"/>
<path d="M45.0247 6.7203C45.2749 6.40028 45.6322 6.20472 46.0074 6.09805C46.3826 5.99138 46.7757 5.95582 47.1687 6.00915C47.5618 6.06249 47.937 6.20472 48.2586 6.41806C48.5802 6.6314 48.8661 6.91586 49.0269 7.30699C48.6159 7.27143 48.2943 7.20032 47.9549 7.16476L47.0258 7.02253L46.0789 6.89808C45.7573 6.82697 45.4178 6.79141 45.0247 6.7203Z" fill="white"/>
<path d="M0 99C1.80453 96.7493 3.66267 94.5494 5.5744 92.3664C7.46827 90.1834 9.4336 88.0512 11.4168 85.9359C13.4179 83.8375 15.4368 81.756 17.5093 79.7253L18.2955 78.9638L18.6885 78.5915C18.8136 78.473 18.9387 78.3546 19.0459 78.2192C19.4925 77.7115 19.8677 77.1362 20.1536 76.527C20.4395 75.9177 20.636 75.2747 20.7432 74.6147C20.8325 73.9547 20.8504 73.2948 20.7432 72.6348L20.5824 71.4841L21.5472 72.2117C22.3333 72.804 23.3517 73.1255 24.3701 73.1086C25.3885 73.1086 26.4069 72.7871 27.1573 72.161C27.9256 71.5348 28.4437 70.6549 28.6403 69.7072C28.7475 69.2334 28.7653 68.7426 28.6939 68.2857C28.676 68.1673 28.6581 68.0488 28.6224 67.9303L28.5152 67.5411C28.4795 67.4057 28.4437 67.2704 28.4259 67.135C28.3901 66.9996 28.3723 66.8642 28.3544 66.7288C28.1579 65.6289 28.2115 64.4951 28.4259 63.3951C28.6403 62.2952 29.0512 61.2629 29.6051 60.2983C29.8731 59.8076 30.2125 59.3506 30.552 58.9276C30.9093 58.4876 31.3024 58.0984 31.7133 57.7261C32.5531 56.9815 33.5357 56.3892 34.5899 56C32.6424 57.083 31.1416 58.7245 30.2304 60.6029C29.7659 61.5337 29.4621 62.5321 29.2835 63.5474C29.1227 64.5628 29.1405 65.595 29.3013 66.5765C29.3192 66.695 29.3549 66.8304 29.3728 66.9488C29.3907 67.0673 29.4264 67.2027 29.4621 67.3211L29.5693 67.7104C29.6051 67.8457 29.6408 67.998 29.6587 68.1503C29.748 68.7426 29.7301 69.3349 29.6051 69.9103C29.3728 71.061 28.7296 72.1271 27.7827 72.8886C27.3003 73.2778 26.7464 73.5655 26.1568 73.7686C25.5672 73.9547 24.9597 74.0563 24.3344 74.0563C23.1016 74.0563 21.8688 73.684 20.8861 72.9394L21.6723 72.5163C21.7795 73.2609 21.7616 74.0224 21.6544 74.7501C21.5293 75.4947 21.2971 76.2054 20.9755 76.8823C20.6539 77.5592 20.2072 78.1854 19.7069 78.7607C19.5819 78.8961 19.4389 79.0315 19.296 79.1669L18.9029 79.5392L18.1168 80.2837C16.0264 82.2806 13.9539 84.3113 11.9171 86.3589C9.8624 88.4065 7.86133 90.488 5.87813 92.5864C3.89493 94.7355 1.94747 96.8508 0 99Z" fill="white"/>
<path d="M44.9909 72.3886C48.3899 71.3281 50.2813 67.7265 49.2155 64.3442C48.1497 60.962 44.5303 59.0799 41.1313 60.1404C37.7323 61.201 35.8408 64.8026 36.9066 68.1848C37.9724 71.5671 41.5919 73.4492 44.9909 72.3886Z" fill="#A36986"/>
<path d="M42.3297 62.7573H42.3966C42.5214 62.7573 42.5838 62.8003 42.5838 62.8863V63.135C42.5838 63.221 42.5214 63.264 42.3966 63.264H42.3565C42.0266 63.264 41.7992 63.3285 41.6744 63.4575C41.5496 63.5865 41.4872 63.7892 41.4872 64.0656V65.3002C41.4872 65.7793 41.2331 66.0772 40.7249 66.1939C41.2331 66.2922 41.4872 66.587 41.4872 67.0784V68.313C41.4872 68.5894 41.5496 68.7921 41.6744 68.9211C41.7992 69.0501 42.0266 69.1146 42.3565 69.1146H42.3966C42.5214 69.1146 42.5838 69.1576 42.5838 69.2436V69.4923C42.5838 69.5783 42.5214 69.6213 42.3966 69.6213H42.3297C41.2242 69.6213 40.6714 69.1668 40.6714 68.2577V67.1245C40.6714 66.7007 40.4218 66.4887 39.9225 66.4887C39.7977 66.4887 39.7353 66.4457 39.7353 66.3598V66.0281C39.7353 65.9421 39.7977 65.8991 39.9225 65.8991C40.4218 65.8991 40.6714 65.6841 40.6714 65.2541V64.1209C40.6714 63.2118 41.2242 62.7573 42.3297 62.7573Z" fill="white"/>
<path d="M45.6962 64.1209V65.2541C45.6962 65.6841 45.9459 65.8991 46.4451 65.8991C46.5699 65.8991 46.6324 65.9421 46.6324 66.0281V66.3598C46.6324 66.4457 46.5699 66.4887 46.4451 66.4887C45.9459 66.4887 45.6962 66.7007 45.6962 67.1245V68.2577C45.6962 69.1668 45.1435 69.6213 44.0379 69.6213H43.9711C43.8463 69.6213 43.7838 69.5783 43.7838 69.4923V69.2436C43.7838 69.1576 43.8463 69.1146 43.9711 69.1146H44.0112C44.3321 69.1146 44.555 69.0501 44.6799 68.9211C44.8136 68.7921 44.8805 68.5894 44.8805 68.313V67.0784C44.8805 66.587 45.1345 66.2922 45.6427 66.1939C45.1345 66.0772 44.8805 65.7793 44.8805 65.3002V64.0656C44.8805 63.7892 44.8136 63.5865 44.6799 63.4575C44.555 63.3285 44.3321 63.264 44.0112 63.264H43.9711C43.8463 63.264 43.7838 63.221 43.7838 63.135V62.8863C43.7838 62.8003 43.8463 62.7573 43.9711 62.7573H44.0379C45.1435 62.7573 45.6962 63.2118 45.6962 64.1209Z" fill="white"/>
<path d="M41.6479 58.8826C41.7372 58.1003 42.4519 57.5314 43.238 57.6203C44.0241 57.7092 44.5959 58.4203 44.5065 59.2026C44.4172 59.9848 43.7025 60.5538 42.9164 60.4649C42.1124 60.376 41.5407 59.6648 41.6479 58.8826Z" fill="#A36986"/>
<path d="M110.2 58H102.35C102.117 58 102 57.8833 102 57.65V42.275C102 42.0417 102.117 41.925 102.35 41.925H110.2C110.433 41.925 110.55 42.0417 110.55 42.275V43.175C110.55 43.4083 110.433 43.525 110.2 43.525H104.075C103.908 43.525 103.825 43.6 103.825 43.75V48.8C103.825 48.95 103.908 49.025 104.075 49.025H109.425C109.658 49.025 109.775 49.1417 109.775 49.375V50.275C109.775 50.5083 109.658 50.625 109.425 50.625H104.075C103.908 50.625 103.825 50.7 103.825 50.85V56.175C103.825 56.325 103.908 56.4 104.075 56.4H110.2C110.433 56.4 110.55 56.5167 110.55 56.75V57.65C110.55 57.8833 110.433 58 110.2 58Z" fill="white"/>
<path d="M115.237 58H114.112C113.878 58 113.762 57.8833 113.762 57.65V45.6C113.762 45.3667 113.878 45.25 114.112 45.25H115.237C115.47 45.25 115.587 45.3667 115.587 45.6V46.575H115.687C116.153 45.6917 117.037 45.25 118.337 45.25H119.262C120.728 45.25 121.745 45.8167 122.312 46.95C122.578 46.4 122.995 45.9833 123.562 45.7C124.145 45.4 124.753 45.25 125.387 45.25H126.262C127.395 45.25 128.278 45.575 128.912 46.225C129.545 46.875 129.862 47.7833 129.862 48.95V57.65C129.862 57.8833 129.745 58 129.512 58H128.387C128.153 58 128.037 57.8833 128.037 57.65V49.025C128.037 47.575 127.337 46.85 125.937 46.85H125.112C124.362 46.85 123.778 47.0667 123.362 47.5C122.962 47.9167 122.762 48.4917 122.762 49.225V57.65C122.762 57.8833 122.645 58 122.412 58H121.287C121.053 58 120.937 57.8833 120.937 57.65V49.025C120.937 47.575 120.237 46.85 118.837 46.85H117.912C117.162 46.85 116.587 47.05 116.187 47.45C115.787 47.85 115.587 48.4167 115.587 49.15V57.65C115.587 57.8833 115.47 58 115.237 58Z" fill="white"/>
<path d="M134.67 61.65H133.545C133.312 61.65 133.195 61.5333 133.195 61.3V45.6C133.195 45.3667 133.312 45.25 133.545 45.25H134.67C134.904 45.25 135.02 45.3667 135.02 45.6V46.575H135.12C135.537 45.6917 136.387 45.25 137.67 45.25H139.17C140.304 45.25 141.179 45.575 141.795 46.225C142.429 46.875 142.745 47.7833 142.745 48.95V54.3C142.745 55.4667 142.429 56.375 141.795 57.025C141.179 57.675 140.304 58 139.17 58H137.67C136.387 58 135.537 57.5583 135.12 56.675H135.02V61.3C135.02 61.5333 134.904 61.65 134.67 61.65ZM137.345 56.4H138.82C140.237 56.4 140.945 55.675 140.945 54.225V49.025C140.945 47.575 140.237 46.85 138.82 46.85H137.345C136.595 46.85 136.02 47.05 135.62 47.45C135.22 47.85 135.02 48.4167 135.02 49.15V54.1C135.02 54.8333 135.22 55.4 135.62 55.8C136.02 56.2 136.595 56.4 137.345 56.4Z" fill="white"/>
<path d="M147.414 58H146.289C146.056 58 145.939 57.8833 145.939 57.65V45.6C145.939 45.3667 146.056 45.25 146.289 45.25H147.414C147.648 45.25 147.764 45.3667 147.764 45.6V46.6H147.864C148.031 46.2333 148.348 45.9167 148.814 45.65C149.281 45.3833 149.831 45.25 150.464 45.25H151.439C151.656 45.25 151.764 45.3667 151.764 45.6V46.525C151.764 46.6417 151.739 46.7333 151.689 46.8C151.639 46.85 151.556 46.8667 151.439 46.85H150.089C149.339 46.85 148.764 47.075 148.364 47.525C147.964 47.975 147.764 48.5917 147.764 49.375V57.65C147.764 57.8833 147.648 58 147.414 58Z" fill="white"/>
<path d="M162.771 58H157.471C156.321 58 155.412 57.675 154.746 57.025C154.096 56.375 153.771 55.4667 153.771 54.3V48.95C153.771 47.7833 154.096 46.875 154.746 46.225C155.412 45.575 156.321 45.25 157.471 45.25H159.571C160.721 45.25 161.621 45.575 162.271 46.225C162.921 46.875 163.246 47.7833 163.246 48.95V52.125C163.246 52.375 163.129 52.5 162.896 52.5H155.821C155.654 52.5 155.571 52.575 155.571 52.725V54.25C155.571 55.7 156.271 56.425 157.671 56.425H162.771C163.004 56.425 163.121 56.5417 163.121 56.775V57.675C163.121 57.8917 163.004 58 162.771 58ZM155.821 51.175H161.221C161.387 51.175 161.471 51.0917 161.471 50.925V49C161.471 47.5667 160.771 46.85 159.371 46.85H157.671C156.271 46.85 155.571 47.5667 155.571 49V50.925C155.571 51.0917 155.654 51.175 155.821 51.175Z" fill="white"/>
<path d="M171.15 57.325H169.75C168.617 57.325 167.734 57 167.1 56.35C166.467 55.7 166.15 54.7917 166.15 53.625V48.95C166.15 47.7833 166.475 46.875 167.125 46.225C167.792 45.575 168.7 45.25 169.85 45.25H175.275C175.509 45.25 175.625 45.3667 175.625 45.6V58C175.625 59.15 175.292 60.05 174.625 60.7C173.975 61.3667 173.075 61.7 171.925 61.7H167.325C167.075 61.7 166.95 61.5833 166.95 61.35V60.425C166.95 60.1917 167.075 60.075 167.325 60.075H171.7C173.1 60.075 173.8 59.3583 173.8 57.925V56H173.7C173.267 56.8833 172.417 57.325 171.15 57.325ZM173.8 53.425V47.075C173.8 46.925 173.717 46.85 173.55 46.85H170.075C168.675 46.85 167.975 47.575 167.975 49.025V53.55C167.975 55 168.675 55.725 170.075 55.725H171.475C172.225 55.725 172.8 55.525 173.2 55.125C173.6 54.725 173.8 54.1583 173.8 53.425Z" fill="white"/>
<path d="M183.819 58H182.519C181.369 58 180.461 57.675 179.794 57.025C179.144 56.375 178.819 55.4667 178.819 54.3V48.95C178.819 47.7833 179.144 46.875 179.794 46.225C180.461 45.575 181.369 45.25 182.519 45.25H187.944C188.178 45.25 188.294 45.3667 188.294 45.6V57.65C188.294 57.8833 188.178 58 187.944 58H186.819C186.586 58 186.469 57.8833 186.469 57.65V56.675H186.369C185.953 57.5583 185.103 58 183.819 58ZM186.469 54.1V47.075C186.469 46.925 186.386 46.85 186.219 46.85H182.719C181.336 46.85 180.644 47.575 180.644 49.025V54.225C180.644 55.675 181.336 56.4 182.719 56.4H184.144C184.894 56.4 185.469 56.2 185.869 55.8C186.269 55.4 186.469 54.8333 186.469 54.1Z" fill="white"/>
<path d="M200.19 58H192.34C192.107 58 191.99 57.8833 191.99 57.65V42.275C191.99 42.0417 192.107 41.925 192.34 41.925H200.19C200.424 41.925 200.54 42.0417 200.54 42.275V43.175C200.54 43.4083 200.424 43.525 200.19 43.525H194.065C193.899 43.525 193.815 43.6 193.815 43.75V48.8C193.815 48.95 193.899 49.025 194.065 49.025H199.415C199.649 49.025 199.765 49.1417 199.765 49.375V50.275C199.765 50.5083 199.649 50.625 199.415 50.625H194.065C193.899 50.625 193.815 50.7 193.815 50.85V56.175C193.815 56.325 193.899 56.4 194.065 56.4H200.19C200.424 56.4 200.54 56.5167 200.54 56.75V57.65C200.54 57.8833 200.424 58 200.19 58Z" fill="white"/>
<path d="M205.352 58H204.227C203.994 58 203.877 57.8833 203.877 57.65V40.775C203.877 40.5417 203.994 40.425 204.227 40.425H205.352C205.585 40.425 205.702 40.5417 205.702 40.775V57.65C205.702 57.8833 205.585 58 205.352 58Z" fill="white"/>
<path d="M214.02 58H212.72C211.57 58 210.661 57.675 209.995 57.025C209.345 56.375 209.02 55.4667 209.02 54.3V48.95C209.02 47.7833 209.345 46.875 209.995 46.225C210.661 45.575 211.57 45.25 212.72 45.25H218.145C218.378 45.25 218.495 45.3667 218.495 45.6V57.65C218.495 57.8833 218.378 58 218.145 58H217.02C216.786 58 216.67 57.8833 216.67 57.65V56.675H216.57C216.153 57.5583 215.303 58 214.02 58ZM216.67 54.1V47.075C216.67 46.925 216.586 46.85 216.42 46.85H212.92C211.536 46.85 210.845 47.575 210.845 49.025V54.225C210.845 55.675 211.536 56.4 212.92 56.4H214.345C215.095 56.4 215.67 56.2 216.07 55.8C216.47 55.4 216.67 54.8333 216.67 54.1Z" fill="white"/>
<path d="M226.265 58H221.815C221.582 58 221.465 57.8833 221.465 57.65V56.775C221.465 56.5583 221.582 56.45 221.815 56.45H226.015C227.315 56.45 227.965 55.9667 227.965 55V54.525C227.965 53.6417 227.54 53.0333 226.69 52.7L223.74 51.45C222.89 51.1 222.282 50.6917 221.915 50.225C221.549 49.7417 221.365 49.1083 221.365 48.325C221.365 46.275 222.49 45.25 224.74 45.25H228.84C229.074 45.25 229.19 45.3667 229.19 45.6V46.475C229.19 46.6917 229.074 46.8 228.84 46.8H225.065C224.465 46.8 224.007 46.925 223.69 47.175C223.39 47.425 223.24 47.7167 223.24 48.05V48.475C223.24 49.175 223.715 49.7083 224.665 50.075L227.615 51.4C228.482 51.7333 229.065 52.175 229.365 52.725C229.682 53.275 229.84 54.0333 229.84 55C229.84 57 228.649 58 226.265 58Z" fill="white"/>
<path d="M239.005 42.18V46.485C239.005 48.1183 239.658 48.935 240.965 48.935C241.292 48.935 241.455 49.0983 241.455 49.425V50.685C241.455 51.0117 241.292 51.175 240.965 51.175C239.658 51.175 239.005 51.98 239.005 53.59V57.895C239.005 61.3483 237.558 63.075 234.665 63.075H234.49C234.163 63.075 234 62.9117 234 62.585V61.64C234 61.3133 234.163 61.15 234.49 61.15H234.595C235.435 61.15 236.018 60.905 236.345 60.415C236.695 59.925 236.87 59.155 236.87 58.105V53.415C236.87 51.5483 237.535 50.4283 238.865 50.055C237.535 49.6117 236.87 48.48 236.87 46.66V41.97C236.87 40.92 236.695 40.15 236.345 39.66C236.018 39.17 235.435 38.925 234.595 38.925H234.49C234.163 38.925 234 38.7617 234 38.435V37.49C234 37.1633 234.163 37 234.49 37H234.665C237.558 37 239.005 38.7267 239.005 42.18Z" fill="white"/>
<path d="M96.79 37H96.965C97.2917 37 97.455 37.1633 97.455 37.49V38.435C97.455 38.7617 97.2917 38.925 96.965 38.925H96.86C95.9967 38.925 95.4017 39.17 95.075 39.66C94.7483 40.15 94.585 40.92 94.585 41.97V46.66C94.585 48.48 93.92 49.6117 92.59 50.055C93.92 50.4283 94.585 51.5483 94.585 53.415V58.105C94.585 59.155 94.7483 59.925 95.075 60.415C95.4017 60.905 95.9967 61.15 96.86 61.15H96.965C97.2917 61.15 97.455 61.3133 97.455 61.64V62.585C97.455 62.9117 97.2917 63.075 96.965 63.075H96.79C93.8967 63.075 92.45 61.3483 92.45 57.895V53.59C92.45 51.98 91.7967 51.175 90.49 51.175C90.1633 51.175 90 51.0117 90 50.685V49.425C90 49.0983 90.1633 48.935 90.49 48.935C91.7967 48.935 92.45 48.1183 92.45 46.485V42.18C92.45 38.7267 93.8967 37 96.79 37Z" fill="white"/>
</svg>
