<svg xmlns="http://www.w3.org/2000/svg" viewBox="0 0 107.27 102.48"><g id="Camada_2" data-name="Camada 2"><g id="Ñëîé_1" data-name="Ñëîé 1"><path d="M29.93,37.91c-.19-.1-.38-.17-.57-.25a7.34,7.34,0,0,0,1.55-2,7.26,7.26,0,0,0-6.49-10.5,7.26,7.26,0,0,0-7.26,7.25,7.16,7.16,0,0,0,.77,3.25,7.31,7.31,0,0,0,1.54,2,16.06,16.06,0,0,0-1.58.84c-4.41,2.68-6.46,7.06-6.46,13.78a2.22,2.22,0,1,0,4.43,0c0-6.48,2.19-8.69,4.33-10a7.34,7.34,0,0,1,7.73-.42,2.22,2.22,0,0,0,2-4Zm-5.51-8.37a2.82,2.82,0,0,1,2.82,2.82A3,3,0,0,1,27,33.63a2.84,2.84,0,0,1-2.53,1.56,2.85,2.85,0,0,1-2.83-2.83A2.83,2.83,0,0,1,24.42,29.54Z" style="fill:#fff"/><path d="M65.21,38.49a17.42,17.42,0,0,0-1.59-.84,7,7,0,0,0,1.54-2,7.26,7.26,0,1,0-13,0,7.41,7.41,0,0,0,1.54,2l-.43.19a2.22,2.22,0,0,0,2,4,7.32,7.32,0,0,1,7.64.47c2.14,1.3,4.33,3.51,4.33,10a2.22,2.22,0,1,0,4.43,0C71.67,45.55,69.61,41.17,65.21,38.49Zm-6.53-9a2.82,2.82,0,0,1,2.82,2.82,2.82,2.82,0,0,1-5.35,1.27,2.82,2.82,0,0,1,2.53-4.09Z" style="fill:#fff"/><path d="M48.11,38.49a17.71,17.71,0,0,0-1.6-.85,7.38,7.38,0,0,0,1.53-2,7.25,7.25,0,1,0-13,0,7.31,7.31,0,0,0,1.54,2,14.18,14.18,0,0,0-1.58.84c-4.41,2.68-6.46,7.06-6.46,13.78a2.22,2.22,0,1,0,4.43,0c0-6.48,2.19-8.69,4.33-10a7.38,7.38,0,0,1,8.49,0c2.14,1.3,4.33,3.51,4.33,10a2.22,2.22,0,1,0,4.43,0C54.57,45.55,52.52,41.17,48.11,38.49Zm-6.56-9a2.82,2.82,0,0,1,2.82,2.82,3,3,0,0,1-.29,1.27,2.84,2.84,0,0,1-2.53,1.56,2.83,2.83,0,0,1,0-5.65Z" style="fill:#fff"/><path d="M97.11,102.48a6.33,6.33,0,0,1-4.48-1.85l-26-26A41.51,41.51,0,0,1,0,41.54a40.09,40.09,0,0,1,.24-4.39,40.49,40.49,0,0,1,5-15.76A41.64,41.64,0,0,1,41.54,0a41.58,41.58,0,0,1,41.3,37.16,39.77,39.77,0,0,1,.24,4.38,41.71,41.71,0,0,1-4.71,19.25l27.05,27.05a6.34,6.34,0,0,1,0,9l-3.86,3.83A6.19,6.19,0,0,1,97.11,102.48ZM66.91,68.65,95.76,97.49a1.92,1.92,0,0,0,2.66,0l3.87-3.85a1.9,1.9,0,0,0,0-2.69L72.86,61.54l.85-1.47a37.14,37.14,0,0,0,4.94-18.53,36.31,36.31,0,0,0-.21-3.91A37.12,37.12,0,0,0,9.07,23.55a37.33,37.33,0,0,0-4.64,18A37.08,37.08,0,0,0,65.36,70Z" style="fill:#fff"/></g></g></svg>