<?xml version="1.0" encoding="utf-8"?>
<!-- Generator: Adobe Illustrator 25.0.1, SVG Export Plug-In . SVG Version: 6.00 Build 0)  -->
<svg version="1.1" id="Camada_1" xmlns="http://www.w3.org/2000/svg" xmlns:xlink="http://www.w3.org/1999/xlink" x="0px" y="0px"
	 viewBox="0 0 474.6 467.1" style="enable-background:new 0 0 474.6 467.1;" xml:space="preserve">
<style type="text/css">
	.st0{fill:#EBEBEB;}
	.st1{fill:#E0E0E0;}
	.st2{fill:#AE9BBA;}
	.st3{opacity:0.3;enable-background:new    ;}
	.st4{opacity:0.3;}
	.st5{opacity:0.2;}
	.st6{opacity:0.3;fill:#AE9BBA;enable-background:new    ;}
	.st7{opacity:0.2;fill:#AE9BBA;enable-background:new    ;}
	.st8{opacity:0.2;enable-background:new    ;}
	.st9{fill:#263238;}
	.st10{fill:#FFBF9D;}
	.st11{opacity:0.15;}
	.st12{fill:#EA8D8F;}
	.st13{fill:#455A64;}
	.st14{opacity:0.15;enable-background:new    ;}
	.st15{fill:none;}
	.st16{opacity:0.1;}
	.st17{fill:#A36986;}
</style>
<g id="Background_Complete">
	<path class="st0" d="M300.1,234.2L182,233.1l-35.7-0.2h-9.7H134c-0.3,0-0.6,0-0.9,0c0.3,0,0.6,0.1,0.9,0.1l2.5,0.1l9.7,0.1
		l35.8,0.2l118.1,0.1c46.1,0,87.9,0.1,118.1,0.3c15.1,0.1,27.3,0.2,35.8,0.4c4.2,0.1,7.5,0.2,9.7,0.2c1.1,0,2.3,0.1,3.4,0.3
		c-1.1,0.2-2.3,0.3-3.4,0.2c-2.2,0.1-5.5,0.1-9.7,0.1c-8.5,0.1-20.7,0.1-35.8,0C387.9,235.1,346.2,234.7,300.1,234.2z"/>
	<path class="st0" d="M299.2,244.6l-116.5-19.5l-35.3-5.7l-9.6-1.5l-2.5-0.4c-0.3-0.1-0.6-0.1-0.9-0.1c0.3,0.1,0.6,0.2,0.8,0.2
		l2.5,0.5l9.6,1.6l35.3,5.8l116.7,18.4c45.5,7.1,86.8,13.7,116.6,18.6c14.9,2.5,27,4.5,35.3,6c4.2,0.7,7.4,1.3,9.6,1.8
		c1.1,0.2,2.2,0.4,3.3,0.8c-1.1,0-2.3-0.1-3.4-0.3c-2.2-0.3-5.5-0.7-9.6-1.4c-8.4-1.2-20.5-3.1-35.4-5.5
		C385.8,259.1,344.6,252.3,299.2,244.6z"/>
	<path class="st0" d="M296.6,254.8l-112-37.6l-34-11.2l-9.3-3l-2.4-0.8c-0.3-0.1-0.6-0.2-0.8-0.2c0.3,0.1,0.5,0.2,0.8,0.3l2.4,0.8
		l9.2,3.1l34,11.2l112.3,36.6c43.9,14.2,83.5,27.2,112.2,36.7c14.3,4.8,25.9,8.7,33.9,11.5c4,1.4,7.1,2.5,9.2,3.2
		c1.1,0.3,2.1,0.8,3.1,1.3c-1.1-0.2-2.2-0.4-3.3-0.8c-2.1-0.6-5.3-1.6-9.3-2.9c-8.1-2.5-19.7-6.3-34.1-11
		C379.9,282.7,340.3,269.5,296.6,254.8z"/>
	<path class="st0" d="M292.5,264.4l-104.7-54.7l-31.8-16.4l-8.7-4.4l-2.3-1.1c-0.3-0.1-0.5-0.3-0.8-0.4c0.2,0.2,0.5,0.3,0.7,0.4
		l2.2,1.2l8.6,4.5l31.8,16.5l105.2,53.8c41.1,21,78.2,40,105,53.9c13.4,7,24.2,12.7,31.7,16.6c3.7,2,6.6,3.6,8.5,4.7
		c1,0.5,2,1.1,2.9,1.8c-1.1-0.3-2.1-0.8-3.1-1.3c-2-1-5-2.4-8.7-4.3c-7.6-3.8-18.5-9.3-31.9-16.2
		C370.4,305.1,333.4,285.8,292.5,264.4z"/>
	<path class="st0" d="M287,273.2l-94.8-70.4l-28.9-21.2l-7.9-5.7l-2.1-1.5c-0.2-0.2-0.5-0.3-0.7-0.5c0.2,0.2,0.4,0.4,0.7,0.6l2,1.5
		l7.8,5.8l28.8,21.2l95.5,69.6c37.3,27.1,71,51.7,95.3,69.7c12.1,9,22,16.3,28.7,21.4c3.4,2.5,6,4.6,7.7,5.9
		c0.9,0.6,1.8,1.4,2.6,2.2c-1-0.5-2-1.1-2.9-1.8c-1.8-1.3-4.5-3.1-8-5.6c-6.9-4.9-16.8-12.1-29-21C357.5,325.6,324,300.7,287,273.2z
		"/>
	<path class="st0" d="M280.1,281.1l-82.7-84.3l-25.2-25.4l-6.9-6.9l-1.8-1.8c-0.2-0.2-0.4-0.4-0.6-0.6c0.2,0.2,0.4,0.5,0.6,0.6
		l1.7,1.8l6.8,7l25.1,25.4c21.4,21.4,50.9,50.9,83.5,83.6s62.1,62.1,83.3,83.7c10.6,10.8,19.2,19.5,25,25.6c2.9,3,5.2,5.4,6.7,7.1
		c0.8,0.8,1.6,1.7,2.2,2.6c-0.9-0.7-1.8-1.4-2.6-2.2c-1.6-1.5-4-3.8-7-6.8c-6-5.9-14.7-14.5-25.4-25.3
		C341.6,343.8,312.4,314,280.1,281.1z"/>
	<path class="st0" d="M272.1,287.8l-68.6-96.2l-20.9-29l-5.8-7.9l-1.5-2c-0.2-0.2-0.3-0.5-0.6-0.7c0.1,0.3,0.3,0.5,0.5,0.7l1.4,2.1
		l5.6,7.9l20.9,29l69.5,95.5c27.1,37.3,51.7,71,69.3,95.6c8.8,12.3,15.9,22.2,20.7,29.2c2.4,3.5,4.3,6.2,5.5,8
		c0.7,0.9,1.3,1.9,1.8,2.9c-0.8-0.8-1.5-1.7-2.2-2.6c-1.4-1.8-3.3-4.4-5.9-7.8c-5-6.8-12.3-16.7-21.1-28.9
		C323.1,359.3,298.9,325.3,272.1,287.8z"/>
	<path class="st0" d="M263.2,293.1c-20.6-41.3-39.2-78.6-52.7-105.7l-16.1-31.9l-4.4-8.7l-1.2-2.2c-0.1-0.3-0.3-0.5-0.4-0.7
		c0.1,0.3,0.2,0.5,0.3,0.8l1.1,2.3c1,2,2.5,5,4.3,8.7l16.1,32l53.7,105.2c21,41,39.9,78.2,53.5,105.3c6.8,13.5,12.2,24.5,15.9,32.1
		c1.9,3.8,3.3,6.8,4.2,8.8c0.5,1,1,2.1,1.3,3.1c-0.7-0.9-1.3-1.9-1.7-2.9c-1.1-2-2.6-4.9-4.6-8.6c-3.9-7.5-9.5-18.4-16.3-31.9
		C302.4,371.8,283.7,334.4,263.2,293.1z"/>
	<path class="st0" d="M253.5,297c-13.8-44-26.4-83.8-35.4-112.7c-4.6-14.4-8.3-26-10.9-34.1c-1.3-4-2.3-7.1-3-9.2
		c-0.4-1-0.6-1.8-0.8-2.4c-0.1-0.3-0.2-0.5-0.3-0.8c0,0.3,0.1,0.6,0.2,0.8l0.7,2.4l2.9,9.3l10.9,34.1l36.5,112.4
		c14.3,43.8,27.1,83.6,36.3,112.4c4.6,14.4,8.2,26.1,10.7,34.2c1.2,4,2.2,7.2,2.8,9.3c0.4,1.1,0.6,2.2,0.8,3.3c-0.5-1-1-2.1-1.3-3.2
		c-0.8-2.1-1.8-5.2-3.2-9.2c-2.7-8-6.5-19.6-11.1-34C279.8,380.8,267.2,341,253.5,297z"/>
	<path class="st0" d="M243.3,299.4l-17.3-116.9c-2.3-14.9-4.1-27-5.4-35.4c-0.7-4.1-1.2-7.4-1.5-9.6l-0.4-2.5c0-0.3-0.1-0.6-0.2-0.8
		c0,0.3,0,0.6,0.1,0.9c0.1,0.6,0.2,1.4,0.3,2.5c0.3,2.2,0.8,5.5,1.4,9.6c1.3,8.4,3.1,20.5,5.4,35.4c4.7,29.9,11.2,71.1,18.3,116.7
		c7.2,45.6,13.6,86.8,18.1,116.7c2.2,14.9,4,27,5.2,35.4c0.6,4.2,1,7.4,1.3,9.6c0.2,1.1,0.3,2.3,0.3,3.4c-0.4-1.1-0.6-2.2-0.8-3.3
		c-0.4-2.2-1-5.4-1.7-9.6c-1.4-8.3-3.3-20.4-5.6-35.4C256.1,386.3,250,345,243.3,299.4z"/>
	<path class="st0" d="M232.9,300.1c0.4-46.1,0.8-87.9,1.1-118.1c0.1-15.1,0.1-27.3,0.1-35.8c0-4.2,0-7.5,0-9.7c0-1.1,0-1.9,0-2.5
		c0-0.3,0-0.6-0.1-0.9c0,0.3,0,0.6-0.1,0.9c0,0.6,0,1.4-0.1,2.5c0,2.3-0.1,5.5-0.1,9.7c0,8.5-0.1,20.7-0.2,35.8v118.1
		c0,46.1,0,87.9-0.2,118.1c-0.1,15.1-0.2,27.4-0.4,35.8c-0.1,4.2-0.2,7.5-0.2,9.7c0,1.1-0.1,2.3-0.2,3.4c-0.2-1.1-0.3-2.3-0.2-3.4
		c-0.1-2.2-0.1-5.5-0.2-9.7c-0.1-8.5-0.1-20.7-0.1-35.8C232.1,387.9,232.4,346.2,232.9,300.1z"/>
	<path class="st0" d="M222.5,299.1c7.6-45.5,14.4-86.7,19.4-116.5c2.4-14.9,4.4-27,5.7-35.3c0.6-4.2,1.1-7.4,1.5-9.6
		c0.1-1.1,0.3-1.9,0.4-2.5c0.1-0.3,0.1-0.6,0.1-0.9c-0.1,0.3-0.2,0.6-0.2,0.8l-0.5,2.5c-0.4,2.2-0.9,5.4-1.6,9.6
		c-1.4,8.4-3.3,20.4-5.7,35.3c-4.7,29.9-11.2,71.1-18.4,116.7s-13.6,86.8-18.5,116.6c-2.4,14.9-4.5,27-5.9,35.3
		c-0.7,4.2-1.3,7.4-1.8,9.6c-0.2,1.1-0.4,2.2-0.8,3.3c0-1.1,0.1-2.3,0.3-3.4c0.3-2.2,0.7-5.5,1.4-9.6c1.2-8.4,3.1-20.5,5.5-35.4
		C208,385.8,214.9,344.6,222.5,299.1z"/>
	<path class="st0" d="M212.4,296.6l37.5-112c4.7-14.3,8.5-25.9,11.2-34c1.3-4,2.3-7.1,3-9.3l0.8-2.4c0.1-0.3,0.2-0.5,0.2-0.8
		c-0.1,0.3-0.2,0.5-0.3,0.8l-0.8,2.4c-0.7,2.1-1.8,5.2-3.1,9.2c-2.7,8.1-6.5,19.7-11.2,34L213,296.8
		c-14.2,43.9-27.1,83.6-36.7,112.2c-4.8,14.3-8.7,25.9-11.4,33.9c-1.4,4-2.5,7.1-3.2,9.2c-0.3,1.1-0.8,2.1-1.3,3.1
		c0.2-1.1,0.5-2.2,0.9-3.3c0.6-2.1,1.6-5.3,2.9-9.3c2.5-8.1,6.3-19.7,11-34.1C184.4,379.9,197.7,340.3,212.4,296.6z"/>
	<path class="st0" d="M202.7,292.5c21.4-40.9,40.7-77.9,54.7-104.7l16.4-31.8l4.4-8.7l1.1-2.3c0.1-0.3,0.2-0.5,0.4-0.8
		c-0.2,0.2-0.3,0.5-0.5,0.7l-1.2,2.2c-1,2-2.6,4.9-4.5,8.6l-16.4,31.8l-53.7,105.2c-20.9,41.1-40,78.2-53.9,105.1
		c-7,13.4-12.6,24.2-16.6,31.7c-2,3.7-3.6,6.6-4.6,8.5c-0.5,1-1.1,2-1.8,2.9c0.3-1.1,0.8-2.1,1.3-3.1c1-2,2.4-5,4.3-8.7
		c3.8-7.6,9.3-18.5,16.2-31.9C162.1,370.4,181.4,333.4,202.7,292.5z"/>
	<path class="st0" d="M193.9,287l70.3-94.9l21.2-28.9c2.5-3.4,4.4-6.1,5.7-7.9l1.5-2.1c0.2-0.2,0.3-0.5,0.5-0.7
		c-0.2,0.2-0.4,0.4-0.6,0.7c-0.4,0.5-0.9,1.1-1.5,2l-5.8,7.8l-21.2,28.8c-17.8,24.5-42.4,58.2-69.5,95.5s-51.7,71-69.6,95.4
		c-9,12.2-16.3,22-21.4,28.7c-2.6,3.4-4.6,6-5.9,7.7c-0.7,0.9-1.4,1.8-2.2,2.6c0.5-1,1.1-2,1.8-2.9c1.3-1.8,3.1-4.5,5.6-8
		c4.9-6.9,12.1-16.8,21-29C141.6,357.5,166.4,324,193.9,287z"/>
	<path class="st0" d="M186,280.1l84.3-82.8l25.4-25.2l6.9-6.9l1.8-1.8c0.2-0.2,0.4-0.4,0.6-0.6c-0.2,0.2-0.4,0.4-0.6,0.6l-1.8,1.8
		l-7,6.8L270,197.1l-83.5,83.5c-32.6,32.6-62.1,62.1-83.6,83.4c-10.8,10.6-19.5,19.2-25.6,25c-3,2.9-5.4,5.2-7.1,6.7
		c-0.8,0.8-1.7,1.6-2.6,2.2c0.7-0.9,1.4-1.8,2.2-2.6c1.5-1.6,3.8-4,6.8-7c5.9-6,14.6-14.7,25.3-25.4
		C123.4,341.7,153.1,312.4,186,280.1z"/>
	<path class="st0" d="M179.3,272.1l96.1-68.7l29-21l7.9-5.8l2-1.5c0.2-0.2,0.5-0.3,0.7-0.6c-0.3,0.1-0.5,0.3-0.7,0.5l-2,1.5l-8,5.6
		l-29,20.9l-95.5,69.5c-37.2,27.2-71,51.7-95.6,69.3c-12.3,8.8-22.2,15.9-29.2,20.8c-3.5,2.4-6.2,4.3-8,5.5
		c-0.9,0.7-1.9,1.3-2.9,1.8c0.8-0.8,1.7-1.5,2.6-2.2c1.8-1.4,4.4-3.3,7.8-5.9c6.8-5,16.7-12.3,28.9-21.1
		C107.8,323.2,141.8,298.9,179.3,272.1z"/>
	<path class="st0" d="M174,263.2l105.7-52.8l32-16.1l8.6-4.5l2.2-1.2c0.3-0.1,0.5-0.3,0.7-0.4c-0.3,0.1-0.5,0.2-0.8,0.3l-2.3,1.1
		l-8.7,4.3l-32,16.1l-105.2,53.7c-41,21-78.2,40-105.2,53.5c-13.5,6.8-24.5,12.2-32.1,15.9c-3.8,1.9-6.8,3.3-8.8,4.2
		c-1,0.5-2.1,1-3.1,1.3c0.9-0.7,1.9-1.3,2.9-1.8c2-1.1,4.8-2.6,8.6-4.6c7.5-3.9,18.4-9.5,31.8-16.4
		C95.4,302.4,132.7,283.7,174,263.2z"/>
	<path class="st0" d="M170,253.5L282.7,218l34.1-10.9l9.2-3l2.4-0.8c0.3-0.1,0.6-0.2,0.8-0.3c-0.3,0.1-0.6,0.1-0.8,0.2l-2.4,0.7
		l-9.3,2.9l-34.1,10.9l-112.3,36.5c-43.8,14.3-83.5,27.2-112.3,36.3c-14.4,4.6-26.1,8.2-34.2,10.7c-4,1.2-7.2,2.2-9.3,2.8
		c-1.1,0.4-2.2,0.7-3.3,0.8c1-0.5,2.1-0.9,3.1-1.3c2.1-0.8,5.2-1.8,9.2-3.2c8-2.7,19.6-6.5,34-11.1
		C86.2,279.9,126.1,267.3,170,253.5z"/>
	<path class="st0" d="M167.7,243.3L284.5,226l35.4-5.4l9.6-1.6l2.5-0.4c0.3,0,0.6-0.1,0.8-0.2c-0.3,0-0.6,0-0.9,0.1l-2.5,0.3
		l-9.6,1.4l-35.4,5.4L167.8,244c-45.6,7.2-86.8,13.7-116.7,18.2c-14.9,2.2-27,4-35.4,5.2c-4.2,0.6-7.4,1-9.6,1.3
		c-1.1,0.2-2.3,0.3-3.4,0.3c1.1-0.4,2.2-0.6,3.3-0.8c2.2-0.4,5.4-1,9.6-1.7c8.3-1.4,20.4-3.3,35.3-5.6
		C80.8,256.2,122.1,250,167.7,243.3z"/>
	<path class="st0" d="M167,232.9l118.1,1l35.8,0.1h9.7h2.5c0.3,0,0.6,0,0.9,0c-0.3,0-0.6-0.1-0.9-0.1l-2.5-0.1l-9.7-0.1l-35.8-0.1
		L167,233.7c-46.1,0.1-87.9,0.1-118.1-0.1c-15.1-0.1-27.3-0.2-35.8-0.4c-4.2-0.1-7.5-0.1-9.7-0.2c-1.1,0-2.3-0.1-3.4-0.2
		c1.1-0.2,2.3-0.3,3.4-0.2c2.2-0.1,5.5-0.1,9.7-0.2c8.4-0.1,20.7-0.1,35.8-0.1C79.1,232.2,120.9,232.5,167,232.9z"/>
	<path class="st0" d="M167.9,222.5l116.5,19.3l35.3,5.7l9.6,1.5l2.5,0.4c0.3,0.1,0.6,0.1,0.9,0.1c-0.3-0.1-0.6-0.1-0.9-0.2l-2.5-0.5
		l-9.6-1.6l-35.3-5.7l-116.7-18.3c-45.6-7.1-86.8-13.6-116.6-18.5c-14.9-2.4-27-4.5-35.3-5.9c-4.2-0.7-7.4-1.3-9.6-1.8
		c-1.1-0.2-2.2-0.4-3.3-0.8c1.1,0,2.3,0.1,3.4,0.3c2.2,0.3,5.5,0.7,9.6,1.3c8.4,1.2,20.5,3.1,35.4,5.5
		C81.2,208.1,122.4,214.9,167.9,222.5z"/>
	<path class="st0" d="M170.4,212.4l112,37.5l34,11.2l9.3,3l2.4,0.7c0.3,0.1,0.5,0.2,0.8,0.2c-0.3-0.1-0.5-0.2-0.8-0.3l-2.4-0.8
		l-9.2-3.1l-34-11.2L170.2,213c-43.9-14.2-83.6-27.1-112.3-36.6C43.6,171.6,32,167.7,24,165c-4-1.4-7.1-2.5-9.2-3.2
		c-1.1-0.3-2.1-0.8-3.1-1.3c1.1,0.2,2.2,0.4,3.3,0.8c2.1,0.6,5.3,1.6,9.3,2.9c8.1,2.5,19.7,6.3,34.1,11
		C87.1,184.5,126.7,197.7,170.4,212.4z"/>
	<path class="st0" d="M174.5,202.8l104.7,54.6l31.8,16.4l8.7,4.4l2.3,1.1c0.3,0.1,0.5,0.2,0.8,0.4c-0.2-0.2-0.5-0.3-0.8-0.5
		l-2.2-1.2l-8.6-4.5L279.4,257l-105.2-53.6c-41.1-20.9-78.3-39.9-105.1-53.8c-13.4-7-24.3-12.6-31.7-16.6c-3.7-2-6.6-3.6-8.6-4.6
		c-1-0.5-2-1.1-2.9-1.8c1.1,0.3,2.1,0.8,3.1,1.3c2,0.9,5,2.4,8.8,4.3c7.6,3.8,18.5,9.3,31.9,16.2
		C96.6,162.1,133.7,181.4,174.5,202.8z"/>
	<path class="st0" d="M180.1,193.9l94.9,70.3l28.9,21.2l7.9,5.7l2.1,1.5c0.2,0.2,0.5,0.3,0.7,0.5c-0.2-0.2-0.4-0.4-0.7-0.5l-2-1.5
		l-7.8-5.8l-28.8-21.2l-95.5-69.4c-37.3-27.1-71.1-51.6-95.4-69.6c-12.2-9-22-16.3-28.7-21.4c-3.4-2.6-6-4.6-7.7-5.9
		c-0.9-0.6-1.8-1.4-2.6-2.2c1,0.5,2,1.1,2.9,1.8c1.8,1.3,4.5,3.1,8,5.6c6.9,4.9,16.8,12.1,29,21C109.5,141.6,143,166.4,180.1,193.9z
		"/>
	<path class="st0" d="M186.9,186l82.8,84.2l25.2,25.4l6.9,6.9l1.8,1.8c0.2,0.2,0.4,0.4,0.6,0.6c-0.2-0.2-0.4-0.5-0.6-0.6l-1.8-1.8
		l-6.8-7L270,270l-83.6-83.5C153.8,154,124.2,124.4,103,103C92.4,92.2,83.8,83.5,78,77.4c-2.9-3-5.2-5.4-6.7-7.1
		c-0.8-0.8-1.6-1.6-2.2-2.6c0.9,0.7,1.7,1.4,2.5,2.2c1.6,1.5,4,3.8,7,6.8c6,5.9,14.7,14.5,25.4,25.2
		C125.3,123.4,154.6,153.1,186.9,186z"/>
	<path class="st0" d="M194.9,179.3l68.7,96.1l21,29l5.8,7.8l1.5,2c0.2,0.2,0.3,0.5,0.5,0.7c-0.1-0.3-0.3-0.5-0.5-0.7l-1.4-2.1
		l-5.6-7.9l-21-29c-17.8-24.5-42.4-58.2-69.6-95.4s-51.8-71-69.4-95.5C116.1,71.9,109,62,104.2,55c-2.4-3.5-4.3-6.2-5.5-8
		c-0.7-0.9-1.3-1.9-1.8-2.9c0.8,0.8,1.5,1.7,2.2,2.6c1.4,1.8,3.3,4.4,5.9,7.8c5,6.8,12.3,16.6,21.1,28.9
		C143.8,107.9,168.1,141.8,194.9,179.3z"/>
	<path class="st0" d="M203.9,173.9c20.6,41.3,39.3,78.6,52.8,105.6l16.2,31.9l4.5,8.6l1.2,2.2c0.1,0.3,0.3,0.5,0.4,0.8
		c-0.1-0.3-0.2-0.5-0.3-0.8c-0.3-0.5-0.6-1.3-1.1-2.3l-4.3-8.7c-3.8-7.6-9.3-18.5-16.1-32l-53.8-105.1c-21-41-40-78.2-53.6-105.2
		c-6.8-13.5-12.2-24.4-16-32c-1.9-3.8-3.3-6.8-4.2-8.8c-0.5-1-1-2-1.3-3.1c0.7,0.9,1.3,1.9,1.8,2.9c1.1,2,2.6,4.8,4.6,8.6
		c3.9,7.5,9.5,18.4,16.4,31.8C164.5,95.4,183.2,132.7,203.9,173.9z"/>
	<path class="st0" d="M213.5,170c13.9,44,26.5,83.8,35.6,112.6c4.6,14.4,8.3,26,10.9,34.1c1.3,4,2.3,7.1,3,9.2
		c0.4,1,0.6,1.8,0.8,2.4c0.1,0.3,0.2,0.5,0.3,0.8c-0.1-0.3-0.1-0.6-0.2-0.8c-0.2-0.6-0.4-1.4-0.7-2.4l-2.9-9.3
		c-2.6-8.1-6.3-19.7-10.9-34.1c-9.4-28.8-22.3-68.4-36.6-112.3s-27.2-83.5-36.4-112.3c-4.6-14.4-8.2-26.1-10.7-34.2
		c-1.2-4-2.2-7.2-2.8-9.3c-0.4-1.1-0.6-2.2-0.8-3.3c0.5,1,1,2.1,1.3,3.1c0.8,2.1,1.8,5.2,3.2,9.2c2.7,8,6.5,19.6,11.2,34
		C187.1,86.2,199.7,126.1,213.5,170z"/>
	<path class="st0" d="M223.7,167.7c6.8,45.6,12.9,86.9,17.4,116.8c2.3,14.9,4.2,27,5.4,35.4l1.5,9.6c0.2,1.1,0.3,1.9,0.4,2.5
		c0,0.3,0.1,0.6,0.2,0.8c0-0.3,0-0.6-0.1-0.9c-0.1-0.6-0.2-1.4-0.3-2.5c-0.3-2.2-0.8-5.5-1.4-9.6c-1.3-8.4-3.1-20.5-5.4-35.4
		c-4.7-29.9-11.3-71.1-18.5-116.7S209.2,81,204.8,51.1c-2.3-14.9-4-27-5.2-35.4c-0.6-4.2-1-7.4-1.3-9.7c-0.2-1.1-0.3-2.3-0.3-3.4
		c0.4,1.1,0.6,2.2,0.8,3.3c0.4,2.2,1,5.4,1.7,9.6c1.4,8.3,3.3,20.4,5.7,35.3C210.8,80.8,216.9,122.1,223.7,167.7z"/>
	<path class="st0" d="M234.1,167c-0.4,46.1-0.7,87.9-0.9,118.1c0,15.1-0.1,27.3-0.1,35.8c0,4.2,0,7.5,0,9.7c0,1.1,0,1.9,0,2.5
		c0,0.3,0,0.6,0,0.9c0-0.3,0.1-0.6,0.1-0.9c0-0.6,0-1.4,0.1-2.5c0-2.3,0.1-5.5,0.1-9.7c0-8.5,0.1-20.7,0.1-35.8
		c0-30.3-0.1-72-0.1-118.1s-0.1-87.9,0.1-118.1c0.1-15.1,0.2-27.3,0.4-35.8c0.1-4.2,0.1-7.5,0.2-9.7c0-1.1,0.1-2.3,0.2-3.4
		c0.2,1.1,0.3,2.3,0.2,3.4c0.1,2.2,0.1,5.5,0.2,9.7c0.1,8.5,0.1,20.7,0.1,35.8C234.8,79.1,234.5,120.9,234.1,167z"/>
	<path class="st0" d="M244.5,167.9c-7.5,45.5-14.3,86.7-19.3,116.5c-2.4,14.9-4.3,27-5.7,35.4c-0.6,4.1-1.1,7.4-1.5,9.6
		c-0.1,1.1-0.3,1.9-0.4,2.5c0,0.3-0.1,0.6-0.1,0.9c0.1-0.3,0.2-0.6,0.2-0.8c0.1-0.6,0.3-1.4,0.4-2.5c0.4-2.2,0.9-5.5,1.6-9.6
		c1.4-8.4,3.3-20.4,5.7-35.3c4.7-29.9,11.1-71.1,18.2-116.7c7.1-45.6,13.6-86.8,18.4-116.6c2.4-14.9,4.5-27,5.9-35.3
		c0.7-4.2,1.3-7.4,1.7-9.6c0.2-1.1,0.4-2.2,0.8-3.3c0,1.1-0.1,2.3-0.3,3.4c-0.3,2.2-0.7,5.5-1.3,9.6c-1.2,8.4-3.1,20.5-5.5,35.4
		C258.9,81.2,252.1,122.4,244.5,167.9z"/>
	<path class="st0" d="M254.7,170.4c-14.6,43.8-27.8,83.4-37.4,112c-4.7,14.3-8.5,26-11.2,34c-1.3,4-2.3,7.1-3,9.3
		c-0.3,1-0.6,1.9-0.7,2.4c-0.1,0.3-0.2,0.6-0.2,0.8c0.1-0.3,0.2-0.5,0.3-0.8l0.8-2.4l3.1-9.2l11.2-34L254,170.2
		c14.1-43.9,27-83.6,36.5-112.3c4.7-14.3,8.6-25.9,11.4-33.9c1.4-4,2.5-7.1,3.2-9.2c0.3-1.1,0.8-2.1,1.3-3.1
		c-0.2,1.1-0.4,2.2-0.8,3.3c-0.6,2.1-1.6,5.3-2.8,9.3c-2.5,8.1-6.2,19.7-10.9,34.1C282.5,87,269.3,126.7,254.7,170.4z"/>
	<path class="st0" d="M264.2,174.5l-54.5,104.8l-16.4,31.8l-4.4,8.7l-1.1,2.2c-0.1,0.3-0.3,0.5-0.4,0.8c0.2-0.2,0.3-0.5,0.4-0.7
		l1.2-2.2c1-2,2.6-4.9,4.5-8.6l16.4-31.8c13.7-27,32.7-64.2,53.6-105.3C284.6,133,303.5,95.8,317.4,69c7-13.4,12.6-24.3,16.6-31.7
		c2-3.7,3.6-6.6,4.6-8.6c0.5-1,1.1-2,1.8-2.9c-0.3,1.1-0.8,2.2-1.3,3.2c-1,2-2.4,5-4.3,8.8c-3.8,7.6-9.3,18.5-16.2,31.9
		C304.8,96.5,285.6,133.6,264.2,174.5z"/>
	<path class="st0" d="M273.1,180l-70.3,95l-21.1,28.9l-5.7,7.9l-1.5,2.1c-0.2,0.2-0.3,0.5-0.5,0.7c0.2-0.2,0.4-0.4,0.6-0.7l1.5-2
		l5.8-7.8c5-6.8,12.2-16.7,21.2-28.9l69.4-95.6c27-37.3,51.6-71.1,69.5-95.4c9-12.2,16.2-22,21.4-28.7c2.5-3.4,4.5-6,5.9-7.7
		c0.6-0.9,1.4-1.8,2.2-2.6c-0.5,1-1.1,2-1.8,2.9c-1.3,1.8-3.1,4.5-5.6,8c-4.9,6.9-12.1,16.8-21,29C325.4,109.4,300.6,143,273.1,180z
		"/>
	<path class="st0" d="M281,186.9l-84.2,82.9L171.5,295c-3,3-5.3,5.3-6.9,6.9c-0.8,0.8-1.3,1.4-1.8,1.8c-0.2,0.2-0.4,0.4-0.6,0.6
		c0.2-0.2,0.4-0.4,0.6-0.6l1.8-1.8l7-6.8l25.4-25.2l83.4-83.6c32.5-32.7,62-62.2,83.5-83.5c10.7-10.6,19.5-19.2,25.6-25.1
		c3-2.9,5.4-5.2,7-6.7c0.8-0.8,1.7-1.6,2.6-2.2c-0.7,0.9-1.4,1.8-2.2,2.6c-1.5,1.6-3.8,4-6.8,7c-5.9,6-14.5,14.7-25.2,25.4
		C343.6,125.2,313.9,154.5,281,186.9z"/>
	<path class="st0" d="M287.7,194.8l-96,68.8l-29,21l-7.9,5.8l-2,1.5c-0.2,0.2-0.5,0.3-0.7,0.5c0.3-0.1,0.5-0.3,0.7-0.5l2.1-1.5
		l7.9-5.6l29-21c24.4-17.9,58.2-42.5,95.4-69.7s70.9-51.8,95.5-69.5c12.2-8.8,22.2-15.9,29.1-20.8c3.5-2.4,6.2-4.3,8-5.5
		c0.9-0.7,1.9-1.3,2.9-1.8c-0.8,0.8-1.7,1.5-2.6,2.2c-1.8,1.4-4.4,3.3-7.8,5.9c-6.8,5-16.6,12.3-28.9,21.2
		C359.1,143.7,325.2,168,287.7,194.8z"/>
	<path class="st0" d="M293.1,203.8l-105.6,52.9l-31.9,16.2l-8.6,4.5l-2.2,1.2c-0.3,0.1-0.5,0.3-0.8,0.4c0.3-0.1,0.5-0.2,0.8-0.3
		l2.3-1.1l8.7-4.3l31.9-16.2l105.1-53.9c41-21.1,78.2-40.1,105.2-53.7c13.5-6.8,24.4-12.3,32-16c3.8-1.9,6.8-3.3,8.8-4.2
		c1-0.5,2.1-1,3.1-1.3c-0.9,0.7-1.9,1.3-2.9,1.8c-2,1.1-4.9,2.6-8.6,4.6c-7.5,3.9-18.4,9.5-31.8,16.4
		C371.6,164.4,334.3,183.1,293.1,203.8z"/>
	<path class="st0" d="M297,213.4l-112.6,35.6l-34.1,11l-9.2,3l-2.4,0.8c-0.3,0.1-0.5,0.2-0.8,0.3c0.3-0.1,0.6-0.1,0.8-0.2l2.4-0.7
		l9.3-2.9l34.1-11l112.3-36.7c43.8-14.4,83.5-27.3,112.3-36.5c14.4-4.6,26.1-8.3,34.1-10.7c4-1.2,7.2-2.2,9.3-2.8
		c1.1-0.4,2.2-0.7,3.3-0.8c-1,0.5-2.1,0.9-3.2,1.3c-2.1,0.8-5.2,1.8-9.2,3.2c-8,2.7-19.6,6.5-34,11.2
		C380.8,186.9,341,199.6,297,213.4z"/>
	<path class="st0" d="M299.4,223.6l-116.8,17.5l-35.4,5.5l-9.6,1.6l-2.5,0.4c-0.3,0-0.6,0.1-0.8,0.2c0.3,0,0.6,0,0.9-0.1l2.5-0.3
		l9.6-1.4l35.4-5.5l116.6-18.5c45.5-7.3,86.8-13.8,116.6-18.3c14.9-2.3,27-4.1,35.4-5.2c4.2-0.6,7.4-1,9.6-1.3
		c1.1-0.2,2.3-0.3,3.4-0.3c-1.1,0.4-2.2,0.6-3.3,0.8c-2.2,0.4-5.4,1-9.6,1.7c-8.3,1.4-20.4,3.4-35.3,5.7
		C386.2,210.6,345,216.8,299.4,223.6z"/>
	<path class="st1" d="M346.7,56.4l1,1.7c1.2,2,2.9,3.5,4.9,4.6l1.8,0.9l-1.8,1c-1.9,1.2-3.5,2.9-4.5,5l-0.9,1.8l-1.1-1.8
		c-1.2-2-2.9-3.5-4.9-4.5l-1.8-0.9l1.7-1c2-1.2,3.5-2.9,4.5-4.9L346.7,56.4z"/>
	<path class="st1" d="M344.5,260.9l0.6,1.1c0.7,1.2,1.8,2.2,3,2.8l1.1,0.5l-1.1,0.6c-1.2,0.7-2.2,1.8-2.8,3l-0.5,1.1l-0.6-1
		c-0.7-1.2-1.8-2.2-3-2.8l-1.1-0.5l1.1-0.6c1.2-0.7,2.2-1.8,2.8-3L344.5,260.9z"/>
	<path class="st1" d="M448.7,373.6l0.6,1.1c0.7,1.2,1.8,2.2,3,2.8l1.1,0.6l-1.1,0.6c-1.2,0.7-2.2,1.8-2.8,3l-0.6,1.1l-0.6-1.1
		c-0.7-1.2-1.8-2.2-3-2.8l-1.1-0.6l1.1-0.6c1.2-0.7,2.2-1.8,2.8-3L448.7,373.6z"/>
	<path class="st1" d="M45.3,319l0.6,1.1c0.7,1.2,1.8,2.2,3,2.8l1.1,0.6L49,324c-1.2,0.7-2.2,1.8-2.8,3l-0.6,1.1l-0.6-1.1
		c-0.7-1.2-1.8-2.2-3-2.8l-1.1-0.6l1.1-0.6c1.2-0.7,2.2-1.8,2.8-3L45.3,319z"/>
	<path class="st1" d="M170.9,20.9l0.6,1.1c0.7,1.2,1.8,2.2,3,2.8l1.1,0.5l-1.1,0.6c-1.2,0.7-2.2,1.8-2.8,3l-0.6,1.1l-0.6-1.1
		c-0.7-1.2-1.8-2.2-3-2.8l-1.1-0.5l1.1-0.6c1.2-0.7,2.2-1.8,2.8-3L170.9,20.9z"/>
	<path class="st1" d="M68.2,31.4l0.6,1.1c0.7,1.2,1.8,2.2,3,2.8l1.1,0.6l-1.1,0.6c-1.2,0.7-2.2,1.8-2.8,3l-0.6,1.1L68,39.5
		c-0.7-1.2-1.8-2.2-3-2.8l-1.1-0.6l1.1-0.6c1.2-0.7,2.2-1.8,2.8-3L68.2,31.4z"/>
	<path class="st1" d="M116.1,135.6l0.6,1.1c0.7,1.2,1.8,2.2,3,2.8l1.1,0.6l-1.1,0.6c-1.2,0.7-2.2,1.8-2.8,3l-0.6,1.1l-0.6-1.1
		c-0.7-1.2-1.8-2.2-3-2.8l-1.1-0.6l1.1-0.6c1.2-0.7,2.2-1.8,2.8-3L116.1,135.6z"/>
	<path class="st1" d="M353.8,164.7l0.6,1.1c0.7,1.2,1.8,2.2,3,2.8l1.1,0.6l-1.1,0.6c-1.2,0.7-2.2,1.8-2.8,3l-0.5,1.1l-0.6-1.1
		c-0.7-1.2-1.8-2.2-3-2.8l-1.1-0.6l1.1-0.6c1.2-0.7,2.2-1.8,2.8-3L353.8,164.7z"/>
	<path class="st1" d="M344.5,376.2l0.6,1.1c0.7,1.2,1.8,2.2,3,2.8l1.1,0.5l-1.1,0.6c-1.2,0.7-2.2,1.8-2.8,3l-0.5,1.1l-0.6-1.1
		c-0.7-1.2-1.8-2.2-3-2.8l-1.1-0.5l1.1-0.6c1.2-0.7,2.2-1.8,2.8-3L344.5,376.2z"/>
	<path class="st1" d="M159.6,64.4l1.3,2.2c1.5,2.4,3.6,4.4,6.1,5.6l2.2,1.1l-2.1,1.3c-2.4,1.4-4.4,3.6-5.6,6.1l-1.1,2.2l-1.3-2.2
		c-1.5-2.4-3.6-4.4-6.1-5.6l-2.2-1.1l2.1-1.3c2.4-1.4,4.4-3.6,5.6-6.1L159.6,64.4z"/>
	<path class="st1" d="M439.2,53.7l1.3,2.2c1.5,2.4,3.6,4.4,6.1,5.6l2.3,1.1l-2.2,1.3c-2.4,1.5-4.4,3.6-5.6,6.1l-1.1,2.2l-1.3-2.2
		c-1.4-2.4-3.6-4.4-6.1-5.6l-2.2-1.1l2.1-1.3c2.4-1.5,4.4-3.6,5.6-6.1L439.2,53.7z"/>
	<path class="st1" d="M320.5,20.1l0.8,1.2c0.8,1.4,2.1,2.5,3.5,3.3l1.3,0.7l-1.2,0.8c-1.4,0.8-2.5,2.1-3.3,3.5l-0.6,1.3l-0.7-1.3
		c-0.8-1.4-2.1-2.5-3.5-3.3l-1.3-0.7l1.2-0.8c1.4-0.8,2.5-2.1,3.3-3.5L320.5,20.1z"/>
	<path class="st1" d="M64.2,274.3l1.1,1.9c1.3,2.1,3.1,3.8,5.3,4.9l2,1l-1.9,1.1c-2.1,1.3-3.8,3.1-4.9,5.3l-1,2l-1.1-1.9
		c-1.3-2.1-3.1-3.8-5.3-4.9l-2-1l1.9-1.1c2.1-1.3,3.8-3.1,4.9-5.3L64.2,274.3z"/>
	<path class="st1" d="M393.4,383.5l1.1,1.9c1.3,2.1,3.1,3.8,5.3,4.9l2,1l-1.9,1.1c-2.1,1.3-3.8,3.1-4.9,5.3l-1,2l-1.1-1.9
		c-1.3-2.1-3.1-3.8-5.3-4.9l-2-1l1.9-1.1c2.1-1.3,3.8-3.1,4.9-5.3L393.4,383.5z"/>
</g>
<g id="Character_2">
	<polygon class="st2" points="314.4,424.8 313.2,423 167.5,418 148.9,467.2 323.2,467 	"/>
	<polygon class="st3" points="314.4,424.8 313.2,423 167.5,418 148.9,467.2 323.2,467 	"/>
	<path class="st2" d="M384.2,290.4c-0.1-2.1-1.3-4.1-3.1-5.2c-27.9-18.5-48.9-59.4-51-94c-0.1-2-0.1-4-0.2-6l0,0l0,0
		c-1.6-49.5-8.9-109.5-15.5-125.6c-12.1-29.6-53-32.3-53-32.3c-54.3-3.9-64,37.9-69.5,75.9c-3.4,23.6-16.6,108.1-16.6,108.1l10,3.9
		c11.8,34.9,38.3,63.1,72.7,76c10,3.8,18.5,5.3,22.5,2c15.9,16.1,35.5,28.1,57.2,34.7c8.8,2.7,18,4.5,27.1,3.6
		c5.9-0.6,12.2-2.5,15.7-7.3c4.5-6.1,3.2-14.6-2.9-19.1c-2.5-1.9-5.6-2.8-8.8-2.6C370.9,296,384.5,298,384.2,290.4z"/>
	<g class="st4">
		<path d="M384.2,290.4c-0.1-2.1-1.3-4.1-3.1-5.2c-27.9-18.5-48.9-59.4-51-94c-0.1-2-0.1-4-0.2-6l0,0l0,0
			c-1.6-49.5-8.9-109.5-15.5-125.6c-12.1-29.6-53-32.3-53-32.3c-54.3-3.9-64,37.9-69.5,75.9c-3.4,23.6-16.6,108.1-16.6,108.1l10,3.9
			c11.8,34.9,38.3,63.1,72.7,76c10,3.8,18.5,5.3,22.5,2c15.9,16.1,35.5,28.1,57.2,34.7c8.8,2.7,18,4.5,27.1,3.6
			c5.9-0.6,12.2-2.5,15.7-7.3c4.5-6.1,3.2-14.6-2.9-19.1c-2.5-1.9-5.6-2.8-8.8-2.6C370.9,296,384.5,298,384.2,290.4z"/>
	</g>
	<path class="st2" d="M268.7,42.7l-3.4-3.2l-36.7,14.8c-5.3,0.3-9.5,4.6-9.7,9.9l0.3,119.7c-0.1,8.1,1.6,15.1,6.5,21.6l5.2,6.8
		c11.8,15.5,36,14.3,45.3-2.9c0.6-1,1-2,1.3-3.1c0.2-0.9,0.4-1.8,0.5-2.7c1.1-9.6,1.2-18,1.2-18c0.6-10.6,0.9-14.9,0.9-14.8
		s22.5-2.6,28.6-31.5c3-14.4,2.5-34.1,1.6-53.6C309,59,290.3,42.7,268.7,42.7z"/>
	<g class="st4">
		<path d="M261.1,102c-0.1,2-1.8,3.6-3.8,3.6c-2,0.1-3.6-1.5-3.7-3.5c0,0,0-0.1,0-0.1c0.1-2,1.8-3.6,3.8-3.6
			C259.4,98.4,261.1,99.9,261.1,102C261.1,101.9,261.1,102,261.1,102z"/>
	</g>
	<g class="st4">
		<path d="M299.1,103c-0.1,2-1.8,3.6-3.8,3.6c-2,0.1-3.6-1.5-3.7-3.5c0,0,0-0.1,0-0.1c0.1-2,1.8-3.6,3.8-3.6
			C297.4,99.4,299.1,100.9,299.1,103C299.1,102.9,299.1,103,299.1,103z"/>
	</g>
	<g class="st4">
		<path d="M306.3,93.6c-0.5,0.5-3.2-1.8-7.2-2s-7.1,1.7-7.5,1.2c-0.2-0.2,0.3-1.1,1.6-2c1.8-1.1,3.9-1.6,6-1.5
			c2.1,0.1,4.1,0.9,5.7,2.2C306.2,92.5,306.6,93.4,306.3,93.6z"/>
	</g>
	<g class="st4">
		<path d="M265.5,94c-0.5,0.4-3-2.1-7-2.7c-4-0.6-7.2,0.9-7.6,0.4c-0.2-0.2,0.4-1,1.8-1.8c1.9-0.9,4-1.2,6.1-0.9
			c2.1,0.3,4,1.3,5.5,2.8C265.5,92.9,265.8,93.8,265.5,94z"/>
	</g>
	<g class="st4">
		<path d="M279.6,123.2c0-0.2,2.5-0.5,6.6-0.9c1,0,2-0.2,2.2-0.9s-0.1-1.9-0.5-3.1l-2.6-8c-3.7-11.3-6.2-20.6-5.8-20.8
			s3.8,8.9,7.5,20.3c0.9,2.8,1.7,5.5,2.5,8c0.3,1.2,0.9,2.5,0.3,4.1c-0.3,0.7-1,1.2-1.8,1.4c-0.6,0.1-1.2,0.2-1.8,0.1
			C282.1,123.6,279.6,123.5,279.6,123.2z"/>
	</g>
	<g class="st5">
		<path d="M280,170.9c-13.7-0.5-27-4.8-38.5-12.4c0,0,8.8,20.6,38.1,19.4L280,170.9z"/>
	</g>
	<path class="st2" d="M277.4,132.8c-1.5-2-3.9-3.2-6.4-3c-1.8,0.1-3.5,0.9-4.7,2.2c-1.2,1.3-1.4,3.2-0.6,4.8c1,1.6,3.3,2.1,5.2,1.6
		c1.9-0.6,3.7-1.5,5.3-2.8c0.5-0.3,0.9-0.7,1.2-1.1c0.3-0.4,0.3-1,0.1-1.5"/>
	<g class="st5">
		<path d="M277.4,132.8c-1.5-2-3.9-3.2-6.4-3c-1.8,0.1-3.5,0.9-4.7,2.2c-1.2,1.3-1.4,3.2-0.6,4.8c1,1.6,3.3,2.1,5.2,1.6
			c1.9-0.6,3.7-1.5,5.3-2.8c0.5-0.3,0.9-0.7,1.2-1.1c0.3-0.4,0.3-1,0.1-1.5"/>
	</g>
	<g class="st4">
		<path d="M268.7,79.5c-0.8,0.9-4.3-1.2-8.9-2.5c-4.6-1.3-8.6-1.6-8.8-2.8c-0.1-0.5,0.9-1.2,2.8-1.6c4.9-0.8,9.8,0.7,13.4,4
			C268.6,77.9,269,79.1,268.7,79.5z"/>
	</g>
	<g class="st4">
		<path d="M303.7,84c-0.6,1-3.5,0.2-6.8,0.5s-6.1,1.1-6.8,0.2c-0.3-0.4,0-1.4,1.2-2.3c3.2-2.4,7.6-2.6,11-0.5
			C303.5,82.6,304,83.5,303.7,84z"/>
	</g>
	<path class="st2" d="M219.6,115.3c0,0,20.6,6.4,32.2-44.4c4-17.4,20.1-31.4,20.1-31.4l-6.5-2c0,0-40.6,11.4-41.3,12
		s-10.2,21-10.2,21L219.6,115.3z"/>
	<path class="st2" d="M224.7,113.4c0.1-2.2-2.1-7.4-4.3-7.8c-5.7-1.2-16-1.2-16.8,13.3c-1.1,19.9,19,16.9,19.1,16.3
		S224.3,120.9,224.7,113.4z"/>
	<g class="st4">
		<path d="M217,127.3c-0.1-0.1-0.4,0.2-1,0.4c-0.8,0.3-1.8,0.3-2.6-0.1c-2.1-0.9-3.6-4.3-3.5-7.9c0-1.7,0.5-3.4,1.2-4.9
			c0.5-1.2,1.5-2.2,2.8-2.5c0.8-0.2,1.7,0.3,2,1.1c0.2,0.6,0.1,1,0.2,1s0.4-0.3,0.3-1.1c-0.1-0.5-0.3-1-0.7-1.3
			c-0.5-0.4-1.2-0.7-1.9-0.6c-1.5,0-3,1.3-3.8,2.9c-0.9,1.7-1.5,3.5-1.5,5.5c-0.1,4,1.7,7.9,4.6,8.9c1.1,0.4,2.2,0.3,3.2-0.3
			C217,127.8,217.1,127.3,217,127.3z"/>
	</g>
	<g class="st4">
		<path d="M219.6,115.3c0,0,20.6,6.4,32.2-44.4c4-17.4,20.1-31.4,20.1-31.4l-6.5-2c0,0-40.6,11.4-41.3,12s-10.2,21-10.2,21
			L219.6,115.3z"/>
	</g>
	<path class="st2" d="M267.6,125.4c0.7,0,0.5,4.4,4,7.6s8.2,3,8.2,3.6c0,0.3-1.1,0.8-3,0.8c-2.6-0.1-5-1.1-6.9-2.8
		c-1.8-1.6-2.9-3.9-3.1-6.4C266.8,126.4,267.3,125.4,267.6,125.4z"/>
	<g class="st4">
		<path d="M267.6,125.4c0.7,0,0.5,4.4,4,7.6s8.2,3,8.2,3.6c0,0.3-1.1,0.8-3,0.8c-2.6-0.1-5-1.1-6.9-2.8c-1.8-1.6-2.9-3.9-3.1-6.4
			C266.8,126.4,267.3,125.4,267.6,125.4z"/>
	</g>
	<path class="st2" d="M423.5,126.7c0,0,26.5,53.4,31,64.6c3.9,9.7,25.5,55.2,18.8,67.8s-12.6,12-21.9,12.5s-69.7-2-85.4-2.6
		c-19.9-0.8-41.9-6.5-41.9-6.5l10.3-54.7l79.9,14.9l0,0l-13.5-86.8L423.5,126.7z"/>
	<path class="st2" d="M423.7,127.1c0,0-4.6-8.2-7.5-10.1s-26-22.3-26-22.3s-9.1-9.6-11.6-9.1s-26.2,16.4-26.4,18.9s1.1,3.9,2.5,4.3
		s-0.7,2,3,5.7c0,0-3.6-0.2-3.4,3.2c0.2,3.4,0,8,2.3,8.2s9.6,2.3,10-1.6l0.7-1.6c3.7,2.6,7.7,4.9,11.9,6.8
		c5.7,2.3,14.8,2.1,14.8,2.1c1.6,2.3,4,3.8,6.8,4.3C405.2,136.4,423.7,127.1,423.7,127.1z"/>
	<g class="st4">
		<path class="st2" d="M388.2,112.5c-0.1-0.1-0.9,0.8-1.2,2.7c-0.4,2.4,0,4.8,1.1,7c1.1,2.1,2.5,4,4.3,5.7c1.3,1.2,2.2,1.9,2.2,1.9
			s-0.6-0.9-1.8-2.3c-1.5-1.7-2.8-3.6-3.9-5.6c-1-2-1.4-4.3-1.2-6.5C387.8,113.5,388.3,112.6,388.2,112.5z"/>
	</g>
	<g class="st4">
		<path class="st2" d="M377.2,117.2c0,0,0,0.2,0.2,0.4c0.3,0.2,0.7,0.3,1.1,0.3c1.2-0.2,2.3-0.8,3-1.8c0.7-0.9,1.1-2.1,1.1-3.3
			c0-0.9-0.4-1.4-0.5-1.4s-0.1,0.6-0.2,1.3c-0.2,1-0.6,2-1.2,2.8c-0.6,0.8-1.4,1.4-2.4,1.7C377.8,117.4,377.4,117.1,377.2,117.2z"/>
	</g>
	<g class="st4">
		<path d="M386.2,94.5c-0.7-0.3-1.6-0.2-2.3,0.2c-0.8,0.4-1.6,1-2.1,1.7c-0.7,0.8-1.3,1.8-2,2.9c-1.7,2.5-3.5,5-5.4,7.3
			c-1.1,1.3-2.3,2.7-3.5,4c-0.7,0.7-1.3,1.5-1.8,2.4c-0.4,1.1-0.3,2.3,0.3,3.2c0.6,0.9,1.2,1.6,2,2.3c0.7,0.6,1.4,1.3,2.2,1.9
			c1.4,1.2,2.9,2.2,4.5,3.2c0.8,0.5,1.7,0.7,2.6,0.7c0.9,0,1.7-0.3,2.4-0.7c1.3-0.7,2.4-1.8,3.1-3.1c0.6-1.1,0.7-2.4,0.3-3.6
			c-0.4-0.9-1.2-1.6-2.1-1.7c-0.6-0.1-1.2,0.1-1.7,0.4c-0.3,0.2-0.4,0.4-0.4,0.5c0.6-0.5,1.3-0.6,2-0.5c0.8,0.2,1.5,0.8,1.7,1.5
			c0.3,1,0.2,2.2-0.4,3.1c-0.7,1.1-1.7,2.1-2.9,2.7c-0.6,0.4-1.3,0.6-2.1,0.6c-0.8,0-1.5-0.2-2.2-0.6c-1.5-0.9-2.9-2-4.3-3.1
			c-0.7-0.6-1.4-1.2-2.1-1.9c-0.7-0.6-1.3-1.3-1.8-2.1c-0.5-0.7-0.6-1.6-0.3-2.4c0.4-0.8,0.9-1.5,1.6-2.2c1.3-1.4,2.4-2.7,3.5-4.1
			c1.9-2.4,3.7-4.9,5.3-7.5c0.7-1.1,1.2-2.1,1.8-2.9c0.5-0.7,1.1-1.3,1.9-1.7C384.7,94.7,385.4,94.5,386.2,94.5z"/>
	</g>
	<g class="st4">
		<path class="st2" d="M382,111.5c-0.1,0.1,0,0.5,0.4,1c0.5,0.7,1.3,1.2,2.1,1.6c0.8,0.3,1.8,0.4,2.6,0.2c0.7-0.2,1-0.4,1-0.5
			s-1.6,0.1-3.3-0.5S382.2,111.4,382,111.5z"/>
	</g>
	<g class="st4">
		<path d="M376.8,91.3c-0.5,0.4-1,0.9-1.4,1.4c-0.8,0.9-2,2.3-3.4,4l-5,6.1l-2.9,3.6c-1.1,1.3-2.1,2.6-3,4.1c-1,1.6-1.1,3.5-0.4,5.2
			c0.9,1.4,2,2.6,3.4,3.4c2.4,1.8,4.4,3.5,6.4,4.7c0.9,0.6,1.9,0.9,3,1c0.8,0,1.6-0.2,2.3-0.6c1.2-0.7,1.3-1.5,1.3-1.5
			c-0.4,0.5-0.9,0.9-1.4,1.2c-0.7,0.3-1.4,0.4-2.1,0.4c-1-0.1-1.9-0.5-2.7-1c-1.8-1.2-3.9-3-6.2-4.8c-1.2-0.8-2.3-1.9-3.1-3.2
			c-0.6-1.4-0.5-3.1,0.4-4.4c0.8-1.4,1.8-2.8,2.9-4l2.9-3.6l4.9-6.2c1.4-1.8,2.5-3.2,3.2-4.2C376.2,92.4,376.6,91.9,376.8,91.3z"/>
	</g>
	<g class="st4">
		<path d="M369.1,93.1c-0.2-0.2-3.1,4.3-8,8.6c-1.2,1-2.3,2.1-3.3,3.3c-0.8,1-1.5,2.2-1.8,3.4c-0.6,2.2,0.2,3.6,0.2,3.5
			c-0.1-1.1,0.1-2.3,0.4-3.3c0.4-1.1,1-2.2,1.9-3.1c1-1.1,2.1-2.2,3.3-3.2c2.1-1.9,4-4,5.7-6.3C368.1,95.3,368.7,94.2,369.1,93.1z"
			/>
	</g>
	<g class="st4">
		<path d="M357.9,118.5c0,0.3,2.6,0,5.4,0.9c1.2,0.4,2.3,1.1,3.1,2.1c0.6,0.7,0.9,1.3,1,1.3s0.1-0.7-0.5-1.7
			c-0.8-1.2-1.9-2.1-3.3-2.6c-1.3-0.5-2.7-0.6-4.1-0.5C358.5,118.2,357.9,118.4,357.9,118.5z"/>
	</g>
	<path class="st6" d="M414.6,222.1c0.2,1.1,0.6,2.1,1.2,3.1c1.2,2.3,2.7,4.6,4.4,6.6c1.7,2,3.6,3.9,5.7,5.5c0.8,0.7,1.8,1.3,2.8,1.8
		c0.2-0.2-3.9-3.2-7.8-7.9S414.9,222,414.6,222.1z"/>
	<polygon class="st7" points="355.9,268.2 364.9,213.4 371.1,214.6 364,268.9 	"/>
	<path class="st2" d="M52.9,105.4c0,0-26.5,53.4-31,64.6c-3.9,9.7-25.5,55.2-18.8,67.8c6.7,12.6,12.6,12,21.9,12.5s69.7-2,85.4-2.6
		c19.9-0.8,41.9-6.5,41.9-6.5L142,186.5l-79.9,14.9l0,0l13.5-86.8L52.9,105.4z"/>
	<path class="st2" d="M52.8,105.8c0,0,4.6-8.2,7.5-10.1s26-22.3,26-22.3s9.1-9.6,11.6-9.1c2.5,0.5,26.2,16.4,26.4,18.9
		s-1.1,3.9-2.5,4.3s0.7,2-3,5.7c0,0,2.5-0.1,3.4,3.2s1,6.3-2.3,8.2c-2.5,1.4-8.5,2.8-10.6-3l-0.1-0.2c-3.7,2.6-7.7,4.9-11.9,6.8
		c-5.7,2.3-14.8,2.1-14.8,2.1c-1.6,2.3-4,3.8-6.8,4.3C71.3,115.1,52.8,105.8,52.8,105.8z"/>
	<g class="st4">
		<path d="M88.3,91.2c0.1-0.1,0.9,0.8,1.2,2.7c0.4,2.4,0,4.8-1.1,7c-1.1,2.1-2.5,4-4.2,5.7c-0.6,0.7-1.4,1.4-2.2,1.9
			c-0.1-0.1,0.6-1,1.8-2.3c1.5-1.7,2.8-3.6,3.9-5.6c1-2,1.4-4.2,1.2-6.5C88.7,92.2,88.2,91.2,88.3,91.2z"/>
	</g>
	<g class="st4">
		<path d="M99.2,95.9c0,0,0,0.2-0.2,0.4c-0.3,0.2-0.7,0.3-1.1,0.3c-1.2-0.2-2.3-0.8-3-1.8c-0.7-0.9-1.1-2.1-1.1-3.3
			c0.1-0.9,0.3-1.4,0.5-1.4s0.1,0.6,0.2,1.3c0.2,1,0.6,2,1.2,2.8c0.6,0.8,1.4,1.4,2.4,1.7C98.7,96.1,99.1,95.8,99.2,95.9z"/>
	</g>
	<g class="st4">
		<path d="M90.3,73.2c0.7-0.3,1.6-0.2,2.3,0.2c0.8,0.4,1.6,1,2.1,1.7c0.7,0.8,1.3,1.8,2,2.9c1.7,2.5,3.5,5,5.4,7.3
			c1.1,1.3,2.3,2.7,3.5,4c0.7,0.7,1.3,1.5,1.8,2.4c0.4,1.1,0.3,2.3-0.3,3.2c-0.6,0.9-1.2,1.6-2,2.3c-0.7,0.7-1.4,1.3-2.2,1.9
			c-1.4,1.2-2.9,2.2-4.5,3.2c-0.8,0.5-1.7,0.7-2.6,0.7c-0.9,0-1.7-0.3-2.4-0.7c-1.3-0.7-2.4-1.8-3.1-3.1c-0.6-1.1-0.7-2.4-0.3-3.6
			c0.4-0.9,1.2-1.6,2.2-1.7c0.6-0.1,1.2,0.1,1.7,0.4c0.3,0.2,0.4,0.4,0.4,0.5c-0.6-0.4-1.3-0.6-2-0.5c-0.8,0.2-1.5,0.7-1.7,1.5
			c-0.4,1-0.2,2.2,0.4,3.1c0.7,1.1,1.7,2.1,2.9,2.7c0.6,0.4,1.3,0.6,2.1,0.6c0.8,0,1.5-0.3,2.2-0.7c1.5-0.9,2.9-2,4.3-3.1
			c0.7-0.6,1.4-1.2,2.1-1.9c0.7-0.6,1.3-1.3,1.8-2c0.5-0.7,0.6-1.6,0.3-2.4c-0.4-0.8-0.9-1.5-1.6-2.2c-1.3-1.4-2.4-2.7-3.5-4.1
			c-1.9-2.4-3.7-4.9-5.3-7.5c-0.7-1.1-1.2-2.2-1.8-3c-0.5-0.7-1.1-1.3-1.9-1.7C91.8,73.3,91.1,73.2,90.3,73.2z"/>
	</g>
	<g class="st4">
		<path d="M94.5,90.2c0.1,0.1,0,0.5-0.4,1c-1.1,1.4-3,2.1-4.8,1.7c-0.7-0.2-1-0.4-1-0.5s1.6,0.1,3.3-0.5S94.2,90.1,94.5,90.2z"/>
	</g>
	<g class="st4">
		<path d="M99.6,70c0.5,0.4,1,0.9,1.4,1.4c0.8,0.9,2,2.3,3.4,4l5,6.1l2.9,3.6c1.1,1.3,2.1,2.7,3,4.1c1,1.6,1.1,3.5,0.4,5.2
			c-0.9,1.4-2,2.6-3.4,3.4c-2.4,1.8-4.4,3.5-6.4,4.7c-0.9,0.6-1.9,0.9-3,1c-0.8,0-1.6-0.2-2.3-0.6c-1.2-0.7-1.3-1.5-1.3-1.5
			c0.4,0.5,0.9,0.9,1.4,1.2c0.7,0.3,1.4,0.4,2.1,0.3c1-0.1,1.9-0.5,2.7-1c1.8-1.2,3.8-3,6.2-4.8c1.2-0.8,2.3-1.9,3.1-3.2
			c0.6-1.4,0.5-3.1-0.4-4.4c-0.8-1.4-1.8-2.8-2.9-4l-2.9-3.7l-4.9-6.2c-1.4-1.8-2.5-3.2-3.2-4.2C100.3,71.1,99.9,70.6,99.6,70z"/>
	</g>
	<g class="st4">
		<path d="M107.4,71.8c0.2-0.2,3.1,4.3,8,8.6c1.2,1,2.3,2.1,3.3,3.3c0.8,1,1.5,2.2,1.8,3.4c0.6,2.2-0.2,3.6-0.2,3.5
			c0.1-1.1-0.1-2.3-0.4-3.3c-0.4-1.1-1-2.2-1.9-3.1c-1-1.1-2.1-2.2-3.3-3.2c-2.1-1.9-4-4-5.7-6.3C108.3,74,107.8,72.9,107.4,71.8z"
			/>
	</g>
	<g class="st4">
		<path d="M119.1,97.6c0,0.3-2.6,0-5.4,1c-1.2,0.4-2.2,1.1-3.1,2.1c-0.6,0.7-0.9,1.3-1,1.3s-0.1-0.7,0.5-1.7
			c0.8-1.2,1.9-2.1,3.3-2.6c1.3-0.4,2.7-0.6,4.1-0.5C118.5,97.3,119.1,97.5,119.1,97.6z"/>
	</g>
	<path class="st3" d="M61.9,200.8c-0.2,1.1-0.6,2.1-1.2,3.1c-2.5,4.7-5.9,8.8-10.1,12.1c-0.8,0.7-1.8,1.3-2.8,1.8
		c-0.2-0.2,3.9-3.1,7.8-7.9S61.6,200.7,61.9,200.8z"/>
	<polygon class="st8" points="126.8,246.2 116.5,191.2 110.6,192.3 117.6,247.2 	"/>
	<path class="st2" d="M165.2,385.5c0,0-13-88.2-12.9-101c0-5-2.7-38.2-2.7-38.2l-22.4,2l-11.3-60.2c0,0,44.5-8,56.4-8.6
		s52.2,5.5,52.2,5.5l71.5,11.3c0,0,19.8,3.2,19.6,3l49.6,12.8l-9.3,56.4l-29.5-1.2l0.2,35.7c-0.4,2.7,1.9,16.2-15.8,37.8l-3,37.6
		l13.3,68.4H156.7L165.2,385.5z"/>
	<g class="st4">
		<path d="M279.2,193.7c0.1,0.1-0.2,1.1-1.4,2.6c-1.7,2.1-3.8,4-6.1,5.5c-3.4,2.2-7.3,3.8-11.3,4.5c-1.1,0.2-2.3,0.4-3.5,0.5
			c-1.2,0.1-2.4,0.2-3.7,0.3s-2.5,0-3.8,0l-3.9-0.4c-5-0.7-9.7-2.4-14-5.1c-3.4-2.2-6.4-5-8.9-8.3c-1.6-2.2-3-4.6-4-7.1
			c-0.7-1.8-0.8-2.9-0.7-2.9s0.6,0.9,1.6,2.5c1.3,2.3,2.8,4.4,4.5,6.4c2.5,2.9,5.4,5.4,8.7,7.4c4,2.4,8.5,3.9,13.1,4.6
			c4.6,0.7,9.4,0.6,14-0.1c3.8-0.6,7.4-1.9,10.8-3.7c2.3-1.3,4.4-2.8,6.3-4.6C278.4,194.4,279,193.6,279.2,193.7z"/>
	</g>
	<g class="st4">
		<path d="M279.2,287.7c0.3-0.1,1.6,3.4,2,9.3c0.2,3.5-0.1,6.9-0.8,10.3c-1.7,8.4-5.9,16.1-12,22.1c-2.5,2.4-5.2,4.6-8.2,6.3
			c-5.1,3-8.7,3.7-8.8,3.4s3.2-1.7,7.8-5c12.3-8.4,19.8-22.2,20.1-37.2C279.4,291.3,278.7,287.8,279.2,287.7z"/>
	</g>
</g>
<g id="Character_1">
	<path class="st9" d="M65.2,370.9c0.1-1.8,1.1-3.5,2.7-4.5c24.1-15.9,42.2-51.2,44-81.1c0-1.7,0.1-3.4,0.2-5.2l0,0l0,0
		c1.4-42.7,7.7-94.5,13.3-108.4c10.4-25.5,45.8-27.9,45.8-27.9c46.9-3.4,55.3,32.7,60,65.5c2.9,20.4,14.3,93.3,14.3,93.3l-8.6,3.3
		c-10.1,30.1-33,54.4-62.8,65.6c-8.6,3.2-16,4.6-19.4,1.8c-13.7,13.9-30.7,24.2-49.4,30c-7.6,2.3-15.5,3.9-23.4,3.1
		c-5.1-0.5-10.5-2.2-13.6-6.3c-3.9-5.2-2.8-12.6,2.5-16.4c2.2-1.6,4.9-2.4,7.6-2.3C76.7,375.7,65,377.4,65.2,370.9z"/>
	<path class="st10" d="M165,157.1l2.9-2.8l31.7,12.8c4.6,0.3,8.2,4,8.4,8.6L207.7,279c0,7-1.4,13.1-5.6,18.7l-4.4,5.9
		c-10.2,13.4-31,12.3-39.1-2.5c-0.5-0.8-0.9-1.7-1.1-2.7c-0.2-0.8-0.4-1.5-0.5-2.3c-0.9-8.3-1-15.5-1-15.5
		c-0.6-9.1-0.8-12.9-0.8-12.8s-19.4-2.2-24.7-27.2c-2.6-12.4-2.1-29.5-1.4-46.2C130.2,171.1,146.3,157.1,165,157.1z"/>
	<path class="st9" d="M171.5,208.3c0.1,1.7,1.5,3.1,3.3,3.1c1.7,0.1,3.1-1.3,3.2-3c0,0,0-0.1,0-0.1c-0.1-1.7-1.5-3.1-3.3-3.1
		C172.9,205.1,171.5,206.5,171.5,208.3C171.5,208.2,171.5,208.2,171.5,208.3z"/>
	<path class="st9" d="M138.7,209.1c0.1,1.7,1.5,3.1,3.3,3.1c1.7,0.1,3.1-1.3,3.2-3c0,0,0-0.1,0-0.1c-0.1-1.7-1.5-3.1-3.3-3.1
		C140.2,206,138.7,207.4,138.7,209.1C138.7,209.1,138.7,209.1,138.7,209.1z"/>
	<path class="st9" d="M132.5,201c0.4,0.4,2.8-1.5,6.2-1.7s6.1,1.4,6.4,1c0.2-0.2-0.3-0.9-1.4-1.7c-1.6-1-3.4-1.4-5.2-1.3
		c-1.8,0.1-3.6,0.7-5,1.9C132.6,200,132.2,200.8,132.5,201z"/>
	<path class="st9" d="M167.7,201.3c0.5,0.4,2.6-1.8,6-2.3s6.2,0.8,6.5,0.3c0.2-0.2-0.4-0.9-1.6-1.5c-1.6-0.8-3.5-1.1-5.3-0.8
		c-1.8,0.3-3.4,1.1-4.7,2.4C167.7,200.4,167.5,201.2,167.7,201.3z"/>
	<path class="st9" d="M155.6,226.6c0-0.2-2.2-0.5-5.7-0.7c-0.9,0-1.7-0.2-1.9-0.8c-0.1-0.9,0-1.8,0.5-2.6c0.7-2.2,1.5-4.5,2.3-6.9
		c3.2-9.8,5.4-17.8,5-17.9s-3.3,7.7-6.4,17.5c-0.8,2.4-1.5,4.7-2.2,6.9c-0.5,1.1-0.6,2.3-0.3,3.5c0.3,0.6,0.9,1.1,1.5,1.2
		c0.5,0.1,1,0.2,1.5,0.1C153.4,226.9,155.6,226.8,155.6,226.6z"/>
	<g class="st11">
		<path d="M155.2,267.7c11.8-0.4,23.3-4.1,33.2-10.7c0,0-7.6,17.8-32.9,16.7L155.2,267.7z"/>
	</g>
	<path class="st12" d="M157.5,234.9c1.3-1.8,3.3-2.7,5.5-2.6c1.6,0.1,3,0.7,4.1,1.9c1,1.1,1.2,2.8,0.5,4.1c-0.9,1.4-2.8,1.8-4.5,1.4
		c-1.7-0.5-3.2-1.3-4.6-2.4c-0.4-0.3-0.7-0.6-1-1c-0.3-0.4-0.3-0.9-0.1-1.3"/>
	<path class="st9" d="M165.9,228.5c-0.6,0-0.4,3.8-3.5,6.6s-7.1,2.6-7.1,3.1c0,0.2,0.9,0.7,2.6,0.6c2.2-0.1,4.3-0.9,6-2.4
		c1.6-1.4,2.5-3.4,2.7-5.5C166.6,229.4,166.1,228.4,165.9,228.5z"/>
	<path class="st9" d="M164.4,187.8c0.5,0.9,3.8-0.1,7.9-0.2s7.5,0.5,7.9-0.4c0.2-0.4-0.5-1.2-2-1.9c-3.9-1.7-8.4-1.5-12.1,0.5
		C164.8,186.6,164.1,187.4,164.4,187.8z"/>
	<path class="st9" d="M133,186.1c0.6,0.8,3-0.2,5.9-0.4s5.3,0.3,5.9-0.6c0.2-0.4-0.2-1.2-1.3-1.9c-3-1.7-6.7-1.4-9.4,0.8
		C133,184.9,132.7,185.7,133,186.1z"/>
	<path class="st9" d="M207.3,219.7c0,0-17.8,5.5-27.8-38.3c-3.4-15-17.3-27.1-17.3-27.1l5.6-1.7c0,0,35,9.9,35.6,10.3
		s8.8,18.1,8.8,18.1L207.3,219.7z"/>
	<path class="st10" d="M203,218.1c-0.1-1.9,1.9-6.4,3.7-6.8c4.9-1,13.8-1.1,14.5,11.5c1,17.1-16.4,14.6-16.5,14.1
		S203.2,224.6,203,218.1z"/>
	<g class="st11">
		<path d="M209.6,230.1c0.1-0.1,0.3,0.2,0.8,0.4c0.7,0.3,1.5,0.2,2.2-0.1c1.8-0.8,3.1-3.7,3-6.8c0-1.5-0.4-2.9-1.1-4.2
			c-0.4-1-1.2-1.9-2.3-2.2c-0.7-0.2-1.4,0.2-1.7,0.9c-0.2,0.5-0.1,0.8-0.2,0.9s-0.4-0.3-0.3-1c0.1-0.4,0.3-0.8,0.6-1.1
			c0.5-0.4,1-0.6,1.6-0.5c1.4,0.2,2.7,1.1,3.3,2.5c0.8,1.4,1.3,3.1,1.3,4.7c0.1,3.5-1.5,6.8-3.9,7.6c-0.9,0.3-1.9,0.2-2.8-0.3
			C209.6,230.5,209.5,230.1,209.6,230.1z"/>
	</g>
	<path class="st9" d="M195.3,211.4c-0.9-0.1-1.7-0.3-2.6-0.5c-2.3-0.7-4.4-1.9-6.1-3.5c-1.2-1.1-2.3-2.4-3.2-3.7
		c-1-1.6-1.9-3.3-2.6-5c-1.5-4.1-2.7-8.2-3.7-12.5c-1.2-4.5-2.5-8.7-3.9-12.4c-1.2-3.3-2.7-6.6-4.5-9.7c-1.2-2.1-2.5-4.1-3.9-6
		c-0.5-0.7-0.9-1.2-1.2-1.5c-0.1-0.2-0.3-0.3-0.4-0.5c0.1,0.2,0.2,0.4,0.4,0.6c0.3,0.4,0.7,0.9,1.2,1.6c1.4,1.9,2.6,4,3.8,6.1
		c1.7,3.1,3.1,6.3,4.4,9.7c1.4,3.8,2.7,7.9,3.9,12.4c1,4.2,2.2,8.4,3.7,12.5c0.7,1.8,1.6,3.5,2.7,5.1c0.9,1.4,2,2.6,3.3,3.8
		c1.8,1.6,3.9,2.8,6.3,3.5C193.5,211.3,194.4,211.4,195.3,211.4z"/>
	<path class="st13" d="M218.7,284.4c0.1-0.3,0.1-0.5,0.2-0.8c0.1-0.6,0.2-1.4,0.4-2.4c0.4-2.2,0.9-5.3,1.5-9.3l-0.4-0.1
		c-0.1,0.6-0.2,1.3-0.3,2v-0.1c-0.1,0.2-0.2,0.5-0.4,0.8l0.4,0.1c2.6-9,4.4-18.2,5.5-27.6c0.7-5.9,1-11.9,1.1-17.8
		c-0.1-6.3,0-12.9-1.7-19.6c-0.7-2.7-1.7-5.3-3.1-7.8c-1.4-2.3-2.9-4.6-4.7-6.6c-3.5-4-7.2-7.5-10.7-10.9l-18.3-18.1l-12.5-12.2
		l-3.4-3.3l-0.9-0.8c-0.1-0.1-0.2-0.2-0.3-0.3c0.1,0.1,0.2,0.2,0.3,0.3l0.8,0.9c0.8,0.8,1.9,1.9,3.3,3.4l12.3,12.3
		c5.2,5.2,11.4,11.4,18.3,18.2c3.4,3.4,7.2,6.9,10.6,10.9c3.7,4,6.3,8.8,7.7,14.1c1.6,6.5,1.6,13.1,1.7,19.4c0,5.9-0.4,11.9-1,17.8
		c-1,9.3-2.8,18.5-5.2,27.5l0.4,0.2c0.1-0.3,0.2-0.5,0.3-0.8l0,0l0,0c0.1-0.7,0.2-1.4,0.2-2l-0.4-0.1c-0.6,4-1,7.1-1.4,9.3
		c-0.1,1-0.2,1.9-0.3,2.5C218.7,283.9,218.7,284.2,218.7,284.4z"/>
	<path class="st13" d="M232.2,205.2c-0.1-0.3-0.2-0.5-0.3-0.7c-0.3-0.5-0.6-1.2-1-2c-0.9-1.7-2.2-4.2-4-7.2s-4.1-6.5-6.8-10.2
		s-5.9-7.7-9.4-11.7s-7.2-7.5-10.6-10.6s-6.6-5.7-9.4-7.8s-5.1-3.7-6.7-4.8l-1.9-1.2c-0.2-0.2-0.4-0.3-0.7-0.4
		c0.2,0.2,0.4,0.4,0.6,0.5c0.5,0.4,1.1,0.8,1.8,1.3c1.6,1.1,3.8,2.8,6.6,5s5.9,4.8,9.3,7.9s6.9,6.6,10.4,10.6s6.7,7.9,9.4,11.6
		s5.1,7.1,6.9,10.1s3.3,5.4,4.2,7.1l1.1,1.9C231.9,204.9,232.1,205.1,232.2,205.2z"/>
	<path class="st9" d="M209.4,343.3c0.4-0.5,0.8-1.1,1.2-1.7c0.7-1.1,1.8-2.8,3.1-4.7c3.4-5.2,7.1-10.2,11-14.9
		c3.9-4.8,8.3-9.2,13.1-13c2.1-1.5,4.2-2.9,6.4-4.2c-0.7,0.2-1.3,0.5-1.9,0.8c-0.7,0.3-1.5,0.7-2.1,1.2c-0.9,0.5-1.8,1.1-2.7,1.8
		c-5,3.8-9.5,8.1-13.4,13c-4,4.8-7.6,9.8-10.9,15.1c-1.3,2-2.2,3.7-2.9,4.9C209.9,342.1,209.6,342.7,209.4,343.3z"/>
	<path class="st12" d="M223.6,428.4l28.4-126.4l-29-15.5c-0.6-0.9-15.3-7.5-15.3-7.5c-3.9,6.3-9,11.7-15,15.9
		c-17.6,10.6-35.2,1.9-36.7-14.3l0,0l-16.1,4.5l-31,5.4c0,0-25.3,65.9-21.9,91.7s-1.3,70.4-1.3,70.4L83,467.2l26.4,0.5h4.3l58.9-0.3
		l51.4-0.2C217.9,449.8,223.6,428.4,223.6,428.4z"/>
	<path class="st10" d="M65.6,439.1c-10.2,0.5-19.8-4.8-24.9-13.6c-1.7-2.9-2.6-6.1-2.6-9.4c0-13.7,8.5-33.4,11.4-40.5
		c4.1-10.2,43.1-81,47.8-80s7.2,1.4,7.2,1.4L82.2,397.6l70.6,11.6l-7.8,27L65.6,439.1z"/>
	<path class="st12" d="M63.8,332.5l35.9,19l11.9-61.1c0,0-15.2,1.4-20.2,7.8S63.8,332.5,63.8,332.5z"/>
	<path class="st10" d="M107.2,401.7l-9.7-21l-4.2-15.5l-12.8-10c0,0-4.3,0.5-2.9,3.8s7.8,9.3,7.8,9.3l3.8,10.6L83,368l-9-4.5
		l-8.9,0.7c0,0-1.7,4,2.5,4.1H72l6.8,5.5l4.2,10.2l-6.4-9.9l-9.4-3.4l-6,1.5c0,0-1.7,2.6,1.3,3s5,0.3,5,0.3l5.4,3.2l4.8,10.1
		l-8.4-6.9l-10.9-1.3c0,0-1.8,2.6,1,3.6c2.9,1.2,5.7,2.5,8.4,4l6.1,8.4L107.2,401.7z"/>
	<path class="st14" d="M107.2,401.7l-33.4-4.8h-0.1v-0.1l-6.1-8.4l0.1,0c-1.9-1-3.9-2-6-2.9c-0.5-0.2-1.1-0.5-1.6-0.7
		c-0.6-0.2-1.1-0.4-1.7-0.7c-0.6-0.4-0.9-1-0.9-1.7c0-0.7,0.2-1.3,0.6-1.8l0.1-0.1h0.1l10.9,1.3h0.1l0,0l8.4,6.9l-0.4,0.3l-4.8-10
		l0.1,0.1l-5.5-3.2h0.1c-1.4,0-2.9-0.1-4.5-0.3c-0.9,0-1.7-0.3-2.3-0.9c-0.2-0.4-0.3-0.9-0.2-1.3c0.1-0.4,0.2-0.8,0.5-1.2v-0.1h0.1
		l6-1.5h0.1h0.1l9.5,3.4h0.1v0.1l6.5,9.9l-0.4,0.2l-2.3-5.5c-0.7-1.6-1.3-3.2-2-4.8l0.1,0.1l-6.8-5.5l0.2,0.1h-2.6
		c-0.9,0-1.8,0-2.6-0.1c-1-0.1-1.8-0.8-2.1-1.7c-0.2-0.9-0.1-1.8,0.2-2.7v-0.1h0.2l8.9-0.7h0.1H74l9,4.5h0.1v0.1l6.2,10.8l-0.4,0.2
		l-3.7-10.6l0.1,0.1c-2.3-2.1-4.4-4.4-6.3-6.8c-0.5-0.6-0.9-1.2-1.2-1.9c-0.4-0.7-0.6-1.4-0.6-2.2c0.1-0.8,0.6-1.5,1.3-1.9
		c0.6-0.4,1.3-0.6,2.1-0.7h0.1h0.1l12.8,10h0.1v0.1l4.2,15.5l0,0L107.2,401.7l-9.8-20.9l0,0l-4.2-15.5l0.1,0.1l-12.9-9.9h0.2
		c-0.7,0.1-1.3,0.3-1.9,0.6c-0.6,0.3-1,0.9-1.1,1.5c-0.1,1.3,0.9,2.6,1.7,3.8c1.9,2.4,4,4.6,6.2,6.7l0,0v0l3.8,10.6l-0.4,0.2
		l-6.2-10.8l0.1,0.1l-9-4.5H74l-8.9,0.7l0.2-0.1c-0.3,0.7-0.4,1.6-0.2,2.3c0.3,0.8,0.9,1.3,1.7,1.4c0.9,0.1,1.7,0.1,2.6,0.1h2.7
		l0.1,0.1l6.8,5.5H79v0.1l2,4.8c0.8,1.9,1.6,3.8,2.3,5.5l-0.5,0.2l-6.4-9.9l0.1,0.1l-9.4-3.4h0.1l-6,1.5l0.2-0.1
		c-0.4,0.6-0.5,1.3-0.2,2c0.2,0.3,0.5,0.5,0.8,0.5c0.4,0.1,0.7,0.2,1.1,0.2c1.5,0.1,3,0.2,4.4,0.3h0.1h0.1l5.4,3.2h0.1v0.1l4.8,10.1
		l0.4,1l-0.8-0.7l-8.4-7h0.1l-10.9-1.3l0.2-0.1c-0.3,0.5-0.5,1-0.5,1.6c0,0.5,0.2,1.1,0.7,1.4c0.5,0.3,1,0.5,1.6,0.7
		c0.6,0.2,1.1,0.5,1.6,0.7c2.1,1,4.1,2,6,3l0,0l0,0l6.1,8.4l-0.1-0.1L107.2,401.7z"/>
	<g class="st4">
		<path d="M224.1,436.3c0,0-8.2,17.2-18.9,22.2c-9.9,4.7-16.2,5.7-27.9,4.8c-5.8-0.4-24.5-4-31.3-6l-45.7-19.6l96,15.1L224.1,436.3z
			"/>
	</g>
	<path class="st10" d="M247.6,308.2c0,0,17.2-6.1,17.5,32.4s-44.8,103.1-52.6,109.5s-16.5,10.6-39.7,7.2
		c-29.1-4.3-70.9-19.5-70.9-19.5l25.6-23.8l51.9-2.3l42.2-86.7C221.5,324.9,233.2,306.5,247.6,308.2z"/>
	<path class="st10" d="M145.1,436.1c0,0,12.9,8.1,27.4,7.7s27.4,4.3,29.3,3s2.1-3.6,0-4.6s-10.9-2.3-10.9-2.3l-7.6-3.1
		c0,0,26,2.2,28,1.2s4.1-2.5,3.3-4.8c-0.4-1.3-1.6-2.2-2.9-2.3c0,0,5.6,0.2,5.4-2.1c-0.3-2-1.5-3.7-3.1-4.8
		c-0.8-0.4-11.7-4.8-11.7-4.8l-14-2.8l13.4-0.5l11.7,3.3c0,0,4.7,0.5,3.6-3.4s-15.4-8.3-15.4-8.3l-18.3-1.3c0,0,14.1-2.1,15.6-6.4
		s-1-6.9-1-6.9s-10,4-14.7,4.8s-10.6,2.7-18.3,5.8c-4.2,1.6-8.2,3.5-12.2,5.6"/>
	<g class="st11">
		<path d="M152.9,409.1l0.7-0.4c0.5-0.3,1.2-0.7,2.2-1.1c2-1,4.9-2.4,8.7-3.9c4.7-2,9.4-3.7,14.3-5.1c1.4-0.4,2.9-0.7,4.5-1
			c1.6-0.3,3.2-0.7,4.7-1.2c3.2-1,6.5-2.2,10-3.5h0.1l0.1,0.1c1.3,1.5,1.8,3.5,1.5,5.5l-0.1,0.7l-0.2,0.7c-0.2,0.5-0.4,1-0.8,1.3
			c-0.7,0.7-1.6,1.3-2.5,1.8c-1.9,0.9-3.9,1.6-6,2.2c-2.1,0.6-4.3,1-6.4,1.4v-0.4l18.3,1.2h0.1c3.8,1.1,7.4,2.6,10.9,4.4
			c0.9,0.5,1.8,1,2.6,1.6c0.4,0.3,0.8,0.7,1.2,1c0.4,0.4,0.7,0.9,0.8,1.4c0.1,0.5,0.2,1.1,0.1,1.6c-0.1,0.6-0.4,1.1-0.9,1.4
			c-0.9,0.6-2.1,0.8-3.1,0.7l0,0l-11.8-3.3h0.1l-13.4,0.5v-0.5l10,2l4,0.8h0.1l11.7,4.8c0.9,0.6,1.7,1.3,2.3,2.3c0.6,0.9,1,1.9,1,3
			c-0.1,0.6-0.5,1.1-1.1,1.3c-0.5,0.2-1,0.4-1.5,0.5c-1,0.2-2,0.3-3.1,0.2v-0.5c0.9,0,1.8,0.5,2.4,1.2c0.6,0.7,0.9,1.6,0.9,2.5
			c-0.1,0.9-0.5,1.7-1.2,2.3c-0.6,0.6-1.4,1-2.1,1.4c-0.2,0.1-0.4,0.2-0.6,0.2c-0.2,0-0.4,0.1-0.6,0.1c-0.4,0-0.8,0.1-1.2,0.1
			c-0.8,0-1.6,0-2.5,0c-1.6,0-3.3-0.1-4.9-0.2c-6.4-0.3-12.6-0.8-18.6-1.3l0.1-0.5l7.6,3.1l0,0c2.8,0.4,5.5,0.9,8.2,1.5
			c0.7,0.2,1.3,0.3,2,0.5c0.7,0.2,1.3,0.5,1.8,1c0.5,0.5,0.7,1.3,0.6,2c-0.1,0.7-0.5,1.3-1,1.8c-0.1,0.1-0.2,0.2-0.4,0.3
			c-0.1,0.1-0.3,0.2-0.5,0.3c-0.3,0.1-0.7,0.1-1,0.1c-0.6,0-1.3-0.1-1.9-0.2c-1.2-0.2-2.5-0.4-3.7-0.6c-2.4-0.5-4.7-0.9-7-1.2
			c-4.2-0.7-8.5-1.1-12.7-1.2c-1,0-2,0-2.9,0s-1.9,0-2.8,0s-1.8-0.1-2.7-0.2l-2.5-0.4c-5-0.9-9.9-2.5-14.5-4.6
			c-1.6-0.8-2.8-1.4-3.6-1.9s-1.2-0.7-1.2-0.7c0.1,0.1,0.2,0.1,0.3,0.2l0.9,0.5c0.8,0.4,2,1.1,3.6,1.8c4.6,2.1,9.5,3.7,14.5,4.5
			l2.5,0.3c0.9,0.1,1.8,0.1,2.6,0.2s1.8,0,2.8,0s1.9,0,2.9,0c4.3,0.1,8.6,0.5,12.8,1.2c2.3,0.4,4.6,0.8,7,1.2
			c1.2,0.2,2.4,0.5,3.6,0.6c0.6,0.1,1.2,0.1,1.9,0.2c0.3,0,0.6,0,0.9-0.1c0.3-0.1,0.5-0.3,0.7-0.5c0.4-0.4,0.7-1,0.9-1.6
			c0.1-0.6-0.1-1.2-0.5-1.6c-0.4-0.4-1-0.8-1.6-0.9c-0.6-0.2-1.3-0.4-1.9-0.5c-2.6-0.6-5.4-1-8.1-1.4h-0.1l-7.6-3.2l-1.4-0.6
			l1.5,0.1c5.9,0.5,12.1,1,18.5,1.3c1.6,0.1,3.2,0.1,4.9,0.2c0.8,0,1.6,0,2.4,0c0.4,0,0.8,0,1.2-0.1c0.2,0,0.4,0,0.6-0.1
			c0.2,0,0.4-0.1,0.5-0.2c0.7-0.4,1.4-0.8,2-1.3c0.6-0.5,1-1.2,1.1-2c0-0.8-0.3-1.5-0.8-2.1c-0.5-0.6-1.2-0.9-2-1v-0.5
			c1,0,2-0.1,3-0.2c0.5-0.1,0.9-0.2,1.4-0.4c0.4-0.2,0.7-0.5,0.8-0.9c-0.1-1-0.4-1.9-1-2.7c-0.5-0.8-1.2-1.6-2.1-2.1l-11.6-4.8l0,0
			l-4-0.8l-10-2l-2.1-0.4l2.2-0.1l13.4-0.5h0.1l11.7,3.4l0,0c1,0.1,2-0.1,2.8-0.6c0.7-0.6,0.9-1.7,0.6-2.5c-0.4-0.9-1-1.6-1.8-2.2
			c-0.8-0.6-1.6-1.1-2.5-1.6c-3.5-1.8-7.1-3.2-10.9-4.4h0.1l-18.3-1.3l-2-0.1l2-0.3c2.2-0.3,4.3-0.8,6.4-1.3c2-0.5,4-1.2,5.9-2.1
			c0.9-0.4,1.7-1,2.4-1.7c0.3-0.3,0.6-0.8,0.7-1.2l0.2-0.7l0.1-0.7c0.3-1.8-0.2-3.7-1.3-5.2h0.2c-3.5,1.3-6.8,2.5-10,3.5
			c-1.6,0.5-3.1,0.9-4.7,1.2c-1.6,0.3-3,0.6-4.5,1c-4.9,1.4-9.6,3-14.3,5c-3.9,1.5-6.8,2.9-8.8,3.8l-2.2,1.1L152.9,409.1z"/>
	</g>
	<g class="st11">
		<path d="M184,426.8c1.4,0.2,2.9,0.3,4.4,0.3c2.7,0.2,6.4,0.5,10.4,1.1s7.7,1.4,10.3,2c1.4,0.4,2.8,0.8,4.3,1
			c-1.3-0.6-2.7-1.2-4.1-1.5c-3.4-1-6.8-1.8-10.3-2.3c-3.5-0.5-7-0.8-10.5-0.9C186.9,426.6,185.4,426.6,184,426.8z"/>
	</g>
	<path class="st9" d="M93,352.2c-0.5,2.5-1,4.6-1.3,6.2c-0.2,0.8-0.3,1.5-0.4,2.3c0.3-0.7,0.5-1.5,0.7-2.2c0.4-1.6,0.9-3.6,1.6-6.1
		c1.3-5.2,3-12.4,4.8-20.3c3-13,5.5-24.1,6.1-27.5v-0.3l-0.2,0.1c-0.4,0.2-0.8,0.5-1.1,0.8c0.4-0.2,0.8-0.4,1.2-0.6l-0.2-0.1
		c-1,3.4-3.6,14.4-6.7,27.4"/>
	<path class="st12" d="M200.4,355.2l58,25.9c0,0,22.5-69.5-10.6-80.7l-16.6,3.9L200.4,355.2z"/>
	<line class="st15" x1="65.6" y1="439.1" x2="145.1" y2="436.1"/>
	<g class="st16">
		<path d="M145.1,436.1c0,0.1-17.8,0.9-39.8,1.7s-39.8,1.4-39.8,1.2s17.8-0.9,39.8-1.7S145.1,436,145.1,436.1z"/>
	</g>
	<g class="st11">
		<path d="M73.9,396.6c0,0.1-1.1,0.2-2.9,0.6c-2.3,0.6-4.5,1.6-6.6,2.9c-2,1.3-3.8,3-5.1,5c-1,1.5-1.4,2.6-1.5,2.6
			c0-0.3,0.1-0.5,0.2-0.8c0.3-0.7,0.6-1.4,1-2c1.3-2.1,3.1-3.9,5.1-5.2c2.1-1.3,4.4-2.3,6.8-2.8c0.7-0.1,1.5-0.2,2.2-0.3
			C73.4,396.6,73.6,396.6,73.9,396.6z"/>
	</g>
	<path class="st9" d="M210.4,346.9c0,0.2-0.1,0.4-0.2,0.5l-0.6,1.5c-0.5,1.3-1.3,3.2-2.3,5.5c-2,4.6-4.9,11-8.3,17.9
		s-6.7,13.1-9.1,17.5c-1.2,2.2-2.2,4-2.9,5.2l-0.8,1.4c-0.1,0.2-0.2,0.3-0.3,0.5c0.1-0.2,0.1-0.4,0.2-0.5l0.7-1.5
		c0.7-1.3,1.6-3.1,2.8-5.3c2.3-4.5,5.5-10.7,9-17.6s6.4-13.2,8.4-17.8l2.4-5.5l0.7-1.5C210.3,347.3,210.4,347.1,210.4,346.9z"/>
</g>
<g id="Plant">
	<path class="st13" d="M362.2,420.5c0,0-24.8-28.5-34.1-57s-4.9-25.3-4.9-25.3s12.6,27.7,22.2,41.1s26.6,33,26.6,33L362.2,420.5z"/>
	<path class="st13" d="M367.2,342.6c-0.4-0.7-1.3-0.9-2-0.6c-0.5,0.3-0.8,0.9-0.7,1.5c1.5,10,4.8,33.5,4.6,48.8
		c-0.2,19.8,0,27.5,0,27.5h10.3c0,0-1.8-40.9-4.2-53.4C373.7,357.6,370.2,347.9,367.2,342.6z"/>
	<path class="st13" d="M372.8,416.5c4.3-9.8,7.2-20.2,8.5-30.8c0.9-7.3-0.7-17.1-2.9-30.3c-0.9-4.8-1.3-9.7-1.3-14.6
		c0-1.4,1.1-2.4,2.5-2.4c0.9,0,1.7,0.5,2.1,1.3c1.2,2.2,4.9,9.8,5.8,14.6c2.5,13,5.3,19.5,3.2,31.8s-10.1,31.3-10.1,31.3
		L372.8,416.5z"/>
	<path class="st13" d="M382.1,417.3c0,0,27.2-58.5,29.1-67.1s8.3-28.7,9-27.5s1.9,11.7-3,23.8s-25.8,72.7-25.8,72.7h-9.3"/>
	<path class="st9" d="M369.8,414.7c-0.3-0.1-0.5-0.3-0.8-0.5c-0.5-0.4-1.2-0.9-2.1-1.6c-1.8-1.4-4.4-3.6-7.3-6.5
		c-7.7-7.5-14.3-16.1-19.7-25.3c-5.4-9.3-9.9-19-13.5-29.2c-1.4-3.9-2.4-7.1-3-9.3c-0.3-1.1-0.6-2-0.7-2.5c-0.1-0.3-0.2-0.6-0.2-0.9
		c0.1,0.3,0.2,0.6,0.3,0.9c0.2,0.6,0.5,1.5,0.8,2.5c0.7,2.2,1.8,5.3,3.2,9.2c3.6,10.1,8.2,19.8,13.6,29c5.4,9.2,12,17.7,19.5,25.3
		c2.9,2.9,5.4,5.1,7.2,6.6c0.9,0.8,1.6,1.3,2,1.7C369.4,414.2,369.6,414.4,369.8,414.7z"/>
	<path class="st9" d="M372.8,386.6c-0.1-0.6-0.2-1.1-0.2-1.7c-0.1-1.2-0.3-2.8-0.5-4.7c-0.4-4-1.1-9.4-2.1-15.4s-2-11.4-2.9-15.3
		c-0.4-1.9-0.7-3.4-1-4.6c-0.2-0.6-0.3-1.1-0.3-1.7c0.2,0.5,0.4,1.1,0.5,1.7c0.3,1.1,0.7,2.6,1.2,4.6c0.9,3.9,2.1,9.3,3,15.3
		s1.6,11.5,1.9,15.5c0.2,2,0.3,3.6,0.3,4.7C372.8,385.5,372.9,386.1,372.8,386.6z"/>
	<path class="st9" d="M379.2,339.2c0.1,0.2,0.2,0.5,0.3,0.7c0.2,0.5,0.5,1.3,0.8,2.2s0.8,2.1,1.2,3.5s0.9,2.9,1.3,4.7
		c0.2,0.9,0.4,1.8,0.7,2.8s0.4,2,0.6,3c0.5,2.1,0.7,4.3,1,6.7c1.2,10.3,0.9,20.7-1.1,30.9c-0.5,2.3-0.9,4.6-1.5,6.6
		c-0.3,1-0.5,2-0.8,3l-0.9,2.7c-0.5,1.7-1.1,3.2-1.7,4.6s-1,2.5-1.4,3.4s-0.7,1.6-1,2.1c-0.1,0.3-0.2,0.5-0.4,0.7
		c0.1-0.3,0.2-0.5,0.3-0.8l0.9-2.1c0.4-0.9,0.9-2.1,1.3-3.4s1.1-2.9,1.6-4.6c0.3-0.9,0.5-1.8,0.8-2.7s0.5-1.9,0.8-3
		c0.6-2,1-4.2,1.5-6.6c1.9-10.1,2.3-20.5,1.1-30.7c-0.3-2.4-0.6-4.6-1-6.7c-0.2-1-0.4-2-0.6-3s-0.4-1.9-0.6-2.8
		c-0.4-1.8-0.9-3.3-1.2-4.7s-0.8-2.5-1.1-3.5s-0.5-1.6-0.7-2.2C379.3,339.7,379.3,339.5,379.2,339.2z"/>
	<path class="st9" d="M419.9,323.8c0,0.1,0,0.2,0,0.3c0,0.2-0.1,0.5-0.1,0.8c-0.1,0.7-0.3,1.6-0.5,2.9c-0.5,2.5-1.4,6.1-2.8,10.5
		s-3.2,9.5-5.4,15.2s-4.7,11.8-7.2,18.4s-4.3,13-6.1,18.8s-3.4,11-5,15.3c-1.2,3.4-2.7,6.7-4.3,10c-0.6,1.2-1.1,2-1.4,2.6
		c-0.1,0.3-0.3,0.5-0.4,0.7s-0.1,0.2-0.1,0.2c0-0.1,0.1-0.2,0.1-0.2c0.1-0.2,0.2-0.4,0.3-0.7c0.3-0.6,0.8-1.5,1.3-2.7
		c1.1-2.3,2.6-5.7,4.1-10s3.2-9.5,4.9-15.3s3.6-12.2,6.1-18.8s5-12.7,7.2-18.4s4.1-10.8,5.5-15.1s2.3-8,2.9-10.5
		c0.3-1.2,0.5-2.2,0.6-2.9c0.1-0.3,0.1-0.5,0.2-0.8C419.9,324,419.9,323.9,419.9,323.8z"/>
	<path class="st13" d="M336.1,310.9c-0.9-0.9-2.4-0.9-3.3,0.1c-0.6,0.6-0.8,1.5-0.6,2.3c0.9,3,2.1,5.9,3.4,8.8
		c3.7,8,14.7,36.5,19.9,52.1s12.4,44.9,12.4,44.9l11-1.8c0,0-10-48-19.9-65.3C351.1,338.1,343.2,318,336.1,310.9z"/>
	<path class="st9" d="M358.5,384c0.2,0.4,0.4,0.9,0.6,1.3c0.3,0.9,0.8,2.1,1.3,3.7c1,3.1,2.2,7.5,3.5,12.4s2.3,9.3,3,12.5l0.8,3.8
		c0.1,0.5,0.2,0.9,0.2,1.4c-0.2-0.4-0.3-0.9-0.5-1.4l-1-3.8l-3.2-12.5c-1.2-4.9-2.4-9.2-3.3-12.4l-1.1-3.7
		C358.7,384.9,358.5,384.5,358.5,384z"/>
	<path class="st9" d="M373.4,418.2c0-0.1-0.1-0.2-0.1-0.3c0-0.2-0.1-0.5-0.1-0.9c-0.1-0.8-0.2-1.9-0.5-3.3c-0.4-2.9-1.1-7-2.3-12.1
		c-1.4-5.9-3.1-11.8-5.1-17.5c-2.2-6.5-5.1-13.5-8.3-20.8c-6.5-14.5-12.9-27.4-17.1-37c-2.1-4.8-3.8-8.6-4.9-11.3
		c-0.5-1.4-1-2.4-1.2-3.1l-0.3-0.8c0-0.1-0.1-0.2-0.1-0.3c0.1,0.1,0.1,0.2,0.1,0.3c0.1,0.2,0.2,0.5,0.4,0.8l1.3,3.1
		c1.2,2.7,2.9,6.5,5.1,11.3c4.3,9.5,10.9,22.3,17.3,36.9c3.2,7.3,6,14.3,8.2,20.9c2,5.8,3.7,11.7,5,17.6c0.9,4,1.6,8.1,2.1,12.2
		c0.2,1.5,0.3,2.6,0.3,3.4c0,0.4,0,0.6,0.1,0.9C373.4,418,373.4,418.1,373.4,418.2z"/>
	<path class="st9" d="M378.9,417.3c-0.2-0.6-0.3-1.2-0.4-1.9l-0.9-5c-0.8-4.2-1.9-10.1-3.6-16.5s-3.5-12.1-4.9-16.1l-1.7-4.8
		c-0.2-0.6-0.4-1.2-0.6-1.8c0.3,0.5,0.6,1.1,0.8,1.7c0.5,1.1,1.1,2.7,1.9,4.8c2,5.3,3.7,10.7,5.1,16.1c1.4,5.5,2.6,11,3.4,16.6
		c0.3,2.1,0.5,3.9,0.7,5.1C378.8,416,378.9,416.7,378.9,417.3z"/>
	<rect x="358.5" y="415.7" class="st17" width="42.9" height="52.2"/>
	<rect x="349.7" y="415.7" class="st12" width="38" height="52.2"/>
</g>
</svg>
