<svg xmlns="http://www.w3.org/2000/svg" viewBox="0 0 105.79 113.89"><g id="Camada_2" data-name="Camada 2"><g id="Ñëîé_1" data-name="Ñëîé 1"><path d="M69.11,95a2.09,2.09,0,0,1-1.29-.45L56.92,86.1a2.11,2.11,0,0,1,2.59-3.34L68.87,90,87.74,69.41a2.11,2.11,0,0,1,3.11,2.85l-20.18,22A2.14,2.14,0,0,1,69.11,95Z" style="fill:#fff"/><path d="M40,40.34A20.16,20.16,0,1,1,58,29.22,20,20,0,0,1,40,40.34ZM40,4.22A16,16,0,1,0,55.94,20.16,16,16,0,0,0,40,4.22Z" style="fill:#fff"/><path d="M2.12,82l-.28,0A2.11,2.11,0,0,1,0,79.58c2.64-20,12.45-28.1,19.6-32.45,12.73-7.74,25.08-8.31,37.77-1.74a2.11,2.11,0,0,1-1.94,3.75c-11.27-5.84-22.27-5.31-33.63,1.6C14.87,55,6.59,62.13,4.21,80.13A2.11,2.11,0,0,1,2.12,82Z" style="fill:#fff"/><path d="M73.76,113.89a32,32,0,1,1,32-32A32.08,32.08,0,0,1,73.76,113.89Zm0-59.85a27.81,27.81,0,1,0,27.81,27.81A27.85,27.85,0,0,0,73.76,54Z" style="fill:#fff"/></g></g></svg>