<svg width="340" height="309" viewBox="0 0 340 309" fill="none" xmlns="http://www.w3.org/2000/svg">
<path d="M133.1 171.7C129.2 165 125 158.3 118.8 152.7C103.2 138.6 76.4 134.4 53.6 139.5C36 143.4 19.4 153.3 14.8 167.3C12.7 173.6 13.2 180.3 13.8 186.8C18.1 229.3 39.4 306.5 40.2 308.3L183.7 307.7C175.3 260.8 158.2 214.8 133.1 171.7Z" fill="#455A64"/>
<path d="M183.7 307.7C183.7 307.7 183.6 307.3 183.5 306.6C183.4 305.9 183.1 304.8 182.9 303.4C182.6 302 182.3 300.2 181.9 298.2C181.4 296.1 180.9 293.8 180.3 291.1C177.9 280.4 173.9 265.1 167.5 246.6C161 228.2 152 206.6 139.6 183.9C138.8 182.5 138 181.1 137.3 179.6C136.5 178.2 135.7 176.7 134.9 175.3C133.3 172.4 131.6 169.5 129.8 166.7C126.2 161 122 155.4 116.5 151.1C115.8 150.5 115.1 150 114.4 149.5C113.7 149 113 148.5 112.2 148C110.7 147.1 109.2 146.1 107.6 145.4L105.2 144.2L102.7 143.2L101.5 142.7L100.2 142.3L97.6 141.4C90.7 139.3 83.4 138.1 75.9 137.8C68.5 137.6 61.1 138.2 54 139.7C46.9 141.3 40.1 143.7 34 147.1C30.9 148.8 28 150.7 25.4 153C22.8 155.2 20.4 157.7 18.5 160.5C18.1 161.2 17.6 161.9 17.2 162.6C16.8 163.3 16.4 164.1 16.1 164.8C15.8 165.6 15.5 166.3 15.2 167.1C14.9 167.9 14.7 168.7 14.5 169.5C13.7 172.7 13.5 176 13.6 179.2C13.7 182.4 14 185.6 14.4 188.7C14.8 191.8 15.1 194.9 15.6 197.9C16.5 204 17.5 209.8 18.5 215.5C20.6 226.8 22.8 237.3 24.9 246.8C29.2 265.9 33.1 281.2 35.9 291.8C37.3 297.1 38.4 301.2 39.2 304C39.6 305.4 39.9 306.4 40.1 307.2C40.3 307.9 40.4 308.3 40.4 308.3C40.4 308.3 40.3 307.9 40 307.2C39.8 306.5 39.5 305.4 39.1 304.1C38.3 301.3 37.2 297.2 35.7 292C32.9 281.4 28.9 266.1 24.6 247C22.5 237.5 20.2 227 18.1 215.7C16.9 210 15.8 204.1 15 198C14.5 195 14.2 191.9 13.8 188.7C13.4 185.6 13.1 182.4 13 179.1C12.9 175.9 13.1 172.5 13.9 169.3C14.1 168.5 14.3 167.7 14.6 166.9C14.9 166.1 15.2 165.3 15.5 164.5C15.9 163.7 16.3 163 16.7 162.2C17.1 161.5 17.6 160.8 18.1 160C20 157.2 22.4 154.7 25 152.4C27.6 150.1 30.6 148.2 33.7 146.5C39.9 143.1 46.7 140.6 53.8 139C60.9 137.5 68.4 136.8 75.8 137C83.3 137.3 90.6 138.5 97.6 140.6L100.2 141.5L101.5 141.9L102.8 142.4L105.3 143.4L107.7 144.6C109.3 145.3 110.8 146.3 112.4 147.2C113.2 147.7 113.9 148.2 114.6 148.7C115.3 149.2 116.1 149.7 116.7 150.3C122.3 154.6 126.6 160.3 130.1 166C131.9 168.9 133.6 171.8 135.2 174.7C136 176.1 136.8 177.6 137.6 179C138.4 180.4 139.2 181.9 139.9 183.3C152.2 206.1 161.2 227.6 167.7 246.1C174.1 264.6 178 280 180.4 290.7C181 293.4 181.5 295.8 181.9 297.8C182.3 299.9 182.6 301.6 182.9 303C183.2 304.4 183.4 305.5 183.5 306.2C183.7 307.3 183.7 307.7 183.7 307.7Z" fill="#263238"/>
<path d="M20.6 157.3C20.6 157.3 20.6 157.4 20.6 157.7C20.6 158 20.5 158.4 20.4 158.9C20.3 159.9 20.1 161.5 20 163.4C19.8 167.3 20 173.1 21.2 180C23.6 193.9 26.6 213.2 30.9 234.3C33.1 244.8 35.5 254.8 38 263.8C40.5 272.8 43.2 280.8 45.6 287.4C48.1 294 50.3 299.3 51.9 302.9C52.7 304.7 53.3 306.1 53.8 307C54 307.5 54.2 307.8 54.3 308.1C54.4 308.3 54.5 308.5 54.4 308.5C54.4 308.5 50.3 300.8 45.3 287.6C42.8 281 40.1 273 37.6 264C35.1 255 32.7 245 30.5 234.5C26.2 213.4 23.3 194.1 20.9 180.2C19.8 173.2 19.6 167.5 19.9 163.5C20 159.4 20.6 157.3 20.6 157.3Z" fill="#263238"/>
<path d="M39.1 191.3C39.1 191.4 38.1 191.6 36.5 192.2C34.9 192.8 32.9 193.7 30.8 195.2C26.6 198.1 24.6 201.9 24.5 201.8C24.5 201.8 24.9 200.8 25.9 199.4C26.9 198 28.5 196.3 30.6 194.8C32.7 193.3 34.9 192.4 36.5 191.9C38.1 191.3 39.1 191.2 39.1 191.3Z" fill="#263238"/>
<path d="M33.5 200.8C33.5 201 31.6 200.9 29.4 201.4C27.2 201.9 25.5 202.8 25.4 202.6C25.3 202.5 26.9 201.4 29.3 200.8C31.6 200.4 33.5 200.7 33.5 200.8Z" fill="#263238"/>
<path d="M29.4 249.3C29.3 249.3 29.4 249 29.6 248.7C29.8 248.4 30.2 248 30.8 247.8C31.4 247.6 32 247.6 32.3 247.7C32.7 247.8 32.9 248 32.8 248.1C32.7 248.2 31.9 247.9 30.9 248.3C30 248.5 29.5 249.3 29.4 249.3Z" fill="#263238"/>
<path d="M31.3 253.4C31.2 253.4 31.2 252.4 32.2 251.6C33.1 250.9 34.1 251 34.1 251.1C34.1 251.2 33.3 251.3 32.5 252C31.8 252.6 31.5 253.4 31.3 253.4Z" fill="#263238"/>
<path d="M66.9282 25.0391C62.9573 25.4727 59.4196 28.5078 58.481 32.41C58.2644 33.3494 58.12 34.3611 57.5424 35.156C56.7482 36.1677 55.4486 36.4567 54.2935 36.9625C51.1889 38.4078 49.2396 41.8764 49.6005 45.2728C47.218 45.9232 44.691 46.7181 42.9583 48.5246C41.2977 50.4035 41.0089 53.7276 43.0305 55.1728C39.3483 57.8466 39.1317 64.1335 42.6695 67.024C38.2653 69.2641 35.5218 74.4671 36.1716 79.381C33.8612 80.1036 31.4065 80.8985 30.0347 82.8496C28.6629 84.8007 29.3127 88.2693 31.6231 88.7029C30.1069 91.1599 30.8289 94.7007 33.2114 96.4351C30.4679 97.8081 29.8903 102.144 32.2007 104.167C34.511 106.191 38.6985 105.107 39.7815 102.216C40.4313 105.034 42.5973 107.347 45.2686 108.286C43.5359 111.755 44.2578 116.307 47.0014 119.053C44.6188 119.921 43.2471 122.883 44.1134 125.196C44.9798 127.58 47.94 128.953 50.3225 128.014C50.7557 130.326 51.4055 132.711 52.9217 134.518C54.4379 136.324 57.1092 137.336 59.2752 136.324C57.8312 140.01 57.9034 144.635 60.4304 147.67C61.1523 148.537 62.0909 149.259 63.0295 149.982C64.9067 151.5 66.7838 152.945 68.7332 154.462C70.5382 155.908 73.3539 157.208 74.8701 155.474C77.6136 159.81 84.5447 160.605 88.2269 156.992C90.3206 161.689 96.7463 162.122 101.872 161.761C103.461 161.689 105.194 161.544 106.565 160.605C108.659 159.159 109.237 156.341 110.536 154.173C111.258 153.017 112.269 151.933 112.919 150.705C114.652 147.525 113.641 143.117 110.753 140.949C113.713 136.686 112.991 130.977 112.125 125.846C111.403 121.438 110.608 116.886 108.081 113.2C107.721 112.694 107.287 112.116 107.287 111.466C107.287 110.599 108.082 109.948 108.731 109.37C111.98 106.48 113.208 101.566 111.836 97.4467C111.403 96.2183 110.753 94.9898 110.969 93.7613C111.114 92.7496 111.836 91.8825 112.486 91.0153C115.59 86.8963 117.034 80.3927 113.063 77.0686C118.262 72.6605 119.778 64.4225 116.384 58.4969C121.51 55.2451 123.099 47.4407 119.705 42.3823C121.727 39.7808 123.821 37.0348 124.11 33.8552C124.471 30.6034 122.232 26.8457 118.984 26.918C120.427 25.4004 120.139 22.8712 118.984 21.1369C117.828 19.4026 115.951 18.3187 114.146 17.307C111.403 15.7172 108.587 14.1274 105.482 13.9829C102.378 13.8384 98.9123 15.5004 98.1181 18.5355C97.7571 16.8734 95.8799 15.934 94.1471 16.0785C92.4866 16.223 90.9704 17.1625 89.5986 18.1019C87.2161 14.561 80.7904 15.1391 79.0576 19.1136C75.8087 16.1508 69.5996 18.1019 68.661 22.4377" fill="#263238"/>
<path d="M215.946 55.8233C214.719 52.7882 211.253 51.0539 207.932 50.8371C209.882 48.3802 208.871 44.4779 206.344 42.6714C203.817 40.8648 200.279 40.9371 197.391 42.0933C198.474 38.4078 196.742 34.2888 193.781 31.9042C190.821 29.5195 186.778 28.7246 183.024 29.1582C184.251 26.0509 183.601 22.2209 181.363 19.6917C179.125 17.1625 175.443 16.0063 172.194 16.8012C171.472 14.1997 168.801 12.5377 166.129 12.1763C163.458 11.815 160.787 12.4654 158.187 13.188C156.816 8.85224 152.845 5.45587 148.368 4.8055C143.892 4.15514 139.127 6.32303 136.6 10.0807C130.102 7.04566 117.179 10.442 117.179 19.6917L146.13 148.681C149.018 150.994 155.227 154.535 166.707 154.535C170.389 154.535 179.197 147.814 178.62 144.129C184.323 143.695 189.088 137.986 188.511 132.278C192.121 133.506 195.153 129.459 196.814 126.063C197.68 124.329 196.381 126.641 197.319 124.979C200.135 119.921 198.185 114.573 196.886 113.272C199.052 113.706 203.095 114.284 205.405 110.382C206.344 108.72 205.478 104.529 205.478 104.529C205.911 102.577 206.705 101.566 207.138 99.5424C207.499 97.5913 207.066 95.1344 205.333 94.1227C208.221 93.7614 211.831 92.5329 211.975 89.6424C212.048 88.3416 211.253 87.1132 211.253 85.8124C211.253 84.873 211.687 83.9336 211.831 82.9942C212.697 78.5139 208.654 74.6839 204.972 71.9379C206.922 71.143 208.943 70.3481 210.459 68.8306C211.975 67.3131 212.77 64.9284 211.831 63.0496C215.224 63.1218 217.246 58.8583 215.946 55.8233Z" fill="#263238"/>
<path d="M152.772 153.378C152.195 145.935 151.401 136.613 151.401 136.613C151.401 136.613 168.584 133.651 172.05 111.177C173.782 99.976 173.132 81.6935 172.122 66.735C171.183 53.2941 158.693 35.5896 142.015 36.529L134.578 36.0955L106.926 49.0306C102.883 49.4641 99.7786 53.005 99.923 57.0518L105.266 157.642L124.543 184.018L153.133 164.796L152.772 153.378Z" fill="#AE7461"/>
<path d="M138.477 107.997C138.549 106.841 139.127 105.757 139.921 104.962C141.51 103.445 143.892 103.156 145.769 104.312C147.646 105.396 148.802 107.853 148.585 110.237C147.646 111.683 146.202 112.694 144.542 112.911C144.253 112.983 144.036 112.983 143.748 112.983C142.448 113.056 141.149 112.694 140.138 111.755C139.055 110.888 138.333 109.442 138.477 107.997Z" fill="#6F4439"/>
<path d="M163.169 85.0898C163.241 86.6073 162.014 87.9081 160.426 87.9803C158.837 88.0526 157.538 86.8964 157.465 85.3788C157.393 83.8613 158.621 82.5606 160.209 82.4883C161.797 82.4161 163.097 83.5723 163.169 85.0898Z" fill="#263238"/>
<path d="M166.779 74.5393C166.418 74.9006 164.252 73.3108 161.148 73.3108C158.043 73.3108 155.805 74.9006 155.444 74.5393C155.299 74.3948 155.66 73.6722 156.599 72.9495C157.538 72.2269 159.198 71.5043 161.148 71.5043C163.097 71.5043 164.685 72.2269 165.624 72.9495C166.635 73.6722 166.996 74.3225 166.779 74.5393Z" fill="#263238"/>
<path d="M149.09 99.9037C149.09 99.7592 150.968 99.3978 154.144 98.9643C154.938 98.892 155.66 98.7475 155.805 98.1694C156.021 97.5913 155.66 96.7241 155.299 95.8569C154.577 93.9781 153.783 91.9547 152.917 89.8591C149.668 81.2598 147.285 74.2503 147.574 74.1058C147.935 73.9612 150.895 80.8262 154.144 89.3533C154.938 91.4489 155.66 93.4723 156.382 95.4234C156.671 96.2905 157.177 97.3745 156.816 98.5307C156.599 99.1088 156.021 99.5424 155.516 99.6869C155.011 99.8314 154.577 99.8314 154.144 99.9037C151.04 100.048 149.09 100.12 149.09 99.9037Z" fill="#263238"/>
<path d="M151.329 136.613C151.329 136.613 136.239 137.625 121.222 128.737C121.222 128.737 129.308 144.273 151.762 142.105L151.329 136.613Z" fill="#6F4439"/>
<path d="M139.993 102.144C140.499 102.144 140.499 105.468 143.387 107.853C146.275 110.237 149.885 109.876 149.885 110.31C149.957 110.526 149.09 110.96 147.574 111.032C146.058 111.104 143.892 110.599 142.159 109.153C140.426 107.708 139.632 105.757 139.488 104.384C139.343 102.939 139.704 102.072 139.993 102.144Z" fill="#263238"/>
<path d="M166.851 67.6021C166.346 68.397 163.963 67.8912 161.22 68.108C158.476 68.2525 156.166 69.1196 155.516 68.397C155.227 68.0357 155.516 67.3131 156.527 66.5904C157.465 65.7955 159.126 65.1452 161.003 65.0007C162.88 64.8561 164.613 65.362 165.624 65.9401C166.635 66.5904 167.068 67.2408 166.851 67.6021Z" fill="#263238"/>
<path d="M129.091 85.5956C129.091 87.1131 130.391 88.3416 131.979 88.4139C133.568 88.4139 134.867 87.1854 134.867 85.6679C134.867 84.1503 133.568 82.9219 131.979 82.8496C130.391 82.8496 129.091 84.0781 129.091 85.5956Z" fill="#263238"/>
<path d="M125.626 75.7679C125.987 76.1292 128.081 74.3949 131.185 74.3226C134.29 74.1781 136.6 75.6233 136.961 75.262C137.105 75.1175 136.744 74.3949 135.734 73.7445C134.723 73.0941 133.062 72.4437 131.113 72.516C129.164 72.5883 127.575 73.3832 126.709 74.1781C125.77 74.973 125.409 75.6233 125.626 75.7679Z" fill="#263238"/>
<path d="M126.925 65.7956C127.575 66.4459 129.958 65.651 132.773 65.5065C135.661 65.2897 138.116 65.7233 138.622 65.0007C138.838 64.6393 138.405 63.9167 137.322 63.3386C136.239 62.6882 134.506 62.2547 132.485 62.3992C130.535 62.5437 128.803 63.2663 127.864 63.989C126.925 64.7116 126.637 65.4342 126.925 65.7956Z" fill="#263238"/>
<path d="M105.988 94.484C105.988 92.8219 104.038 88.8474 102.378 88.6306C97.9737 87.9803 90.0318 88.3416 90.0318 99.5424C90.0318 114.862 105.338 111.755 105.41 111.321C105.41 110.96 105.988 100.265 105.988 94.484Z" fill="#AE7461"/>
<path d="M101.15 105.685C101.078 105.612 100.862 105.902 100.428 106.046C99.9952 106.263 99.201 106.407 98.4068 106.118C96.8185 105.54 95.4467 102.939 95.3745 100.193C95.3745 98.8197 95.6633 97.4467 96.0965 96.3628C96.6019 95.2789 97.3239 94.484 98.118 94.3394C98.9122 94.1227 99.4898 94.6285 99.7064 95.0621C99.923 95.4957 99.7786 95.7847 99.923 95.857C99.9952 95.9292 100.284 95.5679 100.14 94.9898C100.067 94.7008 99.923 94.3394 99.562 94.0504C99.201 93.7613 98.6234 93.6168 98.118 93.6891C96.9629 93.7613 95.8799 94.8453 95.3023 96.0738C94.7247 97.3022 94.3637 98.7475 94.3637 100.337C94.4359 103.445 96.0243 106.335 98.2624 106.985C99.3454 107.275 100.212 106.913 100.717 106.552C101.15 106.046 101.223 105.685 101.15 105.685Z" fill="#6F4439"/>
<path d="M92.8475 105.107C92.8475 105.107 92.0533 105.396 90.8259 106.335C89.6708 107.275 88.0824 109.153 87.577 111.899C87.2882 113.272 87.2882 114.862 87.7214 116.452C88.1546 118.042 89.021 119.632 90.3206 120.932C91.5479 122.305 93.2085 123.389 95.1579 124.04C97.1072 124.69 99.2732 124.69 101.295 124.112C103.316 123.534 105.193 122.378 106.493 120.86C107.865 119.343 108.659 117.464 108.948 115.657C109.453 111.972 108.081 108.575 106.132 106.624C105.121 105.613 103.966 105.034 102.955 104.673C101.945 104.24 101.006 104.095 100.212 104.023C99.4176 103.95 98.84 104.023 98.4068 104.095C98.0458 104.167 97.8292 104.312 97.8292 104.312C97.8292 104.384 98.6234 104.023 100.14 104.24C100.862 104.312 101.8 104.529 102.811 104.962C103.75 105.396 104.905 105.974 105.843 106.913C107.72 108.792 109.02 112.044 108.442 115.585C108.154 117.319 107.359 119.053 106.132 120.499C104.832 121.944 103.1 123.028 101.15 123.606C99.201 124.184 97.1072 124.184 95.3023 123.606C93.4973 123.028 91.9089 121.944 90.6815 120.716C89.4542 119.415 88.5878 117.897 88.1546 116.452C87.7214 114.934 87.6492 113.417 87.938 112.116C88.3712 109.442 89.8152 107.636 90.9703 106.624C92.0533 105.54 92.8475 105.179 92.8475 105.107Z" fill="#E0E0E0"/>
<path d="M129.669 41.3707C119.272 41.3707 108.948 43.3941 99.3454 47.2963C96.4575 48.4525 93.4973 49.97 91.9089 52.5715C90.5372 54.8839 90.3928 57.7744 90.465 60.4482C90.6816 68.9752 94.2915 79.3089 97.6126 87.1133L108.298 93.3279C116.457 91.2323 112.486 77.2132 111.98 70.1314C117.684 67.53 121.51 61.4599 121.51 55.2452C126.203 52.2102 129.308 46.935 129.669 41.3707Z" fill="#263238"/>
<path d="M126.709 37.3239C123.315 37.0349 119.778 38.7692 117.973 41.5874C116.168 44.478 116.096 48.3802 117.828 51.343C114.146 51.7765 111.042 55.1729 110.897 58.9306C110.753 62.6883 113.641 66.2292 117.251 66.9518C115.085 67.8912 113.641 70.2036 113.496 72.5883C113.424 74.973 114.652 77.2854 116.457 78.8029C117.756 79.8869 119.417 80.6095 121.077 80.465C122.738 80.3205 124.398 79.1643 124.832 77.5745C125.265 75.9847 124.254 73.9613 122.593 73.6723C124.904 73.0942 126.203 70.4927 126.059 68.108C125.915 65.7233 124.759 63.6277 123.532 61.6043C125.987 60.2313 126.348 56.1123 124.11 54.378C127.647 53.9444 130.824 51.1984 131.763 47.6575C131.979 46.7904 131.402 45.4897 130.68 45.9955C133.207 45.2006 134.651 42.0933 133.64 39.6363" fill="#263238"/>
<path d="M179.919 71.8656C181.074 65.5065 177.898 60.5203 173.205 56.1123C176.887 49.8254 175.01 40.937 169.089 36.6735C169.739 33.9998 168.656 30.9647 166.49 29.2304C164.324 27.4961 161.148 27.207 158.621 28.5078C156.599 25.9063 154.361 23.1603 151.256 22.0041C148.152 20.8479 143.964 22.0041 143.026 25.1837C139.993 20.3421 132.268 19.5472 128.297 23.5939C124.182 21.6428 118.622 25.545 119.128 30.0976L124.398 37.3239C121.799 38.9859 120.5 42.3823 121.222 45.4174C121.944 48.3801 124.759 50.7648 127.792 51.0539C126.564 54.5225 127.503 58.6415 130.102 61.243C131.329 62.4714 133.929 62.905 134.29 61.243C135.517 62.8328 138.333 61.4598 138.694 59.5087C139.055 57.5576 137.972 55.6787 136.889 54.0167C138.766 54.667 141.148 53.6553 141.87 51.7765C142.665 49.8977 141.726 47.513 139.921 46.6458C141.509 46.7903 143.17 46.8626 144.758 47.0071C144.397 49.4641 144.903 52.0656 146.563 53.8721C148.224 55.6787 151.256 56.2568 153.206 54.8116C151.978 59.5087 156.382 64.7839 161.22 64.3503C161.22 64.3503 163.674 65.2897 164.902 62.3992C166.129 59.5087 164.902 55.8955 164.902 55.8955C164.902 55.8955 165.913 64.3503 169.523 65.2174C170.822 65.5788 171.689 67.2408 172.194 69.2642C173.277 72.4437 177.176 73.889 179.919 71.8656Z" fill="#263238"/>
<path d="M111.403 89.1365C114.291 87.6912 114.94 83.1386 112.63 80.9708C114.796 78.4415 113.785 73.9612 110.681 72.6605C112.63 69.9145 112.919 66.1568 111.33 63.194C109.742 60.3035 106.132 58.5692 102.883 59.3641C99.6342 60.159 97.2516 63.5554 97.757 66.8072L99.201 81.7656C98.3346 82.6328 98.1902 84.2226 98.9844 85.162C99.7786 86.1014 101.295 86.3905 102.378 85.6679C100.862 87.4744 100.356 90.1482 101.15 92.3883C101.439 93.1832 101.8 93.9058 102.522 94.2672C102.955 94.484 103.461 94.484 103.894 94.3394C102.739 95.7847 102.883 98.2416 104.472 99.3978C106.276 100.699 109.237 99.7592 109.886 97.5913C110.825 98.3862 112.341 98.0971 113.135 97.23C113.93 96.3628 114.218 95.0621 114.291 93.9058C114.291 91.9547 113.424 89.5701 111.403 89.1365Z" fill="#263238"/>
<path d="M174.576 78.8752C174.576 78.8752 175.01 78.9474 175.732 78.9474C176.526 78.9474 177.681 78.7306 178.908 77.9357C179.558 77.5744 180.136 76.9963 180.641 76.2737C181.147 75.5511 181.508 74.6116 181.58 73.5277C181.652 72.516 181.435 71.3598 180.858 70.2759C180.28 69.2642 179.414 68.2525 178.186 67.6744L177.97 67.6021L178.114 67.4576C180.064 66.0123 180.93 62.905 179.919 60.2313C179.486 58.8583 178.475 57.6298 177.176 56.9794C176.526 56.6181 175.732 56.4736 175.01 56.5459C174.649 56.6181 174.288 56.6904 173.927 56.9072C173.638 57.124 173.349 57.413 173.133 57.7743C172.772 58.4247 172.772 59.3641 173.277 59.87C173.855 60.3758 174.721 60.4481 175.515 60.2313C176.309 60.0145 176.887 59.2919 177.176 58.497C177.464 57.7021 177.464 56.8349 177.392 55.9678C177.176 54.2334 176.454 52.4991 175.298 51.0539C174.721 50.3312 173.999 49.7531 173.133 49.3918C172.266 49.0305 171.328 49.0305 170.461 49.3918L169.956 49.6086L170.172 49.1028C171.472 46.6458 171.833 43.4662 170.678 40.7925C170.245 39.8531 169.595 38.9137 168.801 38.2633C168.006 37.6129 166.996 37.1794 165.985 36.8903C163.963 36.3845 161.725 36.8903 160.353 38.3356L160.065 38.1188C160.787 37.0348 160.642 35.5173 160.065 34.3611C159.415 33.2049 158.404 32.2655 157.177 31.9042C155.949 31.5428 154.65 31.5428 153.422 31.8319C152.195 32.1209 151.04 32.5545 149.957 33.1326L149.668 33.2772V32.9881C149.812 31.2538 149.235 29.5917 148.152 28.291C147.141 26.9903 145.625 26.1954 144.109 26.0508C142.592 25.9063 141.076 26.3399 139.921 27.1348C138.766 27.9297 137.827 29.0136 137.394 30.2421L137.322 30.4589L137.178 30.3144C135.3 28.291 132.846 27.3516 130.68 27.1348C128.514 26.918 126.637 27.3516 125.265 27.8574C123.821 28.4355 122.882 29.1582 122.305 29.664C122.016 29.953 121.799 30.1698 121.655 30.3144C121.51 30.4589 121.438 30.5312 121.438 30.5312C121.438 30.5312 121.727 30.1698 122.232 29.5917C122.81 29.0859 123.749 28.291 125.193 27.7129C126.637 27.1348 128.514 26.7012 130.68 26.918C131.763 26.9903 132.918 27.2793 134.073 27.7852C135.228 28.291 136.383 29.0136 137.322 30.0976L137.105 30.1698C137.539 28.8691 138.477 27.7129 139.705 26.918C140.932 26.1231 142.52 25.6173 144.109 25.7618C147.358 26.0508 150.246 29.3027 149.957 33.0604L149.74 32.9158C150.823 32.3377 152.05 31.9042 153.278 31.6151C154.577 31.326 155.949 31.326 157.249 31.6874C158.548 32.0487 159.704 33.0604 160.353 34.2888C160.714 34.9392 160.931 35.5896 160.931 36.3122C160.931 37.0348 160.787 37.7575 160.353 38.4078L160.065 38.191C161.509 36.6013 163.963 36.0954 166.057 36.6013C167.14 36.818 168.151 37.3239 169.017 38.0465C169.884 38.7691 170.533 39.7086 170.967 40.7203C172.194 43.6108 171.761 46.8626 170.461 49.3918L170.245 49.1028C171.183 48.6692 172.266 48.7415 173.205 49.1028C174.143 49.4641 174.865 50.1145 175.515 50.8371C176.742 52.2823 177.464 54.0889 177.681 55.8955C177.753 56.8349 177.753 57.7743 177.464 58.6415C177.32 59.0751 177.103 59.5087 176.742 59.7977C176.454 60.159 176.02 60.3758 175.587 60.5203C174.721 60.8094 173.71 60.7371 172.988 60.0868C172.627 59.7254 172.483 59.2919 172.411 58.8583C172.411 58.4247 172.483 57.9911 172.699 57.5575C172.916 57.1962 173.205 56.8349 173.566 56.6181C173.927 56.4013 174.36 56.2568 174.793 56.1846C175.659 56.1123 176.454 56.3291 177.176 56.6904C178.62 57.413 179.63 58.7138 180.064 60.159C181.074 62.9773 180.136 66.1569 178.114 67.6744V67.4576C179.342 68.0357 180.28 69.0474 180.858 70.1313C181.435 71.2153 181.652 72.3715 181.58 73.4554C181.508 74.5394 181.074 75.4788 180.569 76.2737C180.064 76.9963 179.414 77.5744 178.764 78.008C177.464 78.8029 176.237 78.9474 175.515 78.9474C174.937 79.0197 174.576 78.8752 174.576 78.8752Z" fill="#455A64"/>
<path d="M79.0575 108.937C79.0575 108.937 78.6244 108.937 77.9024 108.72C77.1804 108.503 76.0252 107.925 75.0144 106.769C74.509 106.191 74.0036 105.468 73.7148 104.601C73.426 103.734 73.2816 102.65 73.4982 101.566C73.7148 100.482 74.2202 99.3256 75.0144 98.3862C75.8086 97.4468 76.9638 96.5796 78.3356 96.2906L78.4078 96.5074C77.758 96.8687 76.8916 96.8687 76.1696 96.5796C75.4476 96.2906 74.7256 95.857 74.2202 95.2066C73.2094 93.8336 73.1372 92.0271 73.426 90.2928C73.5704 89.4256 73.787 88.5584 74.0758 87.6913C74.3646 86.8241 74.7256 85.957 75.3032 85.1621C75.8808 84.3672 76.675 83.7168 77.6136 83.3555C78.5522 82.9942 79.7073 82.9942 80.5737 83.5723L80.7181 83.7168L80.5737 83.8613C79.2019 85.1621 77.1082 85.3789 75.3754 84.6562C74.509 84.2949 73.7148 83.7168 73.1372 82.9219C72.5597 82.127 72.2709 81.1876 72.1265 80.1759C71.9099 78.2248 72.6319 76.1292 74.2202 74.7562C75.7364 73.3832 77.8302 72.6606 79.9239 72.6606H80.2127L80.1405 72.8773C79.9961 73.2387 79.7073 73.6 79.2741 73.7445C78.9131 73.889 78.48 73.889 78.119 73.8168C77.3248 73.6722 76.675 73.2387 76.2418 72.5883C75.8086 71.8657 75.8086 71.0708 75.953 70.2759C76.0974 69.481 76.4584 68.8306 76.8194 68.1802C77.1804 67.5299 77.6136 66.8795 78.0468 66.2291C78.48 65.5788 78.9131 65.0007 79.4907 64.4226C80.5015 63.2664 82.0177 62.3269 83.6783 62.3269C84.3281 62.3269 84.9778 62.4715 85.4832 62.8328L85.9886 63.1218L85.3388 63.1941C83.2451 63.3386 81.2235 62.1824 79.9961 60.5204C79.4185 59.6532 79.0575 58.7138 78.9853 57.7021C78.9131 56.6904 79.2019 55.6787 79.5629 54.7393C80.4293 52.9327 82.1621 51.5597 84.1115 51.3429C85.1222 51.2707 86.0608 51.4875 86.9272 51.9933C87.3604 52.2824 87.7214 52.5714 87.938 53.005C88.2268 53.4386 88.299 53.9444 88.299 54.4503V54.5948L88.1546 54.667C87.5048 54.8838 86.855 54.8116 86.2774 54.4503C85.6998 54.1612 85.2666 53.6554 84.9056 53.1495C84.2558 52.1378 84.0393 50.7648 84.4724 49.6086C84.9056 48.4524 85.6998 47.513 86.5662 46.7904C87.4326 46.0677 88.4434 45.4896 89.382 44.9838L89.3098 45.1283C88.9488 43.0327 89.4542 40.9371 90.4649 39.275C91.4757 37.613 92.9919 36.3122 94.7247 35.7341C96.4574 35.156 98.2624 35.156 99.8508 35.5896C101.439 36.0232 102.883 36.9626 103.894 38.0465L103.677 38.1188C103.677 36.6013 104.183 35.156 104.905 33.9998C105.627 32.8436 106.565 31.9042 107.576 31.2538C108.587 30.6034 109.67 30.2421 110.681 30.1699C111.691 30.0253 112.63 30.0976 113.424 30.3144C115.085 30.6757 116.168 31.3261 116.817 31.8319C117.467 32.3377 117.756 32.6991 117.756 32.6991C117.756 32.6991 117.684 32.6268 117.539 32.4823C117.395 32.3377 117.106 32.121 116.817 31.8319C116.168 31.3261 115.013 30.6757 113.424 30.3866C112.63 30.2421 111.691 30.1699 110.681 30.3144C109.67 30.4589 108.659 30.8202 107.648 31.4706C106.637 32.121 105.771 32.9881 105.049 34.1443C104.327 35.3005 103.894 36.6735 103.894 38.1188V38.4078L103.677 38.1911C102.667 37.1071 101.367 36.24 99.7786 35.8064C98.1902 35.3728 96.4574 35.3728 94.7969 35.9509C93.1363 36.529 91.6201 37.7575 90.6815 39.4195C89.743 41.0093 89.2376 43.105 89.5986 45.0561V45.2006L89.5264 45.2728C88.5878 45.7787 87.6492 46.3568 86.7828 47.0794C85.9164 47.802 85.1944 48.6692 84.8334 49.7532C84.4724 50.7648 84.6168 51.9933 85.2666 52.9327C85.5554 53.4386 85.9886 53.7999 86.494 54.0889C86.9994 54.378 87.577 54.4503 88.0824 54.2335L87.938 54.378C88.0102 53.5108 87.5048 52.7159 86.7106 52.2824C85.9886 51.7765 85.05 51.5597 84.1837 51.632C82.3787 51.8488 80.7181 53.1495 79.9239 54.8116C79.4907 55.6787 79.2741 56.6181 79.3463 57.5576C79.4185 58.497 79.7795 59.4364 80.2849 60.2313C81.3679 61.8211 83.3173 62.905 85.2666 62.7605L85.1944 63.1218C84.689 62.8328 84.1115 62.6883 83.5339 62.6883C82.8119 62.6883 82.0177 62.905 81.3679 63.2664C80.7181 63.6277 80.1405 64.1335 79.6351 64.6394C78.6244 65.7233 77.8302 67.0963 77.036 68.3248C76.675 68.9751 76.3862 69.6255 76.2418 70.3481C76.0974 70.9985 76.0974 71.7934 76.4584 72.3715C76.8194 72.9496 77.4692 73.3109 78.119 73.4554C78.7687 73.6 79.4907 73.3832 79.7073 72.7328L79.8517 72.9496C77.8302 72.8773 75.8086 73.6 74.3646 74.9007C72.9207 76.2014 72.1987 78.1526 72.4153 80.0314C72.4875 80.9708 72.8485 81.838 73.3538 82.6329C73.8592 83.3555 74.6534 83.9336 75.4476 84.2949C77.1082 84.9453 79.0575 84.7285 80.2849 83.5723V83.8613C79.4907 83.3555 78.48 83.3555 77.5414 83.6445C76.675 83.9336 75.8808 84.584 75.3754 85.3066C74.87 86.0292 74.4368 86.8964 74.2202 87.7635C73.9314 88.6307 73.7148 89.4979 73.5704 90.2928C73.2816 91.9548 73.3538 93.7614 74.2924 94.9899C75.231 96.2183 76.8916 96.8687 78.119 96.2906L78.1912 96.5074C76.8916 96.8687 75.7364 97.5913 74.9422 98.5307C74.148 99.4702 73.6426 100.554 73.426 101.638C73.2094 102.722 73.3538 103.734 73.6426 104.601C73.9314 105.468 74.3646 106.191 74.87 106.769C75.8808 107.925 76.9638 108.431 77.6858 108.72C78.6243 108.937 79.0575 108.937 79.0575 108.937Z" fill="#455A64"/>
<path d="M53.9324 101.277C53.9324 101.277 53.788 101.349 53.5714 101.349C53.427 101.421 53.2826 101.421 53.1382 101.421C52.9938 101.421 52.7772 101.493 52.5606 101.421C51.6221 101.421 50.1781 100.988 48.9507 99.6869C48.3731 99.0365 47.7955 98.1694 47.5067 97.1577C47.2179 96.0737 47.1457 94.9175 47.3623 93.6168C47.5789 92.3883 48.0843 91.0876 48.8063 89.7869C49.1673 89.1365 49.5283 88.5584 50.0337 87.908C50.4669 87.3299 51.1167 86.6795 52.0552 86.6073V86.8963C51.2611 86.9686 50.3947 86.7518 49.7449 86.246C49.0951 85.7401 48.5175 85.0897 48.2287 84.2949C47.5789 82.6328 47.9399 80.754 48.6619 79.0919C49.3839 77.4299 50.3225 75.7678 51.7664 74.3948C52.4884 73.7444 53.2826 73.1663 54.2934 72.805C55.232 72.4437 56.3872 72.516 57.3258 72.9495L57.1814 73.2386C56.0984 72.6605 55.4486 71.432 55.1598 70.2758C54.871 69.0473 54.9432 67.8189 55.232 66.5904C55.5208 65.3619 55.8818 64.1334 56.5316 62.9772C57.1814 61.821 58.0477 60.8093 59.2751 60.2312C60.5025 59.7254 62.0187 59.6531 63.246 60.3758C63.8236 60.7371 64.329 61.3152 64.5456 61.9656C64.6178 62.3269 64.69 62.6882 64.5456 63.0495C64.4012 63.4108 64.1846 63.6999 63.8236 63.9167C63.1738 64.278 62.3075 64.2057 61.7299 63.7721C61.1523 63.3386 60.7913 62.6882 60.5747 61.9656C60.2137 60.5926 60.2137 59.1473 60.5025 57.7743C61.4411 53.7998 64.8344 50.4757 68.8053 50.0421V50.4035C67.939 50.1867 67.217 49.6086 66.7838 48.8859C66.3506 48.1633 66.134 47.2961 66.134 46.429C66.0618 44.7669 66.7116 43.0326 68.0112 42.0209C69.2385 40.937 70.7547 40.3589 72.2709 39.9976C73.7871 39.6363 75.3032 39.564 76.7472 39.4195L76.6028 39.7085C75.5198 37.8297 75.6642 35.5173 76.4584 33.7107C77.2526 31.9041 78.6966 30.3866 80.4293 29.6639C82.1621 28.9413 84.0393 28.7968 85.6998 29.0136C87.4326 29.2304 88.9488 29.8807 90.3206 30.6756H90.1762C92.4865 28.4355 95.2301 27.2793 97.757 26.8457C100.212 26.3398 102.45 26.5566 104.183 26.918C105.915 27.2793 107.143 27.9296 107.937 28.3632C108.37 28.58 108.659 28.7968 108.803 28.9413C109.02 29.0858 109.092 29.1581 109.092 29.1581C109.092 29.1581 108.948 29.0858 108.803 29.0136C108.587 28.8691 108.298 28.7245 107.937 28.5077C107.143 28.0742 105.915 27.4961 104.183 27.1347C102.45 26.7734 100.284 26.6289 97.8292 27.0625C95.3745 27.5683 92.7031 28.6523 90.3928 30.8924L90.3206 30.9647L90.2484 30.8924C88.9488 30.0975 87.3604 29.5194 85.6998 29.3026C84.0393 29.0858 82.2343 29.2304 80.5737 29.953C78.9132 30.6756 77.5414 32.0486 76.7472 33.8552C75.953 35.5895 75.8808 37.7574 76.8916 39.564L77.036 39.7808H76.7472C75.3032 39.853 73.7871 39.9976 72.3431 40.3589C70.8991 40.7202 69.3829 41.2983 68.2278 42.31C67.0726 43.3217 66.4228 44.9115 66.495 46.429C66.495 47.2239 66.7116 48.0188 67.1448 48.6691C67.578 49.3195 68.2278 49.8254 68.9497 50.0421L69.9605 50.2589L68.8775 50.4035C65.1232 50.837 61.8021 54.0166 60.9357 57.8466C60.6469 59.1473 60.6469 60.5926 61.0079 61.821C61.2245 62.4714 61.5133 63.0495 62.0187 63.4108C62.5241 63.7721 63.246 63.8444 63.7514 63.5553C64.329 63.2663 64.4734 62.6159 64.2568 62.0378C64.1124 61.4597 63.607 60.9539 63.1016 60.6648C62.0187 60.0144 60.6469 60.0867 59.4917 60.5203C58.3365 61.0261 57.4702 62.0378 56.8926 63.1218C56.315 64.2057 55.8818 65.4342 55.6652 66.5904C55.4486 67.7466 55.3764 68.9751 55.593 70.1313C55.8096 71.2875 56.4594 72.2992 57.3979 72.8773L57.2536 73.1663C56.3872 72.7328 55.3764 72.7328 54.4378 73.0218C53.4992 73.3109 52.705 73.889 52.0552 74.5393C50.6835 75.8401 49.6727 77.5021 49.0229 79.0919C48.3731 80.6817 48.0121 82.4883 48.5897 84.0781C49.1673 85.5956 50.6113 86.7518 52.1274 86.535V86.8241C51.4055 86.8963 50.7557 87.4022 50.3225 87.9803C49.8893 88.5584 49.4561 89.2087 49.0951 89.7869C48.3731 91.0153 47.9399 92.3161 47.6511 93.5445C47.4345 94.773 47.4345 95.9292 47.7233 97.0132C48.0121 98.0248 48.5175 98.892 49.1673 99.5424C50.3947 100.843 51.7665 101.277 52.6328 101.349C53.4992 101.421 53.9324 101.204 53.9324 101.277Z" fill="#455A64"/>
<path d="M106.06 89.3533C106.06 89.3533 105.771 89.5701 105.121 89.7869C104.472 89.9314 103.461 90.0037 102.306 89.4978C101.728 89.2088 101.15 88.8474 100.645 88.2693C100.14 87.6912 99.7786 86.8963 99.562 86.1014C99.201 84.3671 99.7064 82.2715 100.934 80.4649L101.006 80.6817C99.6342 80.2481 98.3347 79.381 97.4683 78.1525C96.5297 76.924 95.9521 75.262 96.0965 73.5277C96.2409 70.059 99.7064 66.8795 103.605 67.1685V67.5298C103.244 67.6021 102.883 67.5298 102.594 67.3853C101.945 67.0963 101.439 66.5181 101.15 65.8678C100.934 65.2174 100.862 64.4948 100.934 63.8444C101.078 62.5437 101.223 61.2429 101.728 60.0867C101.945 59.5086 102.306 58.9305 102.739 58.4969C103.172 58.0634 103.75 57.702 104.327 57.4853C104.905 57.2685 105.555 57.2685 106.132 57.413C106.71 57.5575 107.287 57.9188 107.648 58.4247L108.009 58.9305L107.504 58.7137C106.06 58.1356 104.977 57.1239 104.255 55.8955C103.894 55.3174 103.605 54.667 103.389 54.0889C103.172 53.4385 103.1 52.7882 103.1 52.2101C103.1 50.9816 103.389 49.8254 103.966 48.8859C104.472 47.9465 105.194 47.2239 105.916 46.7181C107.359 45.6341 108.803 45.3451 109.742 45.2728C110.681 45.2005 111.186 45.3451 111.186 45.3451C111.186 45.4173 110.681 45.2728 109.742 45.3451C108.803 45.4173 107.432 45.7786 106.06 46.8626C105.338 47.3684 104.688 48.0911 104.183 49.0305C103.677 49.8976 103.389 51.0538 103.389 52.2101C103.389 52.7882 103.533 53.4385 103.677 54.0166C103.894 54.5947 104.111 55.2451 104.472 55.7509C105.194 56.9072 106.277 57.8466 107.576 58.4247L107.359 58.7137C106.782 57.8466 105.482 57.6298 104.472 57.9911C103.389 58.2802 102.594 59.2918 102.089 60.3758C101.656 61.4597 101.439 62.7605 101.295 63.9889C101.223 64.6393 101.295 65.2897 101.511 65.8678C101.728 66.4459 102.161 66.9517 102.739 67.1685C103.028 67.313 103.316 67.313 103.605 67.313V67.6744C99.9952 67.3853 96.6741 70.4926 96.5297 73.6722C96.4575 75.262 96.9629 76.8518 97.8293 78.0802C98.6956 79.3087 99.923 80.1759 101.223 80.5372L101.439 80.6095L101.295 80.754C100.067 82.416 99.562 84.4394 99.923 86.1014C100.212 87.7635 101.367 88.9197 102.45 89.4256C103.533 89.9314 104.544 89.9314 105.194 89.7869C105.771 89.5701 106.06 89.3533 106.06 89.3533Z" fill="#455A64"/>
<path d="M141.943 45.5619C141.87 45.5619 141.87 44.9115 141.221 44.1166C140.571 43.3217 139.199 42.5269 137.322 42.3101C136.383 42.1655 135.373 42.1655 134.29 42.3101C133.207 42.4546 132.051 42.8159 131.113 43.5385C130.174 44.2612 129.452 45.4896 129.452 46.7181C129.452 47.3685 129.741 48.0188 130.174 48.4524C130.607 48.886 131.329 49.1028 131.979 48.9583C132.629 48.8137 133.207 48.3802 133.568 47.8743C133.929 47.2962 134.145 46.7181 134.29 46.0677C134.506 44.767 134.29 43.4663 133.784 42.3823C133.279 41.2984 132.485 40.359 131.546 39.7809C130.68 39.2027 129.669 38.9137 128.73 38.8414C126.853 38.6969 125.409 39.3473 124.543 39.9254C123.676 40.5035 123.315 41.0093 123.315 40.9371C123.315 40.9371 123.604 40.4312 124.471 39.7809C125.337 39.2027 126.781 38.4801 128.73 38.5524C129.669 38.6246 130.752 38.9137 131.69 39.4918C132.629 40.0699 133.495 41.0816 134.073 42.1655C134.651 43.3217 134.867 44.6947 134.651 46.0677C134.506 46.7904 134.29 47.4407 133.856 48.0911C133.423 48.6692 132.773 49.1751 132.051 49.3196C131.329 49.5364 130.463 49.3196 129.885 48.7415C129.38 48.1634 129.091 47.4407 129.091 46.7181C129.091 45.2728 129.885 43.9721 130.896 43.2495C131.907 42.4546 133.134 42.0933 134.217 41.9487C135.373 41.8042 136.383 41.8765 137.322 42.021C139.199 42.3101 140.643 43.105 141.293 43.9721C141.654 44.4057 141.798 44.767 141.87 45.0561C141.943 45.4174 142.015 45.5619 141.943 45.5619Z" fill="#455A64"/>
<path d="M187.717 45.6341C187.717 45.6341 187.717 45.2728 187.717 44.4779C187.644 43.7553 187.5 42.6714 186.85 41.3706C186.2 40.1421 185.045 38.7691 183.24 37.9743C181.435 37.1794 178.981 37.0348 176.815 38.191L176.598 38.3356V38.1188C176.742 35.8786 177.031 33.3494 176.381 30.7479C176.093 29.4472 175.515 28.2187 174.649 27.1348C173.782 26.0508 172.555 25.1837 171.111 24.8946C170.389 24.7501 169.667 24.8224 169.017 25.1114C168.367 25.4005 167.862 26.0508 167.718 26.7012C167.645 27.0625 167.645 27.4238 167.79 27.7852C167.934 28.0742 168.151 28.3633 168.512 28.5801C169.162 28.9414 170.028 28.8691 170.606 28.4355C171.255 28.0742 171.616 27.2793 171.616 26.5567C171.616 25.7618 171.328 24.9669 170.894 24.3888C169.884 23.0881 168.151 22.5822 166.562 22.3654C163.386 22.0041 160.137 22.7267 157.465 24.2443L157.104 24.4611L157.249 24.0275C157.393 23.5216 157.465 22.9435 157.465 22.3654C157.465 21.7873 157.321 21.2815 157.177 20.7756C156.816 19.764 156.238 18.8245 155.516 18.0296C154.072 16.4399 151.906 15.7172 149.957 15.645C147.935 15.5004 145.986 15.8617 144.253 16.5121C143.387 16.8734 142.665 17.3793 142.159 18.0296C141.87 18.391 141.726 18.7523 141.654 19.1136C141.582 19.4749 141.654 19.9085 141.87 20.2698L142.448 21.2092L141.654 20.4143C139.777 18.4632 137.322 17.5961 135.228 17.3793C133.062 17.1625 131.185 17.5238 129.813 18.0296C128.369 18.5355 127.431 19.2581 126.781 19.764C126.492 20.053 126.276 20.2698 126.131 20.4143C125.987 20.5589 125.915 20.6311 125.915 20.6311C125.915 20.6311 125.987 20.5589 126.131 20.4143C126.276 20.2698 126.492 20.053 126.781 19.764C127.359 19.2581 128.369 18.5355 129.813 17.9574C131.257 17.3793 133.134 16.9457 135.3 17.1625C137.466 17.3793 139.993 18.2464 141.943 20.1975L141.726 20.3421C141.509 19.9807 141.365 19.4749 141.509 19.0413C141.582 18.6077 141.798 18.1742 142.087 17.8129C142.665 17.0902 143.459 16.5121 144.325 16.1508C146.13 15.5004 148.08 15.0669 150.173 15.2114C152.195 15.3559 154.433 16.0785 155.949 17.7406C156.743 18.5355 157.321 19.5472 157.682 20.6311C157.826 21.2092 157.971 21.7873 157.971 22.3654C157.971 22.9435 157.899 23.5216 157.754 24.0997L157.465 23.883C160.209 22.2932 163.458 21.5705 166.779 22.0041C167.645 22.0764 168.512 22.2932 169.306 22.5822C170.1 22.9435 170.822 23.3771 171.4 24.0997C171.905 24.8224 172.266 25.6173 172.194 26.5567C172.194 27.4238 171.761 28.3633 170.967 28.7968C170.245 29.2304 169.234 29.3027 168.512 28.9414C168.151 28.7246 167.79 28.3633 167.645 28.0019C167.501 27.5684 167.429 27.1348 167.573 26.7735C167.718 25.9786 168.295 25.256 169.089 24.8946C169.811 24.5333 170.678 24.5333 171.4 24.6778C172.916 24.9669 174.216 25.9063 175.082 27.0625C176.02 28.2187 176.598 29.5195 176.887 30.8202C177.464 33.4939 177.248 36.0232 177.031 38.2633L176.815 38.1188C179.125 36.9626 181.652 37.1071 183.457 37.902C185.334 38.6969 186.489 40.2144 187.139 41.4429C187.789 42.7436 187.933 43.8276 187.933 44.5502C187.789 45.2006 187.717 45.6341 187.717 45.6341Z" fill="#455A64"/>
<path d="M195.298 88.0525C195.298 88.0525 195.586 88.197 196.019 88.7029C196.453 89.2087 196.958 90.0036 197.175 91.1598C197.391 92.316 197.319 93.9781 196.308 95.3511C195.298 96.7241 193.348 97.8803 191.11 97.5912L190.749 97.519L191.038 97.3022C191.615 96.9408 192.41 96.8686 193.132 97.0854C193.854 97.3022 194.503 97.7357 194.937 98.3861C195.37 99.0365 195.586 99.8314 195.586 100.626C195.586 101.421 195.37 102.288 195.081 103.011C193.781 106.118 190.316 108.503 186.417 108.358V107.997C187.067 107.997 187.789 108.214 188.294 108.647C188.8 109.081 189.233 109.659 189.522 110.237C190.099 111.538 189.883 112.983 189.449 114.284C188.944 115.585 188.294 116.813 187.5 117.969C186.706 119.126 185.839 120.282 184.829 121.294C184.035 122.016 183.096 122.667 182.013 123.1C181.002 123.461 179.847 123.606 178.764 123.317L178.981 123.028C180.28 124.907 181.147 127.075 181.219 129.242C181.219 130.326 181.074 131.41 180.569 132.422C180.136 133.434 179.342 134.229 178.475 134.734C177.609 135.313 176.598 135.674 175.587 135.674C174.576 135.746 173.566 135.457 172.844 134.807C172.122 134.229 171.472 133.289 171.689 132.35C171.761 131.844 172.122 131.483 172.555 131.266C172.988 131.049 173.566 131.049 173.927 131.338L173.999 131.41V131.483C173.999 133 173.566 134.373 172.844 135.529C172.122 136.686 171.111 137.553 170.1 138.131C169.017 138.709 167.934 138.926 166.923 138.926C165.913 138.926 164.974 138.709 164.18 138.42C162.591 137.77 161.653 136.83 161.075 136.107C160.57 135.385 160.353 134.951 160.353 134.951C160.353 134.951 160.57 135.385 161.148 136.035C161.725 136.686 162.664 137.625 164.252 138.203C165.046 138.492 165.913 138.709 166.923 138.709C167.934 138.709 169.017 138.492 170.028 137.914C171.039 137.336 171.977 136.469 172.699 135.385C173.349 134.301 173.854 132.928 173.782 131.483L173.854 131.627C173.277 131.121 172.266 131.699 172.122 132.494C171.977 133.289 172.483 134.156 173.205 134.662C173.927 135.24 174.865 135.457 175.732 135.385C176.67 135.385 177.609 135.023 178.403 134.518C179.197 134.012 179.919 133.217 180.352 132.35C180.786 131.41 180.93 130.399 180.93 129.315C180.858 127.219 179.991 125.123 178.764 123.245L178.475 122.811L178.981 122.956C179.991 123.172 181.002 123.1 182.013 122.739C183.024 122.377 183.89 121.727 184.684 121.004C185.695 120.065 186.561 118.909 187.356 117.753C188.078 116.596 188.8 115.368 189.233 114.139C189.666 112.911 189.883 111.538 189.305 110.382C188.8 109.226 187.789 108.286 186.561 108.358V107.997C190.244 108.142 193.637 105.829 194.864 102.866C195.514 101.421 195.586 99.6868 194.792 98.5306C193.998 97.3744 192.337 96.7963 191.254 97.519L191.182 97.3022C193.276 97.5912 195.225 96.5073 196.164 95.2065C197.175 93.8335 197.319 92.316 197.102 91.1598C196.886 90.0036 196.38 89.2087 196.019 88.7029C195.586 88.2693 195.298 88.0525 195.298 88.0525Z" fill="#455A64"/>
<path d="M193.637 71.7211C193.637 71.7211 193.709 71.6489 193.926 71.4321C194.142 71.2153 194.431 70.9985 194.72 70.6372C195.37 69.9868 196.453 68.9751 197.175 67.4576C197.536 66.735 197.824 65.7956 197.824 64.7839C197.824 63.7722 197.463 62.7605 196.741 61.8934C196.019 61.0262 195.153 60.3036 194.07 59.7255C192.987 59.1474 191.76 58.786 190.532 59.0028C190.316 59.0028 190.099 59.0751 189.955 59.1474L189.883 58.786C191.11 58.5693 191.976 57.6298 192.482 56.5459C192.987 55.4619 192.987 54.3057 192.915 53.2218C192.698 51.0539 192.121 49.1028 191.11 47.802C190.099 46.5013 188.8 45.9955 187.861 45.9232C186.922 45.8509 186.489 46.14 186.489 46.0677C186.489 46.0677 186.634 45.9955 186.85 45.9232C187.067 45.8509 187.428 45.7787 187.933 45.7787C188.872 45.7787 190.316 46.2845 191.327 47.5853C192.41 48.9583 192.987 50.9094 193.204 53.0773C193.348 54.1612 193.276 55.3897 192.771 56.5459C192.265 57.6298 191.254 58.7138 189.955 59.0028L189.883 58.6415C190.099 58.5693 190.316 58.497 190.532 58.497C191.904 58.2802 193.204 58.6415 194.359 59.2196C195.442 59.7977 196.453 60.5926 197.175 61.532C197.897 62.4715 198.33 63.5554 198.258 64.6394C198.258 65.651 197.969 66.5905 197.536 67.3854C196.741 68.9751 195.659 69.9146 194.937 70.5649C194.576 70.854 194.287 71.143 194.07 71.2876C193.781 71.6489 193.637 71.7211 193.637 71.7211Z" fill="#455A64"/>
<path d="M23.7534 137.119C28.0853 133.867 32.5616 130.471 35.5217 125.918C36.7491 124.04 37.6877 121.944 39.3483 120.426C40.8645 118.981 42.886 118.186 44.5466 116.885C46.6404 115.223 48.0121 112.766 49.3839 110.382C50.8279 107.853 52.1997 105.323 53.6436 102.794C56.1706 104.601 58.7697 106.407 61.2967 108.286C57.6868 109.948 54.0046 111.61 51.1889 114.356C48.0843 117.391 46.0628 121.583 42.3806 124.04C41.7308 124.473 41.081 124.834 40.5035 125.268C39.7815 125.846 39.2039 126.641 38.5541 127.364C35.3774 131.194 31.4064 134.445 27.0023 136.758" fill="#263238"/>
<path d="M67.2892 106.841C67.2892 106.841 67.2892 106.985 67.1448 107.275C67.0726 107.564 66.856 107.997 66.6394 108.575C66.4228 109.153 66.0618 109.804 65.6286 110.454C65.1232 111.177 64.4734 111.899 63.5349 112.405C62.5241 112.911 61.3689 113.056 60.1415 113.2C59.5639 113.272 58.9141 113.489 58.3365 113.778C57.759 114.067 57.3258 114.573 56.9648 115.151C56.6038 115.729 56.315 116.38 55.8818 117.03C55.6652 117.319 55.4486 117.608 55.1598 117.969C54.871 118.259 54.6544 118.548 54.2934 118.764C53.066 119.776 51.5499 120.354 50.0337 120.86C48.5175 121.366 46.9291 121.727 45.5574 122.233C44.1134 122.739 42.886 123.461 41.803 124.401C40.7201 125.268 39.8537 126.28 39.0595 127.219C38.2653 128.159 37.5433 129.098 36.8213 129.893C36.0993 130.688 35.4496 131.338 34.7998 131.916C34.4388 132.205 34.15 132.422 33.8612 132.639C33.5724 132.856 33.2836 133 32.9948 133.145C32.706 133.289 32.4894 133.362 32.2728 133.506C32.0562 133.578 31.8396 133.651 31.6952 133.723C31.4064 133.795 31.262 133.867 31.262 133.867C31.262 133.867 31.4064 133.795 31.6952 133.651C31.8396 133.578 31.984 133.506 32.2006 133.434C32.4172 133.289 32.6338 133.217 32.9226 133.072C33.2114 132.928 33.428 132.711 33.7168 132.567C34.0056 132.35 34.2944 132.133 34.6554 131.844C35.3052 131.266 35.9549 130.616 36.6047 129.821C37.2545 129.026 37.9765 128.086 38.7707 127.147C39.5649 126.207 40.4313 125.196 41.5142 124.256C42.5972 123.317 43.8968 122.594 45.3408 122.016C46.7847 121.438 48.3009 121.077 49.8171 120.571C51.3333 120.065 52.8494 119.487 54.0046 118.548C54.2934 118.331 54.5822 118.042 54.7988 117.825C55.0154 117.536 55.232 117.247 55.4486 116.958C55.8096 116.38 56.1706 115.729 56.5316 115.079C56.8926 114.501 57.4702 113.923 58.0478 113.634C58.6975 113.345 59.3473 113.2 59.9249 113.056C61.1523 112.839 62.3075 112.767 63.2461 112.261C64.1846 111.827 64.8344 111.104 65.3398 110.454C65.8452 109.804 66.134 109.153 66.4228 108.575C66.7116 108.069 66.856 107.636 67.0004 107.347C67.217 106.985 67.2892 106.841 67.2892 106.841Z" fill="#455A64"/>
<path d="M35.8105 125.991C35.8105 125.991 35.7383 125.846 35.6662 125.629C35.594 125.413 35.4496 124.979 35.5218 124.473C35.5218 123.461 36.1715 122.016 37.5433 120.788C38.9151 119.487 41.0089 118.909 43.1026 117.969C44.1856 117.464 45.1964 116.886 46.0628 115.946C46.9291 115.007 47.5067 113.85 48.5175 112.839C49.4561 111.827 50.7557 111.249 51.7665 110.526C52.7772 109.804 53.7158 109.009 54.4378 108.142C55.954 106.335 56.8926 104.456 57.3258 102.722C57.8312 101.06 57.9034 99.6147 57.9034 98.603C57.9034 97.5913 57.8312 97.0854 57.8312 97.0854C57.8312 97.0854 57.9034 97.23 57.9034 97.4468C57.9756 97.7358 57.9756 98.0971 58.0478 98.603C58.12 99.6147 58.0478 101.06 57.5424 102.794C57.037 104.529 56.1706 106.48 54.6544 108.358C53.8602 109.298 52.9938 110.093 51.9109 110.888C50.8279 111.61 49.6005 112.188 48.7341 113.128C47.7955 114.067 47.2179 115.296 46.2794 116.235C45.413 117.247 44.2578 117.825 43.1748 118.331C41.0089 119.27 38.9151 119.848 37.6155 121.005C36.2437 122.161 35.5939 123.461 35.5939 124.473C35.5218 125.485 35.8827 125.991 35.8105 125.991Z" fill="#455A64"/>
<path d="M33.3558 114.79C33.3558 114.645 33.9334 114.718 34.7998 114.501C35.6662 114.356 36.9658 113.85 38.3375 112.983C38.9873 112.55 39.6371 111.972 40.0703 111.249C40.4313 110.526 40.5757 109.587 40.2869 108.72C40.1425 108.286 39.9259 107.997 39.5649 107.708C39.2039 107.419 38.7707 107.275 38.3375 107.202C37.9044 107.202 37.5434 107.275 37.2546 107.564C36.9658 107.78 36.7492 108.214 36.677 108.648C36.6048 109.081 36.7492 109.37 36.9658 109.659C37.2546 109.948 37.6878 110.093 38.1209 110.165C38.9873 110.237 39.9259 109.731 40.6479 109.081C42.1641 107.636 42.8139 105.757 43.0305 104.167C43.2471 102.577 43.0305 101.204 42.7417 100.337C42.5251 99.4701 42.2363 98.9643 42.3807 98.892C42.4529 98.8197 42.8861 99.1811 43.3915 100.12C43.8968 100.988 44.4022 102.505 44.33 104.384C44.2578 106.263 43.6081 108.575 41.8031 110.382C41.3699 110.815 40.7923 111.249 40.1425 111.61C39.4927 111.972 38.6985 112.188 37.9044 112.116C37.1102 112.044 36.2438 111.755 35.594 111.104C35.233 110.815 35.0164 110.382 34.872 109.876C34.7276 109.442 34.7276 108.937 34.7276 108.503C34.872 107.636 35.3052 106.769 35.955 106.191C36.677 105.612 37.6156 105.396 38.4097 105.468C40.0703 105.612 41.3699 106.841 41.8031 108.214C42.2363 109.587 41.9475 110.96 41.2977 112.044C40.6479 113.128 39.7093 113.706 38.9151 114.14C37.2546 115.007 35.8106 115.296 34.7276 115.223C33.8612 115.223 33.3558 114.862 33.3558 114.79Z" fill="#263238"/>
<path d="M68.3722 158.437C68.4444 158.365 68.5166 158.365 68.4444 158.292C68.4444 158.22 68.4444 158.148 68.4444 158.076C68.5166 157.786 68.661 157.353 68.8776 156.919C69.3108 155.98 70.0328 154.679 70.8269 153.306C72.4875 150.56 74.0037 148.465 74.5091 148.681C74.9423 148.898 74.1481 151.5 72.4875 154.246C71.6211 155.619 70.7548 156.847 70.0328 157.57C69.6718 158.003 69.383 158.22 69.022 158.437C68.8776 158.581 68.661 158.654 68.4444 158.581C68.3 158.581 68.3 158.509 68.3722 158.437Z" fill="#263238"/>
<path d="M217.102 108.864C217.174 108.937 216.524 109.443 215.152 109.732C213.78 109.948 211.614 109.948 209.376 108.575C208.799 108.214 208.293 107.78 207.788 107.275C207.283 106.769 206.849 106.118 206.488 105.468C205.766 104.095 205.478 102.361 205.694 100.626C205.911 98.8921 206.561 97.0855 207.932 95.6403C208.582 94.9176 209.376 94.3395 210.315 93.906C211.253 93.4724 212.336 93.2556 213.492 93.4724C214.647 93.6892 215.658 94.2673 216.38 95.1344C216.741 95.568 216.957 96.1461 217.102 96.7242C217.246 97.3023 217.174 97.8804 217.029 98.3863C216.741 99.4702 216.163 100.337 215.369 100.988C214.575 101.566 213.636 101.927 212.77 102.072C210.965 102.361 209.304 102.072 207.932 101.494C206.488 100.843 205.405 99.9038 204.611 98.8921C203.817 97.8804 203.384 96.7242 203.095 95.7848C202.878 94.7731 202.806 93.906 202.878 93.2556C203.023 91.8826 203.456 91.16 203.528 91.2322C203.673 91.3045 203.528 92.0271 203.6 93.2556C203.673 94.4841 204.106 96.4352 205.55 98.0972C206.272 98.8921 207.283 99.6148 208.438 100.121C209.593 100.554 211.037 100.771 212.409 100.482C213.058 100.337 213.708 100.048 214.214 99.687C214.719 99.2534 215.08 98.6753 215.224 98.0972C215.369 97.4469 215.224 96.8688 214.863 96.3629C214.502 95.8571 213.853 95.4958 213.131 95.3512C211.759 95.1344 210.243 95.9293 209.232 97.0133C208.149 98.0972 207.571 99.5425 207.355 100.915C207.138 102.361 207.355 103.734 207.86 104.89C208.149 105.468 208.438 105.974 208.799 106.407C209.16 106.841 209.593 107.275 210.026 107.564C211.831 108.864 213.78 109.081 215.008 109.081C216.307 108.937 217.029 108.72 217.102 108.864Z" fill="#263238"/>
<path d="M219.99 76.3459C220.062 76.4182 219.773 76.9963 218.762 77.7189C217.824 78.3693 216.091 79.0919 213.853 78.6584C212.77 78.4416 211.614 77.8635 210.676 76.9963C209.737 76.0569 208.943 74.8284 208.654 73.3831C208.293 71.9379 208.438 70.2036 209.304 68.7583C209.737 68.0357 210.387 67.313 211.253 66.9517C212.12 66.5904 213.131 66.4459 214.141 66.7349C214.647 66.8795 215.08 67.1685 215.513 67.5298C215.874 67.8912 216.163 68.3247 216.38 68.8306C216.741 69.77 216.668 70.7094 216.38 71.5766C216.235 72.0101 216.019 72.4437 215.802 72.805C215.585 73.1664 215.297 73.4554 214.936 73.7445C214.286 74.2503 213.636 74.6116 212.914 74.9007C210.17 75.9124 207.571 75.6956 205.55 75.0452C203.528 74.4671 202.156 73.4554 201.29 72.6605C200.424 71.8656 200.135 71.2875 200.207 71.2153C200.279 71.143 200.785 71.5043 201.723 72.0824C202.662 72.6605 204.034 73.3831 205.839 73.7445C207.644 74.1058 210.026 74.178 212.192 73.2386C213.275 72.805 214.214 72.0102 214.502 70.9985C214.647 70.4926 214.647 69.9145 214.502 69.4809C214.358 69.0474 213.997 68.686 213.492 68.5415C212.986 68.397 212.409 68.4693 211.975 68.686C211.542 68.9028 211.109 69.2642 210.82 69.77C210.243 70.7817 210.098 72.0101 210.315 73.0941C210.531 74.178 211.037 75.1897 211.759 75.9846C212.481 76.7072 213.275 77.2131 214.141 77.5021C215.874 78.008 217.39 77.6467 218.401 77.2131C219.412 76.635 219.845 76.2737 219.99 76.3459Z" fill="#263238"/>
<path d="M77.4692 110.021C77.5414 110.093 76.5306 110.454 75.592 111.899C75.1589 112.622 74.7979 113.634 74.7979 114.79C74.7257 115.946 75.0867 117.319 76.0974 118.403L76.4584 118.837L75.953 118.692C74.5813 118.331 72.9929 118.331 71.4767 118.837C69.9606 119.343 68.4444 120.427 67.5058 121.872C66.2062 123.823 65.9174 126.28 66.495 128.231L66.6394 128.737L66.2062 128.448C64.69 127.364 62.9573 126.858 61.4411 126.858C59.8527 126.858 58.5532 127.219 57.5424 127.725C55.4486 128.737 54.7988 129.965 54.7266 129.893C54.7266 129.893 54.7988 129.821 54.871 129.676C54.9432 129.532 55.0876 129.315 55.3042 129.098C55.7374 128.665 56.4594 128.014 57.4702 127.508C58.481 127.002 59.8527 126.569 61.5133 126.497C63.1017 126.424 64.9066 126.93 66.495 128.086L66.2062 128.303C65.6286 126.208 65.9174 123.678 67.217 121.655C68.2278 120.065 69.744 118.981 71.4045 118.475C72.9929 117.97 74.6535 117.97 76.0974 118.331L75.953 118.62C74.9423 117.464 74.5813 116.018 74.6535 114.79C74.6535 113.562 75.0867 112.55 75.592 111.755C76.0974 111.032 76.6028 110.526 76.9638 110.31C77.1804 110.165 77.3248 110.093 77.397 110.021C77.397 110.021 77.4692 110.021 77.4692 110.021Z" fill="#455A64"/>
<path d="M83.3895 144.635C83.3895 144.635 83.2451 144.707 82.9563 144.779C82.8119 144.779 82.6675 144.851 82.4509 144.851C82.2343 144.851 82.0177 144.924 81.7289 144.851C80.6459 144.851 78.9854 144.418 77.5414 143.117C76.8194 142.467 76.0974 141.6 75.7364 140.443C75.5198 139.865 75.4476 139.287 75.3754 138.709C75.3754 138.059 75.4476 137.408 75.6642 136.83C75.8808 136.18 76.1696 135.602 76.5306 135.024C76.8916 134.446 77.397 133.94 77.9746 133.506C78.5522 133.073 79.1298 132.711 79.8517 132.422C80.5015 132.133 81.2957 131.989 82.0177 131.989C82.8119 131.989 83.5339 132.061 84.2559 132.422C84.6169 132.639 84.9057 132.856 85.0501 133.289C85.1945 133.651 85.2667 134.084 85.1223 134.446C84.9779 134.807 84.6169 135.168 84.2559 135.24C83.8949 135.313 83.4617 135.24 83.1729 135.168C82.5231 134.951 81.9455 134.518 81.4401 134.084C79.4908 132.278 78.841 129.676 79.4186 127.797C79.9239 125.846 81.0791 124.618 82.0177 124.04C82.9563 123.389 83.5339 123.317 83.5339 123.317C83.5339 123.389 82.9563 123.534 82.0899 124.184C81.2235 124.835 80.1405 126.063 79.7074 127.87C79.2742 129.676 79.8517 132.205 81.7289 133.867C82.1621 134.301 82.7397 134.662 83.3173 134.879C83.6061 134.951 83.9671 135.024 84.1837 134.951C84.4725 134.879 84.6891 134.662 84.7613 134.446C84.8335 134.156 84.8335 133.867 84.6891 133.578C84.5447 133.289 84.3281 133.073 84.0393 132.928C83.4617 132.567 82.7397 132.494 82.0177 132.494C81.2957 132.494 80.5737 132.639 79.9239 132.928C79.2742 133.217 78.6966 133.506 78.119 133.94C77.6136 134.373 77.1082 134.879 76.7472 135.385C76.3862 135.891 76.0974 136.469 75.8808 137.119C75.6642 137.697 75.6642 138.348 75.592 138.926C75.6642 139.504 75.7364 140.082 75.953 140.588C76.314 141.6 76.9638 142.467 77.6858 143.117C79.0576 144.418 80.6459 144.851 81.7289 144.924C82.7397 144.779 83.3173 144.635 83.3895 144.635Z" fill="#455A64"/>
<path d="M46.7125 68.5415C46.7125 68.5415 46.3515 68.6138 45.6296 68.9028C44.9798 69.1919 43.969 69.6254 43.1026 70.5649C42.164 71.432 41.2976 72.805 41.081 74.4671C40.7922 76.1291 41.1532 78.0802 42.3084 79.67C42.4528 79.8868 42.6694 80.1036 42.8138 80.3204L43.0304 80.6094H42.6694C40.7922 80.8262 39.2039 81.7657 38.1209 82.9219C37.0379 84.1503 36.6047 85.5956 36.4603 86.7518C36.3159 87.9803 36.5325 88.9197 36.7491 89.5701C36.9657 90.2204 37.1101 90.5817 37.1101 90.5817C37.1101 90.5817 37.0379 90.5095 36.9657 90.365C36.8935 90.2204 36.7491 89.9314 36.6047 89.6423C36.3881 88.992 36.0993 87.9803 36.1715 86.7518C36.2437 85.5233 36.6769 84.0058 37.8321 82.7051C38.9151 81.4043 40.5756 80.3926 42.5972 80.2481L42.4528 80.5372C42.3084 80.3204 42.0918 80.1036 41.9474 79.8868C40.7922 78.2248 40.4313 76.1291 40.72 74.3948C41.0088 72.6605 41.9474 71.2152 42.886 70.3481C43.8968 69.4087 44.8354 68.9751 45.5574 68.7583C45.9184 68.6138 46.2071 68.6138 46.3515 68.5415C46.6403 68.5415 46.7125 68.5415 46.7125 68.5415Z" fill="#455A64"/>
<path d="M60.2859 46.6458C60.2859 46.7181 59.8527 46.429 59.0585 46.2123C58.2644 45.9955 57.037 45.8509 55.6652 46.2845C54.2934 46.6458 52.7051 47.6575 51.9109 49.3918C51.1167 51.0539 51.0445 53.4386 52.1997 55.3174C52.3441 55.5342 52.4885 55.751 52.6329 55.9678L52.7772 56.1846L52.4885 56.2568C50.3947 56.6181 48.6619 57.8466 47.5789 59.2919C46.4238 60.7371 45.9906 62.3992 45.9184 63.6999C45.8462 65.0729 46.0628 66.1569 46.2794 66.8795C46.496 67.6021 46.7126 67.9634 46.7126 68.0357C46.7126 68.0357 46.6404 67.9634 46.5682 67.7467C46.496 67.6021 46.3516 67.3131 46.2072 66.9518C45.9184 66.2291 45.6296 65.0729 45.7018 63.6999C45.774 62.3269 46.2072 60.5926 47.3623 59.0751C48.5175 57.5576 50.3225 56.3291 52.4885 55.8955L52.3441 56.1846C52.1997 55.9678 51.9831 55.751 51.9109 55.5342C50.6835 53.5108 50.7557 51.0539 51.6221 49.3196C52.0553 48.3802 52.705 47.6575 53.427 47.1517C54.149 46.6458 54.9432 46.2845 55.6652 46.0677C57.1092 45.7064 58.4087 45.8509 59.1307 46.14C59.5639 46.2845 59.8527 46.429 59.9971 46.5013C60.2137 46.5736 60.2859 46.5736 60.2859 46.6458Z" fill="#455A64"/>
<path d="M176.02 105.974C176.02 105.974 176.165 105.974 176.381 105.974C176.526 105.974 176.67 105.974 176.815 105.974C177.031 105.974 177.248 105.902 177.464 105.902C178.403 105.757 179.775 105.468 181.219 104.529C182.663 103.661 184.107 102.144 184.973 100.048C185.406 99.0366 185.623 97.8804 185.551 96.6519C185.479 96.0738 185.334 95.4234 185.045 94.9176C184.757 94.4117 184.323 93.9059 183.746 93.6891C183.313 93.4723 182.807 93.4001 182.302 93.4723L181.869 93.5446L182.085 93.1833C183.313 91.0876 184.179 88.9197 184.323 86.8964C184.396 85.8847 184.323 84.873 184.035 84.0059C183.746 83.1387 183.313 82.4161 182.879 81.838C181.941 80.6095 180.713 80.0314 179.919 79.8869C179.053 79.7423 178.62 79.8146 178.62 79.7423C178.62 79.7423 179.125 79.5978 179.991 79.7423C180.858 79.8869 182.085 80.465 183.096 81.6934C183.601 82.2715 184.107 83.0664 184.396 83.9336C184.684 84.8007 184.829 85.8847 184.684 86.8964C184.54 89.0643 183.601 91.2322 182.446 93.3278L182.23 93.0387C182.735 92.9665 183.385 93.0387 183.89 93.3278C184.54 93.6168 185.045 94.1227 185.334 94.7731C185.623 95.3512 185.839 96.0015 185.839 96.6519C185.912 97.9526 185.695 99.1088 185.262 100.193C184.396 102.361 182.807 103.878 181.291 104.745C179.775 105.685 178.403 105.974 177.464 106.046C177.248 106.046 177.031 106.046 176.815 106.046C176.67 106.046 176.454 106.046 176.309 106.046C176.165 105.974 176.02 105.974 176.02 105.974Z" fill="#455A64"/>
<path d="M49.1673 142.828C49.0951 142.9 48.6619 142.539 48.0843 141.816C47.5067 141.094 46.7125 139.937 46.1349 138.275C45.8462 137.408 45.7018 136.397 45.774 135.313C45.8462 134.229 46.2793 133 47.2179 132.061C48.0843 131.121 49.3839 130.399 50.7557 130.254C52.1996 130.11 53.788 130.616 54.871 131.844C55.1598 132.133 55.3764 132.494 55.5208 132.928C55.6652 133.289 55.8096 133.795 55.8096 134.156C55.8096 135.024 55.5208 135.746 55.0154 136.397C54.51 137.047 53.7158 137.553 52.9216 137.553C52.1274 137.625 51.3333 137.336 50.7557 136.902C49.6727 136.035 49.1673 134.879 48.9507 133.795C48.7341 132.711 48.8063 131.7 48.9507 130.832C49.3117 129.026 50.1781 127.87 50.9001 127.147C51.622 126.497 52.1274 126.28 52.1996 126.352C52.2718 126.497 51.9108 126.858 51.4777 127.581C51.0445 128.303 50.4669 129.459 50.2503 130.977C50.1781 131.699 50.1781 132.567 50.4669 133.362C50.6835 134.156 51.1167 134.951 51.7664 135.457C52.0552 135.674 52.4162 135.746 52.705 135.746C52.9938 135.674 53.2826 135.529 53.4992 135.24C53.7158 134.951 53.8602 134.518 53.8602 134.156C53.8602 133.795 53.7158 133.434 53.427 133.072C52.8494 132.422 51.8386 132.061 50.9001 132.133C49.9615 132.205 49.0229 132.639 48.4453 133.289C47.7955 133.94 47.4345 134.735 47.2901 135.529C47.1457 136.397 47.2179 137.191 47.3623 137.914C47.6511 139.432 48.3009 140.588 48.6619 141.455C49.0951 142.25 49.3117 142.756 49.1673 142.828Z" fill="#263238"/>
<path d="M186.056 143.912C186.056 143.767 186.417 143.695 186.995 143.406C187.572 143.117 188.439 142.611 189.305 141.744C190.099 140.877 190.821 139.576 190.893 137.986C190.966 136.397 190.316 134.59 188.944 133.362L186.2 130.977L189.738 131.844C191.832 132.35 194.359 132.061 196.597 130.832C197.824 130.182 198.907 129.243 199.774 128.231C200.568 127.219 201.146 125.991 201.434 124.834C202.012 122.45 201.579 120.137 200.857 118.331C200.063 116.596 199.052 115.368 198.258 114.573C198.041 114.356 197.897 114.212 197.752 114.067C197.608 113.923 197.463 113.85 197.319 113.706C197.102 113.489 197.03 113.345 197.03 113.345C197.03 113.272 197.247 113.345 197.536 113.417C197.68 113.489 197.897 113.561 198.041 113.634C198.258 113.778 198.474 113.85 198.691 113.995C199.702 114.645 201.001 115.874 202.012 117.753C203.023 119.632 203.673 122.305 203.095 125.196C202.806 126.641 202.156 128.086 201.218 129.315C200.279 130.543 198.98 131.627 197.463 132.422C194.864 133.867 191.832 134.229 189.305 133.506L190.099 131.989C191.904 133.651 192.554 136.035 192.41 137.986C192.265 140.01 191.182 141.527 190.099 142.467C189.016 143.406 187.933 143.767 187.211 143.912C186.489 144.129 186.128 144.056 186.056 143.912Z" fill="#263238"/>
<path d="M83.9671 17.2347C83.8949 17.1625 84.1115 16.7289 84.8335 16.0062C85.4833 15.3559 86.6385 14.4887 88.2268 13.8384C89.8152 13.188 91.9812 12.7544 94.4359 13.1157C95.5911 13.3325 96.9629 13.6938 98.1181 14.7055C98.6957 15.2114 99.1288 15.934 99.4176 16.6566C99.6342 17.4515 99.7064 18.3909 99.2732 19.2581L97.5405 18.6077C98.1181 17.0179 99.0567 15.4281 100.356 14.1997C102.883 11.7427 106.421 10.6588 109.453 11.0924C110.969 11.2369 112.341 11.815 113.496 12.5376C114.652 13.2603 115.59 14.0551 116.312 14.9223C117.756 16.6566 118.334 18.4632 118.55 19.6194C118.767 20.8479 118.623 21.4982 118.478 21.4982C118.334 21.4982 118.189 20.8479 117.828 19.7639C117.395 18.68 116.673 17.1625 115.301 15.7172C113.93 14.2719 111.836 12.9712 109.237 12.6821C106.71 12.4654 103.75 13.4048 101.656 15.4281C100.573 16.4398 99.7786 17.7406 99.2732 19.0413L97.5405 18.3909C97.9015 17.6683 97.5405 16.5121 96.8907 15.934C96.1687 15.2836 95.1579 14.85 94.1471 14.6332C92.1256 14.1997 90.1762 14.4165 88.66 14.85C87.1439 15.2836 85.9887 15.934 85.2667 16.4398C84.4725 17.0179 84.0393 17.3792 83.9671 17.2347Z" fill="#263238"/>
<path d="M156.382 15.5004C156.238 15.4282 156.527 14.4165 156.455 12.6099C156.382 11.6705 156.238 10.5865 155.877 9.35807C155.516 8.1296 154.866 6.82886 153.855 5.60039C153.35 5.02228 152.772 4.37192 152.123 3.86608C151.473 3.36023 150.679 2.85439 149.812 2.49308C148.946 2.13176 148.08 1.91497 147.069 1.77045C146.13 1.62592 145.047 1.62592 144.036 1.84271C142.015 2.20402 139.921 3.07118 138.261 4.51644C137.466 5.23907 136.744 6.17849 136.239 7.11791C135.734 8.1296 135.517 9.21354 135.734 10.153C135.95 11.1646 136.672 11.9595 137.466 12.1041C138.261 12.2486 139.271 11.815 139.849 11.0924C140.138 10.7311 140.354 10.2975 140.426 9.93618C140.499 9.5026 140.499 8.99675 140.354 8.56318C140.138 7.69602 139.488 6.82886 138.766 6.32302C137.25 5.23907 135.156 5.09455 133.351 5.45586C131.546 5.81718 129.958 6.61207 128.658 7.62376C126.059 9.57486 124.832 12.0318 124.182 13.6939C123.604 15.4282 123.46 16.4399 123.315 16.4399C123.243 16.4399 123.027 15.3559 123.46 13.4771C123.893 11.5982 125.12 8.85223 127.792 6.53981C129.163 5.45586 130.896 4.44418 132.918 3.93834C133.929 3.72155 135.084 3.57702 136.239 3.72155C137.394 3.86608 138.622 4.15513 139.705 4.95002C140.715 5.67265 141.582 6.7566 142.015 8.1296C142.231 8.77997 142.304 9.5026 142.159 10.2975C142.015 11.0924 141.726 11.7428 141.221 12.3209C140.787 12.899 140.138 13.4048 139.416 13.6939C138.694 13.9829 137.9 14.1274 137.033 13.9829C136.167 13.8384 135.445 13.3325 134.939 12.7544C134.434 12.1763 134.001 11.4537 133.856 10.6588C133.495 9.06902 133.856 7.55149 134.506 6.32302C135.156 5.09455 136.022 4.08286 136.961 3.14344C138.91 1.40913 141.365 0.397447 143.675 0.108395C144.831 -0.0361315 146.058 -0.0361315 147.141 0.108395C148.224 0.252921 149.307 0.541973 150.318 1.04781C151.256 1.48139 152.123 2.0595 152.917 2.70987C153.639 3.36023 154.289 4.08286 154.794 4.8055C155.805 6.25076 156.455 7.76828 156.743 9.14128C157.104 10.5143 157.104 11.7428 157.032 12.6822C157.032 14.561 156.455 15.5004 156.382 15.5004Z" fill="#263238"/>
<path d="M46.496 219.21C46.496 219.21 50.4669 193.629 55.954 177.876C61.4411 162.122 78.7688 158.365 78.7688 158.365L86.2053 222.895L46.496 219.21Z" fill="#E8E3E3"/>
<path d="M76.3862 214.441C76.3862 214.441 56.9648 172.673 65.7008 164.652C74.4369 156.63 104.905 150.56 104.905 150.56C121.366 169.71 145.553 160.822 152.772 147.742L184.829 154.824L191.182 157.136L185.551 273.118L202.951 307.949H78.4078L97.1073 273.118L76.3862 214.441Z" fill="#E8E3E3"/>
<g opacity="0.3">
<path d="M80.8625 305.131C83.8949 307.082 87.938 306.359 91.187 304.77C94.4359 303.18 97.1795 300.795 100.428 299.278C108.948 295.231 118.911 297.326 128.297 298.699C147.935 301.518 168.223 300.361 187.428 295.303C190.677 294.147 192.626 293.569 195.298 292.413C195.298 292.413 191.11 284.175 189.377 280.272H125.915L99.8508 285.62L80.8625 300.651V305.131Z" fill="black"/>
</g>
<path d="M65.2676 287.788C65.2676 287.788 60.0693 287.065 60.2137 285.114C60.2859 283.163 63.4626 275.431 66.7838 272.685C70.1049 269.939 96.6741 266.759 96.6741 266.759L108.803 269.072L104.688 290.245C104.688 290.245 85.6999 304.842 80.7181 304.48C75.7364 304.047 71.5489 305.781 71.4045 299.061C71.4045 299.061 66.9282 296.242 67.7224 291.907C67.7946 291.907 63.7514 294.219 65.2676 287.788Z" fill="#AE7461"/>
<path d="M178.764 257.365L98.6956 267.193L100.067 290.461C100.067 290.461 138.044 296.098 166.129 293.497C180.352 292.196 189.449 290.172 195.009 288.51C199.485 287.137 203.023 283.524 204.178 278.972C206.777 269.144 211.181 250.861 211.398 240.6C211.687 226.147 215.513 164.724 193.854 163.062C193.854 163.062 185.695 162.628 184.756 185.535C183.818 208.371 178.764 257.365 178.764 257.365Z" fill="#AE7461"/>
<path d="M178.764 232.723L218.329 225.569C218.329 225.569 213.636 195.941 211.542 187.27C204.611 158.22 185.551 155.113 185.551 155.113C185.551 155.113 185.262 163.278 181.941 179.899C179.053 194.352 180.641 212.201 180.641 212.201L178.764 232.723Z" fill="#E8E3E3"/>
<path d="M176.02 246.959C190.532 221.812 183.962 194.641 184.901 181.561Z" fill="#E8E3E3"/>
<path d="M184.829 181.561C184.829 181.561 184.829 181.633 184.829 181.706C184.829 181.85 184.829 181.995 184.829 182.211C184.829 182.717 184.829 183.368 184.829 184.163C184.829 185.03 184.901 186.041 184.901 187.27C184.973 188.498 185.045 189.871 185.117 191.389C185.478 197.459 186.128 205.841 185.406 215.091C185.117 219.716 184.323 224.052 183.529 228.026C183.24 228.966 183.024 229.977 182.807 230.844C182.518 231.784 182.374 232.651 182.013 233.518C181.724 234.385 181.435 235.18 181.147 235.975C180.858 236.77 180.641 237.493 180.28 238.215C179.703 239.588 179.125 240.889 178.62 241.973C178.114 243.057 177.537 243.924 177.176 244.719C176.815 245.442 176.454 246.02 176.237 246.453C176.165 246.598 176.02 246.742 176.02 246.887C175.948 246.959 175.948 247.031 175.948 247.031C175.948 247.031 175.948 246.959 176.02 246.887C176.093 246.742 176.165 246.598 176.237 246.453C176.454 246.02 176.742 245.442 177.103 244.719C177.464 243.924 177.97 243.057 178.475 241.973C178.908 240.889 179.486 239.588 180.064 238.215C180.352 237.493 180.569 236.77 180.858 235.975C181.147 235.18 181.363 234.385 181.652 233.518C181.941 232.651 182.157 231.784 182.374 230.844C182.591 229.905 182.879 228.966 183.096 228.026C183.89 224.124 184.684 219.788 184.973 215.163C185.623 205.914 185.045 197.531 184.756 191.533C184.684 190.016 184.612 188.643 184.612 187.414C184.612 186.186 184.612 185.174 184.612 184.307C184.684 183.512 184.684 182.862 184.684 182.356C184.684 182.139 184.684 181.995 184.684 181.85C184.829 181.633 184.829 181.561 184.829 181.561Z" fill="#263238"/>
<path d="M68.1556 188.426C68.1556 188.426 68.1556 188.498 68.2278 188.643C68.3 188.787 68.3 189.004 68.3722 189.221C68.5166 189.727 68.7332 190.522 69.022 191.533C69.3108 192.545 69.6717 193.774 70.1049 195.219C70.5381 196.664 71.0435 198.254 71.6933 200.06C74.0759 207.214 77.5414 216.97 81.4401 227.737C85.3389 238.504 88.8766 248.26 91.4036 255.342C92.7031 258.883 93.7139 261.773 94.3637 263.724C94.6525 264.736 94.9413 265.458 95.0857 266.037C95.1579 266.253 95.2301 266.47 95.3023 266.615C95.3745 266.759 95.3745 266.831 95.3745 266.831C95.3745 266.831 95.3745 266.759 95.3023 266.615C95.2301 266.47 95.1579 266.253 95.0857 266.037C94.8691 265.458 94.5803 264.736 94.2915 263.796C93.5695 261.773 92.4865 258.955 91.2592 255.414C88.66 248.332 85.0501 238.649 81.1513 227.809C77.2526 217.042 73.8593 207.214 71.5489 200.06C70.9713 198.254 70.4659 196.664 70.0327 195.219C69.5996 193.774 69.2386 192.545 69.022 191.533C68.7332 190.522 68.5888 189.727 68.4444 189.149C68.3722 188.86 68.3722 188.715 68.3 188.498C68.1556 188.498 68.1556 188.426 68.1556 188.426Z" fill="#263238"/>
<path d="M191.327 273.986C191.254 273.986 190.893 272.829 190.171 271.095C189.449 269.289 188.222 266.904 186.489 264.591C184.757 262.207 182.807 260.4 181.291 259.244C179.775 258.088 178.764 257.437 178.764 257.365C178.764 257.365 179.053 257.51 179.486 257.726C179.991 258.015 180.641 258.449 181.435 258.955C183.024 260.111 185.045 261.918 186.778 264.302C188.511 266.687 189.666 269.144 190.388 270.951C190.749 271.89 190.966 272.613 191.11 273.118C191.327 273.697 191.327 273.986 191.327 273.986Z" fill="#6F4439"/>
<path d="M140.354 207.359C140.354 207.359 140.427 207.576 140.427 207.937C140.499 208.371 140.571 208.949 140.643 209.671C140.788 211.189 140.86 213.429 140.571 216.247C140.282 218.993 139.56 222.245 138.261 225.642C136.961 229.038 134.939 232.579 132.196 235.831C129.452 239.01 126.203 241.612 123.099 243.418C119.922 245.297 116.818 246.453 114.146 247.176C111.475 247.899 109.237 248.188 107.72 248.26C106.926 248.332 106.349 248.332 105.916 248.332C105.482 248.332 105.266 248.332 105.266 248.332C105.266 248.332 105.482 248.332 105.916 248.26C106.349 248.188 106.926 248.188 107.648 248.115C109.164 247.971 111.403 247.61 114.002 246.887C116.673 246.164 119.705 244.936 122.81 243.129C125.915 241.323 129.091 238.793 131.835 235.614C134.506 232.434 136.528 228.893 137.9 225.497C139.271 222.101 139.921 218.921 140.282 216.175C140.571 213.429 140.571 211.189 140.499 209.671C140.499 208.877 140.354 208.298 140.354 207.937C140.354 207.576 140.354 207.359 140.354 207.359Z" fill="#263238"/>
<g opacity="0.3">
<path d="M107.937 248.043C116.457 251.584 126.998 249.85 133.929 243.635C140.86 237.493 142.809 227.231 140.21 218.343C139.127 222.895 137.178 229.833 131.113 236.698C126.059 242.262 115.446 247.248 107.937 248.043Z" fill="black"/>
</g>
<path d="M157.682 150.054C157.682 150.054 157.682 150.126 157.61 150.199C157.538 150.343 157.465 150.416 157.321 150.632C157.104 150.994 156.743 151.572 156.238 152.222C155.299 153.595 153.711 155.402 151.401 157.353C150.246 158.292 148.946 159.304 147.502 160.243C145.986 161.11 144.397 162.05 142.592 162.845C140.787 163.64 138.838 164.29 136.744 164.796C134.651 165.302 132.485 165.735 130.246 165.808C128.008 165.952 125.77 165.808 123.676 165.591C121.583 165.302 119.561 164.796 117.684 164.218C113.93 162.989 110.825 161.327 108.442 159.521C106.06 157.786 104.327 156.052 103.316 154.751C102.739 154.101 102.45 153.595 102.161 153.234C102.017 153.089 101.945 152.945 101.872 152.8C101.8 152.728 101.8 152.656 101.8 152.656C101.8 152.656 101.872 152.728 101.945 152.8C102.017 152.872 102.161 153.017 102.233 153.162C102.522 153.523 102.883 154.029 103.461 154.607C104.544 155.835 106.276 157.57 108.659 159.232C111.042 160.966 114.146 162.628 117.9 163.784C119.778 164.362 121.727 164.796 123.821 165.085C125.915 165.374 128.081 165.446 130.319 165.302C132.557 165.157 134.723 164.796 136.744 164.29C138.838 163.784 140.715 163.134 142.52 162.339C144.325 161.616 145.914 160.677 147.43 159.81C148.874 158.87 150.173 157.931 151.328 156.991C153.567 155.113 155.155 153.306 156.166 152.005C156.671 151.355 157.032 150.849 157.321 150.488C157.465 150.343 157.538 150.199 157.61 150.054C157.61 150.054 157.682 150.054 157.682 150.054Z" fill="#263238"/>
<path d="M51.1889 179.899L69.5996 216.464L77.6858 218.415C77.5414 218.054 94.5803 263.869 96.3131 270.083C100.862 286.343 86.9995 295.809 69.4552 284.825C51.9109 273.841 31.7675 188.426 31.7675 188.426L51.1889 179.899Z" fill="#AE7461"/>
<path d="M51.9831 181.344C51.9831 181.344 53.6437 178.237 48.0122 172.962L29.6015 159.81L29.3849 152.005L34.2944 150.922C34.2944 150.922 39.2039 152.584 40.4313 149.115C40.3591 148.031 39.6371 147.092 38.5541 146.875L35.594 146.224C35.594 146.224 35.594 144.707 34.7998 144.418C34.0056 144.129 25.3418 141.455 25.3418 141.455L20.3601 142.394L22.3816 140.154C22.3816 140.154 28.6629 136.397 26.497 130.905L26.0638 130.327L18.5551 134.735C18.5551 134.735 18.3385 131.266 16.2447 130.471C16.2447 130.471 3.03238 139.215 1.37181 141.889C3.3145e-05 144.346 -0.216563 162.556 0.649822 165.591C1.51621 168.698 20.9377 179.899 24.1144 182.645C27.2911 185.463 30.7567 187.342 33.9334 191.461" fill="#AE7461"/>
<path d="M33.9334 191.461C33.9334 191.461 33.8612 191.389 33.6446 191.172C33.5002 190.955 33.2114 190.666 32.8504 190.233C32.1284 189.438 30.9733 188.282 29.3127 186.909C28.5185 186.258 27.5799 185.536 26.4969 184.741C25.9915 184.379 25.4861 183.946 24.9086 183.512C24.331 183.079 23.8256 182.573 23.248 182.139C20.7932 180.405 17.9053 178.526 14.6563 176.503C11.4796 174.407 7.94186 172.167 4.33192 169.421C3.46554 168.698 2.52696 168.048 1.66057 167.181C1.22738 166.747 0.794186 166.314 0.57759 165.735C0.433192 165.157 0.360994 164.507 0.288795 163.929C0 161.472 0 159.015 0 156.414C0 153.884 0.0721987 151.211 0.288795 148.537C0.360994 147.164 0.505391 145.863 0.721987 144.49L0.866385 143.478L1.08298 142.467C1.29958 141.744 1.80497 141.166 2.31036 140.66C4.33192 138.709 6.64228 137.047 9.02484 135.313C11.4074 133.578 13.79 131.916 16.3169 130.254L16.3891 130.182H16.4613C16.8945 130.327 17.2555 130.616 17.5443 130.905C17.8331 131.266 18.0497 131.627 18.2663 131.989C18.6273 132.783 18.8439 133.651 18.9161 134.59L18.6273 134.446C19.8546 133.723 21.1542 132.928 22.4538 132.205C23.6812 131.483 24.9086 130.76 26.0637 130.037L26.2081 129.965L26.2803 130.11C26.4247 130.327 26.5691 130.471 26.7135 130.688C27.0023 131.627 27.2189 132.567 27.1467 133.506C27.0745 134.446 26.7857 135.385 26.3525 136.18C25.414 137.842 24.0422 139.143 22.526 140.154H22.5982C21.9484 140.877 21.2264 141.672 20.5766 142.394L20.4322 142.105C22.0928 141.816 23.8256 141.455 25.414 141.166H25.4861H25.5583C27.5077 141.816 29.4571 142.394 31.4064 143.045C32.345 143.334 33.2836 143.623 34.2222 143.912L34.9442 144.129C35.233 144.201 35.4496 144.418 35.594 144.635C35.8828 145.14 35.8828 145.646 35.955 146.152L35.8106 146.008C36.3882 146.152 36.9657 146.297 37.4711 146.369L38.3375 146.586C38.6263 146.658 38.9151 146.73 39.2039 146.803C39.7815 147.019 40.2147 147.453 40.5035 148.031C40.6479 148.32 40.7201 148.609 40.7923 148.898V149.043V149.115C40.7923 149.115 40.7923 149.043 40.7923 149.187L40.7201 149.404L40.5035 149.765C40.2147 150.271 39.7815 150.705 39.2761 150.922C38.7707 151.211 38.1931 151.355 37.6877 151.427C36.6048 151.5 35.5218 151.355 34.4388 151.066H34.511C32.8504 151.427 31.1898 151.789 29.6015 152.15L29.7459 152.005C29.8181 154.751 29.8903 157.281 29.9625 159.81L29.8903 159.665C37.5433 165.157 43.8246 169.638 48.3009 172.817C50.6113 174.985 51.9109 177.153 52.2719 178.815C52.4885 179.61 52.4163 180.26 52.3441 180.694C52.2719 181.127 52.1275 181.272 52.1275 181.272C52.1275 181.272 52.1997 181.055 52.2719 180.694C52.3441 180.26 52.3441 179.682 52.1275 178.887C51.7665 177.298 50.3947 175.13 48.0843 172.962C43.608 169.782 37.3267 165.374 29.6015 159.882L29.5293 159.81V159.738C29.4571 157.281 29.3849 154.679 29.3127 151.933V151.789H29.4571C31.0455 151.427 32.706 151.066 34.3666 150.705H34.4388H34.511C35.5218 150.994 36.5326 151.138 37.6155 151.066C38.1209 150.994 38.6263 150.849 39.1317 150.632C39.5649 150.416 39.9259 149.982 40.2147 149.549L40.3591 149.187L40.4313 149.043C40.4313 149.187 40.4313 149.043 40.4313 149.115V149.043V148.97C40.4313 148.681 40.3591 148.465 40.2147 148.248C39.9981 147.814 39.5649 147.381 39.0595 147.164C38.8429 147.092 38.5541 147.019 38.2653 146.947L37.3989 146.73C36.8213 146.586 36.2438 146.513 35.7384 146.369H35.594V146.224C35.594 145.791 35.5218 145.285 35.3052 144.924C35.1608 144.707 35.0886 144.635 34.872 144.562L34.15 144.346C33.2114 144.057 32.2728 143.767 31.3342 143.478C29.4571 142.9 27.5077 142.25 25.5583 141.672H25.6305C23.97 141.961 22.3094 142.322 20.6488 142.611L20.0712 142.684L20.4322 142.25C21.082 141.527 21.804 140.805 22.4538 140.01C23.8978 139.07 25.2696 137.77 26.1359 136.18C26.5691 135.385 26.8579 134.518 26.9301 133.651C27.0023 132.783 26.7857 131.844 26.4969 130.977V131.049C26.3525 130.832 26.2081 130.688 26.0637 130.471L26.2803 130.543C25.053 131.266 23.8256 131.989 22.6704 132.711C21.3708 133.506 20.0712 134.229 18.8439 134.951L18.5551 135.096V134.807C18.4829 133.94 18.2663 133.145 17.9775 132.35C17.8331 131.989 17.6165 131.627 17.3277 131.338C17.0389 131.049 16.7501 130.832 16.3891 130.688H16.5335C14.0788 132.35 11.624 134.012 9.24144 135.674C6.93108 137.408 4.54852 139.07 2.59915 140.949C2.09376 141.455 1.66057 141.961 1.44397 142.539L1.22738 143.551L1.08298 144.562C0.866385 145.935 0.794186 147.236 0.649789 148.609C0.433192 151.283 0.360994 153.884 0.360994 156.486C0.360994 159.015 0.360994 161.544 0.57759 163.929L0.649789 164.796C0.721987 165.085 0.721987 165.374 0.794186 165.663C1.01078 166.169 1.44397 166.603 1.80497 167.036C2.59915 167.831 3.53774 168.554 4.40412 169.276C8.01406 172.022 11.5518 174.262 14.7285 176.358C17.9053 178.454 20.8654 180.26 23.248 182.067C23.8978 182.5 24.4032 183.006 24.9086 183.44C25.414 183.873 25.9915 184.307 26.4969 184.668C27.5077 185.463 28.4463 186.186 29.2405 186.836C30.9011 188.209 32.0562 189.365 32.7782 190.233C33.6446 191.028 33.9334 191.461 33.9334 191.461Z" fill="#6F4439"/>
<path d="M21.2986 142.178C21.2986 142.178 21.0098 142.25 20.4322 142.395C19.8546 142.539 19.0605 142.756 18.0497 143.045C17.0389 143.334 15.8837 143.695 14.6563 144.273C14.0787 144.562 13.3568 144.924 12.9236 145.43C12.5626 146.008 12.346 146.73 12.2016 147.525C11.9128 149.043 11.7684 150.56 11.6962 151.933C11.624 153.306 11.5518 154.535 11.5518 155.546C11.5518 156.558 11.5518 157.353 11.4796 158.003C11.4796 158.581 11.4796 158.871 11.4074 158.943C11.4074 158.943 11.3352 158.654 11.3352 158.076C11.3352 157.498 11.263 156.63 11.263 155.619C11.263 154.607 11.263 153.306 11.3352 151.933C11.4074 150.56 11.4796 149.043 11.8406 147.453C11.985 146.658 12.2016 145.863 12.6348 145.213C13.2124 144.562 13.8622 144.273 14.5119 143.984C15.8115 143.406 16.9667 143.117 17.9775 142.828C18.9883 142.539 19.7824 142.395 20.36 142.322C21.0098 142.178 21.2986 142.178 21.2986 142.178Z" fill="#6F4439"/>
<path d="M35.6662 146.224C35.6662 146.224 35.3052 146.152 34.6554 146.008C34.0056 145.863 33.067 145.791 31.9119 145.863C30.7567 145.863 29.3849 145.935 27.8687 146.224C26.3525 146.441 24.692 146.803 23.1036 147.453C22.6704 147.597 22.3094 147.814 22.0928 148.103C21.8762 148.392 21.7318 148.826 21.6596 149.187C21.443 149.982 21.2986 150.777 21.2264 151.572C21.0098 153.089 20.8654 154.462 20.7932 155.619C20.6489 157.931 20.5767 159.376 20.5767 159.376C20.5045 159.376 20.4323 157.931 20.5045 155.619C20.5767 154.462 20.6489 153.089 20.8654 151.5C20.9376 150.705 21.082 149.91 21.2986 149.115C21.443 148.681 21.5152 148.248 21.804 147.887C22.165 147.525 22.526 147.308 22.9592 147.092C24.6198 146.369 26.3525 146.08 27.8687 145.863C29.3849 145.646 30.8289 145.574 31.984 145.574C33.1392 145.574 34.0778 145.719 34.7276 145.863C35.0164 145.935 35.3052 146.008 35.4496 146.08C35.594 146.152 35.6662 146.224 35.6662 146.224Z" fill="#6F4439"/>
<path d="M18.6995 134.735C18.6995 134.735 18.4107 134.951 17.9053 135.385C17.3277 135.819 16.6057 136.324 15.7393 136.975C14.8007 137.625 13.7178 138.492 12.4904 139.432C11.263 140.371 9.96343 141.383 8.73605 142.684C7.43647 143.912 7.00328 145.574 6.64228 147.019C6.28129 148.465 6.0647 149.838 5.9203 150.994C5.7759 152.15 5.7037 153.089 5.6315 153.74C5.5593 154.39 5.5593 154.751 5.48711 154.751C5.48711 154.751 5.41491 154.39 5.48711 153.74C5.48711 153.089 5.5593 152.15 5.7037 150.994C5.8481 149.838 5.9925 148.465 6.35349 146.947C6.49789 146.224 6.71448 145.43 7.07548 144.635C7.36427 143.84 7.86966 143.045 8.51945 142.467C9.74683 141.238 11.1186 140.154 12.346 139.215C13.5734 138.276 14.6563 137.481 15.6671 136.83C16.6057 136.18 17.3999 135.674 17.9053 135.313C18.4107 134.879 18.6995 134.735 18.6995 134.735Z" fill="#6F4439"/>
<path d="M87.6493 263.435C87.6493 263.435 87.6493 263.363 87.5771 263.218C87.5049 263.074 87.4327 262.857 87.3605 262.568C87.1439 261.99 86.9273 261.123 86.5663 260.111C86.2053 259.027 85.7721 257.726 85.2667 256.209C84.9779 255.414 84.7613 254.619 84.4003 253.752C84.1115 252.885 83.7505 252.018 83.3895 251.006C82.0178 247.176 80.285 242.696 78.2634 237.71C76.2419 232.723 73.8593 227.376 71.3324 221.739C66.2062 210.466 61.2967 200.422 57.6868 193.123C55.8818 189.51 54.4378 186.547 53.4271 184.524C52.9217 183.512 52.5607 182.717 52.2719 182.139C52.1275 181.85 52.0553 181.706 51.9831 181.489C51.9831 181.417 51.9831 181.344 51.9831 181.344C51.9831 181.344 52.0553 181.417 52.1275 181.561C52.1997 181.706 52.3441 181.922 52.4163 182.139C52.7051 182.717 53.1383 183.44 53.6437 184.452C54.6544 186.475 56.1706 189.438 57.9756 192.979C61.5855 200.205 66.5672 210.25 71.6933 221.523C74.2203 227.159 76.6029 232.579 78.6244 237.565C80.646 242.551 82.3788 247.032 83.6783 250.861C84.0393 251.801 84.3281 252.74 84.6169 253.607C84.9057 254.475 85.1945 255.269 85.4111 256.064C85.9165 257.582 86.3497 258.883 86.6385 260.039C86.9273 261.123 87.2161 261.918 87.3605 262.568C87.4327 262.857 87.5049 263.074 87.5771 263.218C87.6493 263.363 87.6493 263.435 87.6493 263.435Z" fill="#6F4439"/>
<path d="M95.5911 268.349C95.5911 268.349 95.6633 268.566 95.7355 268.927C95.8077 269.289 95.9521 269.867 96.1687 270.662C96.4575 272.179 96.8907 274.347 96.8185 277.093C96.8185 278.466 96.6741 279.983 96.2409 281.501C95.8077 283.019 94.9413 284.608 93.6417 285.909C91.0426 288.438 87.2161 290.245 83.1007 290.534C81.007 290.678 78.9132 290.389 77.1082 289.739C75.2311 289.016 73.6427 287.932 72.1987 286.921C69.3108 284.825 67.0004 282.513 65.1955 280.417C63.3905 278.394 62.1631 276.515 61.3689 275.214C61.0079 274.564 60.7191 274.058 60.5025 273.697C60.2859 273.335 60.2137 273.118 60.2137 273.118C60.2137 273.118 60.3581 273.263 60.5747 273.624C60.7913 273.986 61.0801 274.491 61.5133 275.142C62.3075 276.443 63.6071 278.177 65.4121 280.2C67.217 282.224 69.5274 284.464 72.4153 286.559C73.8593 287.571 75.4477 288.655 77.2526 289.305C79.0576 289.956 81.0792 290.245 83.1007 290.1C87.2161 289.811 90.8982 288.077 93.4252 285.62C94.7247 284.392 95.5189 282.874 95.9521 281.356C96.3853 279.839 96.5297 278.394 96.6019 277.021C96.6741 274.347 96.3131 272.179 96.0243 270.662C95.8799 269.939 95.8077 269.361 95.6633 268.927C95.5911 268.566 95.5189 268.349 95.5911 268.349Z" fill="#6F4439"/>
<path d="M320.8 307.9H181.4L199.4 210C200 206.5 203.1 204 206.6 204H331.9C336.5 204 339.9 208.2 339.1 212.7L320.8 307.9Z" fill="#C9BED1"/>
<path d="M181.4 307.9H128.5L128.7 307.7C133.4 304.2 139.1 302.2 145 302L182.8 300.9L181.4 307.9Z" fill="#C9BED1"/>
<path d="M273.8 254.2C273.8 257.9 270.8 260.9 267.1 260.9C263.4 260.9 260.4 257.9 260.4 254.2C260.4 250.5 263.4 247.5 267.1 247.5C270.7 247.4 273.8 250.4 273.8 254.2Z" fill="#AE9BBA"/>
<path d="M214.9 204.6C214.9 204.6 214.5 204.5 213.8 204.5C213.1 204.5 212 204.6 210.7 205.3C209.5 205.9 208.1 207 207 208.7C205.9 210.4 205.2 212.6 204.7 215C204.2 217.5 203.8 220.2 203.4 223.2C202.9 226.1 202.4 229.3 201.7 232.6C200.5 239.2 199 246.4 197.5 253.9C194.4 269 191.4 282.7 189.5 292.6C188.5 297.6 187.8 301.6 187.3 304.4C187.1 305.8 186.9 306.8 186.7 307.6C186.6 307.9 186.6 308.2 186.5 308.4C186.5 308.6 186.4 308.7 186.4 308.7C186.4 308.7 186.4 308.6 186.4 308.4C186.4 308.2 186.5 307.9 186.5 307.6C186.6 306.8 186.8 305.7 187 304.4C187.4 301.6 188.1 297.6 189 292.6C190.8 282.6 193.7 269 196.8 253.9C198.4 246.3 199.8 239.1 201.1 232.6C201.7 229.3 202.3 226.2 202.8 223.3C203.3 220.4 203.7 217.6 204.2 215.1C204.7 212.6 205.5 210.4 206.6 208.7C207.7 207 209.2 205.9 210.5 205.3C211.8 204.7 212.9 204.6 213.7 204.6C214.5 204.4 214.9 204.6 214.9 204.6Z" fill="#263238"/>
</svg>
