<?xml version="1.0" encoding="utf-8"?>
<!-- Generator: Adobe Illustrator 25.0.1, SVG Export Plug-In . SVG Version: 6.00 Build 0)  -->
<svg version="1.1" id="Camada_1" xmlns="http://www.w3.org/2000/svg" xmlns:xlink="http://www.w3.org/1999/xlink" x="0px" y="0px"
	 viewBox="0 0 241.6 100" style="enable-background:new 0 0 241.6 100;" xml:space="preserve">
<style type="text/css">
	.st0{fill:#FFFFFF;}
	.st1{fill:#AE9BBA;}
	.st2{fill:#A36986;}
</style>
<path class="st0" d="M55.1,18.3c1.9,1.4,3.9,2.7,5.6,4.4c1.7,1.7,3.1,3.7,3.8,5.9c0.3,1.2,0.5,2.4,0.9,3.5c0.9,2.7,3.3,4.7,5.9,6
	c1.3,0.6,2.8,1.1,3.4,2.4c0.8,1.5,0,3.4-1.2,4.7c-0.2,0.2-0.4,0.4-0.4,0.6C73,46.5,74,46.7,74.5,47c0.6,0.3,1,1,1,1.7
	c0,0.7-0.3,1.4-0.7,1.9c-0.1,0.1-0.2,0.3-0.2,0.4c0,0.3,0.3,0.4,0.6,0.5c0.8,0.4,1.2,1.3,1,2.2c0,0-1.3,1.2-1,2.5
	c0.4,1.3,1.4,1.9,1.1,4.2c-0.4,2.3-1.7,2.8-2.8,3.6c-1.1,0.7-8.6,0.2-11.5,2.9c-2.9,2.8-4.1,4.6-4.6,7.2c-0.4,2.6-2,6.3-2.8,8
	c-0.8,1.7-3.7,7.3-3.9,8.1c-0.3,0.8-2.3,5.9-0.7,9.7H6.6c0,0,15.3-17.9,17.6-19.4c2.3-1.5,8.5-7.6,8.2-11.5
	c-0.3-3.9-1.2-7.1,2.9-11.5l0.8-1.5c0,0-2.6-2.9-2-5.2c0.5-2.3,0.5-6.4,5.4-4.5c4.8,1.9,7.8-1.9,7.4-7c-0.4-5.1,3.5-6.4,4.8-13
	C53.1,19.9,55.1,18.3,55.1,18.3z"/>
<path class="st0" d="M55.1,18.4c3.9,2.7,8.1,5.7,9.4,10.5c0.3,1.1,0.4,2.3,0.9,3.4c0.3,0.9,0.8,1.7,1.5,2.5c1.3,1.6,3,2.7,4.8,3.5
	c0.9,0.4,1.9,0.8,2.6,1.6c0.8,0.9,0.8,2,0.5,3c-0.2,0.5-0.4,1-0.7,1.4c-0.3,0.4-0.8,0.8-0.9,1.2c-0.2,0.7,0.7,1,1.2,1.2
	c1.3,0.5,1.5,1.9,0.9,3c-0.2,0.3-0.6,0.7-0.6,1.1c0.1,0.4,0.5,0.5,0.8,0.7c0.4,0.3,0.7,0.8,0.8,1.3c0,0.2,0.1,0.5,0,0.6
	c0,0.1-0.2,0.2-0.2,0.2c-0.5,0.6-0.9,1.2-0.8,2c0,0.7,0.4,1.2,0.7,1.8c0.4,0.9,0.6,1.7,0.4,2.7c-0.1,0.9-0.5,1.8-1.2,2.5
	c-0.4,0.4-1,0.8-1.6,1.1c-0.4,0.2-0.8,0.2-1.2,0.3c-0.6,0.1-1.2,0.1-1.9,0.2c-1.6,0.1-3.2,0.3-4.7,0.7c-1.5,0.4-2.8,0.9-3.9,2
	c-1.4,1.4-2.8,2.9-3.7,4.7c-0.3,0.7-0.6,1.5-0.7,2.3c-0.2,1-0.4,1.9-0.7,2.8c-0.6,1.7-1.2,3.5-2,5.1c-1.2,2.5-2.5,4.9-3.7,7.5
	c-0.4,0.8-0.6,1.6-0.9,2.4c-0.5,1.7-0.8,3.5-0.7,5.2c0.1,0.9,0.2,1.8,0.6,2.7c0-0.1,0.1-0.1,0.1-0.2c-1.4,0-2.9,0-4.3,0
	c-3.5,0-6.9,0-10.4,0c-4.2,0-8.4,0-12.5,0c-3.6,0-7.3,0-10.9,0c-1.2,0-2.4,0-3.6,0c-0.4,0-0.8,0-1.1,0c-0.2,0-0.4-0.1-0.6,0
	c0,0-0.1,0-0.1,0c0,0.1,0.1,0.1,0.1,0.2c1.3-1.6,2.7-3.1,4-4.7c2.6-3,5.3-6,7.9-9c1.1-1.3,2.3-2.5,3.5-3.7c0.7-0.7,1.3-1.4,2.1-2
	c1.7-1.1,3.1-2.6,4.4-4.1c1.5-1.7,3.1-3.7,3.6-6c0.3-1,0.1-2.1,0-3.1c-0.1-1.2-0.2-2.3-0.1-3.5c0.1-1.3,0.5-2.6,1.2-3.8
	c0.4-0.7,0.9-1.4,1.5-2.1c0.3-0.4,0.5-0.6,0.8-1c0.2-0.3,0.3-0.6,0.5-0.9c0-0.1,0-0.1,0-0.2c-0.9-1.1-1.8-2.4-2-3.8
	c-0.1-0.8,0.1-1.5,0.2-2.3c0.1-0.7,0.3-1.3,0.5-2c0.2-0.6,0.6-1.2,1.1-1.6c0.7-0.4,1.5-0.4,2.3-0.2c1,0.2,2,0.7,3,0.8
	c0.8,0.1,1.6,0,2.4-0.3c1.6-0.7,2.5-2.1,2.9-3.7c0.3-0.9,0.4-1.9,0.3-2.9c0-1-0.1-1.9,0.1-2.9c0.4-1.7,1.3-3,2.2-4.5
	c1.1-1.8,1.9-3.7,2.4-5.7c0.5-2.2,1-4.3,2-6.3C54.1,19.8,54.5,19,55.1,18.4C55.1,18.4,55.2,18.3,55.1,18.4c0.2-0.1,0.1-0.4-0.1-0.3
	c-0.4,0.3-0.7,0.8-1,1.2c-0.9,1.5-1.5,3.2-2,4.9c-0.4,1.3-0.6,2.6-1,3.9c-0.3,1-0.8,2.1-1.3,3c-0.8,1.5-1.9,2.9-2.5,4.5
	c-0.3,0.8-0.5,1.6-0.5,2.5c-0.1,1.1,0.1,2.1,0,3.2c-0.2,1.8-1,3.8-2.6,4.7c-0.8,0.5-1.7,0.6-2.6,0.5c-1.1-0.1-2.1-0.6-3.2-0.9
	c-1.4-0.3-2.7,0.2-3.3,1.5c-0.3,0.6-0.4,1.2-0.6,1.9c-0.1,0.6-0.3,1.3-0.4,2c-0.2,1.7,0.9,3.4,1.8,4.7c0.1,0.1,0.2,0.2,0.3,0.3
	c0-0.1,0-0.1,0-0.2c-0.2,0.3-0.3,0.6-0.5,0.9c-0.1,0.2-0.2,0.3-0.3,0.5c-0.2,0.3-0.4,0.5-0.6,0.7c-0.9,1.1-1.7,2.3-2.2,3.7
	c-0.8,2.3-0.4,4.7-0.2,7c0.2,2.2-1.3,4.4-2.6,6.1c-1.4,1.8-3,3.5-4.8,5c-0.4,0.3-0.8,0.6-1.2,0.9c-0.4,0.3-0.7,0.7-1.1,1
	c-1.1,1.1-2.2,2.2-3.2,3.4c-2.7,3-5.3,5.9-8,9c-1.6,1.8-3.3,3.7-4.8,5.6c0,0-0.1,0.1-0.1,0.1c-0.1,0.1,0,0.2,0.1,0.2
	c1.4,0,2.9,0,4.3,0c3.5,0,6.9,0,10.4,0c4.2,0,8.4,0,12.5,0c3.6,0,7.3,0,10.9,0c1.2,0,2.4,0,3.6,0c0.6,0,1.2,0.1,1.7,0
	c0,0,0.1,0,0.1,0c0.1,0,0.2-0.1,0.1-0.2c-1.3-3.1-0.4-6.6,0.7-9.6c0.4-1,0.9-2,1.4-3c0.7-1.4,1.4-2.7,2-4.1c0.6-1.3,1.3-2.7,1.8-4
	c0.4-0.9,0.7-1.9,1-2.8c0.3-0.9,0.4-1.8,0.6-2.8c0.4-1.8,1.5-3.4,2.8-4.8c0.7-0.8,1.4-1.6,2.3-2.2c0.6-0.4,1.4-0.7,2.1-1
	c1.5-0.5,3.2-0.7,4.8-0.9c1.2-0.1,2.4-0.1,3.5-0.4c0.4-0.1,0.8-0.4,1.1-0.6c0.6-0.4,1.1-0.8,1.5-1.4c0.9-1.4,0.9-3.3,0.1-4.7
	c-0.4-0.7-0.8-1.5-0.6-2.3c0.1-0.4,0.3-0.7,0.6-1c0.1-0.1,0.3-0.2,0.3-0.4c0.2-0.3,0-0.9-0.1-1.2c-0.2-0.4-0.4-0.7-0.8-1
	c-0.1-0.1-0.5-0.2-0.6-0.4c-0.1-0.1,0-0.4,0.1-0.5c0.1-0.1,0.2-0.2,0.2-0.3c0.3-0.4,0.5-1,0.5-1.5c0-0.9-0.4-1.7-1.2-2
	c-0.4-0.2-0.9-0.2-1.1-0.6c-0.4-0.5,0.5-1.1,0.8-1.5c1.1-1.5,1.5-3.6,0.1-5c-0.7-0.7-1.6-1.1-2.5-1.5c-0.9-0.4-1.9-0.9-2.7-1.5
	c-1.8-1.3-3.1-3-3.7-5.1c-0.3-1.2-0.5-2.4-0.9-3.6c-0.4-1-0.9-1.9-1.4-2.8c-1.3-1.9-3-3.5-4.9-4.9c-0.9-0.7-1.9-1.4-2.9-2.1
	C55.1,18.1,54.9,18.3,55.1,18.4z"/>
<path class="st1" d="M39.8,52.2c0.2-0.4,0.4-0.8,0.5-1.3c0.1-0.4,0.2-0.9,0.1-1.3c-0.1-0.9-0.6-1.7-1.4-2.1
	c-0.4-0.2-0.8-0.2-1.2-0.1c-0.4,0.1-0.8,0.3-1.2,0.6c-0.4,0.2-0.7,0.6-0.8,0.9c-0.2,0.4-0.2,0.8-0.2,1.3c0,0.9,0.2,1.8,0.5,2.6
	c0.3,0.9,0.7,1.6,1.3,2.4c1.1,1.4,2.6,2.5,4.4,3.1c-1.8-0.4-3.4-1.5-4.6-2.9c-1.2-1.5-1.9-3.3-1.9-5.2c0-0.5,0.1-1,0.3-1.4
	c0.2-0.5,0.6-0.8,1-1.1c0.4-0.2,0.8-0.5,1.3-0.6c0.5-0.1,1,0,1.4,0.2c0.9,0.5,1.4,1.4,1.4,2.4C40.6,50.6,40.3,51.5,39.8,52.2z"/>
<path class="st1" d="M41.6,51.2c-0.2,0.2-0.3,0.5-0.1,0.7c0.1,0.1,0.2,0.2,0.3,0.2c0.1,0.1,0.3,0,0.4,0.1c0.1,0,0.2,0.1,0.2,0.1
	c0.1,0.1,0.1,0.2,0.1,0.2c0,0.2,0,0.3,0.1,0.4c0.1,0.2,0.3,0.3,0.5,0.3c0.3,0,0.5,0,0.8,0.1c0.3,0.1,0.6,0.3,0.8,0.6
	c0.1,0.1,0.1,0.3,0.1,0.5c0,0.2-0.1,0.4-0.2,0.5c-0.2,0.3-0.5,0.4-0.8,0.4c-0.3,0.1-0.6,0.1-0.8,0.1c-0.3,0-0.6,0-0.9-0.1
	c-0.1-0.1-0.3-0.1-0.4-0.2c-0.1-0.1-0.2-0.2-0.3-0.4c-0.2-0.2-0.3-0.5-0.4-0.8c-0.1-0.3-0.2-0.6-0.1-0.9c0-0.3,0.1-0.6,0.2-0.8
	c0.2-0.5,0.5-1,0.8-1.4c-0.3,0.5-0.5,1-0.6,1.5c-0.1,0.5-0.1,1,0.1,1.5c0.1,0.2,0.3,0.5,0.4,0.7c0.1,0.2,0.3,0.4,0.6,0.4
	c0.4,0.1,1,0,1.5-0.1c0.3-0.1,0.5-0.2,0.6-0.3c0.1-0.1,0.1-0.2,0.1-0.3c0-0.1,0-0.2-0.1-0.3c-0.1-0.2-0.3-0.3-0.5-0.4
	c-0.2-0.1-0.5-0.1-0.8-0.1c-0.1,0-0.3-0.1-0.4-0.2c-0.1-0.1-0.3-0.2-0.3-0.4c0-0.2,0-0.3-0.1-0.4c0-0.1-0.1-0.2-0.2-0.2
	c-0.1-0.1-0.3-0.1-0.4-0.1c-0.1-0.1-0.3-0.2-0.3-0.3C41.2,51.7,41.3,51.4,41.6,51.2z"/>
<path class="st1" d="M46.2,55.8c0.3-0.1,0.6-0.1,0.9,0c0.1,0,0.3,0.1,0.4,0.2c0.1,0.1,0.2,0.2,0.3,0.4c0.1,0.3,0.2,0.6,0.2,0.9
	c0,0.3-0.1,0.6-0.3,0.9c-0.3,0.6-0.8,1-1.3,1.2s-1.1,0.3-1.7,0.3c0.6-0.2,1.1-0.3,1.6-0.6c0.5-0.3,0.9-0.6,1.1-1.1
	c0.1-0.2,0.2-0.5,0.2-0.7c0-0.2,0-0.5-0.1-0.7c-0.1-0.2-0.3-0.4-0.5-0.5C46.7,55.9,46.5,55.8,46.2,55.8z"/>
<path class="st1" d="M64.2,28.2c0,0.4,0.1,0.7,0.1,1.1c0,0.2,0,0.4-0.1,0.6c-0.1,0.1-0.2,0.2-0.3,0.2c-0.1,0-0.2,0.1-0.3,0.1
	c-0.8,0.2-1.5,0.2-2.2,0.3c-0.7,0.2-1.4,0.5-2,0.9c-0.6,0.4-1.1,0.9-1.5,1.5l-0.8,1.2l0.4-1.4c0.2-0.7,0.5-1.4,0.8-2.1
	c0.3-0.7,0.8-1.3,1.3-1.8c0.3-0.2,0.6-0.5,1-0.6c0.4-0.2,0.7-0.3,1.1-0.3c0.8-0.1,1.5-0.1,2.3-0.1c-0.8,0.1-1.5,0.1-2.2,0.2
	c-0.7,0.2-1.4,0.5-1.9,1c-0.5,0.5-0.9,1.1-1.2,1.8c-0.3,0.7-0.5,1.4-0.8,2.1l-0.4-0.2c0.4-0.6,1-1.2,1.7-1.6
	c0.6-0.4,1.4-0.7,2.1-0.9c0.8-0.2,1.5-0.1,2.3-0.2c0.2,0,0.4-0.1,0.4-0.2c0.1-0.1,0.1-0.3,0.1-0.5C64.2,29,64.2,28.6,64.2,28.2z"/>
<path class="st1" d="M63.3,32.2c0.3,0.4,0.5,0.8,0.7,1.2c0.1,0.2,0.2,0.4,0.3,0.6c0.1,0.2,0.2,0.4,0.3,0.7c0.2,0.5,0.3,0.9,0.3,1.4
	c0.1,0.5,0,1-0.2,1.4c0-0.5,0-0.9-0.1-1.4c-0.1-0.2-0.1-0.4-0.2-0.7c-0.1-0.2-0.1-0.4-0.2-0.7c-0.2-0.4-0.3-0.9-0.5-1.3
	C63.6,33.1,63.4,32.7,63.3,32.2z"/>
<path class="st1" d="M61,38.1c0.3,0,0.7,0,1,0c0.3,0,0.7-0.1,1-0.1c0.3-0.1,0.6-0.2,0.9-0.3c0.3-0.1,0.6-0.2,0.8-0.5l0.1-0.1l0.1,0
	c0.4,0.1,0.8,0.1,1.1,0c0.4,0,0.8-0.1,1.1-0.2l1.6-0.6l-1.5,0.9c-0.2,0.1-0.5,0.3-0.7,0.4c-0.2,0.1-0.5,0.3-0.7,0.4
	c-0.3,0.1-0.5,0.2-0.8,0.3c-0.3,0.1-0.6,0.1-0.9,0.1c-0.6,0-1.1,0-1.7-0.1c-0.6-0.1-1.1-0.2-1.6-0.4v0L61,38.1L60.8,38v0
	c0.5,0.2,1.1,0.2,1.6,0.2c0.6,0,1.1,0,1.6-0.1c0.3,0,0.5-0.1,0.8-0.1c0.3-0.1,0.5-0.2,0.7-0.3c0.5-0.3,0.9-0.6,1.4-0.9l0.2,0.4
	c-0.4,0.1-0.8,0.2-1.2,0.2c-0.4,0-0.8,0-1.2-0.1l0.2-0.1c-0.3,0.3-0.6,0.4-0.9,0.5c-0.3,0.1-0.7,0.2-1,0.2
	C62.3,38.3,61.6,38.3,61,38.1z"/>
<path class="st1" d="M71.8,44.7c0.2-0.4,0.5-0.8,0.8-1.2c0.2-0.2,0.3-0.3,0.5-0.5c0.1-0.1,0.3-0.2,0.4-0.2c0.2,0,0.4,0.1,0.5,0.2
	c0.1,0.1,0.1,0.2,0.1,0.3c0,0.1-0.1,0.2-0.1,0.2c-0.1,0.1-0.1,0.1-0.2,0.1c-0.1,0-0.1,0.1-0.2,0.1c-0.2,0.1-0.4,0.2-0.7,0.3
	C72.5,44.4,72.1,44.5,71.8,44.7c0.2-0.3,0.7-0.6,1.1-0.8c0.2-0.1,0.4-0.2,0.6-0.4c0.1-0.1,0.2-0.1,0.2-0.2c0,0,0-0.1,0-0.1
	c0,0,0,0,0,0c0,0-0.1-0.1-0.1-0.1c-0.1,0-0.1,0-0.2,0.1c-0.2,0.1-0.4,0.3-0.5,0.4C72.4,44,72.1,44.4,71.8,44.7z"/>
<path class="st1" d="M69.3,43c0,0.4,0,0.7,0.1,1s0.2,0.6,0.3,0.9c0.2,0.2,0.4,0.5,0.7,0.6c0.3,0.1,0.6,0.2,0.9,0.1
	c-0.3,0.2-0.7,0.3-1.1,0.2c-0.4-0.1-0.7-0.3-0.9-0.7C69.1,44.8,69,44.4,69,44C69.1,43.6,69.1,43.3,69.3,43z"/>
<path class="st1" d="M74.7,50.4c-0.4,0.2-0.7,0.6-1,0.9c-0.3,0.3-0.6,0.7-0.9,1l-0.3-0.3c0.2-0.2,0.4-0.3,0.6-0.4
	c0.2-0.1,0.4-0.2,0.6-0.3c0.1-0.1,0.2-0.1,0.3-0.1c0.1,0,0.2-0.1,0.3-0.1c0.2-0.1,0.4-0.2,0.5-0.4c0,0.1,0,0.1,0,0.2
	c0,0.1-0.1,0.1-0.1,0.2c-0.1,0.1-0.2,0.2-0.3,0.2c-0.2,0.1-0.4,0.2-0.6,0.4c-0.4,0.2-0.8,0.5-1.1,0.8l-0.3-0.3c0.3-0.4,0.6-0.7,1-1
	C73.8,50.8,74.2,50.5,74.7,50.4z"/>
<path class="st1" d="M74.9,47.3c-0.2,0.3-0.3,0.6-0.5,0.9l-0.5,0.9l-0.5,0.9c-0.2,0.3-0.3,0.6-0.5,0.9c0-0.4,0.1-0.7,0.2-1
	c0.1-0.3,0.3-0.6,0.4-0.9c0.2-0.3,0.4-0.6,0.6-0.9C74.4,47.8,74.6,47.5,74.9,47.3z"/>
<path class="st1" d="M73.8,53.3c0.2-0.1,0.4-0.1,0.5-0.1c0.2,0,0.3,0,0.5,0c0.2,0,0.3,0.1,0.5,0.1c0.2,0.1,0.3,0.1,0.5,0.2
	c-0.2,0.1-0.3,0.1-0.5,0.1c-0.2,0-0.3,0-0.5,0c-0.2,0-0.3-0.1-0.5-0.1C74.1,53.5,73.9,53.5,73.8,53.3z"/>
<path class="st0" d="M55.1,20.9c0-0.6,0-1.2,0-1.8c0-0.6-0.1-1.2-0.2-1.7c-0.1-0.6-0.3-1.1-0.6-1.6c-0.3-0.5-0.6-1-1-1.3
	c-0.4-0.4-0.9-0.7-1.4-0.9c-0.5-0.2-1-0.3-1.6-0.3c-0.3,0-0.5,0.1-0.8,0.2c-0.3,0.1-0.6,0.2-0.9,0.3c-0.1,0-0.2,0-0.3,0
	c-0.1,0-0.2,0-0.3,0c-0.2,0-0.4-0.1-0.6-0.2c-0.2-0.1-0.4-0.3-0.5-0.5c-0.1-0.2-0.2-0.5-0.1-0.8l0.1-0.4h0.4c0.1,0,0.1,0,0.2-0.1
	c0.1-0.1,0.1-0.2,0.2-0.3c0-0.1,0.1-0.2,0-0.3c0-0.1-0.1-0.1-0.1-0.2c-0.1-0.1-0.4-0.2-0.8-0.3c-0.2,0-0.4-0.1-0.6-0.1
	c-0.2-0.1-0.5-0.1-0.7-0.3c-0.2-0.2-0.4-0.4-0.5-0.7C45,9.4,44.9,9.2,44.9,9c0-0.2-0.1-0.4-0.1-0.6c0-0.2-0.1-0.4-0.1-0.5l-0.2-0.5
	l-0.2-0.5c-0.1-0.2-0.1-0.3-0.2-0.5c-0.1-0.2-0.2-0.3-0.3-0.5c-0.7-1.3-1.7-2.5-2.8-3.5C40.3,1.8,39.7,1.4,39,1
	c-0.7-0.4-1.4-0.7-2.1-1c0.8,0.1,1.5,0.4,2.3,0.7c0.2,0.1,0.4,0.2,0.5,0.2C39.8,1,39.9,1,40,1l0.3,0.1c0.2,0.1,0.4,0.2,0.5,0.3
	l0.5,0.3c0.2,0.1,0.3,0.2,0.5,0.4L42,2.4l0.2,0.2c0.1,0.1,0.3,0.3,0.4,0.4l0.4,0.4c0.1,0.1,0.3,0.3,0.4,0.5c0.1,0.2,0.3,0.3,0.4,0.5
	c0.1,0.2,0.2,0.3,0.4,0.5l0.3,0.5c0.1,0.2,0.2,0.4,0.3,0.5c0.1,0.2,0.2,0.4,0.3,0.6L45.3,7l0.2,0.6c0.1,0.2,0.1,0.4,0.2,0.6
	c0.1,0.2,0.1,0.4,0.1,0.6c0,0.2,0.1,0.3,0.1,0.5s0.1,0.2,0.2,0.3c0.2,0.1,0.5,0.2,0.9,0.2c0.2,0,0.4,0.1,0.6,0.1
	c0.2,0.1,0.5,0.2,0.7,0.4c0.2,0.2,0.4,0.5,0.4,0.8c0,0.3,0,0.6-0.1,0.8c-0.1,0.2-0.3,0.5-0.5,0.7c-0.2,0.2-0.6,0.3-0.9,0.3l0.5-0.4
	c0,0,0,0,0,0.1c0,0,0.1,0.1,0.1,0.1c0.1,0,0.2,0.1,0.2,0.1c0,0,0.1,0,0.1,0s0.1,0,0.2,0c0.2,0,0.5-0.1,0.8-0.2
	c0.3-0.1,0.7-0.2,1-0.2c0.7,0,1.4,0.1,1.9,0.4c0.6,0.3,1.1,0.7,1.6,1.1c0.4,0.5,0.8,1,1,1.6c0.2,0.6,0.4,1.2,0.5,1.8
	C55.5,18.5,55.4,19.8,55.1,20.9z"/>
<path class="st0" d="M56.1,19.5c0.3-0.4,0.4-0.8,0.4-1.3s0.1-0.9,0-1.3c0-0.9-0.1-1.8-0.3-2.6c-0.1-0.2-0.1-0.4-0.2-0.6
	c-0.1-0.2-0.2-0.4-0.3-0.6c-0.2-0.4-0.4-0.7-0.8-1c-0.3-0.3-0.7-0.5-1.1-0.7c-0.4-0.2-0.8-0.3-1.3-0.3c0.4-0.2,0.9-0.3,1.4-0.2
	c0.5,0.1,1,0.3,1.4,0.6c0.4,0.3,0.8,0.7,1.1,1.1c0.3,0.4,0.5,0.9,0.6,1.4c0.3,1,0.3,2,0.1,2.9c-0.1,0.5-0.2,1-0.4,1.4
	C56.8,18.8,56.5,19.3,56.1,19.5z"/>
<path class="st0" d="M45.7,8.4c0.4-0.4,1-0.6,1.5-0.5c0.6,0,1.1,0.2,1.6,0.6c0.5,0.4,0.8,0.9,0.9,1.4c0.1,0.6,0.1,1.1-0.2,1.6
	c-0.1-0.5-0.3-0.9-0.5-1.3c-0.2-0.4-0.5-0.7-0.8-0.9c-0.3-0.2-0.7-0.4-1.1-0.6C46.7,8.5,46.2,8.4,45.7,8.4z"/>
<path class="st0" d="M45,6.7c0.3-0.3,0.6-0.5,1-0.6C46.4,6,46.8,6,47.2,6c0.4,0.1,0.8,0.2,1.1,0.4c0.3,0.2,0.6,0.5,0.8,0.9
	c-0.4,0-0.7-0.1-1.1-0.1L47,7l-0.9-0.1C45.8,6.8,45.4,6.8,45,6.7z"/>
<path class="st0" d="M0,99c1.8-2.3,3.7-4.5,5.6-6.6c1.9-2.2,3.9-4.3,5.8-6.4c2-2.1,4-4.2,6.1-6.2l0.8-0.8l0.4-0.4
	c0.1-0.1,0.3-0.2,0.4-0.4c0.4-0.5,0.8-1.1,1.1-1.7c0.3-0.6,0.5-1.3,0.6-1.9c0.1-0.7,0.1-1.3,0-2l-0.2-1.2l1,0.7
	c0.8,0.6,1.8,0.9,2.8,0.9c1,0,2-0.3,2.8-0.9c0.8-0.6,1.3-1.5,1.5-2.5c0.1-0.5,0.1-1,0.1-1.4c0-0.1,0-0.2-0.1-0.4l-0.1-0.4
	c0-0.1-0.1-0.3-0.1-0.4c0-0.1-0.1-0.3-0.1-0.4c-0.2-1.1-0.1-2.2,0.1-3.3c0.2-1.1,0.6-2.1,1.2-3.1c0.3-0.5,0.6-0.9,0.9-1.4
	c0.4-0.4,0.8-0.8,1.2-1.2c0.8-0.7,1.8-1.3,2.9-1.7c-1.9,1.1-3.4,2.7-4.4,4.6c-0.5,0.9-0.8,1.9-0.9,2.9c-0.2,1-0.1,2,0,3
	c0,0.1,0.1,0.3,0.1,0.4c0,0.1,0.1,0.3,0.1,0.4l0.1,0.4c0,0.1,0.1,0.3,0.1,0.4c0.1,0.6,0.1,1.2-0.1,1.8c-0.2,1.2-0.9,2.2-1.8,3
	c-0.5,0.4-1,0.7-1.6,0.9c-0.6,0.2-1.2,0.3-1.8,0.3c-1.2,0-2.5-0.4-3.4-1.1l0.8-0.4c0.1,0.7,0.1,1.5,0,2.2c-0.1,0.7-0.4,1.5-0.7,2.1
	c-0.3,0.7-0.8,1.3-1.3,1.9c-0.1,0.1-0.3,0.3-0.4,0.4l-0.4,0.4l-0.8,0.7c-2.1,2-4.2,4-6.2,6.1c-2.1,2-4.1,4.1-6,6.2
	C3.9,94.7,1.9,96.9,0,99z"/>
<path class="st2" d="M45,72.4c3.4-1.1,5.3-4.7,4.2-8c-1.1-3.4-4.7-5.3-8.1-4.2c-3.4,1.1-5.3,4.7-4.2,8C38,71.6,41.6,73.4,45,72.4z"
	/>
<path class="st0" d="M42.3,62.8L42.3,62.8c0.2,0,0.3,0,0.3,0.1v0.2c0,0.1-0.1,0.1-0.2,0.1h0c-0.3,0-0.6,0.1-0.7,0.2
	c-0.1,0.1-0.2,0.3-0.2,0.6v1.2c0,0.5-0.3,0.8-0.8,0.9c0.5,0.1,0.8,0.4,0.8,0.9v1.2c0,0.3,0.1,0.5,0.2,0.6c0.1,0.1,0.4,0.2,0.7,0.2h0
	c0.1,0,0.2,0,0.2,0.1v0.2c0,0.1-0.1,0.1-0.2,0.1h-0.1c-1.1,0-1.7-0.5-1.7-1.4v-1.1c0-0.4-0.2-0.6-0.7-0.6c-0.1,0-0.2,0-0.2-0.1V66
	c0-0.1,0.1-0.1,0.2-0.1c0.5,0,0.7-0.2,0.7-0.6v-1.1C40.7,63.2,41.2,62.8,42.3,62.8z"/>
<path class="st0" d="M45.7,64.1v1.1c0,0.4,0.2,0.6,0.7,0.6c0.1,0,0.2,0,0.2,0.1v0.3c0,0.1-0.1,0.1-0.2,0.1c-0.5,0-0.7,0.2-0.7,0.6
	v1.1c0,0.9-0.6,1.4-1.7,1.4H44c-0.1,0-0.2,0-0.2-0.1v-0.2c0-0.1,0.1-0.1,0.2-0.1h0c0.3,0,0.5-0.1,0.7-0.2c0.1-0.1,0.2-0.3,0.2-0.6
	v-1.2c0-0.5,0.3-0.8,0.8-0.9c-0.5-0.1-0.8-0.4-0.8-0.9v-1.2c0-0.3-0.1-0.5-0.2-0.6c-0.1-0.1-0.3-0.2-0.7-0.2h0c-0.1,0-0.2,0-0.2-0.1
	v-0.2c0-0.1,0.1-0.1,0.2-0.1H44C45.1,62.8,45.7,63.2,45.7,64.1z"/>
<path class="st2" d="M41.6,58.9c0.1-0.8,0.8-1.4,1.6-1.3c0.8,0.1,1.4,0.8,1.3,1.6c-0.1,0.8-0.8,1.4-1.6,1.3
	C42.1,60.4,41.5,59.7,41.6,58.9z"/>
<path class="st0" d="M111.2,60h-7.9c-0.2,0-0.3-0.1-0.3-0.3V44.3c0-0.2,0.1-0.4,0.3-0.4h7.9c0.2,0,0.3,0.1,0.3,0.4v0.9
	c0,0.2-0.1,0.4-0.3,0.4h-6.1c-0.2,0-0.2,0.1-0.2,0.2v5c0,0.2,0.1,0.2,0.2,0.2h5.3c0.2,0,0.3,0.1,0.3,0.3v0.9c0,0.2-0.1,0.3-0.3,0.3
	h-5.3c-0.2,0-0.2,0.1-0.2,0.2v5.3c0,0.2,0.1,0.2,0.2,0.2h6.1c0.2,0,0.3,0.1,0.3,0.3v0.9C111.5,59.9,111.4,60,111.2,60z M116.2,60
	h-1.1c-0.2,0-0.3-0.1-0.3-0.3V47.6c0-0.2,0.1-0.3,0.3-0.3h1.1c0.2,0,0.3,0.1,0.3,0.3v1h0.1c0.5-0.9,1.3-1.3,2.6-1.3h0.9
	c1.5,0,2.5,0.6,3.1,1.7c0.3-0.5,0.7-1,1.2-1.2c0.6-0.3,1.2-0.5,1.8-0.5h0.9c1.1,0,2,0.3,2.6,1c0.6,0.7,1,1.6,1,2.7v8.7
	c0,0.2-0.1,0.3-0.4,0.3h-1.1c-0.2,0-0.4-0.1-0.4-0.3V51c0-1.5-0.7-2.2-2.1-2.2h-0.8c-0.8,0-1.3,0.2-1.8,0.7c-0.4,0.4-0.6,1-0.6,1.7
	v8.4c0,0.2-0.1,0.3-0.3,0.3h-1.1c-0.2,0-0.3-0.1-0.3-0.3V51c0-1.5-0.7-2.2-2.1-2.2h-0.9c-0.8,0-1.3,0.2-1.7,0.6
	c-0.4,0.4-0.6,1-0.6,1.7v8.5C116.6,59.9,116.4,60,116.2,60z M135.6,63.7h-1.1c-0.2,0-0.4-0.1-0.4-0.4V47.6c0-0.2,0.1-0.3,0.4-0.3
	h1.1c0.2,0,0.3,0.1,0.3,0.3v1h0.1c0.4-0.9,1.3-1.3,2.6-1.3h1.5c1.1,0,2,0.3,2.6,1c0.6,0.7,0.9,1.6,0.9,2.7v5.3
	c0,1.2-0.3,2.1-0.9,2.7c-0.6,0.6-1.5,1-2.6,1h-1.5c-1.3,0-2.1-0.4-2.6-1.3H136v4.6C136,63.5,135.9,63.7,135.6,63.7z M138.3,58.4h1.5
	c1.4,0,2.1-0.7,2.1-2.2V51c0-1.5-0.7-2.2-2.1-2.2h-1.5c-0.8,0-1.3,0.2-1.7,0.6c-0.4,0.4-0.6,1-0.6,1.7v4.9c0,0.7,0.2,1.3,0.6,1.7
	C137,58.2,137.6,58.4,138.3,58.4z M148.4,60h-1.1c-0.2,0-0.4-0.1-0.4-0.3V47.6c0-0.2,0.1-0.3,0.4-0.3h1.1c0.2,0,0.3,0.1,0.3,0.3v1
	h0.1c0.2-0.4,0.5-0.7,0.9-0.9c0.5-0.3,1-0.4,1.6-0.4h1c0.2,0,0.3,0.1,0.3,0.3v0.9c0,0.1,0,0.2-0.1,0.3c-0.1,0-0.1,0.1-0.2,0h-1.4
	c-0.8,0-1.3,0.2-1.7,0.7c-0.4,0.4-0.6,1.1-0.6,1.8v8.3C148.7,59.9,148.6,60,148.4,60z M163.7,60h-5.3c-1.1,0-2.1-0.3-2.7-1
	c-0.6-0.7-1-1.6-1-2.7V51c0-1.2,0.3-2.1,1-2.7c0.7-0.6,1.6-1,2.7-1h2.1c1.1,0,2,0.3,2.7,1c0.6,0.7,1,1.6,1,2.7v3.2
	c0,0.2-0.1,0.4-0.3,0.4h-7.1c-0.2,0-0.2,0.1-0.2,0.2v1.5c0,1.5,0.7,2.2,2.1,2.2h5.1c0.2,0,0.3,0.1,0.3,0.4v0.9
	C164.1,59.9,164,60,163.7,60z M156.8,53.2h5.4c0.2,0,0.2-0.1,0.2-0.2V51c0-1.4-0.7-2.2-2.1-2.2h-1.7c-1.4,0-2.1,0.7-2.1,2.2v1.9
	C156.5,53.1,156.6,53.2,156.8,53.2z M172.1,59.3h-1.4c-1.1,0-2-0.3-2.7-1c-0.6-0.6-0.9-1.6-0.9-2.7V51c0-1.2,0.3-2.1,1-2.7
	c0.7-0.6,1.6-1,2.7-1h5.4c0.2,0,0.4,0.1,0.4,0.3V60c0,1.2-0.3,2-1,2.7c-0.7,0.7-1.6,1-2.7,1h-4.6c-0.2,0-0.4-0.1-0.4-0.4v-0.9
	c0-0.2,0.1-0.3,0.4-0.3h4.4c1.4,0,2.1-0.7,2.1-2.2V58h-0.1C174.2,58.9,173.4,59.3,172.1,59.3z M174.8,55.4v-6.3
	c0-0.2-0.1-0.2-0.2-0.2h-3.5c-1.4,0-2.1,0.7-2.1,2.2v4.5c0,1.5,0.7,2.2,2.1,2.2h1.4c0.8,0,1.3-0.2,1.7-0.6
	C174.6,56.7,174.8,56.2,174.8,55.4z M184.8,60h-1.3c-1.2,0-2.1-0.3-2.7-1c-0.6-0.7-1-1.6-1-2.7V51c0-1.2,0.3-2.1,1-2.7
	c0.7-0.6,1.6-1,2.7-1h5.4c0.2,0,0.3,0.1,0.3,0.3v12.1c0,0.2-0.1,0.3-0.3,0.3h-1.1c-0.2,0-0.4-0.1-0.4-0.3v-1h-0.1
	C186.9,59.6,186.1,60,184.8,60z M187.4,56.1v-7c0-0.2-0.1-0.2-0.2-0.2h-3.5c-1.4,0-2.1,0.7-2.1,2.2v5.2c0,1.5,0.7,2.2,2.1,2.2h1.4
	c0.8,0,1.3-0.2,1.7-0.6C187.2,57.4,187.4,56.8,187.4,56.1z M201.2,60h-7.8c-0.2,0-0.4-0.1-0.4-0.3V44.3c0-0.2,0.1-0.4,0.4-0.4h7.8
	c0.2,0,0.4,0.1,0.4,0.4v0.9c0,0.2-0.1,0.4-0.4,0.4H195c-0.2,0-0.2,0.1-0.2,0.2v5c0,0.2,0.1,0.2,0.2,0.2h5.4c0.2,0,0.4,0.1,0.4,0.3
	v0.9c0,0.2-0.1,0.3-0.4,0.3H195c-0.2,0-0.2,0.1-0.2,0.2v5.3c0,0.2,0.1,0.2,0.2,0.2h6.1c0.2,0,0.4,0.1,0.4,0.3v0.9
	C201.5,59.9,201.4,60,201.2,60z M206.3,60h-1.1c-0.2,0-0.3-0.1-0.3-0.3V42.8c0-0.2,0.1-0.4,0.3-0.4h1.1c0.2,0,0.4,0.1,0.4,0.4v16.9
	C206.7,59.9,206.6,60,206.3,60z M215,60h-1.3c-1.2,0-2.1-0.3-2.7-1c-0.6-0.7-1-1.6-1-2.7V51c0-1.2,0.3-2.1,1-2.7
	c0.7-0.6,1.6-1,2.7-1h5.4c0.2,0,0.4,0.1,0.4,0.3v12.1c0,0.2-0.1,0.3-0.4,0.3H218c-0.2,0-0.3-0.1-0.3-0.3v-1h-0.1
	C217.1,59.6,216.3,60,215,60z M217.6,56.1v-7c0-0.2-0.1-0.2-0.2-0.2h-3.5c-1.4,0-2.1,0.7-2.1,2.2v5.2c0,1.5,0.7,2.2,2.1,2.2h1.4
	c0.8,0,1.3-0.2,1.7-0.6C217.4,57.4,217.6,56.8,217.6,56.1z M227.2,60h-4.5c-0.2,0-0.3-0.1-0.3-0.3v-0.9c0-0.2,0.1-0.3,0.3-0.3h4.2
	c1.3,0,1.9-0.5,1.9-1.5v-0.5c0-0.9-0.4-1.5-1.3-1.8l-2.9-1.2c-0.8-0.4-1.5-0.8-1.8-1.2c-0.4-0.5-0.6-1.1-0.6-1.9
	c0-2,1.1-3.1,3.4-3.1h4.1c0.2,0,0.3,0.1,0.3,0.3v0.9c0,0.2-0.1,0.3-0.3,0.3H226c-0.6,0-1.1,0.1-1.4,0.4c-0.3,0.2-0.4,0.5-0.4,0.9
	v0.4c0,0.7,0.5,1.2,1.4,1.6l2.9,1.3c0.9,0.3,1.4,0.8,1.8,1.3c0.3,0.6,0.5,1.3,0.5,2.3C230.8,59,229.6,60,227.2,60z"/>
<path class="st0" d="M239.2,43.7V48c0,1.6,0.7,2.5,2,2.5c0.3,0,0.5,0.2,0.5,0.5v1.3c0,0.3-0.2,0.5-0.5,0.5c-1.3,0-2,0.8-2,2.4v4.3
	c0,3.5-1.4,5.2-4.3,5.2h-0.2c-0.3,0-0.5-0.2-0.5-0.5v-0.9c0-0.3,0.2-0.5,0.5-0.5h0.1c0.8,0,1.4-0.2,1.8-0.7c0.4-0.5,0.5-1.3,0.5-2.3
	v-4.7c0-1.9,0.7-3,2-3.4c-1.3-0.4-2-1.6-2-3.4v-4.7c0-1-0.2-1.8-0.5-2.3c-0.3-0.5-0.9-0.7-1.8-0.7h-0.1c-0.3,0-0.5-0.2-0.5-0.5V39
	c0-0.3,0.2-0.5,0.5-0.5h0.2C237.7,38.5,239.2,40.2,239.2,43.7z"/>
<path class="st0" d="M96.9,38.5h0.2c0.3,0,0.5,0.2,0.5,0.5v0.9c0,0.3-0.2,0.5-0.5,0.5H97c-0.9,0-1.5,0.2-1.8,0.7
	c-0.3,0.5-0.5,1.3-0.5,2.3v4.7c0,1.8-0.7,3-2,3.4c1.3,0.4,2,1.5,2,3.4v4.7c0,1,0.2,1.8,0.5,2.3c0.3,0.5,0.9,0.7,1.8,0.7h0.1
	c0.3,0,0.5,0.2,0.5,0.5v0.9c0,0.3-0.2,0.5-0.5,0.5h-0.2c-2.9,0-4.3-1.7-4.3-5.2v-4.3c0-1.6-0.7-2.4-2-2.4c-0.3,0-0.5-0.2-0.5-0.5
	v-1.3c0-0.3,0.2-0.5,0.5-0.5c1.3,0,2-0.8,2-2.5v-4.3C92.6,40.2,94.1,38.5,96.9,38.5z"/>
</svg>
